<?xml version="1.0" encoding="utf-8"?>
<svg xmlns="http://www.w3.org/2000/svg" xmlns:xlink="http://www.w3.org/1999/xlink" width="600" height="400" viewBox="0 0 2400 1600">
<defs>
  <clipPath id="clip830">
    <rect x="0" y="0" width="2400" height="1600"/>
  </clipPath>
</defs>
<path clip-path="url(#clip830)" d="M0 1600 L2400 1600 L2400 0 L0 0  Z" fill="#ffffff" fill-rule="evenodd" fill-opacity="1"/>
<defs>
  <clipPath id="clip831">
    <rect x="219" y="47" width="2134" height="1377"/>
  </clipPath>
</defs>
<path clip-path="url(#clip830)" d="M219.866 1423.18 L2352.76 1423.18 L2352.76 47.2441 L219.866 47.2441  Z" fill="#ffffff" fill-rule="evenodd" fill-opacity="1"/>
<polyline clip-path="url(#clip831)" style="stroke:#000000; stroke-linecap:round; stroke-linejoin:round; stroke-width:2; stroke-opacity:0.1; fill:none" points="280.231,1423.18 280.231,47.2441 "/>
<polyline clip-path="url(#clip831)" style="stroke:#000000; stroke-linecap:round; stroke-linejoin:round; stroke-width:2; stroke-opacity:0.1; fill:none" points="615.591,1423.18 615.591,47.2441 "/>
<polyline clip-path="url(#clip831)" style="stroke:#000000; stroke-linecap:round; stroke-linejoin:round; stroke-width:2; stroke-opacity:0.1; fill:none" points="950.951,1423.18 950.951,47.2441 "/>
<polyline clip-path="url(#clip831)" style="stroke:#000000; stroke-linecap:round; stroke-linejoin:round; stroke-width:2; stroke-opacity:0.1; fill:none" points="1286.31,1423.18 1286.31,47.2441 "/>
<polyline clip-path="url(#clip831)" style="stroke:#000000; stroke-linecap:round; stroke-linejoin:round; stroke-width:2; stroke-opacity:0.1; fill:none" points="1621.67,1423.18 1621.67,47.2441 "/>
<polyline clip-path="url(#clip831)" style="stroke:#000000; stroke-linecap:round; stroke-linejoin:round; stroke-width:2; stroke-opacity:0.1; fill:none" points="1957.03,1423.18 1957.03,47.2441 "/>
<polyline clip-path="url(#clip831)" style="stroke:#000000; stroke-linecap:round; stroke-linejoin:round; stroke-width:2; stroke-opacity:0.1; fill:none" points="2292.39,1423.18 2292.39,47.2441 "/>
<polyline clip-path="url(#clip831)" style="stroke:#000000; stroke-linecap:round; stroke-linejoin:round; stroke-width:2; stroke-opacity:0.1; fill:none" points="219.866,1384.24 2352.76,1384.24 "/>
<polyline clip-path="url(#clip831)" style="stroke:#000000; stroke-linecap:round; stroke-linejoin:round; stroke-width:2; stroke-opacity:0.1; fill:none" points="219.866,1010.63 2352.76,1010.63 "/>
<polyline clip-path="url(#clip831)" style="stroke:#000000; stroke-linecap:round; stroke-linejoin:round; stroke-width:2; stroke-opacity:0.1; fill:none" points="219.866,637.016 2352.76,637.016 "/>
<polyline clip-path="url(#clip831)" style="stroke:#000000; stroke-linecap:round; stroke-linejoin:round; stroke-width:2; stroke-opacity:0.1; fill:none" points="219.866,263.404 2352.76,263.404 "/>
<polyline clip-path="url(#clip830)" style="stroke:#000000; stroke-linecap:round; stroke-linejoin:round; stroke-width:4; stroke-opacity:1; fill:none" points="219.866,1423.18 2352.76,1423.18 "/>
<polyline clip-path="url(#clip830)" style="stroke:#000000; stroke-linecap:round; stroke-linejoin:round; stroke-width:4; stroke-opacity:1; fill:none" points="280.231,1423.18 280.231,1404.28 "/>
<polyline clip-path="url(#clip830)" style="stroke:#000000; stroke-linecap:round; stroke-linejoin:round; stroke-width:4; stroke-opacity:1; fill:none" points="615.591,1423.18 615.591,1404.28 "/>
<polyline clip-path="url(#clip830)" style="stroke:#000000; stroke-linecap:round; stroke-linejoin:round; stroke-width:4; stroke-opacity:1; fill:none" points="950.951,1423.18 950.951,1404.28 "/>
<polyline clip-path="url(#clip830)" style="stroke:#000000; stroke-linecap:round; stroke-linejoin:round; stroke-width:4; stroke-opacity:1; fill:none" points="1286.31,1423.18 1286.31,1404.28 "/>
<polyline clip-path="url(#clip830)" style="stroke:#000000; stroke-linecap:round; stroke-linejoin:round; stroke-width:4; stroke-opacity:1; fill:none" points="1621.67,1423.18 1621.67,1404.28 "/>
<polyline clip-path="url(#clip830)" style="stroke:#000000; stroke-linecap:round; stroke-linejoin:round; stroke-width:4; stroke-opacity:1; fill:none" points="1957.03,1423.18 1957.03,1404.28 "/>
<polyline clip-path="url(#clip830)" style="stroke:#000000; stroke-linecap:round; stroke-linejoin:round; stroke-width:4; stroke-opacity:1; fill:none" points="2292.39,1423.18 2292.39,1404.28 "/>
<path clip-path="url(#clip830)" d="M280.231 1454.1 Q276.62 1454.1 274.791 1457.66 Q272.986 1461.2 272.986 1468.33 Q272.986 1475.44 274.791 1479.01 Q276.62 1482.55 280.231 1482.55 Q283.865 1482.55 285.671 1479.01 Q287.5 1475.44 287.5 1468.33 Q287.5 1461.2 285.671 1457.66 Q283.865 1454.1 280.231 1454.1 M280.231 1450.39 Q286.041 1450.39 289.097 1455 Q292.175 1459.58 292.175 1468.33 Q292.175 1477.06 289.097 1481.67 Q286.041 1486.25 280.231 1486.25 Q274.421 1486.25 271.342 1481.67 Q268.287 1477.06 268.287 1468.33 Q268.287 1459.58 271.342 1455 Q274.421 1450.39 280.231 1450.39 Z" fill="#000000" fill-rule="nonzero" fill-opacity="1" /><path clip-path="url(#clip830)" d="M605.973 1481.64 L613.612 1481.64 L613.612 1455.28 L605.302 1456.95 L605.302 1452.69 L613.566 1451.02 L618.242 1451.02 L618.242 1481.64 L625.88 1481.64 L625.88 1485.58 L605.973 1485.58 L605.973 1481.64 Z" fill="#000000" fill-rule="nonzero" fill-opacity="1" /><path clip-path="url(#clip830)" d="M945.604 1481.64 L961.923 1481.64 L961.923 1485.58 L939.979 1485.58 L939.979 1481.64 Q942.641 1478.89 947.224 1474.26 Q951.831 1469.61 953.011 1468.27 Q955.257 1465.74 956.136 1464.01 Q957.039 1462.25 957.039 1460.56 Q957.039 1457.8 955.095 1456.07 Q953.173 1454.33 950.071 1454.33 Q947.872 1454.33 945.419 1455.09 Q942.988 1455.86 940.21 1457.41 L940.21 1452.69 Q943.034 1451.55 945.488 1450.97 Q947.942 1450.39 949.979 1450.39 Q955.349 1450.39 958.544 1453.08 Q961.738 1455.77 961.738 1460.26 Q961.738 1462.39 960.928 1464.31 Q960.141 1466.2 958.034 1468.8 Q957.456 1469.47 954.354 1472.69 Q951.252 1475.88 945.604 1481.64 Z" fill="#000000" fill-rule="nonzero" fill-opacity="1" /><path clip-path="url(#clip830)" d="M1290.56 1466.95 Q1293.92 1467.66 1295.79 1469.93 Q1297.69 1472.2 1297.69 1475.53 Q1297.69 1480.65 1294.17 1483.45 Q1290.65 1486.25 1284.17 1486.25 Q1281.99 1486.25 1279.68 1485.81 Q1277.39 1485.39 1274.93 1484.54 L1274.93 1480.02 Q1276.88 1481.16 1279.19 1481.74 Q1281.51 1482.32 1284.03 1482.32 Q1288.43 1482.32 1290.72 1480.58 Q1293.04 1478.84 1293.04 1475.53 Q1293.04 1472.48 1290.88 1470.77 Q1288.75 1469.03 1284.93 1469.03 L1280.91 1469.03 L1280.91 1465.19 L1285.12 1465.19 Q1288.57 1465.19 1290.4 1463.82 Q1292.23 1462.43 1292.23 1459.84 Q1292.23 1457.18 1290.33 1455.77 Q1288.45 1454.33 1284.93 1454.33 Q1283.01 1454.33 1280.81 1454.75 Q1278.61 1455.16 1275.98 1456.04 L1275.98 1451.88 Q1278.64 1451.14 1280.95 1450.77 Q1283.29 1450.39 1285.35 1450.39 Q1290.67 1450.39 1293.78 1452.83 Q1296.88 1455.23 1296.88 1459.35 Q1296.88 1462.22 1295.23 1464.21 Q1293.59 1466.18 1290.56 1466.95 Z" fill="#000000" fill-rule="nonzero" fill-opacity="1" /><path clip-path="url(#clip830)" d="M1624.68 1455.09 L1612.87 1473.54 L1624.68 1473.54 L1624.68 1455.09 M1623.45 1451.02 L1629.33 1451.02 L1629.33 1473.54 L1634.26 1473.54 L1634.26 1477.43 L1629.33 1477.43 L1629.33 1485.58 L1624.68 1485.58 L1624.68 1477.43 L1609.08 1477.43 L1609.08 1472.92 L1623.45 1451.02 Z" fill="#000000" fill-rule="nonzero" fill-opacity="1" /><path clip-path="url(#clip830)" d="M1947.31 1451.02 L1965.67 1451.02 L1965.67 1454.96 L1951.59 1454.96 L1951.59 1463.43 Q1952.61 1463.08 1953.63 1462.92 Q1954.65 1462.73 1955.67 1462.73 Q1961.45 1462.73 1964.83 1465.9 Q1968.21 1469.08 1968.21 1474.49 Q1968.21 1480.07 1964.74 1483.17 Q1961.27 1486.25 1954.95 1486.25 Q1952.77 1486.25 1950.5 1485.88 Q1948.26 1485.51 1945.85 1484.77 L1945.85 1480.07 Q1947.93 1481.2 1950.16 1481.76 Q1952.38 1482.32 1954.86 1482.32 Q1958.86 1482.32 1961.2 1480.21 Q1963.54 1478.1 1963.54 1474.49 Q1963.54 1470.88 1961.2 1468.77 Q1958.86 1466.67 1954.86 1466.67 Q1952.98 1466.67 1951.11 1467.08 Q1949.25 1467.5 1947.31 1468.38 L1947.31 1451.02 Z" fill="#000000" fill-rule="nonzero" fill-opacity="1" /><path clip-path="url(#clip830)" d="M2292.8 1466.44 Q2289.65 1466.44 2287.8 1468.59 Q2285.97 1470.74 2285.97 1474.49 Q2285.97 1478.22 2287.8 1480.39 Q2289.65 1482.55 2292.8 1482.55 Q2295.94 1482.55 2297.77 1480.39 Q2299.62 1478.22 2299.62 1474.49 Q2299.62 1470.74 2297.77 1468.59 Q2295.94 1466.44 2292.8 1466.44 M2302.08 1451.78 L2302.08 1456.04 Q2300.32 1455.21 2298.51 1454.77 Q2296.73 1454.33 2294.97 1454.33 Q2290.34 1454.33 2287.89 1457.45 Q2285.46 1460.58 2285.11 1466.9 Q2286.48 1464.89 2288.54 1463.82 Q2290.6 1462.73 2293.07 1462.73 Q2298.28 1462.73 2301.29 1465.9 Q2304.32 1469.05 2304.32 1474.49 Q2304.32 1479.82 2301.18 1483.03 Q2298.03 1486.25 2292.8 1486.25 Q2286.8 1486.25 2283.63 1481.67 Q2280.46 1477.06 2280.46 1468.33 Q2280.46 1460.14 2284.35 1455.28 Q2288.24 1450.39 2294.79 1450.39 Q2296.55 1450.39 2298.33 1450.74 Q2300.13 1451.09 2302.08 1451.78 Z" fill="#000000" fill-rule="nonzero" fill-opacity="1" /><path clip-path="url(#clip830)" d="M682.492 1537.87 Q681.505 1537.3 680.328 1537.04 Q679.182 1536.76 677.781 1536.76 Q672.816 1536.76 670.143 1540 Q667.501 1543.22 667.501 1549.27 L667.501 1568.04 L661.612 1568.04 L661.612 1532.4 L667.501 1532.4 L667.501 1537.93 Q669.347 1534.69 672.307 1533.13 Q675.267 1531.54 679.5 1531.54 Q680.105 1531.54 680.837 1531.63 Q681.569 1531.7 682.46 1531.85 L682.492 1537.87 Z" fill="#000000" fill-rule="nonzero" fill-opacity="1" /><path clip-path="url(#clip830)" d="M723.423 1518.58 Q719.158 1525.9 717.09 1533.06 Q715.021 1540.23 715.021 1547.58 Q715.021 1554.93 717.09 1562.16 Q719.19 1569.35 723.423 1576.64 L718.331 1576.64 Q713.557 1569.16 711.169 1561.93 Q708.814 1554.71 708.814 1547.58 Q708.814 1540.48 711.169 1533.29 Q713.525 1526.09 718.331 1518.58 L723.423 1518.58 Z" fill="#000000" fill-rule="nonzero" fill-opacity="1" /><path clip-path="url(#clip830)" d="M735.041 1520.52 L741.47 1520.52 L741.47 1564.73 Q741.47 1573.33 738.192 1577.21 Q734.945 1581.09 727.72 1581.09 L725.27 1581.09 L725.27 1575.68 L727.275 1575.68 Q731.54 1575.68 733.29 1573.3 Q735.041 1570.91 735.041 1564.73 L735.041 1520.52 Z" fill="#000000" fill-rule="nonzero" fill-opacity="1" /><path clip-path="url(#clip830)" d="M770.211 1550.12 Q763.114 1550.12 760.376 1551.75 Q757.639 1553.37 757.639 1557.29 Q757.639 1560.4 759.676 1562.25 Q761.745 1564.07 765.278 1564.07 Q770.148 1564.07 773.076 1560.63 Q776.036 1557.16 776.036 1551.43 L776.036 1550.12 L770.211 1550.12 M781.892 1547.71 L781.892 1568.04 L776.036 1568.04 L776.036 1562.63 Q774.031 1565.88 771.039 1567.44 Q768.047 1568.97 763.718 1568.97 Q758.244 1568.97 754.997 1565.91 Q751.783 1562.82 751.783 1557.67 Q751.783 1551.65 755.793 1548.6 Q759.835 1545.54 767.824 1545.54 L776.036 1545.54 L776.036 1544.97 Q776.036 1540.93 773.362 1538.73 Q770.721 1536.5 765.915 1536.5 Q762.859 1536.5 759.963 1537.23 Q757.066 1537.97 754.393 1539.43 L754.393 1534.02 Q757.607 1532.78 760.631 1532.17 Q763.655 1531.54 766.519 1531.54 Q774.254 1531.54 778.073 1535.55 Q781.892 1539.56 781.892 1547.71 Z" fill="#000000" fill-rule="nonzero" fill-opacity="1" /><path clip-path="url(#clip830)" d="M819.609 1533.76 L819.609 1539.24 Q817.127 1537.87 814.612 1537.2 Q812.13 1536.5 809.583 1536.5 Q803.886 1536.5 800.735 1540.13 Q797.584 1543.73 797.584 1550.25 Q797.584 1556.78 800.735 1560.4 Q803.886 1564 809.583 1564 Q812.13 1564 814.612 1563.33 Q817.127 1562.63 819.609 1561.26 L819.609 1566.68 Q817.159 1567.82 814.517 1568.39 Q811.907 1568.97 808.947 1568.97 Q800.894 1568.97 796.152 1563.91 Q791.409 1558.85 791.409 1550.25 Q791.409 1541.53 796.184 1536.53 Q800.99 1531.54 809.329 1531.54 Q812.034 1531.54 814.612 1532.11 Q817.19 1532.65 819.609 1533.76 Z" fill="#000000" fill-rule="nonzero" fill-opacity="1" /><path clip-path="url(#clip830)" d="M843.608 1536.5 Q838.897 1536.5 836.16 1540.19 Q833.423 1543.85 833.423 1550.25 Q833.423 1556.65 836.128 1560.34 Q838.866 1564 843.608 1564 Q848.287 1564 851.024 1560.31 Q853.761 1556.62 853.761 1550.25 Q853.761 1543.92 851.024 1540.23 Q848.287 1536.5 843.608 1536.5 M843.608 1531.54 Q851.247 1531.54 855.607 1536.5 Q859.968 1541.47 859.968 1550.25 Q859.968 1559 855.607 1564 Q851.247 1568.97 843.608 1568.97 Q835.937 1568.97 831.577 1564 Q827.248 1559 827.248 1550.25 Q827.248 1541.47 831.577 1536.5 Q835.937 1531.54 843.608 1531.54 Z" fill="#000000" fill-rule="nonzero" fill-opacity="1" /><path clip-path="url(#clip830)" d="M895.266 1550.25 Q895.266 1543.79 892.592 1540.13 Q889.95 1536.44 885.303 1536.44 Q880.656 1536.44 877.983 1540.13 Q875.341 1543.79 875.341 1550.25 Q875.341 1556.71 877.983 1560.4 Q880.656 1564.07 885.303 1564.07 Q889.95 1564.07 892.592 1560.4 Q895.266 1556.71 895.266 1550.25 M875.341 1537.81 Q877.187 1534.62 879.988 1533.1 Q882.821 1531.54 886.736 1531.54 Q893.229 1531.54 897.271 1536.69 Q901.345 1541.85 901.345 1550.25 Q901.345 1558.65 897.271 1563.81 Q893.229 1568.97 886.736 1568.97 Q882.821 1568.97 879.988 1567.44 Q877.187 1565.88 875.341 1562.7 L875.341 1568.04 L869.453 1568.04 L869.453 1518.52 L875.341 1518.52 L875.341 1537.81 Z" fill="#000000" fill-rule="nonzero" fill-opacity="1" /><path clip-path="url(#clip830)" d="M911.053 1532.4 L916.909 1532.4 L916.909 1568.04 L911.053 1568.04 L911.053 1532.4 M911.053 1518.52 L916.909 1518.52 L916.909 1525.93 L911.053 1525.93 L911.053 1518.52 Z" fill="#000000" fill-rule="nonzero" fill-opacity="1" /><path clip-path="url(#clip830)" d="M975.537 1533.76 L975.537 1539.24 Q973.055 1537.87 970.54 1537.2 Q968.058 1536.5 965.511 1536.5 Q959.814 1536.5 956.663 1540.13 Q953.512 1543.73 953.512 1550.25 Q953.512 1556.78 956.663 1560.4 Q959.814 1564 965.511 1564 Q968.058 1564 970.54 1563.33 Q973.055 1562.63 975.537 1561.26 L975.537 1566.68 Q973.086 1567.82 970.445 1568.39 Q967.835 1568.97 964.875 1568.97 Q956.822 1568.97 952.08 1563.91 Q947.337 1558.85 947.337 1550.25 Q947.337 1541.53 952.111 1536.53 Q956.918 1531.54 965.257 1531.54 Q967.962 1531.54 970.54 1532.11 Q973.118 1532.65 975.537 1533.76 Z" fill="#000000" fill-rule="nonzero" fill-opacity="1" /><path clip-path="url(#clip830)" d="M999.536 1536.5 Q994.825 1536.5 992.088 1540.19 Q989.351 1543.85 989.351 1550.25 Q989.351 1556.65 992.056 1560.34 Q994.794 1564 999.536 1564 Q1004.21 1564 1006.95 1560.31 Q1009.69 1556.62 1009.69 1550.25 Q1009.69 1543.92 1006.95 1540.23 Q1004.21 1536.5 999.536 1536.5 M999.536 1531.54 Q1007.17 1531.54 1011.54 1536.5 Q1015.9 1541.47 1015.9 1550.25 Q1015.9 1559 1011.54 1564 Q1007.17 1568.97 999.536 1568.97 Q991.865 1568.97 987.505 1564 Q983.176 1559 983.176 1550.25 Q983.176 1541.47 987.505 1536.5 Q991.865 1531.54 999.536 1531.54 Z" fill="#000000" fill-rule="nonzero" fill-opacity="1" /><path clip-path="url(#clip830)" d="M1039.42 1536.5 Q1034.71 1536.5 1031.97 1540.19 Q1029.23 1543.85 1029.23 1550.25 Q1029.23 1556.65 1031.94 1560.34 Q1034.67 1564 1039.42 1564 Q1044.1 1564 1046.83 1560.31 Q1049.57 1556.62 1049.57 1550.25 Q1049.57 1543.92 1046.83 1540.23 Q1044.1 1536.5 1039.42 1536.5 M1039.42 1531.54 Q1047.06 1531.54 1051.42 1536.5 Q1055.78 1541.47 1055.78 1550.25 Q1055.78 1559 1051.42 1564 Q1047.06 1568.97 1039.42 1568.97 Q1031.75 1568.97 1027.39 1564 Q1023.06 1559 1023.06 1550.25 Q1023.06 1541.47 1027.39 1536.5 Q1031.75 1531.54 1039.42 1531.54 Z" fill="#000000" fill-rule="nonzero" fill-opacity="1" /><path clip-path="url(#clip830)" d="M1086.14 1537.87 Q1085.15 1537.3 1083.98 1537.04 Q1082.83 1536.76 1081.43 1536.76 Q1076.47 1536.76 1073.79 1540 Q1071.15 1543.22 1071.15 1549.27 L1071.15 1568.04 L1065.26 1568.04 L1065.26 1532.4 L1071.15 1532.4 L1071.15 1537.93 Q1073 1534.69 1075.96 1533.13 Q1078.92 1531.54 1083.15 1531.54 Q1083.75 1531.54 1084.49 1531.63 Q1085.22 1531.7 1086.11 1531.85 L1086.14 1537.87 Z" fill="#000000" fill-rule="nonzero" fill-opacity="1" /><path clip-path="url(#clip830)" d="M1114.6 1537.81 L1114.6 1518.52 L1120.45 1518.52 L1120.45 1568.04 L1114.6 1568.04 L1114.6 1562.7 Q1112.75 1565.88 1109.92 1567.44 Q1107.12 1568.97 1103.17 1568.97 Q1096.71 1568.97 1092.63 1563.81 Q1088.59 1558.65 1088.59 1550.25 Q1088.59 1541.85 1092.63 1536.69 Q1096.71 1531.54 1103.17 1531.54 Q1107.12 1531.54 1109.92 1533.1 Q1112.75 1534.62 1114.6 1537.81 M1094.64 1550.25 Q1094.64 1556.71 1097.28 1560.4 Q1099.96 1564.07 1104.6 1564.07 Q1109.25 1564.07 1111.92 1560.4 Q1114.6 1556.71 1114.6 1550.25 Q1114.6 1543.79 1111.92 1540.13 Q1109.25 1536.44 1104.6 1536.44 Q1099.96 1536.44 1097.28 1540.13 Q1094.64 1543.79 1094.64 1550.25 Z" fill="#000000" fill-rule="nonzero" fill-opacity="1" /><path clip-path="url(#clip830)" d="M1132.52 1532.4 L1138.37 1532.4 L1138.37 1568.04 L1132.52 1568.04 L1132.52 1532.4 M1132.52 1518.52 L1138.37 1518.52 L1138.37 1525.93 L1132.52 1525.93 L1132.52 1518.52 Z" fill="#000000" fill-rule="nonzero" fill-opacity="1" /><path clip-path="url(#clip830)" d="M1180.26 1546.53 L1180.26 1568.04 L1174.4 1568.04 L1174.4 1546.72 Q1174.4 1541.66 1172.43 1539.14 Q1170.46 1536.63 1166.51 1536.63 Q1161.77 1536.63 1159.03 1539.65 Q1156.29 1542.68 1156.29 1547.9 L1156.29 1568.04 L1150.4 1568.04 L1150.4 1532.4 L1156.29 1532.4 L1156.29 1537.93 Q1158.39 1534.72 1161.22 1533.13 Q1164.09 1531.54 1167.81 1531.54 Q1173.96 1531.54 1177.11 1535.36 Q1180.26 1539.14 1180.26 1546.53 Z" fill="#000000" fill-rule="nonzero" fill-opacity="1" /><path clip-path="url(#clip830)" d="M1208.14 1550.12 Q1201.04 1550.12 1198.31 1551.75 Q1195.57 1553.37 1195.57 1557.29 Q1195.57 1560.4 1197.6 1562.25 Q1199.67 1564.07 1203.21 1564.07 Q1208.08 1564.07 1211 1560.63 Q1213.96 1557.16 1213.96 1551.43 L1213.96 1550.12 L1208.14 1550.12 M1219.82 1547.71 L1219.82 1568.04 L1213.96 1568.04 L1213.96 1562.63 Q1211.96 1565.88 1208.97 1567.44 Q1205.98 1568.97 1201.65 1568.97 Q1196.17 1568.97 1192.93 1565.91 Q1189.71 1562.82 1189.71 1557.67 Q1189.71 1551.65 1193.72 1548.6 Q1197.76 1545.54 1205.75 1545.54 L1213.96 1545.54 L1213.96 1544.97 Q1213.96 1540.93 1211.29 1538.73 Q1208.65 1536.5 1203.84 1536.5 Q1200.79 1536.5 1197.89 1537.23 Q1195 1537.97 1192.32 1539.43 L1192.32 1534.02 Q1195.54 1532.78 1198.56 1532.17 Q1201.58 1531.54 1204.45 1531.54 Q1212.18 1531.54 1216 1535.55 Q1219.82 1539.56 1219.82 1547.71 Z" fill="#000000" fill-rule="nonzero" fill-opacity="1" /><path clip-path="url(#clip830)" d="M1237.68 1522.27 L1237.68 1532.4 L1249.74 1532.4 L1249.74 1536.95 L1237.68 1536.95 L1237.68 1556.3 Q1237.68 1560.66 1238.85 1561.9 Q1240.06 1563.14 1243.72 1563.14 L1249.74 1563.14 L1249.74 1568.04 L1243.72 1568.04 Q1236.95 1568.04 1234.37 1565.53 Q1231.79 1562.98 1231.79 1556.3 L1231.79 1536.95 L1227.49 1536.95 L1227.49 1532.4 L1231.79 1532.4 L1231.79 1522.27 L1237.68 1522.27 Z" fill="#000000" fill-rule="nonzero" fill-opacity="1" /><path clip-path="url(#clip830)" d="M1287.93 1548.76 L1287.93 1551.62 L1261.01 1551.62 Q1261.39 1557.67 1264.64 1560.85 Q1267.91 1564 1273.74 1564 Q1277.11 1564 1280.26 1563.17 Q1283.45 1562.35 1286.57 1560.69 L1286.57 1566.23 Q1283.41 1567.57 1280.1 1568.27 Q1276.79 1568.97 1273.39 1568.97 Q1264.86 1568.97 1259.86 1564 Q1254.9 1559.04 1254.9 1550.57 Q1254.9 1541.82 1259.61 1536.69 Q1264.35 1531.54 1272.37 1531.54 Q1279.56 1531.54 1283.73 1536.18 Q1287.93 1540.8 1287.93 1548.76 M1282.08 1547.04 Q1282.01 1542.23 1279.37 1539.37 Q1276.76 1536.5 1272.43 1536.5 Q1267.53 1536.5 1264.57 1539.27 Q1261.64 1542.04 1261.2 1547.07 L1282.08 1547.04 Z" fill="#000000" fill-rule="nonzero" fill-opacity="1" /><path clip-path="url(#clip830)" d="M1320.21 1562.63 L1330.71 1562.63 L1330.71 1526.38 L1319.29 1528.67 L1319.29 1522.82 L1330.65 1520.52 L1337.08 1520.52 L1337.08 1562.63 L1347.58 1562.63 L1347.58 1568.04 L1320.21 1568.04 L1320.21 1562.63 Z" fill="#000000" fill-rule="nonzero" fill-opacity="1" /><path clip-path="url(#clip830)" d="M1361.24 1559.96 L1367.95 1559.96 L1367.95 1565.43 L1362.73 1575.62 L1358.63 1575.62 L1361.24 1565.43 L1361.24 1559.96 Z" fill="#000000" fill-rule="nonzero" fill-opacity="1" /><path clip-path="url(#clip830)" d="M1428.93 1539.24 Q1431.13 1535.29 1434.19 1533.41 Q1437.24 1531.54 1441.38 1531.54 Q1446.95 1531.54 1449.97 1535.45 Q1453 1539.33 1453 1546.53 L1453 1568.04 L1447.11 1568.04 L1447.11 1546.72 Q1447.11 1541.59 1445.29 1539.11 Q1443.48 1536.63 1439.76 1536.63 Q1435.2 1536.63 1432.56 1539.65 Q1429.92 1542.68 1429.92 1547.9 L1429.92 1568.04 L1424.03 1568.04 L1424.03 1546.72 Q1424.03 1541.56 1422.22 1539.11 Q1420.4 1536.63 1416.62 1536.63 Q1412.13 1536.63 1409.49 1539.68 Q1406.85 1542.71 1406.85 1547.9 L1406.85 1568.04 L1400.96 1568.04 L1400.96 1532.4 L1406.85 1532.4 L1406.85 1537.93 Q1408.85 1534.66 1411.65 1533.1 Q1414.45 1531.54 1418.3 1531.54 Q1422.19 1531.54 1424.89 1533.51 Q1427.63 1535.48 1428.93 1539.24 Z" fill="#000000" fill-rule="nonzero" fill-opacity="1" /><path clip-path="url(#clip830)" d="M1480.88 1550.12 Q1473.78 1550.12 1471.04 1551.75 Q1468.31 1553.37 1468.31 1557.29 Q1468.31 1560.4 1470.34 1562.25 Q1472.41 1564.07 1475.95 1564.07 Q1480.82 1564.07 1483.74 1560.63 Q1486.7 1557.16 1486.7 1551.43 L1486.7 1550.12 L1480.88 1550.12 M1492.56 1547.71 L1492.56 1568.04 L1486.7 1568.04 L1486.7 1562.63 Q1484.7 1565.88 1481.71 1567.44 Q1478.71 1568.97 1474.39 1568.97 Q1468.91 1568.97 1465.66 1565.91 Q1462.45 1562.82 1462.45 1557.67 Q1462.45 1551.65 1466.46 1548.6 Q1470.5 1545.54 1478.49 1545.54 L1486.7 1545.54 L1486.7 1544.97 Q1486.7 1540.93 1484.03 1538.73 Q1481.39 1536.5 1476.58 1536.5 Q1473.53 1536.5 1470.63 1537.23 Q1467.73 1537.97 1465.06 1539.43 L1465.06 1534.02 Q1468.27 1532.78 1471.3 1532.17 Q1474.32 1531.54 1477.19 1531.54 Q1484.92 1531.54 1488.74 1535.55 Q1492.56 1539.56 1492.56 1547.71 Z" fill="#000000" fill-rule="nonzero" fill-opacity="1" /><path clip-path="url(#clip830)" d="M1527.35 1533.45 L1527.35 1538.98 Q1524.87 1537.71 1522.19 1537.07 Q1519.52 1536.44 1516.65 1536.44 Q1512.29 1536.44 1510.1 1537.77 Q1507.93 1539.11 1507.93 1541.79 Q1507.93 1543.82 1509.49 1545 Q1511.05 1546.15 1515.76 1547.2 L1517.77 1547.64 Q1524.01 1548.98 1526.62 1551.43 Q1529.26 1553.85 1529.26 1558.21 Q1529.26 1563.17 1525.31 1566.07 Q1521.4 1568.97 1514.52 1568.97 Q1511.66 1568.97 1508.54 1568.39 Q1505.45 1567.85 1502.01 1566.74 L1502.01 1560.69 Q1505.26 1562.38 1508.41 1563.24 Q1511.56 1564.07 1514.65 1564.07 Q1518.79 1564.07 1521.01 1562.66 Q1523.24 1561.23 1523.24 1558.65 Q1523.24 1556.27 1521.62 1554.99 Q1520.03 1553.72 1514.59 1552.54 L1512.55 1552.07 Q1507.11 1550.92 1504.69 1548.56 Q1502.27 1546.18 1502.27 1542.04 Q1502.27 1537.01 1505.83 1534.27 Q1509.4 1531.54 1515.95 1531.54 Q1519.2 1531.54 1522.07 1532.01 Q1524.93 1532.49 1527.35 1533.45 Z" fill="#000000" fill-rule="nonzero" fill-opacity="1" /><path clip-path="url(#clip830)" d="M1561.31 1533.45 L1561.31 1538.98 Q1558.83 1537.71 1556.15 1537.07 Q1553.48 1536.44 1550.62 1536.44 Q1546.25 1536.44 1544.06 1537.77 Q1541.89 1539.11 1541.89 1541.79 Q1541.89 1543.82 1543.45 1545 Q1545.01 1546.15 1549.72 1547.2 L1551.73 1547.64 Q1557.97 1548.98 1560.58 1551.43 Q1563.22 1553.85 1563.22 1558.21 Q1563.22 1563.17 1559.27 1566.07 Q1555.36 1568.97 1548.48 1568.97 Q1545.62 1568.97 1542.5 1568.39 Q1539.41 1567.85 1535.97 1566.74 L1535.97 1560.69 Q1539.22 1562.38 1542.37 1563.24 Q1545.52 1564.07 1548.61 1564.07 Q1552.75 1564.07 1554.98 1562.66 Q1557.2 1561.23 1557.2 1558.65 Q1557.2 1556.27 1555.58 1554.99 Q1553.99 1553.72 1548.55 1552.54 L1546.51 1552.07 Q1541.07 1550.92 1538.65 1548.56 Q1536.23 1546.18 1536.23 1542.04 Q1536.23 1537.01 1539.79 1534.27 Q1543.36 1531.54 1549.91 1531.54 Q1553.16 1531.54 1556.03 1532.01 Q1558.89 1532.49 1561.31 1533.45 Z" fill="#000000" fill-rule="nonzero" fill-opacity="1" /><path clip-path="url(#clip830)" d="M1569.59 1547.58 L1586.74 1547.58 L1586.74 1552.8 L1569.59 1552.8 L1569.59 1547.58 Z" fill="#000000" fill-rule="nonzero" fill-opacity="1" /><path clip-path="url(#clip830)" d="M1592.66 1532.4 L1598.52 1532.4 L1605.84 1560.21 L1613.13 1532.4 L1620.03 1532.4 L1627.35 1560.21 L1634.64 1532.4 L1640.5 1532.4 L1631.17 1568.04 L1624.27 1568.04 L1616.6 1538.83 L1608.89 1568.04 L1601.99 1568.04 L1592.66 1532.4 Z" fill="#000000" fill-rule="nonzero" fill-opacity="1" /><path clip-path="url(#clip830)" d="M1679.87 1548.76 L1679.87 1551.62 L1652.94 1551.62 Q1653.33 1557.67 1656.57 1560.85 Q1659.85 1564 1665.68 1564 Q1669.05 1564 1672.2 1563.17 Q1675.38 1562.35 1678.5 1560.69 L1678.5 1566.23 Q1675.35 1567.57 1672.04 1568.27 Q1668.73 1568.97 1665.33 1568.97 Q1656.8 1568.97 1651.8 1564 Q1646.83 1559.04 1646.83 1550.57 Q1646.83 1541.82 1651.54 1536.69 Q1656.29 1531.54 1664.31 1531.54 Q1671.5 1531.54 1675.67 1536.18 Q1679.87 1540.8 1679.87 1548.76 M1674.01 1547.04 Q1673.95 1542.23 1671.31 1539.37 Q1668.7 1536.5 1664.37 1536.5 Q1659.47 1536.5 1656.51 1539.27 Q1653.58 1542.04 1653.13 1547.07 L1674.01 1547.04 Z" fill="#000000" fill-rule="nonzero" fill-opacity="1" /><path clip-path="url(#clip830)" d="M1689.48 1532.4 L1695.34 1532.4 L1695.34 1568.04 L1689.48 1568.04 L1689.48 1532.4 M1689.48 1518.52 L1695.34 1518.52 L1695.34 1525.93 L1689.48 1525.93 L1689.48 1518.52 Z" fill="#000000" fill-rule="nonzero" fill-opacity="1" /><path clip-path="url(#clip830)" d="M1731.05 1549.81 Q1731.05 1543.44 1728.41 1539.94 Q1725.8 1536.44 1721.06 1536.44 Q1716.35 1536.44 1713.7 1539.94 Q1711.09 1543.44 1711.09 1549.81 Q1711.09 1556.14 1713.7 1559.64 Q1716.35 1563.14 1721.06 1563.14 Q1725.8 1563.14 1728.41 1559.64 Q1731.05 1556.14 1731.05 1549.81 M1736.91 1563.62 Q1736.91 1572.72 1732.87 1577.15 Q1728.82 1581.6 1720.48 1581.6 Q1717.4 1581.6 1714.66 1581.13 Q1711.92 1580.68 1709.34 1579.72 L1709.34 1574.03 Q1711.92 1575.43 1714.44 1576.1 Q1716.95 1576.76 1719.56 1576.76 Q1725.32 1576.76 1728.19 1573.74 Q1731.05 1570.75 1731.05 1564.67 L1731.05 1561.77 Q1729.24 1564.92 1726.4 1566.48 Q1723.57 1568.04 1719.62 1568.04 Q1713.07 1568.04 1709.06 1563.05 Q1705.05 1558.05 1705.05 1549.81 Q1705.05 1541.53 1709.06 1536.53 Q1713.07 1531.54 1719.62 1531.54 Q1723.57 1531.54 1726.4 1533.1 Q1729.24 1534.66 1731.05 1537.81 L1731.05 1532.4 L1736.91 1532.4 L1736.91 1563.62 Z" fill="#000000" fill-rule="nonzero" fill-opacity="1" /><path clip-path="url(#clip830)" d="M1778.6 1546.53 L1778.6 1568.04 L1772.75 1568.04 L1772.75 1546.72 Q1772.75 1541.66 1770.77 1539.14 Q1768.8 1536.63 1764.85 1536.63 Q1760.11 1536.63 1757.37 1539.65 Q1754.64 1542.68 1754.64 1547.9 L1754.64 1568.04 L1748.75 1568.04 L1748.75 1518.52 L1754.64 1518.52 L1754.64 1537.93 Q1756.74 1534.72 1759.57 1533.13 Q1762.43 1531.54 1766.16 1531.54 Q1772.3 1531.54 1775.45 1535.36 Q1778.6 1539.14 1778.6 1546.53 Z" fill="#000000" fill-rule="nonzero" fill-opacity="1" /><path clip-path="url(#clip830)" d="M1796.08 1522.27 L1796.08 1532.4 L1808.14 1532.4 L1808.14 1536.95 L1796.08 1536.95 L1796.08 1556.3 Q1796.08 1560.66 1797.25 1561.9 Q1798.46 1563.14 1802.12 1563.14 L1808.14 1563.14 L1808.14 1568.04 L1802.12 1568.04 Q1795.34 1568.04 1792.77 1565.53 Q1790.19 1562.98 1790.19 1556.3 L1790.19 1536.95 L1785.89 1536.95 L1785.89 1532.4 L1790.19 1532.4 L1790.19 1522.27 L1796.08 1522.27 Z" fill="#000000" fill-rule="nonzero" fill-opacity="1" /><path clip-path="url(#clip830)" d="M1846.33 1548.76 L1846.33 1551.62 L1819.41 1551.62 Q1819.79 1557.67 1823.04 1560.85 Q1826.31 1564 1832.14 1564 Q1835.51 1564 1838.66 1563.17 Q1841.85 1562.35 1844.97 1560.69 L1844.97 1566.23 Q1841.81 1567.57 1838.5 1568.27 Q1835.19 1568.97 1831.79 1568.97 Q1823.26 1568.97 1818.26 1564 Q1813.3 1559.04 1813.3 1550.57 Q1813.3 1541.82 1818.01 1536.69 Q1822.75 1531.54 1830.77 1531.54 Q1837.96 1531.54 1842.13 1536.18 Q1846.33 1540.8 1846.33 1548.76 M1840.48 1547.04 Q1840.41 1542.23 1837.77 1539.37 Q1835.16 1536.5 1830.83 1536.5 Q1825.93 1536.5 1822.97 1539.27 Q1820.04 1542.04 1819.6 1547.07 L1840.48 1547.04 Z" fill="#000000" fill-rule="nonzero" fill-opacity="1" /><path clip-path="url(#clip830)" d="M1879.4 1537.81 L1879.4 1518.52 L1885.26 1518.52 L1885.26 1568.04 L1879.4 1568.04 L1879.4 1562.7 Q1877.56 1565.88 1874.73 1567.44 Q1871.92 1568.97 1867.98 1568.97 Q1861.52 1568.97 1857.44 1563.81 Q1853.4 1558.65 1853.4 1550.25 Q1853.4 1541.85 1857.44 1536.69 Q1861.52 1531.54 1867.98 1531.54 Q1871.92 1531.54 1874.73 1533.1 Q1877.56 1534.62 1879.4 1537.81 M1859.45 1550.25 Q1859.45 1556.71 1862.09 1560.4 Q1864.76 1564.07 1869.41 1564.07 Q1874.06 1564.07 1876.73 1560.4 Q1879.4 1556.71 1879.4 1550.25 Q1879.4 1543.79 1876.73 1540.13 Q1874.06 1536.44 1869.41 1536.44 Q1864.76 1536.44 1862.09 1540.13 Q1859.45 1543.79 1859.45 1550.25 Z" fill="#000000" fill-rule="nonzero" fill-opacity="1" /><path clip-path="url(#clip830)" d="M1896.4 1518.58 L1901.49 1518.58 Q1906.27 1526.09 1908.62 1533.29 Q1911.01 1540.48 1911.01 1547.58 Q1911.01 1554.71 1908.62 1561.93 Q1906.27 1569.16 1901.49 1576.64 L1896.4 1576.64 Q1900.63 1569.35 1902.7 1562.16 Q1904.8 1554.93 1904.8 1547.58 Q1904.8 1540.23 1902.7 1533.06 Q1900.63 1525.9 1896.4 1518.58 Z" fill="#000000" fill-rule="nonzero" fill-opacity="1" /><polyline clip-path="url(#clip830)" style="stroke:#000000; stroke-linecap:round; stroke-linejoin:round; stroke-width:4; stroke-opacity:1; fill:none" points="219.866,1423.18 219.866,47.2441 "/>
<polyline clip-path="url(#clip830)" style="stroke:#000000; stroke-linecap:round; stroke-linejoin:round; stroke-width:4; stroke-opacity:1; fill:none" points="219.866,1384.24 238.764,1384.24 "/>
<polyline clip-path="url(#clip830)" style="stroke:#000000; stroke-linecap:round; stroke-linejoin:round; stroke-width:4; stroke-opacity:1; fill:none" points="219.866,1010.63 238.764,1010.63 "/>
<polyline clip-path="url(#clip830)" style="stroke:#000000; stroke-linecap:round; stroke-linejoin:round; stroke-width:4; stroke-opacity:1; fill:none" points="219.866,637.016 238.764,637.016 "/>
<polyline clip-path="url(#clip830)" style="stroke:#000000; stroke-linecap:round; stroke-linejoin:round; stroke-width:4; stroke-opacity:1; fill:none" points="219.866,263.404 238.764,263.404 "/>
<path clip-path="url(#clip830)" d="M126.691 1370.04 Q123.08 1370.04 121.251 1373.6 Q119.445 1377.14 119.445 1384.27 Q119.445 1391.38 121.251 1394.94 Q123.08 1398.49 126.691 1398.49 Q130.325 1398.49 132.13 1394.94 Q133.959 1391.38 133.959 1384.27 Q133.959 1377.14 132.13 1373.6 Q130.325 1370.04 126.691 1370.04 M126.691 1366.33 Q132.501 1366.33 135.556 1370.94 Q138.635 1375.52 138.635 1384.27 Q138.635 1393 135.556 1397.61 Q132.501 1402.19 126.691 1402.19 Q120.88 1402.19 117.802 1397.61 Q114.746 1393 114.746 1384.27 Q114.746 1375.52 117.802 1370.94 Q120.88 1366.33 126.691 1366.33 Z" fill="#000000" fill-rule="nonzero" fill-opacity="1" /><path clip-path="url(#clip830)" d="M146.853 1395.64 L151.737 1395.64 L151.737 1401.52 L146.853 1401.52 L146.853 1395.64 Z" fill="#000000" fill-rule="nonzero" fill-opacity="1" /><path clip-path="url(#clip830)" d="M171.922 1370.04 Q168.311 1370.04 166.482 1373.6 Q164.677 1377.14 164.677 1384.27 Q164.677 1391.38 166.482 1394.94 Q168.311 1398.49 171.922 1398.49 Q175.556 1398.49 177.362 1394.94 Q179.19 1391.38 179.19 1384.27 Q179.19 1377.14 177.362 1373.6 Q175.556 1370.04 171.922 1370.04 M171.922 1366.33 Q177.732 1366.33 180.788 1370.94 Q183.866 1375.52 183.866 1384.27 Q183.866 1393 180.788 1397.61 Q177.732 1402.19 171.922 1402.19 Q166.112 1402.19 163.033 1397.61 Q159.978 1393 159.978 1384.27 Q159.978 1375.52 163.033 1370.94 Q166.112 1366.33 171.922 1366.33 Z" fill="#000000" fill-rule="nonzero" fill-opacity="1" /><path clip-path="url(#clip830)" d="M128.288 996.426 Q124.677 996.426 122.848 999.99 Q121.043 1003.53 121.043 1010.66 Q121.043 1017.77 122.848 1021.33 Q124.677 1024.87 128.288 1024.87 Q131.922 1024.87 133.728 1021.33 Q135.556 1017.77 135.556 1010.66 Q135.556 1003.53 133.728 999.99 Q131.922 996.426 128.288 996.426 M128.288 992.722 Q134.098 992.722 137.154 997.328 Q140.232 1001.91 140.232 1010.66 Q140.232 1019.39 137.154 1023.99 Q134.098 1028.58 128.288 1028.58 Q122.478 1028.58 119.399 1023.99 Q116.343 1019.39 116.343 1010.66 Q116.343 1001.91 119.399 997.328 Q122.478 992.722 128.288 992.722 Z" fill="#000000" fill-rule="nonzero" fill-opacity="1" /><path clip-path="url(#clip830)" d="M148.45 1022.03 L153.334 1022.03 L153.334 1027.91 L148.45 1027.91 L148.45 1022.03 Z" fill="#000000" fill-rule="nonzero" fill-opacity="1" /><path clip-path="url(#clip830)" d="M167.547 1023.97 L183.866 1023.97 L183.866 1027.91 L161.922 1027.91 L161.922 1023.97 Q164.584 1021.22 169.167 1016.59 Q173.774 1011.93 174.954 1010.59 Q177.2 1008.07 178.079 1006.33 Q178.982 1004.57 178.982 1002.88 Q178.982 1000.13 177.038 998.393 Q175.116 996.657 172.014 996.657 Q169.815 996.657 167.362 997.421 Q164.931 998.185 162.153 999.736 L162.153 995.014 Q164.977 993.879 167.431 993.301 Q169.885 992.722 171.922 992.722 Q177.292 992.722 180.487 995.407 Q183.681 998.092 183.681 1002.58 Q183.681 1004.71 182.871 1006.63 Q182.084 1008.53 179.977 1011.12 Q179.399 1011.8 176.297 1015.01 Q173.195 1018.21 167.547 1023.97 Z" fill="#000000" fill-rule="nonzero" fill-opacity="1" /><path clip-path="url(#clip830)" d="M126.205 622.814 Q122.593 622.814 120.765 626.379 Q118.959 629.921 118.959 637.05 Q118.959 644.157 120.765 647.722 Q122.593 651.263 126.205 651.263 Q129.839 651.263 131.644 647.722 Q133.473 644.157 133.473 637.05 Q133.473 629.921 131.644 626.379 Q129.839 622.814 126.205 622.814 M126.205 619.111 Q132.015 619.111 135.07 623.717 Q138.149 628.3 138.149 637.05 Q138.149 645.777 135.07 650.384 Q132.015 654.967 126.205 654.967 Q120.394 654.967 117.316 650.384 Q114.26 645.777 114.26 637.05 Q114.26 628.3 117.316 623.717 Q120.394 619.111 126.205 619.111 Z" fill="#000000" fill-rule="nonzero" fill-opacity="1" /><path clip-path="url(#clip830)" d="M146.366 648.416 L151.251 648.416 L151.251 654.296 L146.366 654.296 L146.366 648.416 Z" fill="#000000" fill-rule="nonzero" fill-opacity="1" /><path clip-path="url(#clip830)" d="M174.283 623.81 L162.477 642.259 L174.283 642.259 L174.283 623.81 M173.056 619.736 L178.936 619.736 L178.936 642.259 L183.866 642.259 L183.866 646.147 L178.936 646.147 L178.936 654.296 L174.283 654.296 L174.283 646.147 L158.681 646.147 L158.681 641.634 L173.056 619.736 Z" fill="#000000" fill-rule="nonzero" fill-opacity="1" /><path clip-path="url(#clip830)" d="M126.529 249.203 Q122.918 249.203 121.089 252.768 Q119.283 256.309 119.283 263.439 Q119.283 270.545 121.089 274.11 Q122.918 277.652 126.529 277.652 Q130.163 277.652 131.968 274.11 Q133.797 270.545 133.797 263.439 Q133.797 256.309 131.968 252.768 Q130.163 249.203 126.529 249.203 M126.529 245.499 Q132.339 245.499 135.394 250.106 Q138.473 254.689 138.473 263.439 Q138.473 272.166 135.394 276.772 Q132.339 281.355 126.529 281.355 Q120.718 281.355 117.64 276.772 Q114.584 272.166 114.584 263.439 Q114.584 254.689 117.64 250.106 Q120.718 245.499 126.529 245.499 Z" fill="#000000" fill-rule="nonzero" fill-opacity="1" /><path clip-path="url(#clip830)" d="M146.691 274.805 L151.575 274.805 L151.575 280.684 L146.691 280.684 L146.691 274.805 Z" fill="#000000" fill-rule="nonzero" fill-opacity="1" /><path clip-path="url(#clip830)" d="M172.339 261.541 Q169.19 261.541 167.339 263.694 Q165.51 265.846 165.51 269.596 Q165.51 273.323 167.339 275.499 Q169.19 277.652 172.339 277.652 Q175.487 277.652 177.315 275.499 Q179.167 273.323 179.167 269.596 Q179.167 265.846 177.315 263.694 Q175.487 261.541 172.339 261.541 M181.621 246.888 L181.621 251.147 Q179.862 250.314 178.056 249.874 Q176.274 249.434 174.514 249.434 Q169.885 249.434 167.431 252.559 Q165.001 255.684 164.653 262.004 Q166.019 259.99 168.079 258.925 Q170.139 257.837 172.616 257.837 Q177.825 257.837 180.834 261.008 Q183.866 264.157 183.866 269.596 Q183.866 274.92 180.718 278.138 Q177.57 281.355 172.339 281.355 Q166.343 281.355 163.172 276.772 Q160.001 272.166 160.001 263.439 Q160.001 255.245 163.89 250.383 Q167.778 245.499 174.329 245.499 Q176.089 245.499 177.871 245.846 Q179.676 246.194 181.621 246.888 Z" fill="#000000" fill-rule="nonzero" fill-opacity="1" /><path clip-path="url(#clip830)" d="M33.8307 831.143 Q33.2578 832.13 33.0032 833.308 Q32.7167 834.453 32.7167 835.854 Q32.7167 840.819 35.9632 843.493 Q39.1779 846.134 45.2253 846.134 L64.0042 846.134 L64.0042 852.023 L28.3562 852.023 L28.3562 846.134 L33.8944 846.134 Q30.6479 844.288 29.0883 841.328 Q27.4968 838.368 27.4968 834.135 Q27.4968 833.53 27.5923 832.798 Q27.656 832.066 27.8151 831.175 L33.8307 831.143 Z" fill="#000000" fill-rule="nonzero" fill-opacity="1" /><path clip-path="url(#clip830)" d="M39.1142 822.613 L39.1142 809.118 L42.7427 809.118 L42.7427 828.151 L39.2416 828.151 Q38.2549 827.069 36.4725 825.064 Q26.7648 814.115 23.7729 814.115 Q21.6722 814.115 20.3991 815.77 Q19.0941 817.425 19.0941 820.13 Q19.0941 821.786 19.667 823.727 Q20.2081 825.669 21.3221 827.96 L17.4072 827.96 Q16.516 825.51 16.0704 823.409 Q15.6248 821.276 15.6248 819.462 Q15.6248 814.847 17.7255 812.078 Q19.8262 809.309 23.2636 809.309 Q27.6878 809.309 36.7271 819.844 Q38.2549 821.626 39.1142 822.613 Z" fill="#000000" fill-rule="nonzero" fill-opacity="1" /><path clip-path="url(#clip830)" d="M14.1925 791.326 L79.3773 791.326 L79.3773 796.737 L14.1925 796.737 L14.1925 791.326 Z" fill="#000000" fill-rule="nonzero" fill-opacity="1" /><path clip-path="url(#clip830)" d="M64.7999 764.558 Q63.6222 771.91 60.5348 775.316 Q56.7473 779.485 49.0129 779.485 L28.3562 779.485 L28.3562 773.565 L48.7901 773.565 Q54.6147 773.565 57.0337 770.86 Q59.1344 768.505 59.58 764.558 L28.3562 764.558 L28.3562 758.733 L59.5482 758.733 Q59.1026 754.564 57.0019 752.431 Q54.3283 749.726 48.7583 749.726 L28.3562 749.726 L28.3562 743.806 L48.9811 743.806 Q57.0019 743.806 60.503 747.975 Q63.654 751.731 64.768 758.733 L77.5631 758.733 L77.5631 764.558 L64.7999 764.558 Z" fill="#000000" fill-rule="nonzero" fill-opacity="1" /><path clip-path="url(#clip830)" d="M14.5426 719.839 Q21.8632 724.104 29.0246 726.173 Q36.186 728.242 43.5384 728.242 Q50.8908 728.242 58.1159 726.173 Q65.3091 724.072 72.5979 719.839 L72.5979 724.931 Q65.1182 729.706 57.8931 732.093 Q50.668 734.448 43.5384 734.448 Q36.4406 734.448 29.2474 732.093 Q22.0542 729.737 14.5426 724.931 L14.5426 719.839 Z" fill="#000000" fill-rule="nonzero" fill-opacity="1" /><path clip-path="url(#clip830)" d="M33.8307 687.819 Q33.2578 688.806 33.0032 689.984 Q32.7167 691.129 32.7167 692.53 Q32.7167 697.495 35.9632 700.169 Q39.1779 702.811 45.2253 702.811 L64.0042 702.811 L64.0042 708.699 L28.3562 708.699 L28.3562 702.811 L33.8944 702.811 Q30.6479 700.964 29.0883 698.004 Q27.4968 695.044 27.4968 690.811 Q27.4968 690.206 27.5923 689.474 Q27.656 688.742 27.8151 687.851 L33.8307 687.819 Z" fill="#000000" fill-rule="nonzero" fill-opacity="1" /><path clip-path="url(#clip830)" d="M14.5426 682.599 L14.5426 677.507 Q22.0542 672.733 29.2474 670.377 Q36.4406 667.99 43.5384 667.99 Q50.668 667.99 57.8931 670.377 Q65.1182 672.733 72.5979 677.507 L72.5979 682.599 Q65.3091 678.366 58.1159 676.297 Q50.8908 674.197 43.5384 674.197 Q36.186 674.197 29.0246 676.297 Q21.8632 678.366 14.5426 682.599 Z" fill="#000000" fill-rule="nonzero" fill-opacity="1" /><path clip-path="url(#clip830)" d="M14.1925 648.702 L79.3773 648.702 L79.3773 654.113 L14.1925 654.113 L14.1925 648.702 Z" fill="#000000" fill-rule="nonzero" fill-opacity="1" /><path clip-path="url(#clip830)" d="M39.1142 631.897 L39.1142 618.401 L42.7427 618.401 L42.7427 637.435 L39.2416 637.435 Q38.2549 636.353 36.4725 634.347 Q26.7648 623.398 23.7729 623.398 Q21.6722 623.398 20.3991 625.053 Q19.0941 626.708 19.0941 629.414 Q19.0941 631.069 19.667 633.011 Q20.2081 634.952 21.3221 637.244 L17.4072 637.244 Q16.516 634.793 16.0704 632.692 Q15.6248 630.56 15.6248 628.746 Q15.6248 624.13 17.7255 621.361 Q19.8262 618.592 23.2636 618.592 Q27.6878 618.592 36.7271 629.127 Q38.2549 630.91 39.1142 631.897 Z" fill="#000000" fill-rule="nonzero" fill-opacity="1" /><polyline clip-path="url(#clip831)" style="stroke:#009af9; stroke-linecap:round; stroke-linejoin:round; stroke-width:8; stroke-opacity:1; fill:none" points="280.231,1384.24 285.274,1383.52 290.317,1381.36 295.36,1377.77 300.403,1372.76 305.446,1366.34 310.489,1358.52 315.532,1349.34 320.575,1338.8 325.618,1326.94 330.661,1313.79 335.704,1299.38 340.747,1283.75 345.79,1266.93 350.833,1248.98 355.876,1229.93 360.919,1209.84 365.962,1188.75 371.005,1166.71 376.048,1143.78 381.091,1120.01 386.134,1095.47 391.177,1070.21 396.22,1044.29 401.263,1017.77 406.306,990.711 411.349,963.181 416.392,935.24 421.435,906.953 426.478,878.381 431.521,849.59 436.564,820.641 441.607,791.598 446.65,762.523 451.693,733.478 456.736,704.521 461.779,675.714 466.822,647.114 471.865,618.779 476.908,590.762 481.951,563.119 486.994,535.901 492.037,509.159 497.08,482.94 502.123,457.292 507.166,432.257 512.209,407.879 517.252,384.198 522.295,361.25 527.338,339.07 532.381,317.693 537.424,297.148 542.467,277.462 547.51,258.663 552.553,240.772 557.596,223.811 562.639,207.797 567.683,192.747 572.726,178.673 577.769,165.586 582.812,153.496 587.855,142.408 592.898,132.326 597.941,123.251 602.984,115.184 608.027,108.122 613.07,102.06 618.113,96.9914 623.156,92.9074 628.199,89.7979 633.242,87.6506 638.285,86.4517 643.328,86.1857 648.371,86.8356 653.414,88.3831 658.457,90.8085 663.5,94.0908 668.543,98.2079 673.586,103.137 678.629,108.853 683.672,115.332 688.715,122.548 693.758,130.474 698.801,139.083 703.844,148.348 708.887,158.242 713.93,168.734 718.973,179.798 724.016,191.404 729.059,203.523 734.102,216.127 739.145,229.187 744.188,242.674 749.231,256.56 754.274,270.816 759.317,285.415 764.36,300.329 769.403,315.531 774.446,330.995 779.489,346.694 784.532,362.603 789.575,378.696 794.618,394.95 799.661,411.34 804.704,427.845 809.747,444.441 814.79,461.107 819.833,477.822 824.876,494.566 829.919,511.32 834.962,528.066 840.005,544.785 845.048,561.461 850.091,578.078 855.134,594.621 860.177,611.075 865.22,627.425 870.263,643.661 875.306,659.768 880.349,675.736 885.392,691.554 890.435,707.212 895.478,722.701 900.521,738.012 905.564,753.137 910.607,768.07 915.65,782.803 920.693,797.33 925.736,811.646 930.779,825.747 935.822,839.628 940.865,853.284 945.908,866.714 950.951,879.914 955.994,892.882 961.037,905.616 966.08,918.115 971.123,930.378 976.166,942.403 981.209,954.192 986.252,965.743 991.295,977.057 996.338,988.136 1001.38,998.979 1006.42,1009.59 1011.47,1019.97 1016.51,1030.11 1021.55,1040.03 1026.6,1049.72 1031.64,1059.19 1036.68,1068.43 1041.73,1077.46 1046.77,1086.27 1051.81,1094.86 1056.85,1103.24 1061.9,1111.42 1066.94,1119.39 1071.98,1127.16 1077.03,1134.74 1082.07,1142.11 1087.11,1149.3 1092.16,1156.3 1097.2,1163.12 1102.24,1169.75 1107.28,1176.21 1112.33,1182.49 1117.37,1188.6 1122.41,1194.55 1127.46,1200.33 1132.5,1205.96 1137.54,1211.43 1142.59,1216.74 1147.63,1221.91 1152.67,1226.93 1157.71,1231.8 1162.76,1236.54 1167.8,1241.15 1172.84,1245.62 1177.89,1249.96 1182.93,1254.17 1187.97,1258.27 1193.02,1262.24 1198.06,1266.09 1203.1,1269.83 1208.14,1273.47 1213.19,1276.99 1218.23,1280.41 1223.27,1283.72 1228.32,1286.94 1233.36,1290.06 1238.4,1293.08 1243.45,1296.01 1248.49,1298.86 1253.53,1301.61 1258.57,1304.29 1263.62,1306.88 1268.66,1309.39 1273.7,1311.82 1278.75,1314.18 1283.79,1316.46 1288.83,1318.67 1293.88,1320.82 1298.92,1322.89 1303.96,1324.9 1309,1326.85 1314.05,1328.74 1319.09,1330.57 1324.13,1332.34 1329.18,1334.05 1334.22,1335.71 1339.26,1337.32 1344.31,1338.87 1349.35,1340.37 1354.39,1341.83 1359.43,1343.24 1364.48,1344.61 1369.52,1345.93 1374.56,1347.2 1379.61,1348.44 1384.65,1349.64 1389.69,1350.8 1394.74,1351.91 1399.78,1353 1404.82,1354.05 1409.86,1355.06 1414.91,1356.04 1419.95,1356.99 1424.99,1357.91 1430.04,1358.79 1435.08,1359.65 1440.12,1360.48 1445.17,1361.28 1450.21,1362.06 1455.25,1362.81 1460.29,1363.53 1465.34,1364.23 1470.38,1364.91 1475.42,1365.57 1480.47,1366.2 1485.51,1366.81 1490.55,1367.4 1495.6,1367.97 1500.64,1368.53 1505.68,1369.06 1510.72,1369.58 1515.77,1370.08 1520.81,1370.56 1525.85,1371.02 1530.9,1371.47 1535.94,1371.91 1540.98,1372.33 1546.03,1372.73 1551.07,1373.13 1556.11,1373.51 1561.16,1373.87 1566.2,1374.23 1571.24,1374.57 1576.28,1374.9 1581.33,1375.22 1586.37,1375.52 1591.41,1375.82 1596.46,1376.11 1601.5,1376.39 1606.54,1376.65 1611.59,1376.91 1616.63,1377.16 1621.67,1377.41 1626.71,1377.64 1631.76,1377.86 1636.8,1378.08 1641.84,1378.29 1646.89,1378.5 1651.93,1378.69 1656.97,1378.88 1662.02,1379.06 1667.06,1379.24 1672.1,1379.41 1677.14,1379.58 1682.19,1379.74 1687.23,1379.89 1692.27,1380.04 1697.32,1380.18 1702.36,1380.32 1707.4,1380.45 1712.45,1380.58 1717.49,1380.71 1722.53,1380.83 1727.57,1380.94 1732.62,1381.06 1737.66,1381.17 1742.7,1381.27 1747.75,1381.37 1752.79,1381.47 1757.83,1381.56 1762.88,1381.65 1767.92,1381.74 1772.96,1381.83 1778,1381.91 1783.05,1381.99 1788.09,1382.07 1793.13,1382.14 1798.18,1382.21 1803.22,1382.28 1808.26,1382.35 1813.31,1382.41 1818.35,1382.47 1823.39,1382.53 1828.43,1382.59 1833.48,1382.65 1838.52,1382.7 1843.56,1382.75 1848.61,1382.8 1853.65,1382.85 1858.69,1382.9 1863.74,1382.94 1868.78,1382.99 1873.82,1383.03 1878.86,1383.07 1883.91,1383.11 1888.95,1383.15 1893.99,1383.19 1899.04,1383.22 1904.08,1383.26 1909.12,1383.29 1914.17,1383.32 1919.21,1383.35 1924.25,1383.38 1929.29,1383.41 1934.34,1383.44 1939.38,1383.47 1944.42,1383.49 1949.47,1383.52 1954.51,1383.54 1959.55,1383.57 1964.6,1383.59 1969.64,1383.61 1974.68,1383.63 1979.72,1383.65 1984.77,1383.67 1989.81,1383.69 1994.85,1383.71 1999.9,1383.73 2004.94,1383.75 2009.98,1383.76 2015.03,1383.78 2020.07,1383.79 2025.11,1383.81 2030.15,1383.82 2035.2,1383.84 2040.24,1383.85 2045.28,1383.86 2050.33,1383.88 2055.37,1383.89 2060.41,1383.9 2065.46,1383.91 2070.5,1383.92 2075.54,1383.93 2080.58,1383.94 2085.63,1383.95 2090.67,1383.96 2095.71,1383.97 2100.76,1383.98 2105.8,1383.99 2110.84,1384 2115.89,1384.01 2120.93,1384.02 2125.97,1384.02 2131.01,1384.03 2136.06,1384.04 2141.1,1384.04 2146.14,1384.05 2151.19,1384.06 2156.23,1384.06 2161.27,1384.07 2166.32,1384.07 2171.36,1384.08 2176.4,1384.09 2181.44,1384.09 2186.49,1384.1 2191.53,1384.1 2196.57,1384.1 2201.62,1384.11 2206.66,1384.11 2211.7,1384.12 2216.75,1384.12 2221.79,1384.13 2226.83,1384.13 2231.88,1384.13 2236.92,1384.14 2241.96,1384.14 2247,1384.14 2252.05,1384.15 2257.09,1384.15 2262.13,1384.15 2267.18,1384.16 2272.22,1384.16 2277.26,1384.16 2282.31,1384.16 2287.35,1384.17 2292.39,1384.17 "/>
<path clip-path="url(#clip830)" d="M1995.15 196.789 L2281.66 196.789 L2281.66 93.1086 L1995.15 93.1086  Z" fill="#ffffff" fill-rule="evenodd" fill-opacity="1"/>
<polyline clip-path="url(#clip830)" style="stroke:#000000; stroke-linecap:round; stroke-linejoin:round; stroke-width:4; stroke-opacity:1; fill:none" points="1995.15,196.789 2281.66,196.789 2281.66,93.1086 1995.15,93.1086 1995.15,196.789 "/>
<polyline clip-path="url(#clip830)" style="stroke:#009af9; stroke-linecap:round; stroke-linejoin:round; stroke-width:8; stroke-opacity:1; fill:none" points="2018.85,144.949 2161.04,144.949 "/>
<path clip-path="url(#clip830)" d="M2188.68 126.002 L2188.68 173.409 L2184.74 173.409 L2184.74 126.002 L2188.68 126.002 Z" fill="#000000" fill-rule="nonzero" fill-opacity="1" /><path clip-path="url(#clip830)" d="M2208.15 162.807 Q2202.8 161.951 2200.32 159.705 Q2197.29 156.951 2197.29 151.326 L2197.29 136.303 L2201.6 136.303 L2201.6 151.164 Q2201.6 155.4 2203.56 157.159 Q2205.28 158.687 2208.15 159.011 L2208.15 136.303 L2212.38 136.303 L2212.38 158.988 Q2215.41 158.664 2216.97 157.136 Q2218.93 155.192 2218.93 151.141 L2218.93 136.303 L2223.24 136.303 L2223.24 151.303 Q2223.24 157.136 2220.21 159.682 Q2217.47 161.974 2212.38 162.784 L2212.38 172.09 L2208.15 172.09 L2208.15 162.807 Z" fill="#000000" fill-rule="nonzero" fill-opacity="1" /><path clip-path="url(#clip830)" d="M2235.92 126.002 L2235.92 173.409 L2231.99 173.409 L2231.99 126.002 L2235.92 126.002 Z" fill="#000000" fill-rule="nonzero" fill-opacity="1" /><path clip-path="url(#clip830)" d="M2248.15 144.127 L2257.96 144.127 L2257.96 146.766 L2244.12 146.766 L2244.12 144.219 Q2244.91 143.502 2246.36 142.206 Q2254.33 135.145 2254.33 132.97 Q2254.33 131.442 2253.12 130.516 Q2251.92 129.567 2249.95 129.567 Q2248.75 129.567 2247.34 129.983 Q2245.92 130.377 2244.26 131.187 L2244.26 128.34 Q2246.04 127.692 2247.57 127.368 Q2249.12 127.044 2250.44 127.044 Q2253.79 127.044 2255.81 128.571 Q2257.82 130.099 2257.82 132.599 Q2257.82 135.817 2250.16 142.391 Q2248.86 143.502 2248.15 144.127 Z" fill="#000000" fill-rule="nonzero" fill-opacity="1" /></svg>
