<?xml version="1.0" encoding="utf-8"?>
<svg xmlns="http://www.w3.org/2000/svg" xmlns:xlink="http://www.w3.org/1999/xlink" width="600" height="400" viewBox="0 0 2400 1600">
<defs>
  <clipPath id="clip130">
    <rect x="0" y="0" width="2400" height="1600"/>
  </clipPath>
</defs>
<path clip-path="url(#clip130)" d="M0 1600 L2400 1600 L2400 0 L0 0  Z" fill="#ffffff" fill-rule="evenodd" fill-opacity="1"/>
<defs>
  <clipPath id="clip131">
    <rect x="203" y="47" width="2150" height="1377"/>
  </clipPath>
</defs>
<path clip-path="url(#clip130)" d="M203.964 1423.18 L2352.76 1423.18 L2352.76 47.2441 L203.964 47.2441  Z" fill="#ffffff" fill-rule="evenodd" fill-opacity="1"/>
<polyline clip-path="url(#clip131)" style="stroke:#000000; stroke-linecap:round; stroke-linejoin:round; stroke-width:2; stroke-opacity:0.1; fill:none" points="263.764,1423.18 263.764,47.2441 "/>
<polyline clip-path="url(#clip131)" style="stroke:#000000; stroke-linecap:round; stroke-linejoin:round; stroke-width:2; stroke-opacity:0.1; fill:none" points="770.809,1423.18 770.809,47.2441 "/>
<polyline clip-path="url(#clip131)" style="stroke:#000000; stroke-linecap:round; stroke-linejoin:round; stroke-width:2; stroke-opacity:0.1; fill:none" points="1277.85,1423.18 1277.85,47.2441 "/>
<polyline clip-path="url(#clip131)" style="stroke:#000000; stroke-linecap:round; stroke-linejoin:round; stroke-width:2; stroke-opacity:0.1; fill:none" points="1784.9,1423.18 1784.9,47.2441 "/>
<polyline clip-path="url(#clip131)" style="stroke:#000000; stroke-linecap:round; stroke-linejoin:round; stroke-width:2; stroke-opacity:0.1; fill:none" points="2291.94,1423.18 2291.94,47.2441 "/>
<polyline clip-path="url(#clip131)" style="stroke:#000000; stroke-linecap:round; stroke-linejoin:round; stroke-width:2; stroke-opacity:0.1; fill:none" points="203.964,1384.24 2352.76,1384.24 "/>
<polyline clip-path="url(#clip131)" style="stroke:#000000; stroke-linecap:round; stroke-linejoin:round; stroke-width:2; stroke-opacity:0.1; fill:none" points="203.964,1127.69 2352.76,1127.69 "/>
<polyline clip-path="url(#clip131)" style="stroke:#000000; stroke-linecap:round; stroke-linejoin:round; stroke-width:2; stroke-opacity:0.1; fill:none" points="203.964,871.142 2352.76,871.142 "/>
<polyline clip-path="url(#clip131)" style="stroke:#000000; stroke-linecap:round; stroke-linejoin:round; stroke-width:2; stroke-opacity:0.1; fill:none" points="203.964,614.594 2352.76,614.594 "/>
<polyline clip-path="url(#clip131)" style="stroke:#000000; stroke-linecap:round; stroke-linejoin:round; stroke-width:2; stroke-opacity:0.1; fill:none" points="203.964,358.045 2352.76,358.045 "/>
<polyline clip-path="url(#clip131)" style="stroke:#000000; stroke-linecap:round; stroke-linejoin:round; stroke-width:2; stroke-opacity:0.1; fill:none" points="203.964,101.497 2352.76,101.497 "/>
<polyline clip-path="url(#clip130)" style="stroke:#000000; stroke-linecap:round; stroke-linejoin:round; stroke-width:4; stroke-opacity:1; fill:none" points="203.964,1423.18 2352.76,1423.18 "/>
<polyline clip-path="url(#clip130)" style="stroke:#000000; stroke-linecap:round; stroke-linejoin:round; stroke-width:4; stroke-opacity:1; fill:none" points="263.764,1423.18 263.764,1404.28 "/>
<polyline clip-path="url(#clip130)" style="stroke:#000000; stroke-linecap:round; stroke-linejoin:round; stroke-width:4; stroke-opacity:1; fill:none" points="770.809,1423.18 770.809,1404.28 "/>
<polyline clip-path="url(#clip130)" style="stroke:#000000; stroke-linecap:round; stroke-linejoin:round; stroke-width:4; stroke-opacity:1; fill:none" points="1277.85,1423.18 1277.85,1404.28 "/>
<polyline clip-path="url(#clip130)" style="stroke:#000000; stroke-linecap:round; stroke-linejoin:round; stroke-width:4; stroke-opacity:1; fill:none" points="1784.9,1423.18 1784.9,1404.28 "/>
<polyline clip-path="url(#clip130)" style="stroke:#000000; stroke-linecap:round; stroke-linejoin:round; stroke-width:4; stroke-opacity:1; fill:none" points="2291.94,1423.18 2291.94,1404.28 "/>
<path clip-path="url(#clip130)" d="M241.149 1454.1 Q237.538 1454.1 235.709 1457.66 Q233.903 1461.2 233.903 1468.33 Q233.903 1475.44 235.709 1479.01 Q237.538 1482.55 241.149 1482.55 Q244.783 1482.55 246.589 1479.01 Q248.417 1475.44 248.417 1468.33 Q248.417 1461.2 246.589 1457.66 Q244.783 1454.1 241.149 1454.1 M241.149 1450.39 Q246.959 1450.39 250.014 1455 Q253.093 1459.58 253.093 1468.33 Q253.093 1477.06 250.014 1481.67 Q246.959 1486.25 241.149 1486.25 Q235.339 1486.25 232.26 1481.67 Q229.204 1477.06 229.204 1468.33 Q229.204 1459.58 232.26 1455 Q235.339 1450.39 241.149 1450.39 Z" fill="#000000" fill-rule="nonzero" fill-opacity="1" /><path clip-path="url(#clip130)" d="M261.311 1479.7 L266.195 1479.7 L266.195 1485.58 L261.311 1485.58 L261.311 1479.7 Z" fill="#000000" fill-rule="nonzero" fill-opacity="1" /><path clip-path="url(#clip130)" d="M286.38 1454.1 Q282.769 1454.1 280.94 1457.66 Q279.135 1461.2 279.135 1468.33 Q279.135 1475.44 280.94 1479.01 Q282.769 1482.55 286.38 1482.55 Q290.014 1482.55 291.82 1479.01 Q293.648 1475.44 293.648 1468.33 Q293.648 1461.2 291.82 1457.66 Q290.014 1454.1 286.38 1454.1 M286.38 1450.39 Q292.19 1450.39 295.246 1455 Q298.324 1459.58 298.324 1468.33 Q298.324 1477.06 295.246 1481.67 Q292.19 1486.25 286.38 1486.25 Q280.57 1486.25 277.491 1481.67 Q274.436 1477.06 274.436 1468.33 Q274.436 1459.58 277.491 1455 Q280.57 1450.39 286.38 1450.39 Z" fill="#000000" fill-rule="nonzero" fill-opacity="1" /><path clip-path="url(#clip130)" d="M748.691 1454.1 Q745.08 1454.1 743.251 1457.66 Q741.445 1461.2 741.445 1468.33 Q741.445 1475.44 743.251 1479.01 Q745.08 1482.55 748.691 1482.55 Q752.325 1482.55 754.13 1479.01 Q755.959 1475.44 755.959 1468.33 Q755.959 1461.2 754.13 1457.66 Q752.325 1454.1 748.691 1454.1 M748.691 1450.39 Q754.501 1450.39 757.556 1455 Q760.635 1459.58 760.635 1468.33 Q760.635 1477.06 757.556 1481.67 Q754.501 1486.25 748.691 1486.25 Q742.88 1486.25 739.802 1481.67 Q736.746 1477.06 736.746 1468.33 Q736.746 1459.58 739.802 1455 Q742.88 1450.39 748.691 1450.39 Z" fill="#000000" fill-rule="nonzero" fill-opacity="1" /><path clip-path="url(#clip130)" d="M768.853 1479.7 L773.737 1479.7 L773.737 1485.58 L768.853 1485.58 L768.853 1479.7 Z" fill="#000000" fill-rule="nonzero" fill-opacity="1" /><path clip-path="url(#clip130)" d="M783.968 1451.02 L802.325 1451.02 L802.325 1454.96 L788.251 1454.96 L788.251 1463.43 Q789.269 1463.08 790.288 1462.92 Q791.306 1462.73 792.325 1462.73 Q798.112 1462.73 801.491 1465.9 Q804.871 1469.08 804.871 1474.49 Q804.871 1480.07 801.399 1483.17 Q797.926 1486.25 791.607 1486.25 Q789.431 1486.25 787.163 1485.88 Q784.917 1485.51 782.51 1484.77 L782.51 1480.07 Q784.593 1481.2 786.815 1481.76 Q789.038 1482.32 791.514 1482.32 Q795.519 1482.32 797.857 1480.21 Q800.195 1478.1 800.195 1474.49 Q800.195 1470.88 797.857 1468.77 Q795.519 1466.67 791.514 1466.67 Q789.639 1466.67 787.764 1467.08 Q785.913 1467.5 783.968 1468.38 L783.968 1451.02 Z" fill="#000000" fill-rule="nonzero" fill-opacity="1" /><path clip-path="url(#clip130)" d="M1245.01 1481.64 L1252.64 1481.64 L1252.64 1455.28 L1244.33 1456.95 L1244.33 1452.69 L1252.6 1451.02 L1257.27 1451.02 L1257.27 1481.64 L1264.91 1481.64 L1264.91 1485.58 L1245.01 1485.58 L1245.01 1481.64 Z" fill="#000000" fill-rule="nonzero" fill-opacity="1" /><path clip-path="url(#clip130)" d="M1274.36 1479.7 L1279.24 1479.7 L1279.24 1485.58 L1274.36 1485.58 L1274.36 1479.7 Z" fill="#000000" fill-rule="nonzero" fill-opacity="1" /><path clip-path="url(#clip130)" d="M1299.43 1454.1 Q1295.82 1454.1 1293.99 1457.66 Q1292.18 1461.2 1292.18 1468.33 Q1292.18 1475.44 1293.99 1479.01 Q1295.82 1482.55 1299.43 1482.55 Q1303.06 1482.55 1304.87 1479.01 Q1306.7 1475.44 1306.7 1468.33 Q1306.7 1461.2 1304.87 1457.66 Q1303.06 1454.1 1299.43 1454.1 M1299.43 1450.39 Q1305.24 1450.39 1308.29 1455 Q1311.37 1459.58 1311.37 1468.33 Q1311.37 1477.06 1308.29 1481.67 Q1305.24 1486.25 1299.43 1486.25 Q1293.62 1486.25 1290.54 1481.67 Q1287.48 1477.06 1287.48 1468.33 Q1287.48 1459.58 1290.54 1455 Q1293.62 1450.39 1299.43 1450.39 Z" fill="#000000" fill-rule="nonzero" fill-opacity="1" /><path clip-path="url(#clip130)" d="M1752.55 1481.64 L1760.19 1481.64 L1760.19 1455.28 L1751.88 1456.95 L1751.88 1452.69 L1760.14 1451.02 L1764.82 1451.02 L1764.82 1481.64 L1772.45 1481.64 L1772.45 1485.58 L1752.55 1485.58 L1752.55 1481.64 Z" fill="#000000" fill-rule="nonzero" fill-opacity="1" /><path clip-path="url(#clip130)" d="M1781.9 1479.7 L1786.78 1479.7 L1786.78 1485.58 L1781.9 1485.58 L1781.9 1479.7 Z" fill="#000000" fill-rule="nonzero" fill-opacity="1" /><path clip-path="url(#clip130)" d="M1797.01 1451.02 L1815.37 1451.02 L1815.37 1454.96 L1801.3 1454.96 L1801.3 1463.43 Q1802.32 1463.08 1803.33 1462.92 Q1804.35 1462.73 1805.37 1462.73 Q1811.16 1462.73 1814.54 1465.9 Q1817.92 1469.08 1817.92 1474.49 Q1817.92 1480.07 1814.45 1483.17 Q1810.97 1486.25 1804.65 1486.25 Q1802.48 1486.25 1800.21 1485.88 Q1797.96 1485.51 1795.56 1484.77 L1795.56 1480.07 Q1797.64 1481.2 1799.86 1481.76 Q1802.08 1482.32 1804.56 1482.32 Q1808.57 1482.32 1810.9 1480.21 Q1813.24 1478.1 1813.24 1474.49 Q1813.24 1470.88 1810.9 1468.77 Q1808.57 1466.67 1804.56 1466.67 Q1802.69 1466.67 1800.81 1467.08 Q1798.96 1467.5 1797.01 1468.38 L1797.01 1451.02 Z" fill="#000000" fill-rule="nonzero" fill-opacity="1" /><path clip-path="url(#clip130)" d="M2263.18 1481.64 L2279.5 1481.64 L2279.5 1485.58 L2257.55 1485.58 L2257.55 1481.64 Q2260.22 1478.89 2264.8 1474.26 Q2269.41 1469.61 2270.59 1468.27 Q2272.83 1465.74 2273.71 1464.01 Q2274.61 1462.25 2274.61 1460.56 Q2274.61 1457.8 2272.67 1456.07 Q2270.75 1454.33 2267.65 1454.33 Q2265.45 1454.33 2262.99 1455.09 Q2260.56 1455.86 2257.79 1457.41 L2257.79 1452.69 Q2260.61 1451.55 2263.06 1450.97 Q2265.52 1450.39 2267.55 1450.39 Q2272.92 1450.39 2276.12 1453.08 Q2279.31 1455.77 2279.31 1460.26 Q2279.31 1462.39 2278.5 1464.31 Q2277.72 1466.2 2275.61 1468.8 Q2275.03 1469.47 2271.93 1472.69 Q2268.83 1475.88 2263.18 1481.64 Z" fill="#000000" fill-rule="nonzero" fill-opacity="1" /><path clip-path="url(#clip130)" d="M2289.31 1479.7 L2294.2 1479.7 L2294.2 1485.58 L2289.31 1485.58 L2289.31 1479.7 Z" fill="#000000" fill-rule="nonzero" fill-opacity="1" /><path clip-path="url(#clip130)" d="M2314.38 1454.1 Q2310.77 1454.1 2308.94 1457.66 Q2307.14 1461.2 2307.14 1468.33 Q2307.14 1475.44 2308.94 1479.01 Q2310.77 1482.55 2314.38 1482.55 Q2318.02 1482.55 2319.82 1479.01 Q2321.65 1475.44 2321.65 1468.33 Q2321.65 1461.2 2319.82 1457.66 Q2318.02 1454.1 2314.38 1454.1 M2314.38 1450.39 Q2320.19 1450.39 2323.25 1455 Q2326.33 1459.58 2326.33 1468.33 Q2326.33 1477.06 2323.25 1481.67 Q2320.19 1486.25 2314.38 1486.25 Q2308.57 1486.25 2305.49 1481.67 Q2302.44 1477.06 2302.44 1468.33 Q2302.44 1459.58 2305.49 1455 Q2308.57 1450.39 2314.38 1450.39 Z" fill="#000000" fill-rule="nonzero" fill-opacity="1" /><path clip-path="url(#clip130)" d="M674.541 1537.87 Q673.554 1537.3 672.376 1537.04 Q671.23 1536.76 669.83 1536.76 Q664.865 1536.76 662.191 1540 Q659.549 1543.22 659.549 1549.27 L659.549 1568.04 L653.661 1568.04 L653.661 1532.4 L659.549 1532.4 L659.549 1537.93 Q661.395 1534.69 664.356 1533.13 Q667.316 1531.54 671.549 1531.54 Q672.153 1531.54 672.886 1531.63 Q673.618 1531.7 674.509 1531.85 L674.541 1537.87 Z" fill="#000000" fill-rule="nonzero" fill-opacity="1" /><path clip-path="url(#clip130)" d="M715.472 1518.58 Q711.207 1525.9 709.138 1533.06 Q707.069 1540.23 707.069 1547.58 Q707.069 1554.93 709.138 1562.16 Q711.239 1569.35 715.472 1576.64 L710.38 1576.64 Q705.605 1569.16 703.218 1561.93 Q700.863 1554.71 700.863 1547.58 Q700.863 1540.48 703.218 1533.29 Q705.573 1526.09 710.38 1518.58 L715.472 1518.58 Z" fill="#000000" fill-rule="nonzero" fill-opacity="1" /><path clip-path="url(#clip130)" d="M727.09 1520.52 L733.519 1520.52 L733.519 1564.73 Q733.519 1573.33 730.241 1577.21 Q726.994 1581.09 719.769 1581.09 L717.318 1581.09 L717.318 1575.68 L719.323 1575.68 Q723.588 1575.68 725.339 1573.3 Q727.09 1570.91 727.09 1564.73 L727.09 1520.52 Z" fill="#000000" fill-rule="nonzero" fill-opacity="1" /><path clip-path="url(#clip130)" d="M762.26 1550.12 Q755.162 1550.12 752.425 1551.75 Q749.688 1553.37 749.688 1557.29 Q749.688 1560.4 751.725 1562.25 Q753.794 1564.07 757.327 1564.07 Q762.196 1564.07 765.125 1560.63 Q768.085 1557.16 768.085 1551.43 L768.085 1550.12 L762.26 1550.12 M773.941 1547.71 L773.941 1568.04 L768.085 1568.04 L768.085 1562.63 Q766.079 1565.88 763.088 1567.44 Q760.096 1568.97 755.767 1568.97 Q750.293 1568.97 747.046 1565.91 Q743.831 1562.82 743.831 1557.67 Q743.831 1551.65 747.842 1548.6 Q751.884 1545.54 759.873 1545.54 L768.085 1545.54 L768.085 1544.97 Q768.085 1540.93 765.411 1538.73 Q762.769 1536.5 757.963 1536.5 Q754.908 1536.5 752.011 1537.23 Q749.115 1537.97 746.441 1539.43 L746.441 1534.02 Q749.656 1532.78 752.68 1532.17 Q755.703 1531.54 758.568 1531.54 Q766.302 1531.54 770.122 1535.55 Q773.941 1539.56 773.941 1547.71 Z" fill="#000000" fill-rule="nonzero" fill-opacity="1" /><path clip-path="url(#clip130)" d="M811.658 1533.76 L811.658 1539.24 Q809.175 1537.87 806.661 1537.2 Q804.178 1536.5 801.632 1536.5 Q795.935 1536.5 792.784 1540.13 Q789.633 1543.73 789.633 1550.25 Q789.633 1556.78 792.784 1560.4 Q795.935 1564 801.632 1564 Q804.178 1564 806.661 1563.33 Q809.175 1562.63 811.658 1561.26 L811.658 1566.68 Q809.207 1567.82 806.565 1568.39 Q803.955 1568.97 800.995 1568.97 Q792.943 1568.97 788.2 1563.91 Q783.458 1558.85 783.458 1550.25 Q783.458 1541.53 788.232 1536.53 Q793.038 1531.54 801.377 1531.54 Q804.083 1531.54 806.661 1532.11 Q809.239 1532.65 811.658 1533.76 Z" fill="#000000" fill-rule="nonzero" fill-opacity="1" /><path clip-path="url(#clip130)" d="M835.657 1536.5 Q830.946 1536.5 828.209 1540.19 Q825.472 1543.85 825.472 1550.25 Q825.472 1556.65 828.177 1560.34 Q830.914 1564 835.657 1564 Q840.335 1564 843.073 1560.31 Q845.81 1556.62 845.81 1550.25 Q845.81 1543.92 843.073 1540.23 Q840.335 1536.5 835.657 1536.5 M835.657 1531.54 Q843.296 1531.54 847.656 1536.5 Q852.017 1541.47 852.017 1550.25 Q852.017 1559 847.656 1564 Q843.296 1568.97 835.657 1568.97 Q827.986 1568.97 823.625 1564 Q819.297 1559 819.297 1550.25 Q819.297 1541.47 823.625 1536.5 Q827.986 1531.54 835.657 1531.54 Z" fill="#000000" fill-rule="nonzero" fill-opacity="1" /><path clip-path="url(#clip130)" d="M887.314 1550.25 Q887.314 1543.79 884.641 1540.13 Q881.999 1536.44 877.352 1536.44 Q872.705 1536.44 870.031 1540.13 Q867.39 1543.79 867.39 1550.25 Q867.39 1556.71 870.031 1560.4 Q872.705 1564.07 877.352 1564.07 Q881.999 1564.07 884.641 1560.4 Q887.314 1556.71 887.314 1550.25 M867.39 1537.81 Q869.236 1534.62 872.037 1533.1 Q874.869 1531.54 878.784 1531.54 Q885.277 1531.54 889.32 1536.69 Q893.394 1541.85 893.394 1550.25 Q893.394 1558.65 889.32 1563.81 Q885.277 1568.97 878.784 1568.97 Q874.869 1568.97 872.037 1567.44 Q869.236 1565.88 867.39 1562.7 L867.39 1568.04 L861.501 1568.04 L861.501 1518.52 L867.39 1518.52 L867.39 1537.81 Z" fill="#000000" fill-rule="nonzero" fill-opacity="1" /><path clip-path="url(#clip130)" d="M903.101 1532.4 L908.958 1532.4 L908.958 1568.04 L903.101 1568.04 L903.101 1532.4 M903.101 1518.52 L908.958 1518.52 L908.958 1525.93 L903.101 1525.93 L903.101 1518.52 Z" fill="#000000" fill-rule="nonzero" fill-opacity="1" /><path clip-path="url(#clip130)" d="M967.586 1533.76 L967.586 1539.24 Q965.103 1537.87 962.589 1537.2 Q960.106 1536.5 957.56 1536.5 Q951.863 1536.5 948.712 1540.13 Q945.561 1543.73 945.561 1550.25 Q945.561 1556.78 948.712 1560.4 Q951.863 1564 957.56 1564 Q960.106 1564 962.589 1563.33 Q965.103 1562.63 967.586 1561.26 L967.586 1566.68 Q965.135 1567.82 962.493 1568.39 Q959.883 1568.97 956.923 1568.97 Q948.871 1568.97 944.128 1563.91 Q939.386 1558.85 939.386 1550.25 Q939.386 1541.53 944.16 1536.53 Q948.966 1531.54 957.305 1531.54 Q960.011 1531.54 962.589 1532.11 Q965.167 1532.65 967.586 1533.76 Z" fill="#000000" fill-rule="nonzero" fill-opacity="1" /><path clip-path="url(#clip130)" d="M991.585 1536.5 Q986.874 1536.5 984.137 1540.19 Q981.4 1543.85 981.4 1550.25 Q981.4 1556.65 984.105 1560.34 Q986.842 1564 991.585 1564 Q996.263 1564 999.001 1560.31 Q1001.74 1556.62 1001.74 1550.25 Q1001.74 1543.92 999.001 1540.23 Q996.263 1536.5 991.585 1536.5 M991.585 1531.54 Q999.224 1531.54 1003.58 1536.5 Q1007.94 1541.47 1007.94 1550.25 Q1007.94 1559 1003.58 1564 Q999.224 1568.97 991.585 1568.97 Q983.914 1568.97 979.553 1564 Q975.225 1559 975.225 1550.25 Q975.225 1541.47 979.553 1536.5 Q983.914 1531.54 991.585 1531.54 Z" fill="#000000" fill-rule="nonzero" fill-opacity="1" /><path clip-path="url(#clip130)" d="M1031.47 1536.5 Q1026.76 1536.5 1024.02 1540.19 Q1021.28 1543.85 1021.28 1550.25 Q1021.28 1556.65 1023.99 1560.34 Q1026.72 1564 1031.47 1564 Q1036.14 1564 1038.88 1560.31 Q1041.62 1556.62 1041.62 1550.25 Q1041.62 1543.92 1038.88 1540.23 Q1036.14 1536.5 1031.47 1536.5 M1031.47 1531.54 Q1039.1 1531.54 1043.47 1536.5 Q1047.83 1541.47 1047.83 1550.25 Q1047.83 1559 1043.47 1564 Q1039.1 1568.97 1031.47 1568.97 Q1023.8 1568.97 1019.43 1564 Q1015.11 1559 1015.11 1550.25 Q1015.11 1541.47 1019.43 1536.5 Q1023.8 1531.54 1031.47 1531.54 Z" fill="#000000" fill-rule="nonzero" fill-opacity="1" /><path clip-path="url(#clip130)" d="M1078.19 1537.87 Q1077.2 1537.3 1076.03 1537.04 Q1074.88 1536.76 1073.48 1536.76 Q1068.51 1536.76 1065.84 1540 Q1063.2 1543.22 1063.2 1549.27 L1063.2 1568.04 L1057.31 1568.04 L1057.31 1532.4 L1063.2 1532.4 L1063.2 1537.93 Q1065.04 1534.69 1068 1533.13 Q1070.97 1531.54 1075.2 1531.54 Q1075.8 1531.54 1076.54 1531.63 Q1077.27 1531.7 1078.16 1531.85 L1078.19 1537.87 Z" fill="#000000" fill-rule="nonzero" fill-opacity="1" /><path clip-path="url(#clip130)" d="M1106.64 1537.81 L1106.64 1518.52 L1112.5 1518.52 L1112.5 1568.04 L1106.64 1568.04 L1106.64 1562.7 Q1104.8 1565.88 1101.97 1567.44 Q1099.17 1568.97 1095.22 1568.97 Q1088.76 1568.97 1084.68 1563.81 Q1080.64 1558.65 1080.64 1550.25 Q1080.64 1541.85 1084.68 1536.69 Q1088.76 1531.54 1095.22 1531.54 Q1099.17 1531.54 1101.97 1533.1 Q1104.8 1534.62 1106.64 1537.81 M1086.69 1550.25 Q1086.69 1556.71 1089.33 1560.4 Q1092 1564.07 1096.65 1564.07 Q1101.3 1564.07 1103.97 1560.4 Q1106.64 1556.71 1106.64 1550.25 Q1106.64 1543.79 1103.97 1540.13 Q1101.3 1536.44 1096.65 1536.44 Q1092 1536.44 1089.33 1540.13 Q1086.69 1543.79 1086.69 1550.25 Z" fill="#000000" fill-rule="nonzero" fill-opacity="1" /><path clip-path="url(#clip130)" d="M1124.56 1532.4 L1130.42 1532.4 L1130.42 1568.04 L1124.56 1568.04 L1124.56 1532.4 M1124.56 1518.52 L1130.42 1518.52 L1130.42 1525.93 L1124.56 1525.93 L1124.56 1518.52 Z" fill="#000000" fill-rule="nonzero" fill-opacity="1" /><path clip-path="url(#clip130)" d="M1172.31 1546.53 L1172.31 1568.04 L1166.45 1568.04 L1166.45 1546.72 Q1166.45 1541.66 1164.48 1539.14 Q1162.5 1536.63 1158.56 1536.63 Q1153.81 1536.63 1151.08 1539.65 Q1148.34 1542.68 1148.34 1547.9 L1148.34 1568.04 L1142.45 1568.04 L1142.45 1532.4 L1148.34 1532.4 L1148.34 1537.93 Q1150.44 1534.72 1153.27 1533.13 Q1156.14 1531.54 1159.86 1531.54 Q1166.01 1531.54 1169.16 1535.36 Q1172.31 1539.14 1172.31 1546.53 Z" fill="#000000" fill-rule="nonzero" fill-opacity="1" /><path clip-path="url(#clip130)" d="M1200.19 1550.12 Q1193.09 1550.12 1190.35 1551.75 Q1187.62 1553.37 1187.62 1557.29 Q1187.62 1560.4 1189.65 1562.25 Q1191.72 1564.07 1195.26 1564.07 Q1200.13 1564.07 1203.05 1560.63 Q1206.01 1557.16 1206.01 1551.43 L1206.01 1550.12 L1200.19 1550.12 M1211.87 1547.71 L1211.87 1568.04 L1206.01 1568.04 L1206.01 1562.63 Q1204.01 1565.88 1201.02 1567.44 Q1198.02 1568.97 1193.7 1568.97 Q1188.22 1568.97 1184.97 1565.91 Q1181.76 1562.82 1181.76 1557.67 Q1181.76 1551.65 1185.77 1548.6 Q1189.81 1545.54 1197.8 1545.54 L1206.01 1545.54 L1206.01 1544.97 Q1206.01 1540.93 1203.34 1538.73 Q1200.7 1536.5 1195.89 1536.5 Q1192.84 1536.5 1189.94 1537.23 Q1187.04 1537.97 1184.37 1539.43 L1184.37 1534.02 Q1187.58 1532.78 1190.61 1532.17 Q1193.63 1531.54 1196.5 1531.54 Q1204.23 1531.54 1208.05 1535.55 Q1211.87 1539.56 1211.87 1547.71 Z" fill="#000000" fill-rule="nonzero" fill-opacity="1" /><path clip-path="url(#clip130)" d="M1229.73 1522.27 L1229.73 1532.4 L1241.79 1532.4 L1241.79 1536.95 L1229.73 1536.95 L1229.73 1556.3 Q1229.73 1560.66 1230.9 1561.9 Q1232.11 1563.14 1235.77 1563.14 L1241.79 1563.14 L1241.79 1568.04 L1235.77 1568.04 Q1228.99 1568.04 1226.42 1565.53 Q1223.84 1562.98 1223.84 1556.3 L1223.84 1536.95 L1219.54 1536.95 L1219.54 1532.4 L1223.84 1532.4 L1223.84 1522.27 L1229.73 1522.27 Z" fill="#000000" fill-rule="nonzero" fill-opacity="1" /><path clip-path="url(#clip130)" d="M1279.98 1548.76 L1279.98 1551.62 L1253.06 1551.62 Q1253.44 1557.67 1256.68 1560.85 Q1259.96 1564 1265.79 1564 Q1269.16 1564 1272.31 1563.17 Q1275.5 1562.35 1278.61 1560.69 L1278.61 1566.23 Q1275.46 1567.57 1272.15 1568.27 Q1268.84 1568.97 1265.44 1568.97 Q1256.91 1568.97 1251.91 1564 Q1246.94 1559.04 1246.94 1550.57 Q1246.94 1541.82 1251.66 1536.69 Q1256.4 1531.54 1264.42 1531.54 Q1271.61 1531.54 1275.78 1536.18 Q1279.98 1540.8 1279.98 1548.76 M1274.13 1547.04 Q1274.06 1542.23 1271.42 1539.37 Q1268.81 1536.5 1264.48 1536.5 Q1259.58 1536.5 1256.62 1539.27 Q1253.69 1542.04 1253.25 1547.07 L1274.13 1547.04 Z" fill="#000000" fill-rule="nonzero" fill-opacity="1" /><path clip-path="url(#clip130)" d="M1312.26 1562.63 L1322.76 1562.63 L1322.76 1526.38 L1311.33 1528.67 L1311.33 1522.82 L1322.7 1520.52 L1329.13 1520.52 L1329.13 1562.63 L1339.63 1562.63 L1339.63 1568.04 L1312.26 1568.04 L1312.26 1562.63 Z" fill="#000000" fill-rule="nonzero" fill-opacity="1" /><path clip-path="url(#clip130)" d="M1353.28 1559.96 L1360 1559.96 L1360 1565.43 L1354.78 1575.62 L1350.67 1575.62 L1353.28 1565.43 L1353.28 1559.96 Z" fill="#000000" fill-rule="nonzero" fill-opacity="1" /><path clip-path="url(#clip130)" d="M1420.98 1539.24 Q1423.18 1535.29 1426.24 1533.41 Q1429.29 1531.54 1433.43 1531.54 Q1439 1531.54 1442.02 1535.45 Q1445.05 1539.33 1445.05 1546.53 L1445.05 1568.04 L1439.16 1568.04 L1439.16 1546.72 Q1439.16 1541.59 1437.34 1539.11 Q1435.53 1536.63 1431.81 1536.63 Q1427.25 1536.63 1424.61 1539.65 Q1421.97 1542.68 1421.97 1547.9 L1421.97 1568.04 L1416.08 1568.04 L1416.08 1546.72 Q1416.08 1541.56 1414.27 1539.11 Q1412.45 1536.63 1408.67 1536.63 Q1404.18 1536.63 1401.54 1539.68 Q1398.89 1542.71 1398.89 1547.9 L1398.89 1568.04 L1393.01 1568.04 L1393.01 1532.4 L1398.89 1532.4 L1398.89 1537.93 Q1400.9 1534.66 1403.7 1533.1 Q1406.5 1531.54 1410.35 1531.54 Q1414.24 1531.54 1416.94 1533.51 Q1419.68 1535.48 1420.98 1539.24 Z" fill="#000000" fill-rule="nonzero" fill-opacity="1" /><path clip-path="url(#clip130)" d="M1472.93 1550.12 Q1465.83 1550.12 1463.09 1551.75 Q1460.36 1553.37 1460.36 1557.29 Q1460.36 1560.4 1462.39 1562.25 Q1464.46 1564.07 1467.99 1564.07 Q1472.86 1564.07 1475.79 1560.63 Q1478.75 1557.16 1478.75 1551.43 L1478.75 1550.12 L1472.93 1550.12 M1484.61 1547.71 L1484.61 1568.04 L1478.75 1568.04 L1478.75 1562.63 Q1476.75 1565.88 1473.76 1567.44 Q1470.76 1568.97 1466.43 1568.97 Q1460.96 1568.97 1457.71 1565.91 Q1454.5 1562.82 1454.5 1557.67 Q1454.5 1551.65 1458.51 1548.6 Q1462.55 1545.54 1470.54 1545.54 L1478.75 1545.54 L1478.75 1544.97 Q1478.75 1540.93 1476.08 1538.73 Q1473.44 1536.5 1468.63 1536.5 Q1465.58 1536.5 1462.68 1537.23 Q1459.78 1537.97 1457.11 1539.43 L1457.11 1534.02 Q1460.32 1532.78 1463.35 1532.17 Q1466.37 1531.54 1469.24 1531.54 Q1476.97 1531.54 1480.79 1535.55 Q1484.61 1539.56 1484.61 1547.71 Z" fill="#000000" fill-rule="nonzero" fill-opacity="1" /><path clip-path="url(#clip130)" d="M1519.4 1533.45 L1519.4 1538.98 Q1516.91 1537.71 1514.24 1537.07 Q1511.57 1536.44 1508.7 1536.44 Q1504.34 1536.44 1502.15 1537.77 Q1499.98 1539.11 1499.98 1541.79 Q1499.98 1543.82 1501.54 1545 Q1503.1 1546.15 1507.81 1547.2 L1509.82 1547.64 Q1516.06 1548.98 1518.67 1551.43 Q1521.31 1553.85 1521.31 1558.21 Q1521.31 1563.17 1517.36 1566.07 Q1513.45 1568.97 1506.57 1568.97 Q1503.71 1568.97 1500.59 1568.39 Q1497.5 1567.85 1494.06 1566.74 L1494.06 1560.69 Q1497.31 1562.38 1500.46 1563.24 Q1503.61 1564.07 1506.7 1564.07 Q1510.84 1564.07 1513.06 1562.66 Q1515.29 1561.23 1515.29 1558.65 Q1515.29 1556.27 1513.67 1554.99 Q1512.08 1553.72 1506.63 1552.54 L1504.6 1552.07 Q1499.15 1550.92 1496.74 1548.56 Q1494.32 1546.18 1494.32 1542.04 Q1494.32 1537.01 1497.88 1534.27 Q1501.45 1531.54 1508 1531.54 Q1511.25 1531.54 1514.11 1532.01 Q1516.98 1532.49 1519.4 1533.45 Z" fill="#000000" fill-rule="nonzero" fill-opacity="1" /><path clip-path="url(#clip130)" d="M1553.36 1533.45 L1553.36 1538.98 Q1550.88 1537.71 1548.2 1537.07 Q1545.53 1536.44 1542.66 1536.44 Q1538.3 1536.44 1536.11 1537.77 Q1533.94 1539.11 1533.94 1541.79 Q1533.94 1543.82 1535.5 1545 Q1537.06 1546.15 1541.77 1547.2 L1543.78 1547.64 Q1550.02 1548.98 1552.63 1551.43 Q1555.27 1553.85 1555.27 1558.21 Q1555.27 1563.17 1551.32 1566.07 Q1547.41 1568.97 1540.53 1568.97 Q1537.67 1568.97 1534.55 1568.39 Q1531.46 1567.85 1528.02 1566.74 L1528.02 1560.69 Q1531.27 1562.38 1534.42 1563.24 Q1537.57 1564.07 1540.66 1564.07 Q1544.8 1564.07 1547.02 1562.66 Q1549.25 1561.23 1549.25 1558.65 Q1549.25 1556.27 1547.63 1554.99 Q1546.04 1553.72 1540.6 1552.54 L1538.56 1552.07 Q1533.12 1550.92 1530.7 1548.56 Q1528.28 1546.18 1528.28 1542.04 Q1528.28 1537.01 1531.84 1534.27 Q1535.41 1531.54 1541.96 1531.54 Q1545.21 1531.54 1548.07 1532.01 Q1550.94 1532.49 1553.36 1533.45 Z" fill="#000000" fill-rule="nonzero" fill-opacity="1" /><path clip-path="url(#clip130)" d="M1561.63 1547.58 L1578.79 1547.58 L1578.79 1552.8 L1561.63 1552.8 L1561.63 1547.58 Z" fill="#000000" fill-rule="nonzero" fill-opacity="1" /><path clip-path="url(#clip130)" d="M1584.71 1532.4 L1590.57 1532.4 L1597.89 1560.21 L1605.18 1532.4 L1612.08 1532.4 L1619.4 1560.21 L1626.69 1532.4 L1632.55 1532.4 L1623.22 1568.04 L1616.32 1568.04 L1608.64 1538.83 L1600.94 1568.04 L1594.04 1568.04 L1584.71 1532.4 Z" fill="#000000" fill-rule="nonzero" fill-opacity="1" /><path clip-path="url(#clip130)" d="M1671.92 1548.76 L1671.92 1551.62 L1644.99 1551.62 Q1645.37 1557.67 1648.62 1560.85 Q1651.9 1564 1657.72 1564 Q1661.1 1564 1664.25 1563.17 Q1667.43 1562.35 1670.55 1560.69 L1670.55 1566.23 Q1667.4 1567.57 1664.09 1568.27 Q1660.78 1568.97 1657.37 1568.97 Q1648.84 1568.97 1643.85 1564 Q1638.88 1559.04 1638.88 1550.57 Q1638.88 1541.82 1643.59 1536.69 Q1648.33 1531.54 1656.36 1531.54 Q1663.55 1531.54 1667.72 1536.18 Q1671.92 1540.8 1671.92 1548.76 M1666.06 1547.04 Q1666 1542.23 1663.36 1539.37 Q1660.75 1536.5 1656.42 1536.5 Q1651.52 1536.5 1648.56 1539.27 Q1645.63 1542.04 1645.18 1547.07 L1666.06 1547.04 Z" fill="#000000" fill-rule="nonzero" fill-opacity="1" /><path clip-path="url(#clip130)" d="M1681.53 1532.4 L1687.39 1532.4 L1687.39 1568.04 L1681.53 1568.04 L1681.53 1532.4 M1681.53 1518.52 L1687.39 1518.52 L1687.39 1525.93 L1681.53 1525.93 L1681.53 1518.52 Z" fill="#000000" fill-rule="nonzero" fill-opacity="1" /><path clip-path="url(#clip130)" d="M1723.1 1549.81 Q1723.1 1543.44 1720.46 1539.94 Q1717.85 1536.44 1713.11 1536.44 Q1708.4 1536.44 1705.75 1539.94 Q1703.14 1543.44 1703.14 1549.81 Q1703.14 1556.14 1705.75 1559.64 Q1708.4 1563.14 1713.11 1563.14 Q1717.85 1563.14 1720.46 1559.64 Q1723.1 1556.14 1723.1 1549.81 M1728.96 1563.62 Q1728.96 1572.72 1724.91 1577.15 Q1720.87 1581.6 1712.53 1581.6 Q1709.45 1581.6 1706.71 1581.13 Q1703.97 1580.68 1701.39 1579.72 L1701.39 1574.03 Q1703.97 1575.43 1706.49 1576.1 Q1709 1576.76 1711.61 1576.76 Q1717.37 1576.76 1720.24 1573.74 Q1723.1 1570.75 1723.1 1564.67 L1723.1 1561.77 Q1721.29 1564.92 1718.45 1566.48 Q1715.62 1568.04 1711.67 1568.04 Q1705.12 1568.04 1701.11 1563.05 Q1697.1 1558.05 1697.1 1549.81 Q1697.1 1541.53 1701.11 1536.53 Q1705.12 1531.54 1711.67 1531.54 Q1715.62 1531.54 1718.45 1533.1 Q1721.29 1534.66 1723.1 1537.81 L1723.1 1532.4 L1728.96 1532.4 L1728.96 1563.62 Z" fill="#000000" fill-rule="nonzero" fill-opacity="1" /><path clip-path="url(#clip130)" d="M1770.65 1546.53 L1770.65 1568.04 L1764.8 1568.04 L1764.8 1546.72 Q1764.8 1541.66 1762.82 1539.14 Q1760.85 1536.63 1756.9 1536.63 Q1752.16 1536.63 1749.42 1539.65 Q1746.68 1542.68 1746.68 1547.9 L1746.68 1568.04 L1740.8 1568.04 L1740.8 1518.52 L1746.68 1518.52 L1746.68 1537.93 Q1748.79 1534.72 1751.62 1533.13 Q1754.48 1531.54 1758.21 1531.54 Q1764.35 1531.54 1767.5 1535.36 Q1770.65 1539.14 1770.65 1546.53 Z" fill="#000000" fill-rule="nonzero" fill-opacity="1" /><path clip-path="url(#clip130)" d="M1788.13 1522.27 L1788.13 1532.4 L1800.19 1532.4 L1800.19 1536.95 L1788.13 1536.95 L1788.13 1556.3 Q1788.13 1560.66 1789.3 1561.9 Q1790.51 1563.14 1794.17 1563.14 L1800.19 1563.14 L1800.19 1568.04 L1794.17 1568.04 Q1787.39 1568.04 1784.82 1565.53 Q1782.24 1562.98 1782.24 1556.3 L1782.24 1536.95 L1777.94 1536.95 L1777.94 1532.4 L1782.24 1532.4 L1782.24 1522.27 L1788.13 1522.27 Z" fill="#000000" fill-rule="nonzero" fill-opacity="1" /><path clip-path="url(#clip130)" d="M1838.38 1548.76 L1838.38 1551.62 L1811.46 1551.62 Q1811.84 1557.67 1815.08 1560.85 Q1818.36 1564 1824.19 1564 Q1827.56 1564 1830.71 1563.17 Q1833.89 1562.35 1837.01 1560.69 L1837.01 1566.23 Q1833.86 1567.57 1830.55 1568.27 Q1827.24 1568.97 1823.84 1568.97 Q1815.31 1568.97 1810.31 1564 Q1805.34 1559.04 1805.34 1550.57 Q1805.34 1541.82 1810.06 1536.69 Q1814.8 1531.54 1822.82 1531.54 Q1830.01 1531.54 1834.18 1536.18 Q1838.38 1540.8 1838.38 1548.76 M1832.53 1547.04 Q1832.46 1542.23 1829.82 1539.37 Q1827.21 1536.5 1822.88 1536.5 Q1817.98 1536.5 1815.02 1539.27 Q1812.09 1542.04 1811.65 1547.07 L1832.53 1547.04 Z" fill="#000000" fill-rule="nonzero" fill-opacity="1" /><path clip-path="url(#clip130)" d="M1871.45 1537.81 L1871.45 1518.52 L1877.31 1518.52 L1877.31 1568.04 L1871.45 1568.04 L1871.45 1562.7 Q1869.61 1565.88 1866.77 1567.44 Q1863.97 1568.97 1860.03 1568.97 Q1853.56 1568.97 1849.49 1563.81 Q1845.45 1558.65 1845.45 1550.25 Q1845.45 1541.85 1849.49 1536.69 Q1853.56 1531.54 1860.03 1531.54 Q1863.97 1531.54 1866.77 1533.1 Q1869.61 1534.62 1871.45 1537.81 M1851.5 1550.25 Q1851.5 1556.71 1854.14 1560.4 Q1856.81 1564.07 1861.46 1564.07 Q1866.11 1564.07 1868.78 1560.4 Q1871.45 1556.71 1871.45 1550.25 Q1871.45 1543.79 1868.78 1540.13 Q1866.11 1536.44 1861.46 1536.44 Q1856.81 1536.44 1854.14 1540.13 Q1851.5 1543.79 1851.5 1550.25 Z" fill="#000000" fill-rule="nonzero" fill-opacity="1" /><path clip-path="url(#clip130)" d="M1888.45 1518.58 L1893.54 1518.58 Q1898.32 1526.09 1900.67 1533.29 Q1903.06 1540.48 1903.06 1547.58 Q1903.06 1554.71 1900.67 1561.93 Q1898.32 1569.16 1893.54 1576.64 L1888.45 1576.64 Q1892.68 1569.35 1894.75 1562.16 Q1896.85 1554.93 1896.85 1547.58 Q1896.85 1540.23 1894.75 1533.06 Q1892.68 1525.9 1888.45 1518.58 Z" fill="#000000" fill-rule="nonzero" fill-opacity="1" /><polyline clip-path="url(#clip130)" style="stroke:#000000; stroke-linecap:round; stroke-linejoin:round; stroke-width:4; stroke-opacity:1; fill:none" points="203.964,1423.18 203.964,47.2441 "/>
<polyline clip-path="url(#clip130)" style="stroke:#000000; stroke-linecap:round; stroke-linejoin:round; stroke-width:4; stroke-opacity:1; fill:none" points="203.964,1384.24 222.861,1384.24 "/>
<polyline clip-path="url(#clip130)" style="stroke:#000000; stroke-linecap:round; stroke-linejoin:round; stroke-width:4; stroke-opacity:1; fill:none" points="203.964,1127.69 222.861,1127.69 "/>
<polyline clip-path="url(#clip130)" style="stroke:#000000; stroke-linecap:round; stroke-linejoin:round; stroke-width:4; stroke-opacity:1; fill:none" points="203.964,871.142 222.861,871.142 "/>
<polyline clip-path="url(#clip130)" style="stroke:#000000; stroke-linecap:round; stroke-linejoin:round; stroke-width:4; stroke-opacity:1; fill:none" points="203.964,614.594 222.861,614.594 "/>
<polyline clip-path="url(#clip130)" style="stroke:#000000; stroke-linecap:round; stroke-linejoin:round; stroke-width:4; stroke-opacity:1; fill:none" points="203.964,358.045 222.861,358.045 "/>
<polyline clip-path="url(#clip130)" style="stroke:#000000; stroke-linecap:round; stroke-linejoin:round; stroke-width:4; stroke-opacity:1; fill:none" points="203.964,101.497 222.861,101.497 "/>
<path clip-path="url(#clip130)" d="M156.019 1370.04 Q152.408 1370.04 150.579 1373.6 Q148.774 1377.14 148.774 1384.27 Q148.774 1391.38 150.579 1394.94 Q152.408 1398.49 156.019 1398.49 Q159.653 1398.49 161.459 1394.94 Q163.288 1391.38 163.288 1384.27 Q163.288 1377.14 161.459 1373.6 Q159.653 1370.04 156.019 1370.04 M156.019 1366.33 Q161.829 1366.33 164.885 1370.94 Q167.964 1375.52 167.964 1384.27 Q167.964 1393 164.885 1397.61 Q161.829 1402.19 156.019 1402.19 Q150.209 1402.19 147.13 1397.61 Q144.075 1393 144.075 1384.27 Q144.075 1375.52 147.13 1370.94 Q150.209 1366.33 156.019 1366.33 Z" fill="#000000" fill-rule="nonzero" fill-opacity="1" /><path clip-path="url(#clip130)" d="M147.061 1110.41 L165.417 1110.41 L165.417 1114.35 L151.343 1114.35 L151.343 1122.82 Q152.362 1122.47 153.38 1122.31 Q154.399 1122.12 155.417 1122.12 Q161.204 1122.12 164.584 1125.29 Q167.964 1128.47 167.964 1133.88 Q167.964 1139.46 164.491 1142.56 Q161.019 1145.64 154.7 1145.64 Q152.524 1145.64 150.255 1145.27 Q148.01 1144.9 145.603 1144.16 L145.603 1139.46 Q147.686 1140.6 149.908 1141.15 Q152.13 1141.71 154.607 1141.71 Q158.612 1141.71 160.95 1139.6 Q163.288 1137.49 163.288 1133.88 Q163.288 1130.27 160.95 1128.16 Q158.612 1126.06 154.607 1126.06 Q152.732 1126.06 150.857 1126.47 Q149.005 1126.89 147.061 1127.77 L147.061 1110.41 Z" fill="#000000" fill-rule="nonzero" fill-opacity="1" /><path clip-path="url(#clip130)" d="M116.668 884.487 L124.306 884.487 L124.306 858.121 L115.996 859.788 L115.996 855.528 L124.26 853.862 L128.936 853.862 L128.936 884.487 L136.575 884.487 L136.575 888.422 L116.668 888.422 L116.668 884.487 Z" fill="#000000" fill-rule="nonzero" fill-opacity="1" /><path clip-path="url(#clip130)" d="M156.019 856.94 Q152.408 856.94 150.579 860.505 Q148.774 864.047 148.774 871.177 Q148.774 878.283 150.579 881.848 Q152.408 885.389 156.019 885.389 Q159.653 885.389 161.459 881.848 Q163.288 878.283 163.288 871.177 Q163.288 864.047 161.459 860.505 Q159.653 856.94 156.019 856.94 M156.019 853.237 Q161.829 853.237 164.885 857.843 Q167.964 862.427 167.964 871.177 Q167.964 879.903 164.885 884.51 Q161.829 889.093 156.019 889.093 Q150.209 889.093 147.13 884.51 Q144.075 879.903 144.075 871.177 Q144.075 862.427 147.13 857.843 Q150.209 853.237 156.019 853.237 Z" fill="#000000" fill-rule="nonzero" fill-opacity="1" /><path clip-path="url(#clip130)" d="M117.663 627.938 L125.302 627.938 L125.302 601.573 L116.992 603.239 L116.992 598.98 L125.255 597.314 L129.931 597.314 L129.931 627.938 L137.57 627.938 L137.57 631.874 L117.663 631.874 L117.663 627.938 Z" fill="#000000" fill-rule="nonzero" fill-opacity="1" /><path clip-path="url(#clip130)" d="M147.061 597.314 L165.417 597.314 L165.417 601.249 L151.343 601.249 L151.343 609.721 Q152.362 609.374 153.38 609.212 Q154.399 609.026 155.417 609.026 Q161.204 609.026 164.584 612.198 Q167.964 615.369 167.964 620.786 Q167.964 626.364 164.491 629.466 Q161.019 632.545 154.7 632.545 Q152.524 632.545 150.255 632.174 Q148.01 631.804 145.603 631.063 L145.603 626.364 Q147.686 627.499 149.908 628.054 Q152.13 628.61 154.607 628.61 Q158.612 628.61 160.95 626.503 Q163.288 624.397 163.288 620.786 Q163.288 617.175 160.95 615.068 Q158.612 612.962 154.607 612.962 Q152.732 612.962 150.857 613.378 Q149.005 613.795 147.061 614.675 L147.061 597.314 Z" fill="#000000" fill-rule="nonzero" fill-opacity="1" /><path clip-path="url(#clip130)" d="M119.885 371.39 L136.204 371.39 L136.204 375.325 L114.26 375.325 L114.26 371.39 Q116.922 368.636 121.505 364.006 Q126.112 359.353 127.292 358.011 Q129.538 355.487 130.417 353.751 Q131.32 351.992 131.32 350.302 Q131.32 347.548 129.376 345.812 Q127.455 344.076 124.353 344.076 Q122.154 344.076 119.7 344.839 Q117.269 345.603 114.492 347.154 L114.492 342.432 Q117.316 341.298 119.769 340.719 Q122.223 340.14 124.26 340.14 Q129.63 340.14 132.825 342.826 Q136.019 345.511 136.019 350.001 Q136.019 352.131 135.209 354.052 Q134.422 355.95 132.316 358.543 Q131.737 359.214 128.635 362.432 Q125.533 365.626 119.885 371.39 Z" fill="#000000" fill-rule="nonzero" fill-opacity="1" /><path clip-path="url(#clip130)" d="M156.019 343.844 Q152.408 343.844 150.579 347.409 Q148.774 350.95 148.774 358.08 Q148.774 365.187 150.579 368.751 Q152.408 372.293 156.019 372.293 Q159.653 372.293 161.459 368.751 Q163.288 365.187 163.288 358.08 Q163.288 350.95 161.459 347.409 Q159.653 343.844 156.019 343.844 M156.019 340.14 Q161.829 340.14 164.885 344.747 Q167.964 349.33 167.964 358.08 Q167.964 366.807 164.885 371.413 Q161.829 375.997 156.019 375.997 Q150.209 375.997 147.13 371.413 Q144.075 366.807 144.075 358.08 Q144.075 349.33 147.13 344.747 Q150.209 340.14 156.019 340.14 Z" fill="#000000" fill-rule="nonzero" fill-opacity="1" /><path clip-path="url(#clip130)" d="M120.88 114.842 L137.2 114.842 L137.2 118.777 L115.256 118.777 L115.256 114.842 Q117.918 112.087 122.501 107.458 Q127.107 102.805 128.288 101.462 Q130.533 98.9393 131.413 97.2032 Q132.316 95.4439 132.316 93.7541 Q132.316 90.9995 130.371 89.2634 Q128.45 87.5273 125.348 87.5273 Q123.149 87.5273 120.695 88.2912 Q118.265 89.0551 115.487 90.606 L115.487 85.8838 Q118.311 84.7495 120.765 84.1708 Q123.218 83.5921 125.255 83.5921 Q130.626 83.5921 133.82 86.2773 Q137.015 88.9625 137.015 93.4532 Q137.015 95.5828 136.204 97.5041 Q135.417 99.4022 133.311 101.995 Q132.732 102.666 129.63 105.884 Q126.529 109.078 120.88 114.842 Z" fill="#000000" fill-rule="nonzero" fill-opacity="1" /><path clip-path="url(#clip130)" d="M147.061 84.2171 L165.417 84.2171 L165.417 88.1523 L151.343 88.1523 L151.343 96.6245 Q152.362 96.2772 153.38 96.1152 Q154.399 95.93 155.417 95.93 Q161.204 95.93 164.584 99.1013 Q167.964 102.273 167.964 107.689 Q167.964 113.268 164.491 116.37 Q161.019 119.448 154.7 119.448 Q152.524 119.448 150.255 119.078 Q148.01 118.708 145.603 117.967 L145.603 113.268 Q147.686 114.402 149.908 114.958 Q152.13 115.513 154.607 115.513 Q158.612 115.513 160.95 113.407 Q163.288 111.3 163.288 107.689 Q163.288 104.078 160.95 101.972 Q158.612 99.8652 154.607 99.8652 Q152.732 99.8652 150.857 100.282 Q149.005 100.699 147.061 101.578 L147.061 84.2171 Z" fill="#000000" fill-rule="nonzero" fill-opacity="1" /><path clip-path="url(#clip130)" d="M33.8307 831.143 Q33.2578 832.13 33.0032 833.308 Q32.7167 834.453 32.7167 835.854 Q32.7167 840.819 35.9632 843.493 Q39.1779 846.134 45.2253 846.134 L64.0042 846.134 L64.0042 852.023 L28.3562 852.023 L28.3562 846.134 L33.8944 846.134 Q30.6479 844.288 29.0883 841.328 Q27.4968 838.368 27.4968 834.135 Q27.4968 833.53 27.5923 832.798 Q27.656 832.066 27.8151 831.175 L33.8307 831.143 Z" fill="#000000" fill-rule="nonzero" fill-opacity="1" /><path clip-path="url(#clip130)" d="M39.1142 822.613 L39.1142 809.118 L42.7427 809.118 L42.7427 828.151 L39.2416 828.151 Q38.2549 827.069 36.4725 825.064 Q26.7648 814.115 23.7729 814.115 Q21.6722 814.115 20.3991 815.77 Q19.0941 817.425 19.0941 820.13 Q19.0941 821.786 19.667 823.727 Q20.2081 825.669 21.3221 827.96 L17.4072 827.96 Q16.516 825.51 16.0704 823.409 Q15.6248 821.276 15.6248 819.462 Q15.6248 814.847 17.7255 812.078 Q19.8262 809.309 23.2636 809.309 Q27.6878 809.309 36.7271 819.844 Q38.2549 821.626 39.1142 822.613 Z" fill="#000000" fill-rule="nonzero" fill-opacity="1" /><path clip-path="url(#clip130)" d="M14.1925 791.326 L79.3773 791.326 L79.3773 796.737 L14.1925 796.737 L14.1925 791.326 Z" fill="#000000" fill-rule="nonzero" fill-opacity="1" /><path clip-path="url(#clip130)" d="M64.7999 764.558 Q63.6222 771.91 60.5348 775.316 Q56.7473 779.485 49.0129 779.485 L28.3562 779.485 L28.3562 773.565 L48.7901 773.565 Q54.6147 773.565 57.0337 770.86 Q59.1344 768.505 59.58 764.558 L28.3562 764.558 L28.3562 758.733 L59.5482 758.733 Q59.1026 754.564 57.0019 752.431 Q54.3283 749.726 48.7583 749.726 L28.3562 749.726 L28.3562 743.806 L48.9811 743.806 Q57.0019 743.806 60.503 747.975 Q63.654 751.731 64.768 758.733 L77.5631 758.733 L77.5631 764.558 L64.7999 764.558 Z" fill="#000000" fill-rule="nonzero" fill-opacity="1" /><path clip-path="url(#clip130)" d="M14.5426 719.839 Q21.8632 724.104 29.0246 726.173 Q36.186 728.242 43.5384 728.242 Q50.8908 728.242 58.1159 726.173 Q65.3091 724.072 72.5979 719.839 L72.5979 724.931 Q65.1182 729.706 57.8931 732.093 Q50.668 734.448 43.5384 734.448 Q36.4406 734.448 29.2474 732.093 Q22.0542 729.737 14.5426 724.931 L14.5426 719.839 Z" fill="#000000" fill-rule="nonzero" fill-opacity="1" /><path clip-path="url(#clip130)" d="M33.8307 687.819 Q33.2578 688.806 33.0032 689.984 Q32.7167 691.129 32.7167 692.53 Q32.7167 697.495 35.9632 700.169 Q39.1779 702.811 45.2253 702.811 L64.0042 702.811 L64.0042 708.699 L28.3562 708.699 L28.3562 702.811 L33.8944 702.811 Q30.6479 700.964 29.0883 698.004 Q27.4968 695.044 27.4968 690.811 Q27.4968 690.206 27.5923 689.474 Q27.656 688.742 27.8151 687.851 L33.8307 687.819 Z" fill="#000000" fill-rule="nonzero" fill-opacity="1" /><path clip-path="url(#clip130)" d="M14.5426 682.599 L14.5426 677.507 Q22.0542 672.733 29.2474 670.377 Q36.4406 667.99 43.5384 667.99 Q50.668 667.99 57.8931 670.377 Q65.1182 672.733 72.5979 677.507 L72.5979 682.599 Q65.3091 678.366 58.1159 676.297 Q50.8908 674.197 43.5384 674.197 Q36.186 674.197 29.0246 676.297 Q21.8632 678.366 14.5426 682.599 Z" fill="#000000" fill-rule="nonzero" fill-opacity="1" /><path clip-path="url(#clip130)" d="M14.1925 648.702 L79.3773 648.702 L79.3773 654.113 L14.1925 654.113 L14.1925 648.702 Z" fill="#000000" fill-rule="nonzero" fill-opacity="1" /><path clip-path="url(#clip130)" d="M39.1142 631.897 L39.1142 618.401 L42.7427 618.401 L42.7427 637.435 L39.2416 637.435 Q38.2549 636.353 36.4725 634.347 Q26.7648 623.398 23.7729 623.398 Q21.6722 623.398 20.3991 625.053 Q19.0941 626.708 19.0941 629.414 Q19.0941 631.069 19.667 633.011 Q20.2081 634.952 21.3221 637.244 L17.4072 637.244 Q16.516 634.793 16.0704 632.692 Q15.6248 630.56 15.6248 628.746 Q15.6248 624.13 17.7255 621.361 Q19.8262 618.592 23.2636 618.592 Q27.6878 618.592 36.7271 629.127 Q38.2549 630.91 39.1142 631.897 Z" fill="#000000" fill-rule="nonzero" fill-opacity="1" /><polyline clip-path="url(#clip131)" style="stroke:#009af9; stroke-linecap:round; stroke-linejoin:round; stroke-width:8; stroke-opacity:1; fill:none" points="264.778,1384.23 271.558,1383.64 278.338,1382.15 285.118,1379.81 291.898,1376.65 298.677,1372.74 305.457,1368.14 312.237,1362.92 319.017,1357.14 325.797,1350.82 332.577,1344 339.356,1336.69 346.136,1328.87 352.916,1320.5 359.696,1311.54 366.476,1301.91 373.255,1291.54 380.035,1280.33 386.815,1268.19 393.595,1255 400.375,1240.66 407.154,1225.08 413.934,1208.15 420.714,1189.79 427.494,1169.91 434.274,1148.45 441.053,1125.37 447.833,1100.64 454.613,1074.26 461.393,1046.23 468.173,1016.59 474.952,985.424 481.732,952.803 488.512,918.84 495.292,883.667 502.072,847.434 508.852,810.308 515.631,772.47 522.411,734.113 529.191,695.438 535.971,656.65 542.751,617.956 549.53,579.562 556.31,541.671 563.09,504.475 569.87,468.16 576.65,432.901 583.429,398.858 590.209,366.177 596.989,334.989 603.769,305.409 610.549,277.536 617.328,251.452 624.108,227.222 630.888,204.897 637.668,184.512 644.448,166.088 651.228,149.632 658.007,135.14 664.787,122.595 671.567,111.973 678.347,103.238 685.127,96.3484 691.906,91.255 698.686,87.9033 705.466,86.2345 712.246,86.1857 719.026,87.6915 725.805,90.6844 732.585,95.0955 739.365,100.855 746.145,107.893 752.925,116.14 759.704,125.527 766.484,135.985 773.264,147.448 780.044,159.85 786.824,173.127 793.603,187.217 800.383,202.058 807.163,217.593 813.943,233.764 820.723,250.516 827.503,267.797 834.282,285.555 841.062,303.741 847.842,322.308 854.622,341.211 861.402,360.404 868.181,379.848 874.961,399.5 881.741,419.324 888.521,439.282 895.301,459.339 902.08,479.461 908.86,499.617 915.64,519.777 922.42,539.91 929.2,559.99 935.979,579.992 942.759,599.89 949.539,619.661 956.319,639.284 963.099,658.739 969.878,678.006 976.658,697.068 983.438,715.908 990.218,734.512 996.998,752.865 1003.78,770.955 1010.56,788.769 1017.34,806.299 1024.12,823.533 1030.9,840.464 1037.68,857.084 1044.46,873.387 1051.24,889.368 1058.02,905.021 1064.8,920.344 1071.58,935.332 1078.36,949.985 1085.14,964.3 1091.92,978.277 1098.69,991.916 1105.47,1005.22 1112.25,1018.18 1119.03,1030.81 1125.81,1043.11 1132.59,1055.07 1139.37,1066.71 1146.15,1078.03 1152.93,1089.03 1159.71,1099.71 1166.49,1110.07 1173.27,1120.13 1180.05,1129.89 1186.83,1139.36 1193.61,1148.53 1200.39,1157.41 1207.17,1166.02 1213.95,1174.35 1220.73,1182.41 1227.51,1190.21 1234.29,1197.75 1241.07,1205.04 1247.85,1212.09 1254.63,1218.9 1261.41,1225.47 1268.19,1231.82 1274.97,1237.95 1281.75,1243.86 1288.53,1249.56 1295.31,1255.07 1302.09,1260.37 1308.87,1265.48 1315.65,1270.41 1322.43,1275.15 1329.21,1279.72 1335.99,1284.12 1342.77,1288.36 1349.55,1292.44 1356.33,1296.36 1363.11,1300.13 1369.89,1303.76 1376.67,1307.25 1383.45,1310.6 1390.23,1313.83 1397.01,1316.93 1403.79,1319.9 1410.57,1322.76 1417.35,1325.51 1424.13,1328.14 1430.91,1330.67 1437.69,1333.1 1444.47,1335.42 1451.24,1337.66 1458.02,1339.8 1464.8,1341.85 1471.58,1343.82 1478.36,1345.71 1485.14,1347.52 1491.92,1349.25 1498.7,1350.91 1505.48,1352.49 1512.26,1354.01 1519.04,1355.47 1525.82,1356.86 1532.6,1358.19 1539.38,1359.47 1546.16,1360.69 1552.94,1361.85 1559.72,1362.97 1566.5,1364.03 1573.28,1365.05 1580.06,1366.02 1586.84,1366.94 1593.62,1367.83 1600.4,1368.67 1607.18,1369.48 1613.96,1370.25 1620.74,1370.98 1627.52,1371.68 1634.3,1372.35 1641.08,1372.98 1647.86,1373.58 1654.64,1374.16 1661.42,1374.71 1668.2,1375.23 1674.98,1375.73 1681.76,1376.2 1688.54,1376.65 1695.32,1377.07 1702.1,1377.48 1708.88,1377.87 1715.66,1378.23 1722.44,1378.58 1729.22,1378.91 1736,1379.22 1742.78,1379.52 1749.56,1379.8 1756.34,1380.06 1763.12,1380.32 1769.9,1380.56 1776.68,1380.78 1783.46,1381 1790.24,1381.2 1797.02,1381.39 1803.79,1381.57 1810.57,1381.74 1817.35,1381.9 1824.13,1382.05 1830.91,1382.2 1837.69,1382.33 1844.47,1382.46 1851.25,1382.58 1858.03,1382.69 1864.81,1382.8 1871.59,1382.9 1878.37,1382.99 1885.15,1383.08 1891.93,1383.16 1898.71,1383.24 1905.49,1383.31 1912.27,1383.38 1919.05,1383.45 1925.83,1383.51 1932.61,1383.56 1939.39,1383.61 1946.17,1383.66 1952.95,1383.71 1959.73,1383.75 1966.51,1383.79 1973.29,1383.83 1980.07,1383.86 1986.85,1383.89 1993.63,1383.92 2000.41,1383.95 2007.19,1383.98 2013.97,1384 2020.75,1384.02 2027.53,1384.04 2034.31,1384.06 2041.09,1384.08 2047.87,1384.09 2054.65,1384.11 2061.43,1384.12 2068.21,1384.13 2074.99,1384.14 2081.77,1384.15 2088.55,1384.16 2095.33,1384.17 2102.11,1384.18 2108.89,1384.19 2115.67,1384.19 2122.45,1384.2 2129.23,1384.2 2136.01,1384.21 2142.79,1384.21 2149.57,1384.22 2156.34,1384.22 2163.12,1384.22 2169.9,1384.22 2176.68,1384.23 2183.46,1384.23 2190.24,1384.23 2197.02,1384.23 2203.8,1384.23 2210.58,1384.23 2217.36,1384.24 2224.14,1384.24 2230.92,1384.24 2237.7,1384.24 2244.48,1384.24 2251.26,1384.24 2258.04,1384.24 2264.82,1384.24 2271.6,1384.24 2278.38,1384.24 2285.16,1384.24 2291.94,1384.24 "/>
<path clip-path="url(#clip130)" d="M1993.03 196.789 L2281.13 196.789 L2281.13 93.1086 L1993.03 93.1086  Z" fill="#ffffff" fill-rule="evenodd" fill-opacity="1"/>
<polyline clip-path="url(#clip130)" style="stroke:#000000; stroke-linecap:round; stroke-linejoin:round; stroke-width:4; stroke-opacity:1; fill:none" points="1993.03,196.789 2281.13,196.789 2281.13,93.1086 1993.03,93.1086 1993.03,196.789 "/>
<polyline clip-path="url(#clip130)" style="stroke:#009af9; stroke-linecap:round; stroke-linejoin:round; stroke-width:8; stroke-opacity:1; fill:none" points="2016.91,144.949 2160.16,144.949 "/>
<path clip-path="url(#clip130)" d="M2187.97 126.002 L2187.97 173.409 L2184.04 173.409 L2184.04 126.002 L2187.97 126.002 Z" fill="#000000" fill-rule="nonzero" fill-opacity="1" /><path clip-path="url(#clip130)" d="M2207.44 162.807 Q2202.09 161.951 2199.62 159.705 Q2196.58 156.951 2196.58 151.326 L2196.58 136.303 L2200.89 136.303 L2200.89 151.164 Q2200.89 155.4 2202.86 157.159 Q2204.57 158.687 2207.44 159.011 L2207.44 136.303 L2211.68 136.303 L2211.68 158.988 Q2214.71 158.664 2216.26 157.136 Q2218.23 155.192 2218.23 151.141 L2218.23 136.303 L2222.53 136.303 L2222.53 151.303 Q2222.53 157.136 2219.5 159.682 Q2216.77 161.974 2211.68 162.784 L2211.68 172.09 L2207.44 172.09 L2207.44 162.807 Z" fill="#000000" fill-rule="nonzero" fill-opacity="1" /><path clip-path="url(#clip130)" d="M2235.22 126.002 L2235.22 173.409 L2231.28 173.409 L2231.28 126.002 L2235.22 126.002 Z" fill="#000000" fill-rule="nonzero" fill-opacity="1" /><path clip-path="url(#clip130)" d="M2247.44 144.127 L2257.25 144.127 L2257.25 146.766 L2243.41 146.766 L2243.41 144.219 Q2244.2 143.502 2245.66 142.206 Q2253.62 135.145 2253.62 132.97 Q2253.62 131.442 2252.42 130.516 Q2251.21 129.567 2249.24 129.567 Q2248.04 129.567 2246.63 129.983 Q2245.22 130.377 2243.55 131.187 L2243.55 128.34 Q2245.33 127.692 2246.86 127.368 Q2248.41 127.044 2249.73 127.044 Q2253.09 127.044 2255.1 128.571 Q2257.12 130.099 2257.12 132.599 Q2257.12 135.817 2249.45 142.391 Q2248.16 143.502 2247.44 144.127 Z" fill="#000000" fill-rule="nonzero" fill-opacity="1" /></svg>
