<?xml version="1.0" encoding="utf-8"?>
<svg xmlns="http://www.w3.org/2000/svg" xmlns:xlink="http://www.w3.org/1999/xlink" width="600" height="400" viewBox="0 0 2400 1600">
<defs>
  <clipPath id="clip890">
    <rect x="0" y="0" width="2400" height="1600"/>
  </clipPath>
</defs>
<path clip-path="url(#clip890)" d="M0 1600 L2400 1600 L2400 0 L0 0  Z" fill="#ffffff" fill-rule="evenodd" fill-opacity="1"/>
<defs>
  <clipPath id="clip891">
    <rect x="287" y="47" width="2066" height="1377"/>
  </clipPath>
</defs>
<path clip-path="url(#clip890)" d="M287.366 1423.18 L2352.76 1423.18 L2352.76 47.2441 L287.366 47.2441  Z" fill="#ffffff" fill-rule="evenodd" fill-opacity="1"/>
<polyline clip-path="url(#clip891)" style="stroke:#000000; stroke-linecap:round; stroke-linejoin:round; stroke-width:2; stroke-opacity:0.1; fill:none" points="337.199,1423.18 337.199,47.2441 "/>
<polyline clip-path="url(#clip891)" style="stroke:#000000; stroke-linecap:round; stroke-linejoin:round; stroke-width:2; stroke-opacity:0.1; fill:none" points="768.279,1423.18 768.279,47.2441 "/>
<polyline clip-path="url(#clip891)" style="stroke:#000000; stroke-linecap:round; stroke-linejoin:round; stroke-width:2; stroke-opacity:0.1; fill:none" points="1199.36,1423.18 1199.36,47.2441 "/>
<polyline clip-path="url(#clip891)" style="stroke:#000000; stroke-linecap:round; stroke-linejoin:round; stroke-width:2; stroke-opacity:0.1; fill:none" points="1630.44,1423.18 1630.44,47.2441 "/>
<polyline clip-path="url(#clip891)" style="stroke:#000000; stroke-linecap:round; stroke-linejoin:round; stroke-width:2; stroke-opacity:0.1; fill:none" points="2061.52,1423.18 2061.52,47.2441 "/>
<polyline clip-path="url(#clip891)" style="stroke:#000000; stroke-linecap:round; stroke-linejoin:round; stroke-width:2; stroke-opacity:0.1; fill:none" points="287.366,1205.02 2352.76,1205.02 "/>
<polyline clip-path="url(#clip891)" style="stroke:#000000; stroke-linecap:round; stroke-linejoin:round; stroke-width:2; stroke-opacity:0.1; fill:none" points="287.366,973.795 2352.76,973.795 "/>
<polyline clip-path="url(#clip891)" style="stroke:#000000; stroke-linecap:round; stroke-linejoin:round; stroke-width:2; stroke-opacity:0.1; fill:none" points="287.366,742.573 2352.76,742.573 "/>
<polyline clip-path="url(#clip891)" style="stroke:#000000; stroke-linecap:round; stroke-linejoin:round; stroke-width:2; stroke-opacity:0.1; fill:none" points="287.366,511.351 2352.76,511.351 "/>
<polyline clip-path="url(#clip891)" style="stroke:#000000; stroke-linecap:round; stroke-linejoin:round; stroke-width:2; stroke-opacity:0.1; fill:none" points="287.366,280.128 2352.76,280.128 "/>
<polyline clip-path="url(#clip891)" style="stroke:#000000; stroke-linecap:round; stroke-linejoin:round; stroke-width:2; stroke-opacity:0.1; fill:none" points="287.366,48.9059 2352.76,48.9059 "/>
<polyline clip-path="url(#clip890)" style="stroke:#000000; stroke-linecap:round; stroke-linejoin:round; stroke-width:4; stroke-opacity:1; fill:none" points="287.366,1423.18 2352.76,1423.18 "/>
<polyline clip-path="url(#clip890)" style="stroke:#000000; stroke-linecap:round; stroke-linejoin:round; stroke-width:4; stroke-opacity:1; fill:none" points="337.199,1423.18 337.199,1404.28 "/>
<polyline clip-path="url(#clip890)" style="stroke:#000000; stroke-linecap:round; stroke-linejoin:round; stroke-width:4; stroke-opacity:1; fill:none" points="768.279,1423.18 768.279,1404.28 "/>
<polyline clip-path="url(#clip890)" style="stroke:#000000; stroke-linecap:round; stroke-linejoin:round; stroke-width:4; stroke-opacity:1; fill:none" points="1199.36,1423.18 1199.36,1404.28 "/>
<polyline clip-path="url(#clip890)" style="stroke:#000000; stroke-linecap:round; stroke-linejoin:round; stroke-width:4; stroke-opacity:1; fill:none" points="1630.44,1423.18 1630.44,1404.28 "/>
<polyline clip-path="url(#clip890)" style="stroke:#000000; stroke-linecap:round; stroke-linejoin:round; stroke-width:4; stroke-opacity:1; fill:none" points="2061.52,1423.18 2061.52,1404.28 "/>
<path clip-path="url(#clip890)" d="M337.199 1454.1 Q333.588 1454.1 331.759 1457.66 Q329.953 1461.2 329.953 1468.33 Q329.953 1475.44 331.759 1479.01 Q333.588 1482.55 337.199 1482.55 Q340.833 1482.55 342.639 1479.01 Q344.467 1475.44 344.467 1468.33 Q344.467 1461.2 342.639 1457.66 Q340.833 1454.1 337.199 1454.1 M337.199 1450.39 Q343.009 1450.39 346.064 1455 Q349.143 1459.58 349.143 1468.33 Q349.143 1477.06 346.064 1481.67 Q343.009 1486.25 337.199 1486.25 Q331.389 1486.25 328.31 1481.67 Q325.254 1477.06 325.254 1468.33 Q325.254 1459.58 328.31 1455 Q331.389 1450.39 337.199 1450.39 Z" fill="#000000" fill-rule="nonzero" fill-opacity="1" /><path clip-path="url(#clip890)" d="M742.978 1451.02 L761.334 1451.02 L761.334 1454.96 L747.26 1454.96 L747.26 1463.43 Q748.279 1463.08 749.297 1462.92 Q750.316 1462.73 751.334 1462.73 Q757.121 1462.73 760.501 1465.9 Q763.881 1469.08 763.881 1474.49 Q763.881 1480.07 760.408 1483.17 Q756.936 1486.25 750.617 1486.25 Q748.441 1486.25 746.172 1485.88 Q743.927 1485.51 741.52 1484.77 L741.52 1480.07 Q743.603 1481.2 745.825 1481.76 Q748.047 1482.32 750.524 1482.32 Q754.529 1482.32 756.867 1480.21 Q759.205 1478.1 759.205 1474.49 Q759.205 1470.88 756.867 1468.77 Q754.529 1466.67 750.524 1466.67 Q748.649 1466.67 746.774 1467.08 Q744.922 1467.5 742.978 1468.38 L742.978 1451.02 Z" fill="#000000" fill-rule="nonzero" fill-opacity="1" /><path clip-path="url(#clip890)" d="M783.093 1454.1 Q779.482 1454.1 777.654 1457.66 Q775.848 1461.2 775.848 1468.33 Q775.848 1475.44 777.654 1479.01 Q779.482 1482.55 783.093 1482.55 Q786.728 1482.55 788.533 1479.01 Q790.362 1475.44 790.362 1468.33 Q790.362 1461.2 788.533 1457.66 Q786.728 1454.1 783.093 1454.1 M783.093 1450.39 Q788.904 1450.39 791.959 1455 Q795.038 1459.58 795.038 1468.33 Q795.038 1477.06 791.959 1481.67 Q788.904 1486.25 783.093 1486.25 Q777.283 1486.25 774.205 1481.67 Q771.149 1477.06 771.149 1468.33 Q771.149 1459.58 774.205 1455 Q777.283 1450.39 783.093 1450.39 Z" fill="#000000" fill-rule="nonzero" fill-opacity="1" /><path clip-path="url(#clip890)" d="M1158.97 1481.64 L1166.6 1481.64 L1166.6 1455.28 L1158.29 1456.95 L1158.29 1452.69 L1166.56 1451.02 L1171.23 1451.02 L1171.23 1481.64 L1178.87 1481.64 L1178.87 1485.58 L1158.97 1485.58 L1158.97 1481.64 Z" fill="#000000" fill-rule="nonzero" fill-opacity="1" /><path clip-path="url(#clip890)" d="M1198.32 1454.1 Q1194.71 1454.1 1192.88 1457.66 Q1191.07 1461.2 1191.07 1468.33 Q1191.07 1475.44 1192.88 1479.01 Q1194.71 1482.55 1198.32 1482.55 Q1201.95 1482.55 1203.76 1479.01 Q1205.59 1475.44 1205.59 1468.33 Q1205.59 1461.2 1203.76 1457.66 Q1201.95 1454.1 1198.32 1454.1 M1198.32 1450.39 Q1204.13 1450.39 1207.18 1455 Q1210.26 1459.58 1210.26 1468.33 Q1210.26 1477.06 1207.18 1481.67 Q1204.13 1486.25 1198.32 1486.25 Q1192.51 1486.25 1189.43 1481.67 Q1186.37 1477.06 1186.37 1468.33 Q1186.37 1459.58 1189.43 1455 Q1192.51 1450.39 1198.32 1450.39 Z" fill="#000000" fill-rule="nonzero" fill-opacity="1" /><path clip-path="url(#clip890)" d="M1228.48 1454.1 Q1224.87 1454.1 1223.04 1457.66 Q1221.23 1461.2 1221.23 1468.33 Q1221.23 1475.44 1223.04 1479.01 Q1224.87 1482.55 1228.48 1482.55 Q1232.11 1482.55 1233.92 1479.01 Q1235.75 1475.44 1235.75 1468.33 Q1235.75 1461.2 1233.92 1457.66 Q1232.11 1454.1 1228.48 1454.1 M1228.48 1450.39 Q1234.29 1450.39 1237.34 1455 Q1240.42 1459.58 1240.42 1468.33 Q1240.42 1477.06 1237.34 1481.67 Q1234.29 1486.25 1228.48 1486.25 Q1222.67 1486.25 1219.59 1481.67 Q1216.53 1477.06 1216.53 1468.33 Q1216.53 1459.58 1219.59 1455 Q1222.67 1450.39 1228.48 1450.39 Z" fill="#000000" fill-rule="nonzero" fill-opacity="1" /><path clip-path="url(#clip890)" d="M1590.05 1481.64 L1597.68 1481.64 L1597.68 1455.28 L1589.37 1456.95 L1589.37 1452.69 L1597.64 1451.02 L1602.31 1451.02 L1602.31 1481.64 L1609.95 1481.64 L1609.95 1485.58 L1590.05 1485.58 L1590.05 1481.64 Z" fill="#000000" fill-rule="nonzero" fill-opacity="1" /><path clip-path="url(#clip890)" d="M1619.44 1451.02 L1637.8 1451.02 L1637.8 1454.96 L1623.73 1454.96 L1623.73 1463.43 Q1624.74 1463.08 1625.76 1462.92 Q1626.78 1462.73 1627.8 1462.73 Q1633.59 1462.73 1636.97 1465.9 Q1640.35 1469.08 1640.35 1474.49 Q1640.35 1480.07 1636.87 1483.17 Q1633.4 1486.25 1627.08 1486.25 Q1624.91 1486.25 1622.64 1485.88 Q1620.39 1485.51 1617.98 1484.77 L1617.98 1480.07 Q1620.07 1481.2 1622.29 1481.76 Q1624.51 1482.32 1626.99 1482.32 Q1630.99 1482.32 1633.33 1480.21 Q1635.67 1478.1 1635.67 1474.49 Q1635.67 1470.88 1633.33 1468.77 Q1630.99 1466.67 1626.99 1466.67 Q1625.11 1466.67 1623.24 1467.08 Q1621.39 1467.5 1619.44 1468.38 L1619.44 1451.02 Z" fill="#000000" fill-rule="nonzero" fill-opacity="1" /><path clip-path="url(#clip890)" d="M1659.56 1454.1 Q1655.95 1454.1 1654.12 1457.66 Q1652.31 1461.2 1652.31 1468.33 Q1652.31 1475.44 1654.12 1479.01 Q1655.95 1482.55 1659.56 1482.55 Q1663.19 1482.55 1665 1479.01 Q1666.83 1475.44 1666.83 1468.33 Q1666.83 1461.2 1665 1457.66 Q1663.19 1454.1 1659.56 1454.1 M1659.56 1450.39 Q1665.37 1450.39 1668.42 1455 Q1671.5 1459.58 1671.5 1468.33 Q1671.5 1477.06 1668.42 1481.67 Q1665.37 1486.25 1659.56 1486.25 Q1653.75 1486.25 1650.67 1481.67 Q1647.61 1477.06 1647.61 1468.33 Q1647.61 1459.58 1650.67 1455 Q1653.75 1450.39 1659.56 1450.39 Z" fill="#000000" fill-rule="nonzero" fill-opacity="1" /><path clip-path="url(#clip890)" d="M2025.21 1481.64 L2041.53 1481.64 L2041.53 1485.58 L2019.59 1485.58 L2019.59 1481.64 Q2022.25 1478.89 2026.83 1474.26 Q2031.44 1469.61 2032.62 1468.27 Q2034.86 1465.74 2035.74 1464.01 Q2036.65 1462.25 2036.65 1460.56 Q2036.65 1457.8 2034.7 1456.07 Q2032.78 1454.33 2029.68 1454.33 Q2027.48 1454.33 2025.03 1455.09 Q2022.59 1455.86 2019.82 1457.41 L2019.82 1452.69 Q2022.64 1451.55 2025.09 1450.97 Q2027.55 1450.39 2029.59 1450.39 Q2034.96 1450.39 2038.15 1453.08 Q2041.34 1455.77 2041.34 1460.26 Q2041.34 1462.39 2040.53 1464.31 Q2039.75 1466.2 2037.64 1468.8 Q2037.06 1469.47 2033.96 1472.69 Q2030.86 1475.88 2025.21 1481.64 Z" fill="#000000" fill-rule="nonzero" fill-opacity="1" /><path clip-path="url(#clip890)" d="M2061.34 1454.1 Q2057.73 1454.1 2055.9 1457.66 Q2054.1 1461.2 2054.1 1468.33 Q2054.1 1475.44 2055.9 1479.01 Q2057.73 1482.55 2061.34 1482.55 Q2064.98 1482.55 2066.78 1479.01 Q2068.61 1475.44 2068.61 1468.33 Q2068.61 1461.2 2066.78 1457.66 Q2064.98 1454.1 2061.34 1454.1 M2061.34 1450.39 Q2067.15 1450.39 2070.21 1455 Q2073.29 1459.58 2073.29 1468.33 Q2073.29 1477.06 2070.21 1481.67 Q2067.15 1486.25 2061.34 1486.25 Q2055.53 1486.25 2052.46 1481.67 Q2049.4 1477.06 2049.4 1468.33 Q2049.4 1459.58 2052.46 1455 Q2055.53 1450.39 2061.34 1450.39 Z" fill="#000000" fill-rule="nonzero" fill-opacity="1" /><path clip-path="url(#clip890)" d="M2091.51 1454.1 Q2087.9 1454.1 2086.07 1457.66 Q2084.26 1461.2 2084.26 1468.33 Q2084.26 1475.44 2086.07 1479.01 Q2087.9 1482.55 2091.51 1482.55 Q2095.14 1482.55 2096.95 1479.01 Q2098.78 1475.44 2098.78 1468.33 Q2098.78 1461.2 2096.95 1457.66 Q2095.14 1454.1 2091.51 1454.1 M2091.51 1450.39 Q2097.32 1450.39 2100.37 1455 Q2103.45 1459.58 2103.45 1468.33 Q2103.45 1477.06 2100.37 1481.67 Q2097.32 1486.25 2091.51 1486.25 Q2085.7 1486.25 2082.62 1481.67 Q2079.56 1477.06 2079.56 1468.33 Q2079.56 1459.58 2082.62 1455 Q2085.7 1450.39 2091.51 1450.39 Z" fill="#000000" fill-rule="nonzero" fill-opacity="1" /><path clip-path="url(#clip890)" d="M1114.16 1518.52 L1114.16 1523.39 L1108.56 1523.39 Q1105.41 1523.39 1104.17 1524.66 Q1102.96 1525.93 1102.96 1529.24 L1102.96 1532.4 L1112.6 1532.4 L1112.6 1536.95 L1102.96 1536.95 L1102.96 1568.04 L1097.07 1568.04 L1097.07 1536.95 L1091.47 1536.95 L1091.47 1532.4 L1097.07 1532.4 L1097.07 1529.91 Q1097.07 1523.96 1099.84 1521.26 Q1102.61 1518.52 1108.62 1518.52 L1114.16 1518.52 Z" fill="#000000" fill-rule="nonzero" fill-opacity="1" /><path clip-path="url(#clip890)" d="M1142.52 1549.81 Q1142.52 1543.44 1139.88 1539.94 Q1137.27 1536.44 1132.53 1536.44 Q1127.82 1536.44 1125.17 1539.94 Q1122.56 1543.44 1122.56 1549.81 Q1122.56 1556.14 1125.17 1559.64 Q1127.82 1563.14 1132.53 1563.14 Q1137.27 1563.14 1139.88 1559.64 Q1142.52 1556.14 1142.52 1549.81 M1148.38 1563.62 Q1148.38 1572.72 1144.34 1577.15 Q1140.29 1581.6 1131.95 1581.6 Q1128.87 1581.6 1126.13 1581.13 Q1123.39 1580.68 1120.81 1579.72 L1120.81 1574.03 Q1123.39 1575.43 1125.91 1576.1 Q1128.42 1576.76 1131.03 1576.76 Q1136.79 1576.76 1139.66 1573.74 Q1142.52 1570.75 1142.52 1564.67 L1142.52 1561.77 Q1140.71 1564.92 1137.87 1566.48 Q1135.04 1568.04 1131.09 1568.04 Q1124.54 1568.04 1120.53 1563.05 Q1116.52 1558.05 1116.52 1549.81 Q1116.52 1541.53 1120.53 1536.53 Q1124.54 1531.54 1131.09 1531.54 Q1135.04 1531.54 1137.87 1533.1 Q1140.71 1534.66 1142.52 1537.81 L1142.52 1532.4 L1148.38 1532.4 L1148.38 1563.62 Z" fill="#000000" fill-rule="nonzero" fill-opacity="1" /><path clip-path="url(#clip890)" d="M1211.65 1548.76 L1211.65 1551.62 L1184.73 1551.62 Q1185.11 1557.67 1188.35 1560.85 Q1191.63 1564 1197.46 1564 Q1200.83 1564 1203.98 1563.17 Q1207.17 1562.35 1210.28 1560.69 L1210.28 1566.23 Q1207.13 1567.57 1203.82 1568.27 Q1200.51 1568.97 1197.11 1568.97 Q1188.58 1568.97 1183.58 1564 Q1178.61 1559.04 1178.61 1550.57 Q1178.61 1541.82 1183.33 1536.69 Q1188.07 1531.54 1196.09 1531.54 Q1203.28 1531.54 1207.45 1536.18 Q1211.65 1540.8 1211.65 1548.76 M1205.8 1547.04 Q1205.73 1542.23 1203.09 1539.37 Q1200.48 1536.5 1196.15 1536.5 Q1191.25 1536.5 1188.29 1539.27 Q1185.36 1542.04 1184.92 1547.07 L1205.8 1547.04 Z" fill="#000000" fill-rule="nonzero" fill-opacity="1" /><path clip-path="url(#clip890)" d="M1217.06 1532.4 L1223.27 1532.4 L1234.41 1562.31 L1245.55 1532.4 L1251.76 1532.4 L1238.39 1568.04 L1230.43 1568.04 L1217.06 1532.4 Z" fill="#000000" fill-rule="nonzero" fill-opacity="1" /><path clip-path="url(#clip890)" d="M1276.04 1550.12 Q1268.94 1550.12 1266.21 1551.75 Q1263.47 1553.37 1263.47 1557.29 Q1263.47 1560.4 1265.51 1562.25 Q1267.58 1564.07 1271.11 1564.07 Q1275.98 1564.07 1278.91 1560.63 Q1281.87 1557.16 1281.87 1551.43 L1281.87 1550.12 L1276.04 1550.12 M1287.72 1547.71 L1287.72 1568.04 L1281.87 1568.04 L1281.87 1562.63 Q1279.86 1565.88 1276.87 1567.44 Q1273.88 1568.97 1269.55 1568.97 Q1264.07 1568.97 1260.83 1565.91 Q1257.61 1562.82 1257.61 1557.67 Q1257.61 1551.65 1261.62 1548.6 Q1265.67 1545.54 1273.65 1545.54 L1281.87 1545.54 L1281.87 1544.97 Q1281.87 1540.93 1279.19 1538.73 Q1276.55 1536.5 1271.75 1536.5 Q1268.69 1536.5 1265.79 1537.23 Q1262.9 1537.97 1260.22 1539.43 L1260.22 1534.02 Q1263.44 1532.78 1266.46 1532.17 Q1269.49 1531.54 1272.35 1531.54 Q1280.08 1531.54 1283.9 1535.55 Q1287.72 1539.56 1287.72 1547.71 Z" fill="#000000" fill-rule="nonzero" fill-opacity="1" /><path clip-path="url(#clip890)" d="M1299.79 1518.52 L1305.64 1518.52 L1305.64 1568.04 L1299.79 1568.04 L1299.79 1518.52 Z" fill="#000000" fill-rule="nonzero" fill-opacity="1" /><path clip-path="url(#clip890)" d="M1317.29 1553.98 L1317.29 1532.4 L1323.15 1532.4 L1323.15 1553.75 Q1323.15 1558.81 1325.12 1561.36 Q1327.1 1563.87 1331.04 1563.87 Q1335.78 1563.87 1338.52 1560.85 Q1341.29 1557.83 1341.29 1552.61 L1341.29 1532.4 L1347.15 1532.4 L1347.15 1568.04 L1341.29 1568.04 L1341.29 1562.57 Q1339.16 1565.82 1336.33 1567.41 Q1333.52 1568.97 1329.8 1568.97 Q1323.66 1568.97 1320.47 1565.15 Q1317.29 1561.33 1317.29 1553.98 M1332.03 1531.54 L1332.03 1531.54 Z" fill="#000000" fill-rule="nonzero" fill-opacity="1" /><path clip-path="url(#clip890)" d="M1375.41 1550.12 Q1368.31 1550.12 1365.58 1551.75 Q1362.84 1553.37 1362.84 1557.29 Q1362.84 1560.4 1364.88 1562.25 Q1366.94 1564.07 1370.48 1564.07 Q1375.35 1564.07 1378.28 1560.63 Q1381.24 1557.16 1381.24 1551.43 L1381.24 1550.12 L1375.41 1550.12 M1387.09 1547.71 L1387.09 1568.04 L1381.24 1568.04 L1381.24 1562.63 Q1379.23 1565.88 1376.24 1567.44 Q1373.25 1568.97 1368.92 1568.97 Q1363.44 1568.97 1360.2 1565.91 Q1356.98 1562.82 1356.98 1557.67 Q1356.98 1551.65 1360.99 1548.6 Q1365.03 1545.54 1373.02 1545.54 L1381.24 1545.54 L1381.24 1544.97 Q1381.24 1540.93 1378.56 1538.73 Q1375.92 1536.5 1371.11 1536.5 Q1368.06 1536.5 1365.16 1537.23 Q1362.27 1537.97 1359.59 1539.43 L1359.59 1534.02 Q1362.81 1532.78 1365.83 1532.17 Q1368.85 1531.54 1371.72 1531.54 Q1379.45 1531.54 1383.27 1535.55 Q1387.09 1539.56 1387.09 1547.71 Z" fill="#000000" fill-rule="nonzero" fill-opacity="1" /><path clip-path="url(#clip890)" d="M1404.95 1522.27 L1404.95 1532.4 L1417.01 1532.4 L1417.01 1536.95 L1404.95 1536.95 L1404.95 1556.3 Q1404.95 1560.66 1406.13 1561.9 Q1407.33 1563.14 1411 1563.14 L1417.01 1563.14 L1417.01 1568.04 L1411 1568.04 Q1404.22 1568.04 1401.64 1565.53 Q1399.06 1562.98 1399.06 1556.3 L1399.06 1536.95 L1394.76 1536.95 L1394.76 1532.4 L1399.06 1532.4 L1399.06 1522.27 L1404.95 1522.27 Z" fill="#000000" fill-rule="nonzero" fill-opacity="1" /><path clip-path="url(#clip890)" d="M1424.71 1532.4 L1430.57 1532.4 L1430.57 1568.04 L1424.71 1568.04 L1424.71 1532.4 M1424.71 1518.52 L1430.57 1518.52 L1430.57 1525.93 L1424.71 1525.93 L1424.71 1518.52 Z" fill="#000000" fill-rule="nonzero" fill-opacity="1" /><path clip-path="url(#clip890)" d="M1456.64 1536.5 Q1451.93 1536.5 1449.19 1540.19 Q1446.45 1543.85 1446.45 1550.25 Q1446.45 1556.65 1449.16 1560.34 Q1451.89 1564 1456.64 1564 Q1461.32 1564 1464.05 1560.31 Q1466.79 1556.62 1466.79 1550.25 Q1466.79 1543.92 1464.05 1540.23 Q1461.32 1536.5 1456.64 1536.5 M1456.64 1531.54 Q1464.28 1531.54 1468.64 1536.5 Q1473 1541.47 1473 1550.25 Q1473 1559 1468.64 1564 Q1464.28 1568.97 1456.64 1568.97 Q1448.97 1568.97 1444.61 1564 Q1440.28 1559 1440.28 1550.25 Q1440.28 1541.47 1444.61 1536.5 Q1448.97 1531.54 1456.64 1531.54 Z" fill="#000000" fill-rule="nonzero" fill-opacity="1" /><path clip-path="url(#clip890)" d="M1512.34 1546.53 L1512.34 1568.04 L1506.48 1568.04 L1506.48 1546.72 Q1506.48 1541.66 1504.51 1539.14 Q1502.53 1536.63 1498.59 1536.63 Q1493.84 1536.63 1491.11 1539.65 Q1488.37 1542.68 1488.37 1547.9 L1488.37 1568.04 L1482.48 1568.04 L1482.48 1532.4 L1488.37 1532.4 L1488.37 1537.93 Q1490.47 1534.72 1493.3 1533.13 Q1496.17 1531.54 1499.89 1531.54 Q1506.04 1531.54 1509.19 1535.36 Q1512.34 1539.14 1512.34 1546.53 Z" fill="#000000" fill-rule="nonzero" fill-opacity="1" /><path clip-path="url(#clip890)" d="M1546.74 1533.45 L1546.74 1538.98 Q1544.26 1537.71 1541.59 1537.07 Q1538.91 1536.44 1536.05 1536.44 Q1531.69 1536.44 1529.49 1537.77 Q1527.33 1539.11 1527.33 1541.79 Q1527.33 1543.82 1528.89 1545 Q1530.45 1546.15 1535.16 1547.2 L1537.16 1547.64 Q1543.4 1548.98 1546.01 1551.43 Q1548.65 1553.85 1548.65 1558.21 Q1548.65 1563.17 1544.71 1566.07 Q1540.79 1568.97 1533.92 1568.97 Q1531.05 1568.97 1527.93 1568.39 Q1524.85 1567.85 1521.41 1566.74 L1521.41 1560.69 Q1524.65 1562.38 1527.81 1563.24 Q1530.96 1564.07 1534.04 1564.07 Q1538.18 1564.07 1540.41 1562.66 Q1542.64 1561.23 1542.64 1558.65 Q1542.64 1556.27 1541.01 1554.99 Q1539.42 1553.72 1533.98 1552.54 L1531.94 1552.07 Q1526.5 1550.92 1524.08 1548.56 Q1521.66 1546.18 1521.66 1542.04 Q1521.66 1537.01 1525.23 1534.27 Q1528.79 1531.54 1535.35 1531.54 Q1538.6 1531.54 1541.46 1532.01 Q1544.32 1532.49 1546.74 1533.45 Z" fill="#000000" fill-rule="nonzero" fill-opacity="1" /><polyline clip-path="url(#clip890)" style="stroke:#000000; stroke-linecap:round; stroke-linejoin:round; stroke-width:4; stroke-opacity:1; fill:none" points="287.366,1423.18 287.366,47.2441 "/>
<polyline clip-path="url(#clip890)" style="stroke:#000000; stroke-linecap:round; stroke-linejoin:round; stroke-width:4; stroke-opacity:1; fill:none" points="287.366,1205.02 306.264,1205.02 "/>
<polyline clip-path="url(#clip890)" style="stroke:#000000; stroke-linecap:round; stroke-linejoin:round; stroke-width:4; stroke-opacity:1; fill:none" points="287.366,973.795 306.264,973.795 "/>
<polyline clip-path="url(#clip890)" style="stroke:#000000; stroke-linecap:round; stroke-linejoin:round; stroke-width:4; stroke-opacity:1; fill:none" points="287.366,742.573 306.264,742.573 "/>
<polyline clip-path="url(#clip890)" style="stroke:#000000; stroke-linecap:round; stroke-linejoin:round; stroke-width:4; stroke-opacity:1; fill:none" points="287.366,511.351 306.264,511.351 "/>
<polyline clip-path="url(#clip890)" style="stroke:#000000; stroke-linecap:round; stroke-linejoin:round; stroke-width:4; stroke-opacity:1; fill:none" points="287.366,280.128 306.264,280.128 "/>
<polyline clip-path="url(#clip890)" style="stroke:#000000; stroke-linecap:round; stroke-linejoin:round; stroke-width:4; stroke-opacity:1; fill:none" points="287.366,48.9059 306.264,48.9059 "/>
<path clip-path="url(#clip890)" d="M115.857 1205.47 L145.533 1205.47 L145.533 1209.4 L115.857 1209.4 L115.857 1205.47 Z" fill="#000000" fill-rule="nonzero" fill-opacity="1" /><path clip-path="url(#clip890)" d="M165.626 1190.82 Q162.015 1190.82 160.186 1194.38 Q158.38 1197.92 158.38 1205.05 Q158.38 1212.16 160.186 1215.72 Q162.015 1219.27 165.626 1219.27 Q169.26 1219.27 171.065 1215.72 Q172.894 1212.16 172.894 1205.05 Q172.894 1197.92 171.065 1194.38 Q169.26 1190.82 165.626 1190.82 M165.626 1187.11 Q171.436 1187.11 174.491 1191.72 Q177.57 1196.3 177.57 1205.05 Q177.57 1213.78 174.491 1218.39 Q171.436 1222.97 165.626 1222.97 Q159.815 1222.97 156.737 1218.39 Q153.681 1213.78 153.681 1205.05 Q153.681 1196.3 156.737 1191.72 Q159.815 1187.11 165.626 1187.11 Z" fill="#000000" fill-rule="nonzero" fill-opacity="1" /><path clip-path="url(#clip890)" d="M185.788 1216.42 L190.672 1216.42 L190.672 1222.3 L185.788 1222.3 L185.788 1216.42 Z" fill="#000000" fill-rule="nonzero" fill-opacity="1" /><path clip-path="url(#clip890)" d="M200.903 1187.74 L219.26 1187.74 L219.26 1191.67 L205.186 1191.67 L205.186 1200.14 Q206.204 1199.8 207.223 1199.64 Q208.241 1199.45 209.26 1199.45 Q215.047 1199.45 218.426 1202.62 Q221.806 1205.79 221.806 1211.21 Q221.806 1216.79 218.334 1219.89 Q214.861 1222.97 208.542 1222.97 Q206.366 1222.97 204.098 1222.6 Q201.852 1222.23 199.445 1221.49 L199.445 1216.79 Q201.528 1217.92 203.75 1218.48 Q205.973 1219.03 208.449 1219.03 Q212.454 1219.03 214.792 1216.93 Q217.13 1214.82 217.13 1211.21 Q217.13 1207.6 214.792 1205.49 Q212.454 1203.39 208.449 1203.39 Q206.574 1203.39 204.699 1203.8 Q202.848 1204.22 200.903 1205.1 L200.903 1187.74 Z" fill="#000000" fill-rule="nonzero" fill-opacity="1" /><path clip-path="url(#clip890)" d="M235.047 1218.36 L251.366 1218.36 L251.366 1222.3 L229.422 1222.3 L229.422 1218.36 Q232.084 1215.61 236.667 1210.98 Q241.273 1206.33 242.454 1204.98 Q244.699 1202.46 245.579 1200.72 Q246.482 1198.96 246.482 1197.27 Q246.482 1194.52 244.537 1192.78 Q242.616 1191.05 239.514 1191.05 Q237.315 1191.05 234.861 1191.81 Q232.431 1192.58 229.653 1194.13 L229.653 1189.4 Q232.477 1188.27 234.931 1187.69 Q237.384 1187.11 239.422 1187.11 Q244.792 1187.11 247.986 1189.8 Q251.181 1192.48 251.181 1196.97 Q251.181 1199.1 250.371 1201.02 Q249.584 1202.92 247.477 1205.52 Q246.898 1206.19 243.797 1209.4 Q240.695 1212.6 235.047 1218.36 Z" fill="#000000" fill-rule="nonzero" fill-opacity="1" /><path clip-path="url(#clip890)" d="M115.487 974.247 L145.163 974.247 L145.163 978.182 L115.487 978.182 L115.487 974.247 Z" fill="#000000" fill-rule="nonzero" fill-opacity="1" /><path clip-path="url(#clip890)" d="M165.255 959.594 Q161.644 959.594 159.815 963.159 Q158.01 966.7 158.01 973.83 Q158.01 980.936 159.815 984.501 Q161.644 988.043 165.255 988.043 Q168.889 988.043 170.695 984.501 Q172.524 980.936 172.524 973.83 Q172.524 966.7 170.695 963.159 Q168.889 959.594 165.255 959.594 M165.255 955.89 Q171.065 955.89 174.121 960.497 Q177.2 965.08 177.2 973.83 Q177.2 982.557 174.121 987.163 Q171.065 991.746 165.255 991.746 Q159.445 991.746 156.366 987.163 Q153.311 982.557 153.311 973.83 Q153.311 965.08 156.366 960.497 Q159.445 955.89 165.255 955.89 Z" fill="#000000" fill-rule="nonzero" fill-opacity="1" /><path clip-path="url(#clip890)" d="M185.417 985.196 L190.301 985.196 L190.301 991.075 L185.417 991.075 L185.417 985.196 Z" fill="#000000" fill-rule="nonzero" fill-opacity="1" /><path clip-path="url(#clip890)" d="M200.533 956.515 L218.889 956.515 L218.889 960.45 L204.815 960.45 L204.815 968.922 Q205.834 968.575 206.852 968.413 Q207.871 968.228 208.889 968.228 Q214.676 968.228 218.056 971.399 Q221.436 974.571 221.436 979.987 Q221.436 985.566 217.963 988.668 Q214.491 991.746 208.172 991.746 Q205.996 991.746 203.727 991.376 Q201.482 991.006 199.075 990.265 L199.075 985.566 Q201.158 986.7 203.38 987.256 Q205.602 987.811 208.079 987.811 Q212.084 987.811 214.422 985.705 Q216.76 983.598 216.76 979.987 Q216.76 976.376 214.422 974.27 Q212.084 972.163 208.079 972.163 Q206.204 972.163 204.329 972.58 Q202.477 972.997 200.533 973.876 L200.533 956.515 Z" fill="#000000" fill-rule="nonzero" fill-opacity="1" /><path clip-path="url(#clip890)" d="M231.459 987.14 L239.097 987.14 L239.097 960.774 L230.787 962.441 L230.787 958.182 L239.051 956.515 L243.727 956.515 L243.727 987.14 L251.366 987.14 L251.366 991.075 L231.459 991.075 L231.459 987.14 Z" fill="#000000" fill-rule="nonzero" fill-opacity="1" /><path clip-path="url(#clip890)" d="M114.26 743.024 L143.936 743.024 L143.936 746.959 L114.26 746.959 L114.26 743.024 Z" fill="#000000" fill-rule="nonzero" fill-opacity="1" /><path clip-path="url(#clip890)" d="M164.028 728.372 Q160.417 728.372 158.589 731.936 Q156.783 735.478 156.783 742.608 Q156.783 749.714 158.589 753.279 Q160.417 756.82 164.028 756.82 Q167.663 756.82 169.468 753.279 Q171.297 749.714 171.297 742.608 Q171.297 735.478 169.468 731.936 Q167.663 728.372 164.028 728.372 M164.028 724.668 Q169.839 724.668 172.894 729.274 Q175.973 733.858 175.973 742.608 Q175.973 751.334 172.894 755.941 Q169.839 760.524 164.028 760.524 Q158.218 760.524 155.14 755.941 Q152.084 751.334 152.084 742.608 Q152.084 733.858 155.14 729.274 Q158.218 724.668 164.028 724.668 Z" fill="#000000" fill-rule="nonzero" fill-opacity="1" /><path clip-path="url(#clip890)" d="M184.19 753.973 L189.075 753.973 L189.075 759.853 L184.19 759.853 L184.19 753.973 Z" fill="#000000" fill-rule="nonzero" fill-opacity="1" /><path clip-path="url(#clip890)" d="M199.306 725.293 L217.662 725.293 L217.662 729.228 L203.588 729.228 L203.588 737.7 Q204.607 737.353 205.625 737.191 Q206.644 737.006 207.662 737.006 Q213.449 737.006 216.829 740.177 Q220.209 743.348 220.209 748.765 Q220.209 754.344 216.736 757.445 Q213.264 760.524 206.945 760.524 Q204.769 760.524 202.5 760.154 Q200.255 759.783 197.848 759.043 L197.848 754.344 Q199.931 755.478 202.153 756.033 Q204.375 756.589 206.852 756.589 Q210.857 756.589 213.195 754.482 Q215.533 752.376 215.533 748.765 Q215.533 745.154 213.195 743.047 Q210.857 740.941 206.852 740.941 Q204.977 740.941 203.102 741.358 Q201.25 741.774 199.306 742.654 L199.306 725.293 Z" fill="#000000" fill-rule="nonzero" fill-opacity="1" /><path clip-path="url(#clip890)" d="M239.422 728.372 Q235.81 728.372 233.982 731.936 Q232.176 735.478 232.176 742.608 Q232.176 749.714 233.982 753.279 Q235.81 756.82 239.422 756.82 Q243.056 756.82 244.861 753.279 Q246.69 749.714 246.69 742.608 Q246.69 735.478 244.861 731.936 Q243.056 728.372 239.422 728.372 M239.422 724.668 Q245.232 724.668 248.287 729.274 Q251.366 733.858 251.366 742.608 Q251.366 751.334 248.287 755.941 Q245.232 760.524 239.422 760.524 Q233.611 760.524 230.533 755.941 Q227.477 751.334 227.477 742.608 Q227.477 733.858 230.533 729.274 Q233.611 724.668 239.422 724.668 Z" fill="#000000" fill-rule="nonzero" fill-opacity="1" /><path clip-path="url(#clip890)" d="M114.445 511.802 L144.121 511.802 L144.121 515.737 L114.445 515.737 L114.445 511.802 Z" fill="#000000" fill-rule="nonzero" fill-opacity="1" /><path clip-path="url(#clip890)" d="M164.214 497.149 Q160.603 497.149 158.774 500.714 Q156.968 504.256 156.968 511.385 Q156.968 518.492 158.774 522.056 Q160.603 525.598 164.214 525.598 Q167.848 525.598 169.653 522.056 Q171.482 518.492 171.482 511.385 Q171.482 504.256 169.653 500.714 Q167.848 497.149 164.214 497.149 M164.214 493.446 Q170.024 493.446 173.079 498.052 Q176.158 502.635 176.158 511.385 Q176.158 520.112 173.079 524.719 Q170.024 529.302 164.214 529.302 Q158.403 529.302 155.325 524.719 Q152.269 520.112 152.269 511.385 Q152.269 502.635 155.325 498.052 Q158.403 493.446 164.214 493.446 Z" fill="#000000" fill-rule="nonzero" fill-opacity="1" /><path clip-path="url(#clip890)" d="M184.376 522.751 L189.26 522.751 L189.26 528.631 L184.376 528.631 L184.376 522.751 Z" fill="#000000" fill-rule="nonzero" fill-opacity="1" /><path clip-path="url(#clip890)" d="M212.292 498.145 L200.487 516.594 L212.292 516.594 L212.292 498.145 M211.065 494.071 L216.945 494.071 L216.945 516.594 L221.875 516.594 L221.875 520.482 L216.945 520.482 L216.945 528.631 L212.292 528.631 L212.292 520.482 L196.69 520.482 L196.69 515.969 L211.065 494.071 Z" fill="#000000" fill-rule="nonzero" fill-opacity="1" /><path clip-path="url(#clip890)" d="M229.746 527.913 L229.746 523.654 Q231.505 524.487 233.31 524.927 Q235.116 525.367 236.852 525.367 Q241.482 525.367 243.912 522.265 Q246.366 519.14 246.713 512.797 Q245.371 514.788 243.31 515.853 Q241.25 516.918 238.75 516.918 Q233.565 516.918 230.533 513.793 Q227.523 510.645 227.523 505.205 Q227.523 499.881 230.672 496.663 Q233.82 493.446 239.051 493.446 Q245.046 493.446 248.195 498.052 Q251.366 502.635 251.366 511.385 Q251.366 519.556 247.477 524.441 Q243.611 529.302 237.06 529.302 Q235.301 529.302 233.496 528.955 Q231.69 528.607 229.746 527.913 M239.051 513.26 Q242.199 513.26 244.028 511.107 Q245.88 508.955 245.88 505.205 Q245.88 501.478 244.028 499.325 Q242.199 497.149 239.051 497.149 Q235.903 497.149 234.051 499.325 Q232.222 501.478 232.222 505.205 Q232.222 508.955 234.051 511.107 Q235.903 513.26 239.051 513.26 Z" fill="#000000" fill-rule="nonzero" fill-opacity="1" /><path clip-path="url(#clip890)" d="M114.353 280.58 L144.029 280.58 L144.029 284.515 L114.353 284.515 L114.353 280.58 Z" fill="#000000" fill-rule="nonzero" fill-opacity="1" /><path clip-path="url(#clip890)" d="M164.121 265.927 Q160.51 265.927 158.681 269.492 Q156.876 273.033 156.876 280.163 Q156.876 287.269 158.681 290.834 Q160.51 294.376 164.121 294.376 Q167.755 294.376 169.561 290.834 Q171.389 287.269 171.389 280.163 Q171.389 273.033 169.561 269.492 Q167.755 265.927 164.121 265.927 M164.121 262.223 Q169.931 262.223 172.987 266.83 Q176.065 271.413 176.065 280.163 Q176.065 288.89 172.987 293.496 Q169.931 298.08 164.121 298.08 Q158.311 298.08 155.232 293.496 Q152.177 288.89 152.177 280.163 Q152.177 271.413 155.232 266.83 Q158.311 262.223 164.121 262.223 Z" fill="#000000" fill-rule="nonzero" fill-opacity="1" /><path clip-path="url(#clip890)" d="M184.283 291.529 L189.167 291.529 L189.167 297.408 L184.283 297.408 L184.283 291.529 Z" fill="#000000" fill-rule="nonzero" fill-opacity="1" /><path clip-path="url(#clip890)" d="M212.199 266.922 L200.394 285.371 L212.199 285.371 L212.199 266.922 M210.973 262.848 L216.852 262.848 L216.852 285.371 L221.783 285.371 L221.783 289.26 L216.852 289.26 L216.852 297.408 L212.199 297.408 L212.199 289.26 L196.598 289.26 L196.598 284.746 L210.973 262.848 Z" fill="#000000" fill-rule="nonzero" fill-opacity="1" /><path clip-path="url(#clip890)" d="M239.514 280.996 Q236.181 280.996 234.26 282.779 Q232.361 284.561 232.361 287.686 Q232.361 290.811 234.26 292.593 Q236.181 294.376 239.514 294.376 Q242.847 294.376 244.769 292.593 Q246.69 290.788 246.69 287.686 Q246.69 284.561 244.769 282.779 Q242.871 280.996 239.514 280.996 M234.838 279.006 Q231.829 278.265 230.139 276.205 Q228.473 274.144 228.473 271.181 Q228.473 267.038 231.412 264.631 Q234.375 262.223 239.514 262.223 Q244.676 262.223 247.616 264.631 Q250.556 267.038 250.556 271.181 Q250.556 274.144 248.866 276.205 Q247.199 278.265 244.213 279.006 Q247.593 279.793 249.468 282.084 Q251.366 284.376 251.366 287.686 Q251.366 292.709 248.287 295.394 Q245.232 298.08 239.514 298.08 Q233.797 298.08 230.718 295.394 Q227.662 292.709 227.662 287.686 Q227.662 284.376 229.56 282.084 Q231.459 279.793 234.838 279.006 M233.125 271.621 Q233.125 274.306 234.792 275.811 Q236.482 277.316 239.514 277.316 Q242.523 277.316 244.213 275.811 Q245.926 274.306 245.926 271.621 Q245.926 268.936 244.213 267.432 Q242.523 265.927 239.514 265.927 Q236.482 265.927 234.792 267.432 Q233.125 268.936 233.125 271.621 Z" fill="#000000" fill-rule="nonzero" fill-opacity="1" /><path clip-path="url(#clip890)" d="M115.163 49.3573 L144.839 49.3573 L144.839 53.2924 L115.163 53.2924 L115.163 49.3573 Z" fill="#000000" fill-rule="nonzero" fill-opacity="1" /><path clip-path="url(#clip890)" d="M164.931 34.7046 Q161.32 34.7046 159.491 38.2694 Q157.686 41.811 157.686 48.9406 Q157.686 56.0471 159.491 59.6119 Q161.32 63.1535 164.931 63.1535 Q168.565 63.1535 170.371 59.6119 Q172.2 56.0471 172.2 48.9406 Q172.2 41.811 170.371 38.2694 Q168.565 34.7046 164.931 34.7046 M164.931 31.0009 Q170.741 31.0009 173.797 35.6074 Q176.876 40.1907 176.876 48.9406 Q176.876 57.6674 173.797 62.2739 Q170.741 66.8572 164.931 66.8572 Q159.121 66.8572 156.042 62.2739 Q152.987 57.6674 152.987 48.9406 Q152.987 40.1907 156.042 35.6074 Q159.121 31.0009 164.931 31.0009 Z" fill="#000000" fill-rule="nonzero" fill-opacity="1" /><path clip-path="url(#clip890)" d="M185.093 60.3063 L189.977 60.3063 L189.977 66.1859 L185.093 66.1859 L185.093 60.3063 Z" fill="#000000" fill-rule="nonzero" fill-opacity="1" /><path clip-path="url(#clip890)" d="M213.01 35.6999 L201.204 54.1489 L213.01 54.1489 L213.01 35.6999 M211.783 31.6259 L217.662 31.6259 L217.662 54.1489 L222.593 54.1489 L222.593 58.0378 L217.662 58.0378 L217.662 66.1859 L213.01 66.1859 L213.01 58.0378 L197.408 58.0378 L197.408 53.5239 L211.783 31.6259 Z" fill="#000000" fill-rule="nonzero" fill-opacity="1" /><path clip-path="url(#clip890)" d="M229.144 31.6259 L251.366 31.6259 L251.366 33.6166 L238.82 66.1859 L233.935 66.1859 L245.741 35.5611 L229.144 35.5611 L229.144 31.6259 Z" fill="#000000" fill-rule="nonzero" fill-opacity="1" /><path clip-path="url(#clip890)" d="M16.4842 923.589 L16.4842 893.543 L21.895 893.543 L21.895 917.16 L35.9632 917.16 L35.9632 894.53 L41.3741 894.53 L41.3741 917.16 L58.5933 917.16 L58.5933 892.97 L64.0042 892.97 L64.0042 923.589 L16.4842 923.589 Z" fill="#000000" fill-rule="nonzero" fill-opacity="1" /><path clip-path="url(#clip890)" d="M42.4881 853.025 L64.0042 853.025 L64.0042 858.882 L42.679 858.882 Q37.6183 858.882 35.1038 860.855 Q32.5894 862.828 32.5894 866.775 Q32.5894 871.518 35.6131 874.255 Q38.6368 876.992 43.8567 876.992 L64.0042 876.992 L64.0042 882.88 L28.3562 882.88 L28.3562 876.992 L33.8944 876.992 Q30.6797 874.891 29.0883 872.059 Q27.4968 869.194 27.4968 865.47 Q27.4968 859.327 31.3163 856.176 Q35.1038 853.025 42.4881 853.025 Z" fill="#000000" fill-rule="nonzero" fill-opacity="1" /><path clip-path="url(#clip890)" d="M44.7161 810.852 L47.5806 810.852 L47.5806 837.779 Q53.6281 837.397 56.8109 834.151 Q59.9619 830.873 59.9619 825.048 Q59.9619 821.674 59.1344 818.523 Q58.3069 815.34 56.6518 812.221 L62.1899 812.221 Q63.5267 815.372 64.227 818.682 Q64.9272 821.992 64.9272 825.398 Q64.9272 833.928 59.9619 838.925 Q54.9967 843.89 46.5303 843.89 Q37.7774 843.89 32.6531 839.18 Q27.4968 834.437 27.4968 826.417 Q27.4968 819.223 32.1438 815.054 Q36.7589 810.852 44.7161 810.852 M42.9973 816.709 Q38.1912 816.773 35.3266 819.414 Q32.4621 822.024 32.4621 826.353 Q32.4621 831.255 35.2312 834.215 Q38.0002 837.143 43.0292 837.588 L42.9973 816.709 Z" fill="#000000" fill-rule="nonzero" fill-opacity="1" /><path clip-path="url(#clip890)" d="M33.8307 780.584 Q33.2578 781.57 33.0032 782.748 Q32.7167 783.894 32.7167 785.294 Q32.7167 790.259 35.9632 792.933 Q39.1779 795.575 45.2253 795.575 L64.0042 795.575 L64.0042 801.463 L28.3562 801.463 L28.3562 795.575 L33.8944 795.575 Q30.6479 793.729 29.0883 790.769 Q27.4968 787.809 27.4968 783.575 Q27.4968 782.971 27.5923 782.239 Q27.656 781.507 27.8151 780.615 L33.8307 780.584 Z" fill="#000000" fill-rule="nonzero" fill-opacity="1" /><path clip-path="url(#clip890)" d="M45.7664 752.129 Q39.4007 752.129 35.8996 754.771 Q32.3984 757.381 32.3984 762.123 Q32.3984 766.834 35.8996 769.475 Q39.4007 772.085 45.7664 772.085 Q52.1003 772.085 55.6014 769.475 Q59.1026 766.834 59.1026 762.123 Q59.1026 757.381 55.6014 754.771 Q52.1003 752.129 45.7664 752.129 M59.58 746.272 Q68.683 746.272 73.1071 750.315 Q77.5631 754.357 77.5631 762.696 Q77.5631 765.783 77.0857 768.521 Q76.6401 771.258 75.6852 773.836 L69.9879 773.836 Q71.3884 771.258 72.0568 768.743 Q72.7252 766.229 72.7252 763.619 Q72.7252 757.858 69.7015 754.993 Q66.7096 752.129 60.6303 752.129 L57.7339 752.129 Q60.885 753.943 62.4446 756.776 Q64.0042 759.609 64.0042 763.555 Q64.0042 770.112 59.0071 774.122 Q54.01 778.133 45.7664 778.133 Q37.491 778.133 32.4939 774.122 Q27.4968 770.112 27.4968 763.555 Q27.4968 759.609 29.0564 756.776 Q30.616 753.943 33.7671 752.129 L28.3562 752.129 L28.3562 746.272 L59.58 746.272 Z" fill="#000000" fill-rule="nonzero" fill-opacity="1" /><path clip-path="url(#clip890)" d="M67.3143 719.377 Q73.68 721.86 75.6216 724.215 Q77.5631 726.571 77.5631 730.517 L77.5631 735.196 L72.6615 735.196 L72.6615 731.759 Q72.6615 729.34 71.5157 728.003 Q70.3699 726.666 66.1048 725.043 L63.4312 723.992 L28.3562 738.411 L28.3562 732.204 L56.238 721.064 L28.3562 709.924 L28.3562 703.718 L67.3143 719.377 Z" fill="#000000" fill-rule="nonzero" fill-opacity="1" /><path clip-path="url(#clip890)" d="M14.5426 660.845 Q21.8632 665.11 29.0246 667.178 Q36.186 669.247 43.5384 669.247 Q50.8908 669.247 58.1159 667.178 Q65.3091 665.078 72.5979 660.845 L72.5979 665.937 Q65.1182 670.711 57.8931 673.099 Q50.668 675.454 43.5384 675.454 Q36.4406 675.454 29.2474 673.099 Q22.0542 670.743 14.5426 665.937 L14.5426 660.845 Z" fill="#000000" fill-rule="nonzero" fill-opacity="1" /><path clip-path="url(#clip890)" d="M16.4842 649.227 L16.4842 642.798 L35.9632 642.798 L35.9632 619.436 L16.4842 619.436 L16.4842 613.006 L64.0042 613.006 L64.0042 619.436 L41.3741 619.436 L41.3741 642.798 L64.0042 642.798 L64.0042 649.227 L16.4842 649.227 Z" fill="#000000" fill-rule="nonzero" fill-opacity="1" /><path clip-path="url(#clip890)" d="M46.0847 584.265 Q46.0847 591.363 47.7079 594.1 Q49.3312 596.837 53.2461 596.837 Q56.3653 596.837 58.2114 594.8 Q60.0256 592.732 60.0256 589.199 Q60.0256 584.329 56.5881 581.401 Q53.1188 578.441 47.3897 578.441 L46.0847 578.441 L46.0847 584.265 M43.6657 572.584 L64.0042 572.584 L64.0042 578.441 L58.5933 578.441 Q61.8398 580.446 63.3994 583.438 Q64.9272 586.429 64.9272 590.758 Q64.9272 596.233 61.8716 599.479 Q58.7843 602.694 53.6281 602.694 Q47.6125 602.694 44.5569 598.683 Q41.5014 594.641 41.5014 586.652 L41.5014 578.441 L40.9285 578.441 Q36.8862 578.441 34.6901 581.114 Q32.4621 583.756 32.4621 588.562 Q32.4621 591.618 33.1941 594.514 Q33.9262 597.41 35.3903 600.084 L29.9795 600.084 Q28.7381 596.869 28.1334 593.846 Q27.4968 590.822 27.4968 587.957 Q27.4968 580.223 31.5072 576.404 Q35.5176 572.584 43.6657 572.584 Z" fill="#000000" fill-rule="nonzero" fill-opacity="1" /><path clip-path="url(#clip890)" d="M14.5426 561.444 L14.5426 556.352 Q22.0542 551.577 29.2474 549.222 Q36.4406 546.835 43.5384 546.835 Q50.668 546.835 57.8931 549.222 Q65.1182 551.577 72.5979 556.352 L72.5979 561.444 Q65.3091 557.211 58.1159 555.142 Q50.8908 553.041 43.5384 553.041 Q36.186 553.041 29.0246 555.142 Q21.8632 557.211 14.5426 561.444 Z" fill="#000000" fill-rule="nonzero" fill-opacity="1" /><polyline clip-path="url(#clip891)" style="stroke:#009af9; stroke-linecap:round; stroke-linejoin:round; stroke-width:8; stroke-opacity:1; fill:none" points="345.82,86.1857 354.442,189.411 363.064,456.987 371.685,456.987 380.307,456.987 388.928,456.987 397.55,689.652 406.172,689.652 414.793,781.507 423.415,870.062 432.036,936.89 440.658,969.318 449.28,997.131 457.901,1059.99 466.523,1090.79 475.144,1158.29 483.766,1186.74 492.388,1206.38 501.009,1222.03 509.631,1222.03 518.252,1230.88 526.874,1241.82 535.495,1245.43 544.117,1248.74 552.739,1252.67 561.36,1254.58 569.982,1257.61 578.603,1263.66 587.225,1267.82 595.847,1273.27 604.468,1274.37 613.09,1277.32 621.711,1278.44 630.333,1281.05 638.955,1284.12 647.576,1284.12 656.198,1284.52 664.819,1285.27 673.441,1285.65 682.063,1286.25 690.684,1287.39 699.306,1289.49 707.927,1289.65 716.549,1290.52 725.171,1293.59 733.792,1296.76 742.414,1296.76 751.035,1297.13 759.657,1297.76 768.279,1299.73 776.9,1300.87 785.522,1301.5 794.143,1303.62 802.765,1303.62 811.387,1304.24 820.008,1305.48 828.63,1307.05 837.251,1308.68 845.873,1308.68 854.495,1309.67 863.116,1311.6 871.738,1313.29 880.359,1314.79 888.981,1316.61 897.603,1317.53 906.224,1318.75 914.846,1319.07 923.467,1320.06 932.089,1320.79 940.711,1321.35 949.332,1321.75 957.954,1322.25 966.575,1322.9 975.197,1323.93 983.819,1324.47 992.44,1324.47 1001.06,1324.75 1009.68,1325.03 1018.3,1325.55 1026.93,1325.77 1035.55,1326.24 1044.17,1326.64 1052.79,1326.98 1061.41,1327.39 1070.03,1327.66 1078.66,1327.94 1087.28,1328.22 1095.9,1328.31 1104.52,1328.31 1113.14,1328.41 1121.76,1328.57 1130.39,1328.66 1139.01,1328.82 1147.63,1328.96 1156.25,1329.07 1164.87,1329.27 1173.49,1329.32 1182.12,1329.42 1190.74,1329.59 1199.36,1329.85 1207.98,1329.93 1216.6,1330.06 1225.22,1330.28 1233.84,1330.48 1242.47,1330.48 1251.09,1330.6 1259.71,1330.82 1268.33,1330.97 1276.95,1331.14 1285.57,1331.42 1294.2,1331.48 1302.82,1331.7 1311.44,1332.1 1320.06,1332.36 1328.68,1332.56 1337.3,1332.73 1345.93,1333.08 1354.55,1333.08 1363.17,1333.23 1371.79,1333.51 1380.41,1333.76 1389.03,1333.93 1397.66,1334.04 1406.28,1334.21 1414.9,1334.36 1423.52,1334.49 1432.14,1334.74 1440.76,1335.01 1449.38,1335.23 1458.01,1335.42 1466.63,1335.64 1475.25,1335.88 1483.87,1336.04 1492.49,1336.19 1501.11,1336.39 1509.74,1336.65 1518.36,1337 1526.98,1337.03 1535.6,1337.13 1544.22,1337.28 1552.84,1337.47 1561.47,1337.6 1570.09,1337.86 1578.71,1338.24 1587.33,1338.36 1595.95,1338.83 1604.57,1338.99 1613.2,1339.3 1621.82,1339.77 1630.44,1340.21 1639.06,1340.63 1647.68,1340.83 1656.3,1340.97 1664.92,1341.25 1673.55,1341.38 1682.17,1341.59 1690.79,1341.69 1699.41,1341.84 1708.03,1341.99 1716.65,1342.12 1725.28,1342.17 1733.9,1342.22 1742.52,1342.32 1751.14,1342.32 1759.76,1342.35 1768.38,1342.46 1777.01,1342.55 1785.63,1342.63 1794.25,1342.71 1802.87,1342.71 1811.49,1342.74 1820.11,1342.82 1828.74,1342.87 1837.36,1342.93 1845.98,1342.99 1854.6,1343.01 1863.22,1343.04 1871.84,1343.09 1880.46,1343.12 1889.09,1343.16 1897.71,1343.19 1906.33,1343.22 1914.95,1343.22 1923.57,1343.24 1932.19,1343.28 1940.82,1343.31 1949.44,1343.33 1958.06,1343.34 1966.68,1343.35 1975.3,1343.36 1983.92,1343.37 1992.55,1343.37 2001.17,1343.39 2009.79,1343.41 2018.41,1343.42 2027.03,1343.43 2035.65,1343.43 2044.28,1343.43 2052.9,1343.44 2061.52,1343.45 2070.14,1343.45 2078.76,1343.46 2087.38,1343.47 2096,1343.48 2104.63,1343.49 2113.25,1343.5 2121.87,1343.51 2130.49,1343.51 2139.11,1343.53 2147.73,1343.54 2156.36,1343.54 2164.98,1343.55 2173.6,1343.55 2182.22,1343.55 2190.84,1343.55 2199.46,1343.55 2208.09,1343.56 2216.71,1343.56 2225.33,1343.58 2233.95,1343.58 2242.57,1343.59 2251.19,1343.6 2259.82,1343.61 2268.44,1343.61 2277.06,1343.63 2285.68,1343.65 2294.3,1343.66 "/>
<polyline clip-path="url(#clip891)" style="stroke:#000000; stroke-linecap:round; stroke-linejoin:round; stroke-width:4; stroke-opacity:1; fill:none" stroke-dasharray="2, 4" points="-1778.02,1384.24 4418.15,1384.24 "/>
<path clip-path="url(#clip890)" d="M1829.64 248.629 L2283.91 248.629 L2283.91 93.1086 L1829.64 93.1086  Z" fill="#ffffff" fill-rule="evenodd" fill-opacity="1"/>
<polyline clip-path="url(#clip890)" style="stroke:#000000; stroke-linecap:round; stroke-linejoin:round; stroke-width:4; stroke-opacity:1; fill:none" points="1829.64,248.629 2283.91,248.629 2283.91,93.1086 1829.64,93.1086 1829.64,248.629 "/>
<polyline clip-path="url(#clip890)" style="stroke:#009af9; stroke-linecap:round; stroke-linejoin:round; stroke-width:8; stroke-opacity:1; fill:none" points="1852.59,144.949 1990.28,144.949 "/>
<path clip-path="url(#clip890)" d="M2026.43 162.229 L2013.23 127.669 L2018.11 127.669 L2029.06 156.766 L2040.04 127.669 L2044.9 127.669 L2031.73 162.229 L2026.43 162.229 Z" fill="#000000" fill-rule="nonzero" fill-opacity="1" /><path clip-path="url(#clip890)" d="M2057.86 149.196 Q2052.7 149.196 2050.71 150.377 Q2048.72 151.557 2048.72 154.405 Q2048.72 156.673 2050.2 158.016 Q2051.7 159.335 2054.27 159.335 Q2057.81 159.335 2059.94 156.835 Q2062.1 154.312 2062.1 150.145 L2062.1 149.196 L2057.86 149.196 M2066.36 147.437 L2066.36 162.229 L2062.1 162.229 L2062.1 158.293 Q2060.64 160.655 2058.46 161.789 Q2056.29 162.9 2053.14 162.9 Q2049.16 162.9 2046.8 160.678 Q2044.46 158.432 2044.46 154.682 Q2044.46 150.307 2047.37 148.085 Q2050.31 145.863 2056.12 145.863 L2062.1 145.863 L2062.1 145.446 Q2062.1 142.507 2060.15 140.909 Q2058.23 139.289 2054.74 139.289 Q2052.51 139.289 2050.41 139.821 Q2048.3 140.354 2046.36 141.419 L2046.36 137.483 Q2048.69 136.581 2050.89 136.141 Q2053.09 135.678 2055.17 135.678 Q2060.8 135.678 2063.58 138.594 Q2066.36 141.511 2066.36 147.437 Z" fill="#000000" fill-rule="nonzero" fill-opacity="1" /><path clip-path="url(#clip890)" d="M2090.15 140.284 Q2089.43 139.868 2088.58 139.682 Q2087.74 139.474 2086.73 139.474 Q2083.11 139.474 2081.17 141.835 Q2079.25 144.173 2079.25 148.571 L2079.25 162.229 L2074.97 162.229 L2074.97 136.303 L2079.25 136.303 L2079.25 140.331 Q2080.59 137.969 2082.74 136.835 Q2084.9 135.678 2087.98 135.678 Q2088.42 135.678 2088.95 135.747 Q2089.48 135.794 2090.13 135.909 L2090.15 140.284 Z" fill="#000000" fill-rule="nonzero" fill-opacity="1" /><path clip-path="url(#clip890)" d="M2094.62 136.303 L2098.88 136.303 L2098.88 162.229 L2094.62 162.229 L2094.62 136.303 M2094.62 126.21 L2098.88 126.21 L2098.88 131.604 L2094.62 131.604 L2094.62 126.21 Z" fill="#000000" fill-rule="nonzero" fill-opacity="1" /><path clip-path="url(#clip890)" d="M2119.57 149.196 Q2114.41 149.196 2112.42 150.377 Q2110.43 151.557 2110.43 154.405 Q2110.43 156.673 2111.91 158.016 Q2113.42 159.335 2115.98 159.335 Q2119.53 159.335 2121.66 156.835 Q2123.81 154.312 2123.81 150.145 L2123.81 149.196 L2119.57 149.196 M2128.07 147.437 L2128.07 162.229 L2123.81 162.229 L2123.81 158.293 Q2122.35 160.655 2120.17 161.789 Q2118 162.9 2114.85 162.9 Q2110.87 162.9 2108.51 160.678 Q2106.17 158.432 2106.17 154.682 Q2106.17 150.307 2109.09 148.085 Q2112.03 145.863 2117.84 145.863 L2123.81 145.863 L2123.81 145.446 Q2123.81 142.507 2121.86 140.909 Q2119.94 139.289 2116.45 139.289 Q2114.23 139.289 2112.12 139.821 Q2110.01 140.354 2108.07 141.419 L2108.07 137.483 Q2110.41 136.581 2112.61 136.141 Q2114.8 135.678 2116.89 135.678 Q2122.51 135.678 2125.29 138.594 Q2128.07 141.511 2128.07 147.437 Z" fill="#000000" fill-rule="nonzero" fill-opacity="1" /><path clip-path="url(#clip890)" d="M2141.05 128.942 L2141.05 136.303 L2149.83 136.303 L2149.83 139.613 L2141.05 139.613 L2141.05 153.687 Q2141.05 156.858 2141.91 157.761 Q2142.79 158.664 2145.45 158.664 L2149.83 158.664 L2149.83 162.229 L2145.45 162.229 Q2140.52 162.229 2138.65 160.4 Q2136.77 158.548 2136.77 153.687 L2136.77 139.613 L2133.65 139.613 L2133.65 136.303 L2136.77 136.303 L2136.77 128.942 L2141.05 128.942 Z" fill="#000000" fill-rule="nonzero" fill-opacity="1" /><path clip-path="url(#clip890)" d="M2155.43 136.303 L2159.69 136.303 L2159.69 162.229 L2155.43 162.229 L2155.43 136.303 M2155.43 126.21 L2159.69 126.21 L2159.69 131.604 L2155.43 131.604 L2155.43 126.21 Z" fill="#000000" fill-rule="nonzero" fill-opacity="1" /><path clip-path="url(#clip890)" d="M2178.65 139.289 Q2175.22 139.289 2173.23 141.974 Q2171.24 144.636 2171.24 149.289 Q2171.24 153.942 2173.21 156.627 Q2175.2 159.289 2178.65 159.289 Q2182.05 159.289 2184.04 156.604 Q2186.03 153.918 2186.03 149.289 Q2186.03 144.682 2184.04 141.997 Q2182.05 139.289 2178.65 139.289 M2178.65 135.678 Q2184.2 135.678 2187.37 139.289 Q2190.54 142.9 2190.54 149.289 Q2190.54 155.655 2187.37 159.289 Q2184.2 162.9 2178.65 162.9 Q2173.07 162.9 2169.9 159.289 Q2166.75 155.655 2166.75 149.289 Q2166.75 142.9 2169.9 139.289 Q2173.07 135.678 2178.65 135.678 Z" fill="#000000" fill-rule="nonzero" fill-opacity="1" /><path clip-path="url(#clip890)" d="M2219.16 146.581 L2219.16 162.229 L2214.9 162.229 L2214.9 146.719 Q2214.9 143.039 2213.46 141.21 Q2212.03 139.382 2209.16 139.382 Q2205.71 139.382 2203.72 141.581 Q2201.73 143.78 2201.73 147.576 L2201.73 162.229 L2197.44 162.229 L2197.44 136.303 L2201.73 136.303 L2201.73 140.331 Q2203.25 137.993 2205.31 136.835 Q2207.4 135.678 2210.1 135.678 Q2214.57 135.678 2216.86 138.456 Q2219.16 141.21 2219.16 146.581 Z" fill="#000000" fill-rule="nonzero" fill-opacity="1" /><path clip-path="url(#clip890)" d="M2239.43 149.196 Q2234.27 149.196 2232.28 150.377 Q2230.29 151.557 2230.29 154.405 Q2230.29 156.673 2231.77 158.016 Q2233.28 159.335 2235.85 159.335 Q2239.39 159.335 2241.52 156.835 Q2243.67 154.312 2243.67 150.145 L2243.67 149.196 L2239.43 149.196 M2247.93 147.437 L2247.93 162.229 L2243.67 162.229 L2243.67 158.293 Q2242.21 160.655 2240.03 161.789 Q2237.86 162.9 2234.71 162.9 Q2230.73 162.9 2228.37 160.678 Q2226.03 158.432 2226.03 154.682 Q2226.03 150.307 2228.95 148.085 Q2231.89 145.863 2237.7 145.863 L2243.67 145.863 L2243.67 145.446 Q2243.67 142.507 2241.72 140.909 Q2239.8 139.289 2236.31 139.289 Q2234.09 139.289 2231.98 139.821 Q2229.87 140.354 2227.93 141.419 L2227.93 137.483 Q2230.27 136.581 2232.47 136.141 Q2234.66 135.678 2236.75 135.678 Q2242.37 135.678 2245.15 138.594 Q2247.93 141.511 2247.93 147.437 Z" fill="#000000" fill-rule="nonzero" fill-opacity="1" /><path clip-path="url(#clip890)" d="M2256.7 126.21 L2260.96 126.21 L2260.96 162.229 L2256.7 162.229 L2256.7 126.21 Z" fill="#000000" fill-rule="nonzero" fill-opacity="1" /><polyline clip-path="url(#clip890)" style="stroke:#000000; stroke-linecap:round; stroke-linejoin:round; stroke-width:4; stroke-opacity:1; fill:none" stroke-dasharray="2, 4" points="1852.59,196.789 1990.28,196.789 "/>
<path clip-path="url(#clip890)" d="M2013.23 179.509 L2035.08 179.509 L2035.08 183.444 L2017.91 183.444 L2017.91 193.675 L2034.36 193.675 L2034.36 197.61 L2017.91 197.61 L2017.91 210.133 L2035.5 210.133 L2035.5 214.069 L2013.23 214.069 L2013.23 179.509 Z" fill="#000000" fill-rule="nonzero" fill-opacity="1" /><path clip-path="url(#clip890)" d="M2064.55 188.143 L2055.17 200.759 L2065.04 214.069 L2060.01 214.069 L2052.47 203.883 L2044.92 214.069 L2039.9 214.069 L2049.97 200.504 L2040.75 188.143 L2045.78 188.143 L2052.65 197.379 L2059.53 188.143 L2064.55 188.143 Z" fill="#000000" fill-rule="nonzero" fill-opacity="1" /><path clip-path="url(#clip890)" d="M2082.84 201.036 Q2077.67 201.036 2075.68 202.217 Q2073.69 203.397 2073.69 206.245 Q2073.69 208.513 2075.17 209.856 Q2076.68 211.175 2079.25 211.175 Q2082.79 211.175 2084.92 208.675 Q2087.07 206.152 2087.07 201.985 L2087.07 201.036 L2082.84 201.036 M2091.33 199.277 L2091.33 214.069 L2087.07 214.069 L2087.07 210.133 Q2085.61 212.495 2083.44 213.629 Q2081.26 214.74 2078.11 214.74 Q2074.13 214.74 2071.77 212.518 Q2069.43 210.272 2069.43 206.522 Q2069.43 202.147 2072.35 199.925 Q2075.29 197.703 2081.1 197.703 L2087.07 197.703 L2087.07 197.286 Q2087.07 194.347 2085.13 192.749 Q2083.21 191.129 2079.71 191.129 Q2077.49 191.129 2075.38 191.661 Q2073.28 192.194 2071.33 193.259 L2071.33 189.323 Q2073.67 188.421 2075.87 187.981 Q2078.07 187.518 2080.15 187.518 Q2085.78 187.518 2088.55 190.434 Q2091.33 193.351 2091.33 199.277 Z" fill="#000000" fill-rule="nonzero" fill-opacity="1" /><path clip-path="url(#clip890)" d="M2118.76 189.138 L2118.76 193.12 Q2116.96 192.124 2115.13 191.638 Q2113.32 191.129 2111.47 191.129 Q2107.33 191.129 2105.04 193.768 Q2102.74 196.384 2102.74 201.129 Q2102.74 205.874 2105.04 208.513 Q2107.33 211.129 2111.47 211.129 Q2113.32 211.129 2115.13 210.643 Q2116.96 210.133 2118.76 209.138 L2118.76 213.073 Q2116.98 213.907 2115.06 214.323 Q2113.16 214.74 2111.01 214.74 Q2105.15 214.74 2101.7 211.059 Q2098.25 207.379 2098.25 201.129 Q2098.25 194.786 2101.73 191.152 Q2105.22 187.518 2111.29 187.518 Q2113.25 187.518 2115.13 187.935 Q2117 188.328 2118.76 189.138 Z" fill="#000000" fill-rule="nonzero" fill-opacity="1" /><path clip-path="url(#clip890)" d="M2130.38 180.782 L2130.38 188.143 L2139.16 188.143 L2139.16 191.453 L2130.38 191.453 L2130.38 205.527 Q2130.38 208.698 2131.24 209.601 Q2132.12 210.504 2134.78 210.504 L2139.16 210.504 L2139.16 214.069 L2134.78 214.069 Q2129.85 214.069 2127.98 212.24 Q2126.1 210.388 2126.1 205.527 L2126.1 191.453 L2122.98 191.453 L2122.98 188.143 L2126.1 188.143 L2126.1 180.782 L2130.38 180.782 Z" fill="#000000" fill-rule="nonzero" fill-opacity="1" /></svg>
