<?xml version="1.0" encoding="utf-8"?>
<svg xmlns="http://www.w3.org/2000/svg" xmlns:xlink="http://www.w3.org/1999/xlink" width="600" height="400" viewBox="0 0 2400 1600">
<defs>
  <clipPath id="clip200">
    <rect x="0" y="0" width="2400" height="1600"/>
  </clipPath>
</defs>
<path clip-path="url(#clip200)" d="M0 1600 L2400 1600 L2400 0 L0 0  Z" fill="#ffffff" fill-rule="evenodd" fill-opacity="1"/>
<defs>
  <clipPath id="clip201">
    <rect x="317" y="47" width="2036" height="1377"/>
  </clipPath>
</defs>
<path clip-path="url(#clip200)" d="M317.528 1423.18 L2352.76 1423.18 L2352.76 47.2441 L317.528 47.2441  Z" fill="#ffffff" fill-rule="evenodd" fill-opacity="1"/>
<polyline clip-path="url(#clip201)" style="stroke:#000000; stroke-linecap:round; stroke-linejoin:round; stroke-width:2; stroke-opacity:0.1; fill:none" points="631.132,1423.18 631.132,47.2441 "/>
<polyline clip-path="url(#clip201)" style="stroke:#000000; stroke-linecap:round; stroke-linejoin:round; stroke-width:2; stroke-opacity:0.1; fill:none" points="1015.14,1423.18 1015.14,47.2441 "/>
<polyline clip-path="url(#clip201)" style="stroke:#000000; stroke-linecap:round; stroke-linejoin:round; stroke-width:2; stroke-opacity:0.1; fill:none" points="1399.14,1423.18 1399.14,47.2441 "/>
<polyline clip-path="url(#clip201)" style="stroke:#000000; stroke-linecap:round; stroke-linejoin:round; stroke-width:2; stroke-opacity:0.1; fill:none" points="1783.15,1423.18 1783.15,47.2441 "/>
<polyline clip-path="url(#clip201)" style="stroke:#000000; stroke-linecap:round; stroke-linejoin:round; stroke-width:2; stroke-opacity:0.1; fill:none" points="2167.15,1423.18 2167.15,47.2441 "/>
<polyline clip-path="url(#clip201)" style="stroke:#000000; stroke-linecap:round; stroke-linejoin:round; stroke-width:2; stroke-opacity:0.1; fill:none" points="317.528,1354.8 2352.76,1354.8 "/>
<polyline clip-path="url(#clip201)" style="stroke:#000000; stroke-linecap:round; stroke-linejoin:round; stroke-width:2; stroke-opacity:0.1; fill:none" points="317.528,1089.83 2352.76,1089.83 "/>
<polyline clip-path="url(#clip201)" style="stroke:#000000; stroke-linecap:round; stroke-linejoin:round; stroke-width:2; stroke-opacity:0.1; fill:none" points="317.528,824.855 2352.76,824.855 "/>
<polyline clip-path="url(#clip201)" style="stroke:#000000; stroke-linecap:round; stroke-linejoin:round; stroke-width:2; stroke-opacity:0.1; fill:none" points="317.528,559.884 2352.76,559.884 "/>
<polyline clip-path="url(#clip201)" style="stroke:#000000; stroke-linecap:round; stroke-linejoin:round; stroke-width:2; stroke-opacity:0.1; fill:none" points="317.528,294.913 2352.76,294.913 "/>
<polyline clip-path="url(#clip200)" style="stroke:#000000; stroke-linecap:round; stroke-linejoin:round; stroke-width:4; stroke-opacity:1; fill:none" points="317.528,1423.18 2352.76,1423.18 "/>
<polyline clip-path="url(#clip200)" style="stroke:#000000; stroke-linecap:round; stroke-linejoin:round; stroke-width:4; stroke-opacity:1; fill:none" points="631.132,1423.18 631.132,1404.28 "/>
<polyline clip-path="url(#clip200)" style="stroke:#000000; stroke-linecap:round; stroke-linejoin:round; stroke-width:4; stroke-opacity:1; fill:none" points="1015.14,1423.18 1015.14,1404.28 "/>
<polyline clip-path="url(#clip200)" style="stroke:#000000; stroke-linecap:round; stroke-linejoin:round; stroke-width:4; stroke-opacity:1; fill:none" points="1399.14,1423.18 1399.14,1404.28 "/>
<polyline clip-path="url(#clip200)" style="stroke:#000000; stroke-linecap:round; stroke-linejoin:round; stroke-width:4; stroke-opacity:1; fill:none" points="1783.15,1423.18 1783.15,1404.28 "/>
<polyline clip-path="url(#clip200)" style="stroke:#000000; stroke-linecap:round; stroke-linejoin:round; stroke-width:4; stroke-opacity:1; fill:none" points="2167.15,1423.18 2167.15,1404.28 "/>
<path clip-path="url(#clip200)" d="M635.38 1466.95 Q638.736 1467.66 640.611 1469.93 Q642.509 1472.2 642.509 1475.53 Q642.509 1480.65 638.991 1483.45 Q635.472 1486.25 628.991 1486.25 Q626.815 1486.25 624.5 1485.81 Q622.209 1485.39 619.755 1484.54 L619.755 1480.02 Q621.699 1481.16 624.014 1481.74 Q626.329 1482.32 628.852 1482.32 Q633.25 1482.32 635.542 1480.58 Q637.857 1478.84 637.857 1475.53 Q637.857 1472.48 635.704 1470.77 Q633.574 1469.03 629.755 1469.03 L625.727 1469.03 L625.727 1465.19 L629.94 1465.19 Q633.389 1465.19 635.218 1463.82 Q637.046 1462.43 637.046 1459.84 Q637.046 1457.18 635.148 1455.77 Q633.273 1454.33 629.755 1454.33 Q627.834 1454.33 625.634 1454.75 Q623.435 1455.16 620.797 1456.04 L620.797 1451.88 Q623.459 1451.14 625.773 1450.77 Q628.111 1450.39 630.171 1450.39 Q635.496 1450.39 638.597 1452.83 Q641.699 1455.23 641.699 1459.35 Q641.699 1462.22 640.056 1464.21 Q638.412 1466.18 635.38 1466.95 Z" fill="#000000" fill-rule="nonzero" fill-opacity="1" /><path clip-path="url(#clip200)" d="M1015.54 1466.44 Q1012.39 1466.44 1010.54 1468.59 Q1008.71 1470.74 1008.71 1474.49 Q1008.71 1478.22 1010.54 1480.39 Q1012.39 1482.55 1015.54 1482.55 Q1018.69 1482.55 1020.52 1480.39 Q1022.37 1478.22 1022.37 1474.49 Q1022.37 1470.74 1020.52 1468.59 Q1018.69 1466.44 1015.54 1466.44 M1024.82 1451.78 L1024.82 1456.04 Q1023.07 1455.21 1021.26 1454.77 Q1019.48 1454.33 1017.72 1454.33 Q1013.09 1454.33 1010.64 1457.45 Q1008.2 1460.58 1007.86 1466.9 Q1009.22 1464.89 1011.28 1463.82 Q1013.34 1462.73 1015.82 1462.73 Q1021.03 1462.73 1024.04 1465.9 Q1027.07 1469.05 1027.07 1474.49 Q1027.07 1479.82 1023.92 1483.03 Q1020.77 1486.25 1015.54 1486.25 Q1009.55 1486.25 1006.38 1481.67 Q1003.2 1477.06 1003.2 1468.33 Q1003.2 1460.14 1007.09 1455.28 Q1010.98 1450.39 1017.53 1450.39 Q1019.29 1450.39 1021.07 1450.74 Q1022.88 1451.09 1024.82 1451.78 Z" fill="#000000" fill-rule="nonzero" fill-opacity="1" /><path clip-path="url(#clip200)" d="M1389.44 1484.86 L1389.44 1480.6 Q1391.2 1481.44 1393.01 1481.88 Q1394.81 1482.32 1396.55 1482.32 Q1401.18 1482.32 1403.61 1479.21 Q1406.06 1476.09 1406.41 1469.75 Q1405.07 1471.74 1403.01 1472.8 Q1400.95 1473.87 1398.45 1473.87 Q1393.26 1473.87 1390.23 1470.74 Q1387.22 1467.59 1387.22 1462.15 Q1387.22 1456.83 1390.37 1453.61 Q1393.52 1450.39 1398.75 1450.39 Q1404.74 1450.39 1407.89 1455 Q1411.06 1459.58 1411.06 1468.33 Q1411.06 1476.51 1407.18 1481.39 Q1403.31 1486.25 1396.76 1486.25 Q1395 1486.25 1393.19 1485.9 Q1391.39 1485.56 1389.44 1484.86 M1398.75 1470.21 Q1401.9 1470.21 1403.73 1468.06 Q1405.58 1465.9 1405.58 1462.15 Q1405.58 1458.43 1403.73 1456.27 Q1401.9 1454.1 1398.75 1454.1 Q1395.6 1454.1 1393.75 1456.27 Q1391.92 1458.43 1391.92 1462.15 Q1391.92 1465.9 1393.75 1468.06 Q1395.6 1470.21 1398.75 1470.21 Z" fill="#000000" fill-rule="nonzero" fill-opacity="1" /><path clip-path="url(#clip200)" d="M1758.63 1481.64 L1766.27 1481.64 L1766.27 1455.28 L1757.96 1456.95 L1757.96 1452.69 L1766.23 1451.02 L1770.9 1451.02 L1770.9 1481.64 L1778.54 1481.64 L1778.54 1485.58 L1758.63 1485.58 L1758.63 1481.64 Z" fill="#000000" fill-rule="nonzero" fill-opacity="1" /><path clip-path="url(#clip200)" d="M1792.01 1481.64 L1808.33 1481.64 L1808.33 1485.58 L1786.39 1485.58 L1786.39 1481.64 Q1789.05 1478.89 1793.63 1474.26 Q1798.24 1469.61 1799.42 1468.27 Q1801.67 1465.74 1802.55 1464.01 Q1803.45 1462.25 1803.45 1460.56 Q1803.45 1457.8 1801.5 1456.07 Q1799.58 1454.33 1796.48 1454.33 Q1794.28 1454.33 1791.83 1455.09 Q1789.4 1455.86 1786.62 1457.41 L1786.62 1452.69 Q1789.44 1451.55 1791.9 1450.97 Q1794.35 1450.39 1796.39 1450.39 Q1801.76 1450.39 1804.95 1453.08 Q1808.15 1455.77 1808.15 1460.26 Q1808.15 1462.39 1807.34 1464.31 Q1806.55 1466.2 1804.44 1468.8 Q1803.87 1469.47 1800.76 1472.69 Q1797.66 1475.88 1792.01 1481.64 Z" fill="#000000" fill-rule="nonzero" fill-opacity="1" /><path clip-path="url(#clip200)" d="M2142.34 1481.64 L2149.98 1481.64 L2149.98 1455.28 L2141.67 1456.95 L2141.67 1452.69 L2149.93 1451.02 L2154.61 1451.02 L2154.61 1481.64 L2162.25 1481.64 L2162.25 1485.58 L2142.34 1485.58 L2142.34 1481.64 Z" fill="#000000" fill-rule="nonzero" fill-opacity="1" /><path clip-path="url(#clip200)" d="M2171.74 1451.02 L2190.09 1451.02 L2190.09 1454.96 L2176.02 1454.96 L2176.02 1463.43 Q2177.04 1463.08 2178.06 1462.92 Q2179.07 1462.73 2180.09 1462.73 Q2185.88 1462.73 2189.26 1465.9 Q2192.64 1469.08 2192.64 1474.49 Q2192.64 1480.07 2189.17 1483.17 Q2185.69 1486.25 2179.38 1486.25 Q2177.2 1486.25 2174.93 1485.88 Q2172.69 1485.51 2170.28 1484.77 L2170.28 1480.07 Q2172.36 1481.2 2174.58 1481.76 Q2176.81 1482.32 2179.28 1482.32 Q2183.29 1482.32 2185.63 1480.21 Q2187.96 1478.1 2187.96 1474.49 Q2187.96 1470.88 2185.63 1468.77 Q2183.29 1466.67 2179.28 1466.67 Q2177.41 1466.67 2175.53 1467.08 Q2173.68 1467.5 2171.74 1468.38 L2171.74 1451.02 Z" fill="#000000" fill-rule="nonzero" fill-opacity="1" /><path clip-path="url(#clip200)" d="M1187.6 1545.35 L1187.6 1562.76 L1197.91 1562.76 Q1203.1 1562.76 1205.58 1560.63 Q1208.1 1558.46 1208.1 1554.04 Q1208.1 1549.58 1205.58 1547.48 Q1203.1 1545.35 1197.91 1545.35 L1187.6 1545.35 M1187.6 1525.81 L1187.6 1540.13 L1197.12 1540.13 Q1201.83 1540.13 1204.12 1538.38 Q1206.44 1536.6 1206.44 1532.97 Q1206.44 1529.37 1204.12 1527.59 Q1201.83 1525.81 1197.12 1525.81 L1187.6 1525.81 M1181.17 1520.52 L1197.59 1520.52 Q1204.95 1520.52 1208.93 1523.58 Q1212.9 1526.63 1212.9 1532.27 Q1212.9 1536.63 1210.87 1539.21 Q1208.83 1541.79 1204.88 1542.42 Q1209.63 1543.44 1212.24 1546.69 Q1214.88 1549.9 1214.88 1554.74 Q1214.88 1561.11 1210.55 1564.57 Q1206.22 1568.04 1198.23 1568.04 L1181.17 1568.04 L1181.17 1520.52 Z" fill="#000000" fill-rule="nonzero" fill-opacity="1" /><path clip-path="url(#clip200)" d="M1241.84 1550.12 Q1234.74 1550.12 1232 1551.75 Q1229.26 1553.37 1229.26 1557.29 Q1229.26 1560.4 1231.3 1562.25 Q1233.37 1564.07 1236.9 1564.07 Q1241.77 1564.07 1244.7 1560.63 Q1247.66 1557.16 1247.66 1551.43 L1247.66 1550.12 L1241.84 1550.12 M1253.52 1547.71 L1253.52 1568.04 L1247.66 1568.04 L1247.66 1562.63 Q1245.66 1565.88 1242.66 1567.44 Q1239.67 1568.97 1235.34 1568.97 Q1229.87 1568.97 1226.62 1565.91 Q1223.41 1562.82 1223.41 1557.67 Q1223.41 1551.65 1227.42 1548.6 Q1231.46 1545.54 1239.45 1545.54 L1247.66 1545.54 L1247.66 1544.97 Q1247.66 1540.93 1244.99 1538.73 Q1242.35 1536.5 1237.54 1536.5 Q1234.48 1536.5 1231.59 1537.23 Q1228.69 1537.97 1226.02 1539.43 L1226.02 1534.02 Q1229.23 1532.78 1232.26 1532.17 Q1235.28 1531.54 1238.14 1531.54 Q1245.88 1531.54 1249.7 1535.55 Q1253.52 1539.56 1253.52 1547.71 Z" fill="#000000" fill-rule="nonzero" fill-opacity="1" /><path clip-path="url(#clip200)" d="M1288.31 1533.45 L1288.31 1538.98 Q1285.82 1537.71 1283.15 1537.07 Q1280.48 1536.44 1277.61 1536.44 Q1273.25 1536.44 1271.06 1537.77 Q1268.89 1539.11 1268.89 1541.79 Q1268.89 1543.82 1270.45 1545 Q1272.01 1546.15 1276.72 1547.2 L1278.73 1547.64 Q1284.96 1548.98 1287.57 1551.43 Q1290.22 1553.85 1290.22 1558.21 Q1290.22 1563.17 1286.27 1566.07 Q1282.35 1568.97 1275.48 1568.97 Q1272.61 1568.97 1269.5 1568.39 Q1266.41 1567.85 1262.97 1566.74 L1262.97 1560.69 Q1266.22 1562.38 1269.37 1563.24 Q1272.52 1564.07 1275.61 1564.07 Q1279.74 1564.07 1281.97 1562.66 Q1284.2 1561.23 1284.2 1558.65 Q1284.2 1556.27 1282.58 1554.99 Q1280.99 1553.72 1275.54 1552.54 L1273.51 1552.07 Q1268.06 1550.92 1265.64 1548.56 Q1263.23 1546.18 1263.23 1542.04 Q1263.23 1537.01 1266.79 1534.27 Q1270.35 1531.54 1276.91 1531.54 Q1280.16 1531.54 1283.02 1532.01 Q1285.89 1532.49 1288.31 1533.45 Z" fill="#000000" fill-rule="nonzero" fill-opacity="1" /><path clip-path="url(#clip200)" d="M1299.54 1532.4 L1305.4 1532.4 L1305.4 1568.04 L1299.54 1568.04 L1299.54 1532.4 M1299.54 1518.52 L1305.4 1518.52 L1305.4 1525.93 L1299.54 1525.93 L1299.54 1518.52 Z" fill="#000000" fill-rule="nonzero" fill-opacity="1" /><path clip-path="url(#clip200)" d="M1340.38 1533.45 L1340.38 1538.98 Q1337.9 1537.71 1335.22 1537.07 Q1332.55 1536.44 1329.68 1536.44 Q1325.32 1536.44 1323.13 1537.77 Q1320.96 1539.11 1320.96 1541.79 Q1320.96 1543.82 1322.52 1545 Q1324.08 1546.15 1328.79 1547.2 L1330.8 1547.64 Q1337.04 1548.98 1339.65 1551.43 Q1342.29 1553.85 1342.29 1558.21 Q1342.29 1563.17 1338.34 1566.07 Q1334.43 1568.97 1327.55 1568.97 Q1324.69 1568.97 1321.57 1568.39 Q1318.48 1567.85 1315.04 1566.74 L1315.04 1560.69 Q1318.29 1562.38 1321.44 1563.24 Q1324.59 1564.07 1327.68 1564.07 Q1331.82 1564.07 1334.04 1562.66 Q1336.27 1561.23 1336.27 1558.65 Q1336.27 1556.27 1334.65 1554.99 Q1333.06 1553.72 1327.61 1552.54 L1325.58 1552.07 Q1320.13 1550.92 1317.72 1548.56 Q1315.3 1546.18 1315.3 1542.04 Q1315.3 1537.01 1318.86 1534.27 Q1322.43 1531.54 1328.98 1531.54 Q1332.23 1531.54 1335.09 1532.01 Q1337.96 1532.49 1340.38 1533.45 Z" fill="#000000" fill-rule="nonzero" fill-opacity="1" /><path clip-path="url(#clip200)" d="M1395.06 1533.45 L1395.06 1538.98 Q1392.58 1537.71 1389.9 1537.07 Q1387.23 1536.44 1384.36 1536.44 Q1380 1536.44 1377.81 1537.77 Q1375.64 1539.11 1375.64 1541.79 Q1375.64 1543.82 1377.2 1545 Q1378.76 1546.15 1383.47 1547.2 L1385.48 1547.64 Q1391.72 1548.98 1394.33 1551.43 Q1396.97 1553.85 1396.97 1558.21 Q1396.97 1563.17 1393.02 1566.07 Q1389.11 1568.97 1382.23 1568.97 Q1379.37 1568.97 1376.25 1568.39 Q1373.16 1567.85 1369.72 1566.74 L1369.72 1560.69 Q1372.97 1562.38 1376.12 1563.24 Q1379.27 1564.07 1382.36 1564.07 Q1386.5 1564.07 1388.73 1562.66 Q1390.95 1561.23 1390.95 1558.65 Q1390.95 1556.27 1389.33 1554.99 Q1387.74 1553.72 1382.3 1552.54 L1380.26 1552.07 Q1374.82 1550.92 1372.4 1548.56 Q1369.98 1546.18 1369.98 1542.04 Q1369.98 1537.01 1373.54 1534.27 Q1377.11 1531.54 1383.66 1531.54 Q1386.91 1531.54 1389.78 1532.01 Q1392.64 1532.49 1395.06 1533.45 Z" fill="#000000" fill-rule="nonzero" fill-opacity="1" /><path clip-path="url(#clip200)" d="M1406.29 1532.4 L1412.15 1532.4 L1412.15 1568.04 L1406.29 1568.04 L1406.29 1532.4 M1406.29 1518.52 L1412.15 1518.52 L1412.15 1525.93 L1406.29 1525.93 L1406.29 1518.52 Z" fill="#000000" fill-rule="nonzero" fill-opacity="1" /><path clip-path="url(#clip200)" d="M1421.86 1532.4 L1449.68 1532.4 L1449.68 1537.74 L1427.65 1563.37 L1449.68 1563.37 L1449.68 1568.04 L1421.06 1568.04 L1421.06 1562.7 L1443.09 1537.07 L1421.86 1537.07 L1421.86 1532.4 Z" fill="#000000" fill-rule="nonzero" fill-opacity="1" /><path clip-path="url(#clip200)" d="M1489.11 1548.76 L1489.11 1551.62 L1462.19 1551.62 Q1462.57 1557.67 1465.81 1560.85 Q1469.09 1564 1474.92 1564 Q1478.29 1564 1481.44 1563.17 Q1484.62 1562.35 1487.74 1560.69 L1487.74 1566.23 Q1484.59 1567.57 1481.28 1568.27 Q1477.97 1568.97 1474.57 1568.97 Q1466.04 1568.97 1461.04 1564 Q1456.07 1559.04 1456.07 1550.57 Q1456.07 1541.82 1460.78 1536.69 Q1465.53 1531.54 1473.55 1531.54 Q1480.74 1531.54 1484.91 1536.18 Q1489.11 1540.8 1489.11 1548.76 M1483.26 1547.04 Q1483.19 1542.23 1480.55 1539.37 Q1477.94 1536.5 1473.61 1536.5 Q1468.71 1536.5 1465.75 1539.27 Q1462.82 1542.04 1462.38 1547.07 L1483.26 1547.04 Z" fill="#000000" fill-rule="nonzero" fill-opacity="1" /><polyline clip-path="url(#clip200)" style="stroke:#000000; stroke-linecap:round; stroke-linejoin:round; stroke-width:4; stroke-opacity:1; fill:none" points="317.528,1423.18 317.528,47.2441 "/>
<polyline clip-path="url(#clip200)" style="stroke:#000000; stroke-linecap:round; stroke-linejoin:round; stroke-width:4; stroke-opacity:1; fill:none" points="317.528,1354.8 336.425,1354.8 "/>
<polyline clip-path="url(#clip200)" style="stroke:#000000; stroke-linecap:round; stroke-linejoin:round; stroke-width:4; stroke-opacity:1; fill:none" points="317.528,1089.83 336.425,1089.83 "/>
<polyline clip-path="url(#clip200)" style="stroke:#000000; stroke-linecap:round; stroke-linejoin:round; stroke-width:4; stroke-opacity:1; fill:none" points="317.528,824.855 336.425,824.855 "/>
<polyline clip-path="url(#clip200)" style="stroke:#000000; stroke-linecap:round; stroke-linejoin:round; stroke-width:4; stroke-opacity:1; fill:none" points="317.528,559.884 336.425,559.884 "/>
<polyline clip-path="url(#clip200)" style="stroke:#000000; stroke-linecap:round; stroke-linejoin:round; stroke-width:4; stroke-opacity:1; fill:none" points="317.528,294.913 336.425,294.913 "/>
<path clip-path="url(#clip200)" d="M115.256 1355.25 L144.931 1355.25 L144.931 1359.18 L115.256 1359.18 L115.256 1355.25 Z" fill="#000000" fill-rule="nonzero" fill-opacity="1" /><path clip-path="url(#clip200)" d="M165.024 1340.6 Q161.413 1340.6 159.584 1344.16 Q157.778 1347.7 157.778 1354.83 Q157.778 1361.94 159.584 1365.5 Q161.413 1369.04 165.024 1369.04 Q168.658 1369.04 170.464 1365.5 Q172.292 1361.94 172.292 1354.83 Q172.292 1347.7 170.464 1344.16 Q168.658 1340.6 165.024 1340.6 M165.024 1336.89 Q170.834 1336.89 173.889 1341.5 Q176.968 1346.08 176.968 1354.83 Q176.968 1363.56 173.889 1368.17 Q170.834 1372.75 165.024 1372.75 Q159.214 1372.75 156.135 1368.17 Q153.079 1363.56 153.079 1354.83 Q153.079 1346.08 156.135 1341.5 Q159.214 1336.89 165.024 1336.89 Z" fill="#000000" fill-rule="nonzero" fill-opacity="1" /><path clip-path="url(#clip200)" d="M185.186 1366.2 L190.07 1366.2 L190.07 1372.08 L185.186 1372.08 L185.186 1366.2 Z" fill="#000000" fill-rule="nonzero" fill-opacity="1" /><path clip-path="url(#clip200)" d="M210.255 1340.6 Q206.644 1340.6 204.815 1344.16 Q203.01 1347.7 203.01 1354.83 Q203.01 1361.94 204.815 1365.5 Q206.644 1369.04 210.255 1369.04 Q213.889 1369.04 215.695 1365.5 Q217.523 1361.94 217.523 1354.83 Q217.523 1347.7 215.695 1344.16 Q213.889 1340.6 210.255 1340.6 M210.255 1336.89 Q216.065 1336.89 219.121 1341.5 Q222.199 1346.08 222.199 1354.83 Q222.199 1363.56 219.121 1368.17 Q216.065 1372.75 210.255 1372.75 Q204.445 1372.75 201.366 1368.17 Q198.311 1363.56 198.311 1354.83 Q198.311 1346.08 201.366 1341.5 Q204.445 1336.89 210.255 1336.89 Z" fill="#000000" fill-rule="nonzero" fill-opacity="1" /><path clip-path="url(#clip200)" d="M230.463 1337.52 L248.82 1337.52 L248.82 1341.45 L234.746 1341.45 L234.746 1349.92 Q235.764 1349.58 236.783 1349.42 Q237.801 1349.23 238.82 1349.23 Q244.607 1349.23 247.986 1352.4 Q251.366 1355.57 251.366 1360.99 Q251.366 1366.57 247.894 1369.67 Q244.421 1372.75 238.102 1372.75 Q235.926 1372.75 233.658 1372.38 Q231.412 1372.01 229.005 1371.27 L229.005 1366.57 Q231.088 1367.7 233.31 1368.26 Q235.533 1368.81 238.009 1368.81 Q242.014 1368.81 244.352 1366.71 Q246.69 1364.6 246.69 1360.99 Q246.69 1357.38 244.352 1355.27 Q242.014 1353.17 238.009 1353.17 Q236.135 1353.17 234.26 1353.58 Q232.408 1354 230.463 1354.88 L230.463 1337.52 Z" fill="#000000" fill-rule="nonzero" fill-opacity="1" /><path clip-path="url(#clip200)" d="M260.625 1337.52 L278.981 1337.52 L278.981 1341.45 L264.907 1341.45 L264.907 1349.92 Q265.926 1349.58 266.945 1349.42 Q267.963 1349.23 268.982 1349.23 Q274.769 1349.23 278.148 1352.4 Q281.528 1355.57 281.528 1360.99 Q281.528 1366.57 278.056 1369.67 Q274.583 1372.75 268.264 1372.75 Q266.088 1372.75 263.82 1372.38 Q261.574 1372.01 259.167 1371.27 L259.167 1366.57 Q261.25 1367.7 263.472 1368.26 Q265.695 1368.81 268.171 1368.81 Q272.176 1368.81 274.514 1366.71 Q276.852 1364.6 276.852 1360.99 Q276.852 1357.38 274.514 1355.27 Q272.176 1353.17 268.171 1353.17 Q266.296 1353.17 264.421 1353.58 Q262.57 1354 260.625 1354.88 L260.625 1337.52 Z" fill="#000000" fill-rule="nonzero" fill-opacity="1" /><path clip-path="url(#clip200)" d="M114.26 1090.28 L143.936 1090.28 L143.936 1094.21 L114.26 1094.21 L114.26 1090.28 Z" fill="#000000" fill-rule="nonzero" fill-opacity="1" /><path clip-path="url(#clip200)" d="M164.028 1075.62 Q160.417 1075.62 158.589 1079.19 Q156.783 1082.73 156.783 1089.86 Q156.783 1096.97 158.589 1100.53 Q160.417 1104.07 164.028 1104.07 Q167.663 1104.07 169.468 1100.53 Q171.297 1096.97 171.297 1089.86 Q171.297 1082.73 169.468 1079.19 Q167.663 1075.62 164.028 1075.62 M164.028 1071.92 Q169.839 1071.92 172.894 1076.53 Q175.973 1081.11 175.973 1089.86 Q175.973 1098.59 172.894 1103.19 Q169.839 1107.78 164.028 1107.78 Q158.218 1107.78 155.14 1103.19 Q152.084 1098.59 152.084 1089.86 Q152.084 1081.11 155.14 1076.53 Q158.218 1071.92 164.028 1071.92 Z" fill="#000000" fill-rule="nonzero" fill-opacity="1" /><path clip-path="url(#clip200)" d="M184.19 1101.23 L189.075 1101.23 L189.075 1107.11 L184.19 1107.11 L184.19 1101.23 Z" fill="#000000" fill-rule="nonzero" fill-opacity="1" /><path clip-path="url(#clip200)" d="M209.26 1075.62 Q205.649 1075.62 203.82 1079.19 Q202.014 1082.73 202.014 1089.86 Q202.014 1096.97 203.82 1100.53 Q205.649 1104.07 209.26 1104.07 Q212.894 1104.07 214.699 1100.53 Q216.528 1096.97 216.528 1089.86 Q216.528 1082.73 214.699 1079.19 Q212.894 1075.62 209.26 1075.62 M209.26 1071.92 Q215.07 1071.92 218.125 1076.53 Q221.204 1081.11 221.204 1089.86 Q221.204 1098.59 218.125 1103.19 Q215.07 1107.78 209.26 1107.78 Q203.449 1107.78 200.371 1103.19 Q197.315 1098.59 197.315 1089.86 Q197.315 1081.11 200.371 1076.53 Q203.449 1071.92 209.26 1071.92 Z" fill="#000000" fill-rule="nonzero" fill-opacity="1" /><path clip-path="url(#clip200)" d="M229.468 1072.55 L247.824 1072.55 L247.824 1076.48 L233.75 1076.48 L233.75 1084.95 Q234.769 1084.61 235.787 1084.44 Q236.806 1084.26 237.824 1084.26 Q243.611 1084.26 246.991 1087.43 Q250.371 1090.6 250.371 1096.02 Q250.371 1101.6 246.898 1104.7 Q243.426 1107.78 237.107 1107.78 Q234.931 1107.78 232.662 1107.41 Q230.417 1107.04 228.01 1106.3 L228.01 1101.6 Q230.093 1102.73 232.315 1103.29 Q234.537 1103.84 237.014 1103.84 Q241.019 1103.84 243.357 1101.74 Q245.695 1099.63 245.695 1096.02 Q245.695 1092.41 243.357 1090.3 Q241.019 1088.19 237.014 1088.19 Q235.139 1088.19 233.264 1088.61 Q231.412 1089.03 229.468 1089.91 L229.468 1072.55 Z" fill="#000000" fill-rule="nonzero" fill-opacity="1" /><path clip-path="url(#clip200)" d="M269.583 1075.62 Q265.972 1075.62 264.144 1079.19 Q262.338 1082.73 262.338 1089.86 Q262.338 1096.97 264.144 1100.53 Q265.972 1104.07 269.583 1104.07 Q273.218 1104.07 275.023 1100.53 Q276.852 1096.97 276.852 1089.86 Q276.852 1082.73 275.023 1079.19 Q273.218 1075.62 269.583 1075.62 M269.583 1071.92 Q275.394 1071.92 278.449 1076.53 Q281.528 1081.11 281.528 1089.86 Q281.528 1098.59 278.449 1103.19 Q275.394 1107.78 269.583 1107.78 Q263.773 1107.78 260.695 1103.19 Q257.639 1098.59 257.639 1089.86 Q257.639 1081.11 260.695 1076.53 Q263.773 1071.92 269.583 1071.92 Z" fill="#000000" fill-rule="nonzero" fill-opacity="1" /><path clip-path="url(#clip200)" d="M115.256 825.306 L144.931 825.306 L144.931 829.242 L115.256 829.242 L115.256 825.306 Z" fill="#000000" fill-rule="nonzero" fill-opacity="1" /><path clip-path="url(#clip200)" d="M165.024 810.654 Q161.413 810.654 159.584 814.219 Q157.778 817.76 157.778 824.89 Q157.778 831.996 159.584 835.561 Q161.413 839.103 165.024 839.103 Q168.658 839.103 170.464 835.561 Q172.292 831.996 172.292 824.89 Q172.292 817.76 170.464 814.219 Q168.658 810.654 165.024 810.654 M165.024 806.95 Q170.834 806.95 173.889 811.557 Q176.968 816.14 176.968 824.89 Q176.968 833.617 173.889 838.223 Q170.834 842.806 165.024 842.806 Q159.214 842.806 156.135 838.223 Q153.079 833.617 153.079 824.89 Q153.079 816.14 156.135 811.557 Q159.214 806.95 165.024 806.95 Z" fill="#000000" fill-rule="nonzero" fill-opacity="1" /><path clip-path="url(#clip200)" d="M185.186 836.255 L190.07 836.255 L190.07 842.135 L185.186 842.135 L185.186 836.255 Z" fill="#000000" fill-rule="nonzero" fill-opacity="1" /><path clip-path="url(#clip200)" d="M210.255 810.654 Q206.644 810.654 204.815 814.219 Q203.01 817.76 203.01 824.89 Q203.01 831.996 204.815 835.561 Q206.644 839.103 210.255 839.103 Q213.889 839.103 215.695 835.561 Q217.523 831.996 217.523 824.89 Q217.523 817.76 215.695 814.219 Q213.889 810.654 210.255 810.654 M210.255 806.95 Q216.065 806.95 219.121 811.557 Q222.199 816.14 222.199 824.89 Q222.199 833.617 219.121 838.223 Q216.065 842.806 210.255 842.806 Q204.445 842.806 201.366 838.223 Q198.311 833.617 198.311 824.89 Q198.311 816.14 201.366 811.557 Q204.445 806.95 210.255 806.95 Z" fill="#000000" fill-rule="nonzero" fill-opacity="1" /><path clip-path="url(#clip200)" d="M243.264 811.649 L231.459 830.098 L243.264 830.098 L243.264 811.649 M242.037 807.575 L247.917 807.575 L247.917 830.098 L252.847 830.098 L252.847 833.987 L247.917 833.987 L247.917 842.135 L243.264 842.135 L243.264 833.987 L227.662 833.987 L227.662 829.473 L242.037 807.575 Z" fill="#000000" fill-rule="nonzero" fill-opacity="1" /><path clip-path="url(#clip200)" d="M260.625 807.575 L278.981 807.575 L278.981 811.51 L264.907 811.51 L264.907 819.982 Q265.926 819.635 266.945 819.473 Q267.963 819.288 268.982 819.288 Q274.769 819.288 278.148 822.459 Q281.528 825.631 281.528 831.047 Q281.528 836.626 278.056 839.728 Q274.583 842.806 268.264 842.806 Q266.088 842.806 263.82 842.436 Q261.574 842.066 259.167 841.325 L259.167 836.626 Q261.25 837.76 263.472 838.316 Q265.695 838.871 268.171 838.871 Q272.176 838.871 274.514 836.765 Q276.852 834.658 276.852 831.047 Q276.852 827.436 274.514 825.33 Q272.176 823.223 268.171 823.223 Q266.296 823.223 264.421 823.64 Q262.57 824.056 260.625 824.936 L260.625 807.575 Z" fill="#000000" fill-rule="nonzero" fill-opacity="1" /><path clip-path="url(#clip200)" d="M114.26 560.336 L143.936 560.336 L143.936 564.271 L114.26 564.271 L114.26 560.336 Z" fill="#000000" fill-rule="nonzero" fill-opacity="1" /><path clip-path="url(#clip200)" d="M164.028 545.683 Q160.417 545.683 158.589 549.248 Q156.783 552.789 156.783 559.919 Q156.783 567.025 158.589 570.59 Q160.417 574.132 164.028 574.132 Q167.663 574.132 169.468 570.59 Q171.297 567.025 171.297 559.919 Q171.297 552.789 169.468 549.248 Q167.663 545.683 164.028 545.683 M164.028 541.979 Q169.839 541.979 172.894 546.586 Q175.973 551.169 175.973 559.919 Q175.973 568.646 172.894 573.252 Q169.839 577.835 164.028 577.835 Q158.218 577.835 155.14 573.252 Q152.084 568.646 152.084 559.919 Q152.084 551.169 155.14 546.586 Q158.218 541.979 164.028 541.979 Z" fill="#000000" fill-rule="nonzero" fill-opacity="1" /><path clip-path="url(#clip200)" d="M184.19 571.285 L189.075 571.285 L189.075 577.164 L184.19 577.164 L184.19 571.285 Z" fill="#000000" fill-rule="nonzero" fill-opacity="1" /><path clip-path="url(#clip200)" d="M209.26 545.683 Q205.649 545.683 203.82 549.248 Q202.014 552.789 202.014 559.919 Q202.014 567.025 203.82 570.59 Q205.649 574.132 209.26 574.132 Q212.894 574.132 214.699 570.59 Q216.528 567.025 216.528 559.919 Q216.528 552.789 214.699 549.248 Q212.894 545.683 209.26 545.683 M209.26 541.979 Q215.07 541.979 218.125 546.586 Q221.204 551.169 221.204 559.919 Q221.204 568.646 218.125 573.252 Q215.07 577.835 209.26 577.835 Q203.449 577.835 200.371 573.252 Q197.315 568.646 197.315 559.919 Q197.315 551.169 200.371 546.586 Q203.449 541.979 209.26 541.979 Z" fill="#000000" fill-rule="nonzero" fill-opacity="1" /><path clip-path="url(#clip200)" d="M242.269 546.678 L230.463 565.127 L242.269 565.127 L242.269 546.678 M241.042 542.604 L246.921 542.604 L246.921 565.127 L251.852 565.127 L251.852 569.016 L246.921 569.016 L246.921 577.164 L242.269 577.164 L242.269 569.016 L226.667 569.016 L226.667 564.502 L241.042 542.604 Z" fill="#000000" fill-rule="nonzero" fill-opacity="1" /><path clip-path="url(#clip200)" d="M269.583 545.683 Q265.972 545.683 264.144 549.248 Q262.338 552.789 262.338 559.919 Q262.338 567.025 264.144 570.59 Q265.972 574.132 269.583 574.132 Q273.218 574.132 275.023 570.59 Q276.852 567.025 276.852 559.919 Q276.852 552.789 275.023 549.248 Q273.218 545.683 269.583 545.683 M269.583 541.979 Q275.394 541.979 278.449 546.586 Q281.528 551.169 281.528 559.919 Q281.528 568.646 278.449 573.252 Q275.394 577.835 269.583 577.835 Q263.773 577.835 260.695 573.252 Q257.639 568.646 257.639 559.919 Q257.639 551.169 260.695 546.586 Q263.773 541.979 269.583 541.979 Z" fill="#000000" fill-rule="nonzero" fill-opacity="1" /><path clip-path="url(#clip200)" d="M115.256 295.365 L144.931 295.365 L144.931 299.3 L115.256 299.3 L115.256 295.365 Z" fill="#000000" fill-rule="nonzero" fill-opacity="1" /><path clip-path="url(#clip200)" d="M165.024 280.712 Q161.413 280.712 159.584 284.277 Q157.778 287.818 157.778 294.948 Q157.778 302.054 159.584 305.619 Q161.413 309.161 165.024 309.161 Q168.658 309.161 170.464 305.619 Q172.292 302.054 172.292 294.948 Q172.292 287.818 170.464 284.277 Q168.658 280.712 165.024 280.712 M165.024 277.008 Q170.834 277.008 173.889 281.615 Q176.968 286.198 176.968 294.948 Q176.968 303.675 173.889 308.281 Q170.834 312.864 165.024 312.864 Q159.214 312.864 156.135 308.281 Q153.079 303.675 153.079 294.948 Q153.079 286.198 156.135 281.615 Q159.214 277.008 165.024 277.008 Z" fill="#000000" fill-rule="nonzero" fill-opacity="1" /><path clip-path="url(#clip200)" d="M185.186 306.314 L190.07 306.314 L190.07 312.193 L185.186 312.193 L185.186 306.314 Z" fill="#000000" fill-rule="nonzero" fill-opacity="1" /><path clip-path="url(#clip200)" d="M210.255 280.712 Q206.644 280.712 204.815 284.277 Q203.01 287.818 203.01 294.948 Q203.01 302.054 204.815 305.619 Q206.644 309.161 210.255 309.161 Q213.889 309.161 215.695 305.619 Q217.523 302.054 217.523 294.948 Q217.523 287.818 215.695 284.277 Q213.889 280.712 210.255 280.712 M210.255 277.008 Q216.065 277.008 219.121 281.615 Q222.199 286.198 222.199 294.948 Q222.199 303.675 219.121 308.281 Q216.065 312.864 210.255 312.864 Q204.445 312.864 201.366 308.281 Q198.311 303.675 198.311 294.948 Q198.311 286.198 201.366 281.615 Q204.445 277.008 210.255 277.008 Z" fill="#000000" fill-rule="nonzero" fill-opacity="1" /><path clip-path="url(#clip200)" d="M244.584 293.559 Q247.94 294.277 249.815 296.545 Q251.713 298.814 251.713 302.147 Q251.713 307.263 248.195 310.064 Q244.676 312.864 238.195 312.864 Q236.019 312.864 233.704 312.425 Q231.412 312.008 228.959 311.151 L228.959 306.638 Q230.903 307.772 233.218 308.351 Q235.533 308.929 238.056 308.929 Q242.454 308.929 244.746 307.193 Q247.06 305.457 247.06 302.147 Q247.06 299.091 244.908 297.378 Q242.778 295.642 238.959 295.642 L234.931 295.642 L234.931 291.8 L239.144 291.8 Q242.593 291.8 244.421 290.434 Q246.25 289.045 246.25 286.453 Q246.25 283.791 244.352 282.378 Q242.477 280.943 238.959 280.943 Q237.037 280.943 234.838 281.36 Q232.639 281.777 230 282.656 L230 278.49 Q232.662 277.749 234.977 277.379 Q237.315 277.008 239.375 277.008 Q244.699 277.008 247.801 279.439 Q250.903 281.846 250.903 285.966 Q250.903 288.837 249.259 290.828 Q247.616 292.795 244.584 293.559 Z" fill="#000000" fill-rule="nonzero" fill-opacity="1" /><path clip-path="url(#clip200)" d="M260.625 277.633 L278.981 277.633 L278.981 281.568 L264.907 281.568 L264.907 290.04 Q265.926 289.693 266.945 289.531 Q267.963 289.346 268.982 289.346 Q274.769 289.346 278.148 292.517 Q281.528 295.689 281.528 301.105 Q281.528 306.684 278.056 309.786 Q274.583 312.864 268.264 312.864 Q266.088 312.864 263.82 312.494 Q261.574 312.124 259.167 311.383 L259.167 306.684 Q261.25 307.818 263.472 308.374 Q265.695 308.929 268.171 308.929 Q272.176 308.929 274.514 306.823 Q276.852 304.716 276.852 301.105 Q276.852 297.494 274.514 295.388 Q272.176 293.281 268.171 293.281 Q266.296 293.281 264.421 293.698 Q262.57 294.115 260.625 294.994 L260.625 277.633 Z" fill="#000000" fill-rule="nonzero" fill-opacity="1" /><path clip-path="url(#clip200)" d="M16.4842 923.589 L16.4842 893.543 L21.895 893.543 L21.895 917.16 L35.9632 917.16 L35.9632 894.53 L41.3741 894.53 L41.3741 917.16 L58.5933 917.16 L58.5933 892.97 L64.0042 892.97 L64.0042 923.589 L16.4842 923.589 Z" fill="#000000" fill-rule="nonzero" fill-opacity="1" /><path clip-path="url(#clip200)" d="M42.4881 853.025 L64.0042 853.025 L64.0042 858.882 L42.679 858.882 Q37.6183 858.882 35.1038 860.855 Q32.5894 862.828 32.5894 866.775 Q32.5894 871.518 35.6131 874.255 Q38.6368 876.992 43.8567 876.992 L64.0042 876.992 L64.0042 882.88 L28.3562 882.88 L28.3562 876.992 L33.8944 876.992 Q30.6797 874.891 29.0883 872.059 Q27.4968 869.194 27.4968 865.47 Q27.4968 859.327 31.3163 856.176 Q35.1038 853.025 42.4881 853.025 Z" fill="#000000" fill-rule="nonzero" fill-opacity="1" /><path clip-path="url(#clip200)" d="M44.7161 810.852 L47.5806 810.852 L47.5806 837.779 Q53.6281 837.397 56.8109 834.151 Q59.9619 830.873 59.9619 825.048 Q59.9619 821.674 59.1344 818.523 Q58.3069 815.34 56.6518 812.221 L62.1899 812.221 Q63.5267 815.372 64.227 818.682 Q64.9272 821.992 64.9272 825.398 Q64.9272 833.928 59.9619 838.925 Q54.9967 843.89 46.5303 843.89 Q37.7774 843.89 32.6531 839.18 Q27.4968 834.437 27.4968 826.417 Q27.4968 819.223 32.1438 815.054 Q36.7589 810.852 44.7161 810.852 M42.9973 816.709 Q38.1912 816.773 35.3266 819.414 Q32.4621 822.024 32.4621 826.353 Q32.4621 831.255 35.2312 834.215 Q38.0002 837.143 43.0292 837.588 L42.9973 816.709 Z" fill="#000000" fill-rule="nonzero" fill-opacity="1" /><path clip-path="url(#clip200)" d="M33.8307 780.584 Q33.2578 781.57 33.0032 782.748 Q32.7167 783.894 32.7167 785.294 Q32.7167 790.259 35.9632 792.933 Q39.1779 795.575 45.2253 795.575 L64.0042 795.575 L64.0042 801.463 L28.3562 801.463 L28.3562 795.575 L33.8944 795.575 Q30.6479 793.729 29.0883 790.769 Q27.4968 787.809 27.4968 783.575 Q27.4968 782.971 27.5923 782.239 Q27.656 781.507 27.8151 780.615 L33.8307 780.584 Z" fill="#000000" fill-rule="nonzero" fill-opacity="1" /><path clip-path="url(#clip200)" d="M45.7664 752.129 Q39.4007 752.129 35.8996 754.771 Q32.3984 757.381 32.3984 762.123 Q32.3984 766.834 35.8996 769.475 Q39.4007 772.085 45.7664 772.085 Q52.1003 772.085 55.6014 769.475 Q59.1026 766.834 59.1026 762.123 Q59.1026 757.381 55.6014 754.771 Q52.1003 752.129 45.7664 752.129 M59.58 746.272 Q68.683 746.272 73.1071 750.315 Q77.5631 754.357 77.5631 762.696 Q77.5631 765.783 77.0857 768.521 Q76.6401 771.258 75.6852 773.836 L69.9879 773.836 Q71.3884 771.258 72.0568 768.743 Q72.7252 766.229 72.7252 763.619 Q72.7252 757.858 69.7015 754.993 Q66.7096 752.129 60.6303 752.129 L57.7339 752.129 Q60.885 753.943 62.4446 756.776 Q64.0042 759.609 64.0042 763.555 Q64.0042 770.112 59.0071 774.122 Q54.01 778.133 45.7664 778.133 Q37.491 778.133 32.4939 774.122 Q27.4968 770.112 27.4968 763.555 Q27.4968 759.609 29.0564 756.776 Q30.616 753.943 33.7671 752.129 L28.3562 752.129 L28.3562 746.272 L59.58 746.272 Z" fill="#000000" fill-rule="nonzero" fill-opacity="1" /><path clip-path="url(#clip200)" d="M67.3143 719.377 Q73.68 721.86 75.6216 724.215 Q77.5631 726.571 77.5631 730.517 L77.5631 735.196 L72.6615 735.196 L72.6615 731.759 Q72.6615 729.34 71.5157 728.003 Q70.3699 726.666 66.1048 725.043 L63.4312 723.992 L28.3562 738.411 L28.3562 732.204 L56.238 721.064 L28.3562 709.924 L28.3562 703.718 L67.3143 719.377 Z" fill="#000000" fill-rule="nonzero" fill-opacity="1" /><path clip-path="url(#clip200)" d="M14.5426 660.845 Q21.8632 665.11 29.0246 667.178 Q36.186 669.247 43.5384 669.247 Q50.8908 669.247 58.1159 667.178 Q65.3091 665.078 72.5979 660.845 L72.5979 665.937 Q65.1182 670.711 57.8931 673.099 Q50.668 675.454 43.5384 675.454 Q36.4406 675.454 29.2474 673.099 Q22.0542 670.743 14.5426 665.937 L14.5426 660.845 Z" fill="#000000" fill-rule="nonzero" fill-opacity="1" /><path clip-path="url(#clip200)" d="M16.4842 649.227 L16.4842 642.798 L35.9632 642.798 L35.9632 619.436 L16.4842 619.436 L16.4842 613.006 L64.0042 613.006 L64.0042 619.436 L41.3741 619.436 L41.3741 642.798 L64.0042 642.798 L64.0042 649.227 L16.4842 649.227 Z" fill="#000000" fill-rule="nonzero" fill-opacity="1" /><path clip-path="url(#clip200)" d="M46.0847 584.265 Q46.0847 591.363 47.7079 594.1 Q49.3312 596.837 53.2461 596.837 Q56.3653 596.837 58.2114 594.8 Q60.0256 592.732 60.0256 589.199 Q60.0256 584.329 56.5881 581.401 Q53.1188 578.441 47.3897 578.441 L46.0847 578.441 L46.0847 584.265 M43.6657 572.584 L64.0042 572.584 L64.0042 578.441 L58.5933 578.441 Q61.8398 580.446 63.3994 583.438 Q64.9272 586.429 64.9272 590.758 Q64.9272 596.233 61.8716 599.479 Q58.7843 602.694 53.6281 602.694 Q47.6125 602.694 44.5569 598.683 Q41.5014 594.641 41.5014 586.652 L41.5014 578.441 L40.9285 578.441 Q36.8862 578.441 34.6901 581.114 Q32.4621 583.756 32.4621 588.562 Q32.4621 591.618 33.1941 594.514 Q33.9262 597.41 35.3903 600.084 L29.9795 600.084 Q28.7381 596.869 28.1334 593.846 Q27.4968 590.822 27.4968 587.957 Q27.4968 580.223 31.5072 576.404 Q35.5176 572.584 43.6657 572.584 Z" fill="#000000" fill-rule="nonzero" fill-opacity="1" /><path clip-path="url(#clip200)" d="M14.5426 561.444 L14.5426 556.352 Q22.0542 551.577 29.2474 549.222 Q36.4406 546.835 43.5384 546.835 Q50.668 546.835 57.8931 549.222 Q65.1182 551.577 72.5979 556.352 L72.5979 561.444 Q65.3091 557.211 58.1159 555.142 Q50.8908 553.041 43.5384 553.041 Q36.186 553.041 29.0246 555.142 Q21.8632 557.211 14.5426 561.444 Z" fill="#000000" fill-rule="nonzero" fill-opacity="1" /><polyline clip-path="url(#clip201)" style="stroke:#009af9; stroke-linecap:round; stroke-linejoin:round; stroke-width:8; stroke-opacity:1; fill:none" points="375.129,86.1857 503.13,444.899 631.132,747.704 759.134,990.667 887.136,1168.22 1015.14,1281.21 1143.14,1341.82 1271.14,1368.97 1399.14,1379.3 1527.14,1382.76 1655.15,1383.82 1783.15,1384.12 1911.15,1384.21 2039.15,1384.23 2167.15,1384.23 2295.16,1384.24 "/>
<circle clip-path="url(#clip201)" cx="375.129" cy="86.1857" r="14.4" fill="#009af9" fill-rule="evenodd" fill-opacity="1" stroke="#000000" stroke-opacity="1" stroke-width="3.2"/>
<circle clip-path="url(#clip201)" cx="503.13" cy="444.899" r="14.4" fill="#009af9" fill-rule="evenodd" fill-opacity="1" stroke="#000000" stroke-opacity="1" stroke-width="3.2"/>
<circle clip-path="url(#clip201)" cx="631.132" cy="747.704" r="14.4" fill="#009af9" fill-rule="evenodd" fill-opacity="1" stroke="#000000" stroke-opacity="1" stroke-width="3.2"/>
<circle clip-path="url(#clip201)" cx="759.134" cy="990.667" r="14.4" fill="#009af9" fill-rule="evenodd" fill-opacity="1" stroke="#000000" stroke-opacity="1" stroke-width="3.2"/>
<circle clip-path="url(#clip201)" cx="887.136" cy="1168.22" r="14.4" fill="#009af9" fill-rule="evenodd" fill-opacity="1" stroke="#000000" stroke-opacity="1" stroke-width="3.2"/>
<circle clip-path="url(#clip201)" cx="1015.14" cy="1281.21" r="14.4" fill="#009af9" fill-rule="evenodd" fill-opacity="1" stroke="#000000" stroke-opacity="1" stroke-width="3.2"/>
<circle clip-path="url(#clip201)" cx="1143.14" cy="1341.82" r="14.4" fill="#009af9" fill-rule="evenodd" fill-opacity="1" stroke="#000000" stroke-opacity="1" stroke-width="3.2"/>
<circle clip-path="url(#clip201)" cx="1271.14" cy="1368.97" r="14.4" fill="#009af9" fill-rule="evenodd" fill-opacity="1" stroke="#000000" stroke-opacity="1" stroke-width="3.2"/>
<circle clip-path="url(#clip201)" cx="1399.14" cy="1379.3" r="14.4" fill="#009af9" fill-rule="evenodd" fill-opacity="1" stroke="#000000" stroke-opacity="1" stroke-width="3.2"/>
<circle clip-path="url(#clip201)" cx="1527.14" cy="1382.76" r="14.4" fill="#009af9" fill-rule="evenodd" fill-opacity="1" stroke="#000000" stroke-opacity="1" stroke-width="3.2"/>
<circle clip-path="url(#clip201)" cx="1655.15" cy="1383.82" r="14.4" fill="#009af9" fill-rule="evenodd" fill-opacity="1" stroke="#000000" stroke-opacity="1" stroke-width="3.2"/>
<circle clip-path="url(#clip201)" cx="1783.15" cy="1384.12" r="14.4" fill="#009af9" fill-rule="evenodd" fill-opacity="1" stroke="#000000" stroke-opacity="1" stroke-width="3.2"/>
<circle clip-path="url(#clip201)" cx="1911.15" cy="1384.21" r="14.4" fill="#009af9" fill-rule="evenodd" fill-opacity="1" stroke="#000000" stroke-opacity="1" stroke-width="3.2"/>
<circle clip-path="url(#clip201)" cx="2039.15" cy="1384.23" r="14.4" fill="#009af9" fill-rule="evenodd" fill-opacity="1" stroke="#000000" stroke-opacity="1" stroke-width="3.2"/>
<circle clip-path="url(#clip201)" cx="2167.15" cy="1384.23" r="14.4" fill="#009af9" fill-rule="evenodd" fill-opacity="1" stroke="#000000" stroke-opacity="1" stroke-width="3.2"/>
<circle clip-path="url(#clip201)" cx="2295.16" cy="1384.24" r="14.4" fill="#009af9" fill-rule="evenodd" fill-opacity="1" stroke="#000000" stroke-opacity="1" stroke-width="3.2"/>
<polyline clip-path="url(#clip201)" style="stroke:#000000; stroke-linecap:round; stroke-linejoin:round; stroke-width:4; stroke-opacity:1; fill:none" stroke-dasharray="16, 10" points="-1717.7,1384.24 4387.98,1384.24 "/>
<path clip-path="url(#clip200)" d="M1479.52 248.629 L2284.91 248.629 L2284.91 93.1086 L1479.52 93.1086  Z" fill="#ffffff" fill-rule="evenodd" fill-opacity="1"/>
<polyline clip-path="url(#clip200)" style="stroke:#000000; stroke-linecap:round; stroke-linejoin:round; stroke-width:4; stroke-opacity:1; fill:none" points="1479.52,248.629 2284.91,248.629 2284.91,93.1086 1479.52,93.1086 1479.52,248.629 "/>
<polyline clip-path="url(#clip200)" style="stroke:#009af9; stroke-linecap:round; stroke-linejoin:round; stroke-width:8; stroke-opacity:1; fill:none" points="1502.13,144.949 1637.82,144.949 "/>
<circle clip-path="url(#clip200)" cx="1569.97" cy="144.949" r="18.8447" fill="#009af9" fill-rule="evenodd" fill-opacity="1" stroke="#000000" stroke-opacity="1" stroke-width="4.55111"/>
<path clip-path="url(#clip200)" d="M1660.43 127.669 L1682.28 127.669 L1682.28 131.604 L1665.11 131.604 L1665.11 141.835 L1681.56 141.835 L1681.56 145.77 L1665.11 145.77 L1665.11 158.293 L1682.7 158.293 L1682.7 162.229 L1660.43 162.229 L1660.43 127.669 Z" fill="#000000" fill-rule="nonzero" fill-opacity="1" /><path clip-path="url(#clip200)" d="M1716.26 130.331 L1716.26 135.261 Q1713.9 133.062 1711.22 131.974 Q1708.55 130.886 1705.55 130.886 Q1699.62 130.886 1696.47 134.52 Q1693.32 138.132 1693.32 144.983 Q1693.32 151.812 1696.47 155.446 Q1699.62 159.057 1705.55 159.057 Q1708.55 159.057 1711.22 157.969 Q1713.9 156.881 1716.26 154.682 L1716.26 159.567 Q1713.81 161.233 1711.05 162.067 Q1708.32 162.9 1705.27 162.9 Q1697.42 162.9 1692.91 158.108 Q1688.39 153.293 1688.39 144.983 Q1688.39 136.65 1692.91 131.858 Q1697.42 127.044 1705.27 127.044 Q1708.37 127.044 1711.1 127.877 Q1713.86 128.687 1716.26 130.331 Z" fill="#000000" fill-rule="nonzero" fill-opacity="1" /><path clip-path="url(#clip200)" d="M1747.05 157.298 L1747.05 148.016 L1739.41 148.016 L1739.41 144.173 L1751.68 144.173 L1751.68 159.011 Q1748.97 160.932 1745.71 161.928 Q1742.44 162.9 1738.74 162.9 Q1730.64 162.9 1726.05 158.178 Q1721.49 153.432 1721.49 144.983 Q1721.49 136.511 1726.05 131.789 Q1730.64 127.044 1738.74 127.044 Q1742.12 127.044 1745.15 127.877 Q1748.21 128.71 1750.78 130.331 L1750.78 135.307 Q1748.18 133.108 1745.27 131.997 Q1742.35 130.886 1739.13 130.886 Q1732.79 130.886 1729.6 134.428 Q1726.42 137.969 1726.42 144.983 Q1726.42 151.974 1729.6 155.516 Q1732.79 159.057 1739.13 159.057 Q1741.61 159.057 1743.55 158.641 Q1745.5 158.201 1747.05 157.298 Z" fill="#000000" fill-rule="nonzero" fill-opacity="1" /><path clip-path="url(#clip200)" d="M1791.68 146.025 Q1793.18 146.534 1794.6 148.201 Q1796.03 149.868 1797.47 152.784 L1802.21 162.229 L1797.19 162.229 L1792.77 153.363 Q1791.05 149.891 1789.43 148.756 Q1787.84 147.622 1785.06 147.622 L1779.97 147.622 L1779.97 162.229 L1775.29 162.229 L1775.29 127.669 L1785.85 127.669 Q1791.77 127.669 1794.69 130.145 Q1797.6 132.622 1797.6 137.622 Q1797.6 140.886 1796.08 143.039 Q1794.57 145.192 1791.68 146.025 M1779.97 131.511 L1779.97 143.78 L1785.85 143.78 Q1789.23 143.78 1790.94 142.229 Q1792.67 140.655 1792.67 137.622 Q1792.67 134.59 1790.94 133.062 Q1789.23 131.511 1785.85 131.511 L1779.97 131.511 Z" fill="#000000" fill-rule="nonzero" fill-opacity="1" /><path clip-path="url(#clip200)" d="M1818.79 149.196 Q1813.62 149.196 1811.63 150.377 Q1809.64 151.557 1809.64 154.405 Q1809.64 156.673 1811.12 158.016 Q1812.63 159.335 1815.2 159.335 Q1818.74 159.335 1820.87 156.835 Q1823.02 154.312 1823.02 150.145 L1823.02 149.196 L1818.79 149.196 M1827.28 147.437 L1827.28 162.229 L1823.02 162.229 L1823.02 158.293 Q1821.56 160.655 1819.39 161.789 Q1817.21 162.9 1814.06 162.9 Q1810.08 162.9 1807.72 160.678 Q1805.38 158.432 1805.38 154.682 Q1805.38 150.307 1808.3 148.085 Q1811.24 145.863 1817.05 145.863 L1823.02 145.863 L1823.02 145.446 Q1823.02 142.507 1821.08 140.909 Q1819.16 139.289 1815.66 139.289 Q1813.44 139.289 1811.33 139.821 Q1809.23 140.354 1807.28 141.419 L1807.28 137.483 Q1809.62 136.581 1811.82 136.141 Q1814.02 135.678 1816.1 135.678 Q1821.72 135.678 1824.5 138.594 Q1827.28 141.511 1827.28 147.437 Z" fill="#000000" fill-rule="nonzero" fill-opacity="1" /><path clip-path="url(#clip200)" d="M1857.6 146.581 L1857.6 162.229 L1853.35 162.229 L1853.35 146.719 Q1853.35 143.039 1851.91 141.21 Q1850.47 139.382 1847.6 139.382 Q1844.16 139.382 1842.16 141.581 Q1840.17 143.78 1840.17 147.576 L1840.17 162.229 L1835.89 162.229 L1835.89 136.303 L1840.17 136.303 L1840.17 140.331 Q1841.7 137.993 1843.76 136.835 Q1845.85 135.678 1848.55 135.678 Q1853.02 135.678 1855.31 138.456 Q1857.6 141.21 1857.6 146.581 Z" fill="#000000" fill-rule="nonzero" fill-opacity="1" /><path clip-path="url(#clip200)" d="M1865.94 126.21 L1870.22 126.21 L1870.22 147.483 L1882.93 136.303 L1888.37 136.303 L1874.62 148.432 L1888.95 162.229 L1883.39 162.229 L1870.22 149.567 L1870.22 162.229 L1865.94 162.229 L1865.94 126.21 Z" fill="#000000" fill-rule="nonzero" fill-opacity="1" /><path clip-path="url(#clip200)" d="M1898.18 158.293 L1914.5 158.293 L1914.5 162.229 L1892.56 162.229 L1892.56 158.293 Q1895.22 155.539 1899.8 150.909 Q1904.41 146.256 1905.59 144.914 Q1907.84 142.391 1908.72 140.655 Q1909.62 138.895 1909.62 137.206 Q1909.62 134.451 1907.67 132.715 Q1905.75 130.979 1902.65 130.979 Q1900.45 130.979 1898 131.743 Q1895.57 132.507 1892.79 134.057 L1892.79 129.335 Q1895.61 128.201 1898.07 127.622 Q1900.52 127.044 1902.56 127.044 Q1907.93 127.044 1911.12 129.729 Q1914.32 132.414 1914.32 136.905 Q1914.32 139.034 1913.51 140.956 Q1912.72 142.854 1910.61 145.446 Q1910.03 146.118 1906.93 149.335 Q1903.83 152.53 1898.18 158.293 Z" fill="#000000" fill-rule="nonzero" fill-opacity="1" /><path clip-path="url(#clip200)" d="M1949.02 126.257 Q1945.91 131.581 1944.41 136.789 Q1942.9 141.997 1942.9 147.344 Q1942.9 152.692 1944.41 157.946 Q1945.94 163.178 1949.02 168.479 L1945.31 168.479 Q1941.84 163.039 1940.1 157.784 Q1938.39 152.53 1938.39 147.344 Q1938.39 142.182 1940.1 136.951 Q1941.82 131.72 1945.31 126.257 L1949.02 126.257 Z" fill="#000000" fill-rule="nonzero" fill-opacity="1" /><path clip-path="url(#clip200)" d="M1961.4 158.34 L1961.4 172.09 L1957.12 172.09 L1957.12 136.303 L1961.4 136.303 L1961.4 140.238 Q1962.74 137.923 1964.78 136.812 Q1966.84 135.678 1969.69 135.678 Q1974.41 135.678 1977.35 139.428 Q1980.31 143.178 1980.31 149.289 Q1980.31 155.4 1977.35 159.15 Q1974.41 162.9 1969.69 162.9 Q1966.84 162.9 1964.78 161.789 Q1962.74 160.655 1961.4 158.34 M1975.89 149.289 Q1975.89 144.59 1973.95 141.928 Q1972.03 139.243 1968.65 139.243 Q1965.27 139.243 1963.32 141.928 Q1961.4 144.59 1961.4 149.289 Q1961.4 153.988 1963.32 156.673 Q1965.27 159.335 1968.65 159.335 Q1972.03 159.335 1973.95 156.673 Q1975.89 153.988 1975.89 149.289 Z" fill="#000000" fill-rule="nonzero" fill-opacity="1" /><path clip-path="url(#clip200)" d="M1986.93 151.997 L1986.93 136.303 L1991.19 136.303 L1991.19 151.835 Q1991.19 155.516 1992.63 157.368 Q1994.06 159.196 1996.93 159.196 Q2000.38 159.196 2002.37 156.997 Q2004.39 154.798 2004.39 151.002 L2004.39 136.303 L2008.65 136.303 L2008.65 162.229 L2004.39 162.229 L2004.39 158.247 Q2002.84 160.608 2000.77 161.766 Q1998.74 162.9 1996.03 162.9 Q1991.56 162.9 1989.25 160.122 Q1986.93 157.344 1986.93 151.997 M1997.65 135.678 L1997.65 135.678 Z" fill="#000000" fill-rule="nonzero" fill-opacity="1" /><path clip-path="url(#clip200)" d="M2032.44 140.284 Q2031.72 139.868 2030.87 139.682 Q2030.03 139.474 2029.02 139.474 Q2025.4 139.474 2023.46 141.835 Q2021.54 144.173 2021.54 148.571 L2021.54 162.229 L2017.26 162.229 L2017.26 136.303 L2021.54 136.303 L2021.54 140.331 Q2022.88 137.969 2025.03 136.835 Q2027.19 135.678 2030.27 135.678 Q2030.71 135.678 2031.24 135.747 Q2031.77 135.794 2032.42 135.909 L2032.44 140.284 Z" fill="#000000" fill-rule="nonzero" fill-opacity="1" /><path clip-path="url(#clip200)" d="M2058.04 148.201 L2058.04 150.284 L2038.46 150.284 Q2038.74 154.682 2041.1 156.997 Q2043.48 159.289 2047.72 159.289 Q2050.17 159.289 2052.46 158.687 Q2054.78 158.085 2057.05 156.881 L2057.05 160.909 Q2054.76 161.881 2052.35 162.391 Q2049.94 162.9 2047.46 162.9 Q2041.26 162.9 2037.63 159.289 Q2034.02 155.678 2034.02 149.52 Q2034.02 143.155 2037.44 139.428 Q2040.89 135.678 2046.72 135.678 Q2051.96 135.678 2054.99 139.057 Q2058.04 142.414 2058.04 148.201 M2053.78 146.951 Q2053.74 143.456 2051.82 141.372 Q2049.92 139.289 2046.77 139.289 Q2043.21 139.289 2041.05 141.303 Q2038.92 143.317 2038.6 146.974 L2053.78 146.951 Z" fill="#000000" fill-rule="nonzero" fill-opacity="1" /><path clip-path="url(#clip200)" d="M2097.16 140.238 L2097.16 126.21 L2101.42 126.21 L2101.42 162.229 L2097.16 162.229 L2097.16 158.34 Q2095.82 160.655 2093.76 161.789 Q2091.72 162.9 2088.85 162.9 Q2084.15 162.9 2081.19 159.15 Q2078.25 155.4 2078.25 149.289 Q2078.25 143.178 2081.19 139.428 Q2084.15 135.678 2088.85 135.678 Q2091.72 135.678 2093.76 136.812 Q2095.82 137.923 2097.16 140.238 M2082.65 149.289 Q2082.65 153.988 2084.57 156.673 Q2086.52 159.335 2089.89 159.335 Q2093.27 159.335 2095.22 156.673 Q2097.16 153.988 2097.16 149.289 Q2097.16 144.59 2095.22 141.928 Q2093.27 139.243 2089.89 139.243 Q2086.52 139.243 2084.57 141.928 Q2082.65 144.59 2082.65 149.289 Z" fill="#000000" fill-rule="nonzero" fill-opacity="1" /><path clip-path="url(#clip200)" d="M2108.04 147.344 L2120.52 147.344 L2120.52 151.141 L2108.04 151.141 L2108.04 147.344 Z" fill="#000000" fill-rule="nonzero" fill-opacity="1" /><path clip-path="url(#clip200)" d="M2124.83 136.303 L2129.08 136.303 L2134.41 156.534 L2139.71 136.303 L2144.73 136.303 L2150.06 156.534 L2155.36 136.303 L2159.62 136.303 L2152.83 162.229 L2147.81 162.229 L2142.23 140.979 L2136.63 162.229 L2131.61 162.229 L2124.83 136.303 Z" fill="#000000" fill-rule="nonzero" fill-opacity="1" /><path clip-path="url(#clip200)" d="M2177.86 149.196 Q2172.7 149.196 2170.7 150.377 Q2168.71 151.557 2168.71 154.405 Q2168.71 156.673 2170.2 158.016 Q2171.7 159.335 2174.27 159.335 Q2177.81 159.335 2179.94 156.835 Q2182.09 154.312 2182.09 150.145 L2182.09 149.196 L2177.86 149.196 M2186.35 147.437 L2186.35 162.229 L2182.09 162.229 L2182.09 158.293 Q2180.64 160.655 2178.46 161.789 Q2176.28 162.9 2173.14 162.9 Q2169.15 162.9 2166.79 160.678 Q2164.45 158.432 2164.45 154.682 Q2164.45 150.307 2167.37 148.085 Q2170.31 145.863 2176.12 145.863 L2182.09 145.863 L2182.09 145.446 Q2182.09 142.507 2180.15 140.909 Q2178.23 139.289 2174.73 139.289 Q2172.51 139.289 2170.4 139.821 Q2168.3 140.354 2166.35 141.419 L2166.35 137.483 Q2168.69 136.581 2170.89 136.141 Q2173.09 135.678 2175.17 135.678 Q2180.8 135.678 2183.57 138.594 Q2186.35 141.511 2186.35 147.437 Z" fill="#000000" fill-rule="nonzero" fill-opacity="1" /><path clip-path="url(#clip200)" d="M2192.07 136.303 L2196.58 136.303 L2204.69 158.062 L2212.79 136.303 L2217.3 136.303 L2207.58 162.229 L2201.79 162.229 L2192.07 136.303 Z" fill="#000000" fill-rule="nonzero" fill-opacity="1" /><path clip-path="url(#clip200)" d="M2245.36 148.201 L2245.36 150.284 L2225.77 150.284 Q2226.05 154.682 2228.41 156.997 Q2230.8 159.289 2235.03 159.289 Q2237.49 159.289 2239.78 158.687 Q2242.09 158.085 2244.36 156.881 L2244.36 160.909 Q2242.07 161.881 2239.66 162.391 Q2237.26 162.9 2234.78 162.9 Q2228.57 162.9 2224.94 159.289 Q2221.33 155.678 2221.33 149.52 Q2221.33 143.155 2224.76 139.428 Q2228.2 135.678 2234.04 135.678 Q2239.27 135.678 2242.3 139.057 Q2245.36 142.414 2245.36 148.201 M2241.1 146.951 Q2241.05 143.456 2239.13 141.372 Q2237.23 139.289 2234.08 139.289 Q2230.52 139.289 2228.37 141.303 Q2226.24 143.317 2225.91 146.974 L2241.1 146.951 Z" fill="#000000" fill-rule="nonzero" fill-opacity="1" /><path clip-path="url(#clip200)" d="M2251.68 126.257 L2255.38 126.257 Q2258.85 131.72 2260.57 136.951 Q2262.3 142.182 2262.3 147.344 Q2262.3 152.53 2260.57 157.784 Q2258.85 163.039 2255.38 168.479 L2251.68 168.479 Q2254.76 163.178 2256.26 157.946 Q2257.79 152.692 2257.79 147.344 Q2257.79 141.997 2256.26 136.789 Q2254.76 131.581 2251.68 126.257 Z" fill="#000000" fill-rule="nonzero" fill-opacity="1" /><polyline clip-path="url(#clip200)" style="stroke:#000000; stroke-linecap:round; stroke-linejoin:round; stroke-width:4; stroke-opacity:1; fill:none" stroke-dasharray="16, 10" points="1502.13,196.789 1637.82,196.789 "/>
<path clip-path="url(#clip200)" d="M1660.43 179.509 L1682.28 179.509 L1682.28 183.444 L1665.11 183.444 L1665.11 193.675 L1681.56 193.675 L1681.56 197.61 L1665.11 197.61 L1665.11 210.133 L1682.7 210.133 L1682.7 214.069 L1660.43 214.069 L1660.43 179.509 Z" fill="#000000" fill-rule="nonzero" fill-opacity="1" /><path clip-path="url(#clip200)" d="M1711.75 188.143 L1702.37 200.759 L1712.23 214.069 L1707.21 214.069 L1699.67 203.883 L1692.12 214.069 L1687.1 214.069 L1697.17 200.504 L1687.95 188.143 L1692.98 188.143 L1699.85 197.379 L1706.73 188.143 L1711.75 188.143 Z" fill="#000000" fill-rule="nonzero" fill-opacity="1" /><path clip-path="url(#clip200)" d="M1730.04 201.036 Q1724.87 201.036 1722.88 202.217 Q1720.89 203.397 1720.89 206.245 Q1720.89 208.513 1722.37 209.856 Q1723.88 211.175 1726.45 211.175 Q1729.99 211.175 1732.12 208.675 Q1734.27 206.152 1734.27 201.985 L1734.27 201.036 L1730.04 201.036 M1738.53 199.277 L1738.53 214.069 L1734.27 214.069 L1734.27 210.133 Q1732.81 212.495 1730.64 213.629 Q1728.46 214.74 1725.31 214.74 Q1721.33 214.74 1718.97 212.518 Q1716.63 210.272 1716.63 206.522 Q1716.63 202.147 1719.55 199.925 Q1722.49 197.703 1728.3 197.703 L1734.27 197.703 L1734.27 197.286 Q1734.27 194.347 1732.33 192.749 Q1730.41 191.129 1726.91 191.129 Q1724.69 191.129 1722.58 191.661 Q1720.48 192.194 1718.53 193.259 L1718.53 189.323 Q1720.87 188.421 1723.07 187.981 Q1725.27 187.518 1727.35 187.518 Q1732.98 187.518 1735.75 190.434 Q1738.53 193.351 1738.53 199.277 Z" fill="#000000" fill-rule="nonzero" fill-opacity="1" /><path clip-path="url(#clip200)" d="M1765.96 189.138 L1765.96 193.12 Q1764.16 192.124 1762.33 191.638 Q1760.52 191.129 1758.67 191.129 Q1754.53 191.129 1752.23 193.768 Q1749.94 196.384 1749.94 201.129 Q1749.94 205.874 1752.23 208.513 Q1754.53 211.129 1758.67 211.129 Q1760.52 211.129 1762.33 210.643 Q1764.16 210.133 1765.96 209.138 L1765.96 213.073 Q1764.18 213.907 1762.26 214.323 Q1760.36 214.74 1758.21 214.74 Q1752.35 214.74 1748.9 211.059 Q1745.45 207.379 1745.45 201.129 Q1745.45 194.786 1748.92 191.152 Q1752.42 187.518 1758.48 187.518 Q1760.45 187.518 1762.33 187.935 Q1764.2 188.328 1765.96 189.138 Z" fill="#000000" fill-rule="nonzero" fill-opacity="1" /><path clip-path="url(#clip200)" d="M1777.58 180.782 L1777.58 188.143 L1786.35 188.143 L1786.35 191.453 L1777.58 191.453 L1777.58 205.527 Q1777.58 208.698 1778.44 209.601 Q1779.32 210.504 1781.98 210.504 L1786.35 210.504 L1786.35 214.069 L1781.98 214.069 Q1777.05 214.069 1775.17 212.24 Q1773.3 210.388 1773.3 205.527 L1773.3 191.453 L1770.17 191.453 L1770.17 188.143 L1773.3 188.143 L1773.3 180.782 L1777.58 180.782 Z" fill="#000000" fill-rule="nonzero" fill-opacity="1" /><path clip-path="url(#clip200)" d="M1821.79 195.434 Q1825.15 196.152 1827.03 198.421 Q1828.92 200.689 1828.92 204.022 Q1828.92 209.138 1825.41 211.939 Q1821.89 214.74 1815.41 214.74 Q1813.23 214.74 1810.91 214.3 Q1808.62 213.883 1806.17 213.027 L1806.17 208.513 Q1808.11 209.647 1810.43 210.226 Q1812.74 210.805 1815.27 210.805 Q1819.66 210.805 1821.96 209.069 Q1824.27 207.333 1824.27 204.022 Q1824.27 200.967 1822.12 199.254 Q1819.99 197.518 1816.17 197.518 L1812.14 197.518 L1812.14 193.675 L1816.35 193.675 Q1819.8 193.675 1821.63 192.309 Q1823.46 190.921 1823.46 188.328 Q1823.46 185.666 1821.56 184.254 Q1819.69 182.819 1816.17 182.819 Q1814.25 182.819 1812.05 183.235 Q1809.85 183.652 1807.21 184.532 L1807.21 180.365 Q1809.87 179.624 1812.19 179.254 Q1814.53 178.884 1816.59 178.884 Q1821.91 178.884 1825.01 181.314 Q1828.11 183.722 1828.11 187.842 Q1828.11 190.712 1826.47 192.703 Q1824.83 194.671 1821.79 195.434 Z" fill="#000000" fill-rule="nonzero" fill-opacity="1" /><path clip-path="url(#clip200)" d="M1854.25 192.078 L1854.25 178.05 L1858.51 178.05 L1858.51 214.069 L1854.25 214.069 L1854.25 210.18 Q1852.91 212.495 1850.85 213.629 Q1848.81 214.74 1845.94 214.74 Q1841.24 214.74 1838.28 210.99 Q1835.34 207.24 1835.34 201.129 Q1835.34 195.018 1838.28 191.268 Q1841.24 187.518 1845.94 187.518 Q1848.81 187.518 1850.85 188.652 Q1852.91 189.763 1854.25 192.078 M1839.73 201.129 Q1839.73 205.828 1841.66 208.513 Q1843.6 211.175 1846.98 211.175 Q1850.36 211.175 1852.3 208.513 Q1854.25 205.828 1854.25 201.129 Q1854.25 196.43 1852.3 193.768 Q1850.36 191.083 1846.98 191.083 Q1843.6 191.083 1841.66 193.768 Q1839.73 196.43 1839.73 201.129 Z" fill="#000000" fill-rule="nonzero" fill-opacity="1" /></svg>
