<?xml version="1.0" encoding="utf-8"?>
<svg xmlns="http://www.w3.org/2000/svg" xmlns:xlink="http://www.w3.org/1999/xlink" width="600" height="400" viewBox="0 0 2400 1600">
<defs>
  <clipPath id="clip120">
    <rect x="0" y="0" width="2400" height="1600"/>
  </clipPath>
</defs>
<path clip-path="url(#clip120)" d="M0 1600 L2400 1600 L2400 0 L0 0  Z" fill="#ffffff" fill-rule="evenodd" fill-opacity="1"/>
<defs>
  <clipPath id="clip121">
    <rect x="287" y="47" width="2066" height="1377"/>
  </clipPath>
</defs>
<path clip-path="url(#clip120)" d="M287.852 1423.18 L2352.76 1423.18 L2352.76 47.2441 L287.852 47.2441  Z" fill="#ffffff" fill-rule="evenodd" fill-opacity="1"/>
<polyline clip-path="url(#clip121)" style="stroke:#000000; stroke-linecap:round; stroke-linejoin:round; stroke-width:2; stroke-opacity:0.1; fill:none" points="611.932,1423.18 611.932,47.2441 "/>
<polyline clip-path="url(#clip121)" style="stroke:#000000; stroke-linecap:round; stroke-linejoin:round; stroke-width:2; stroke-opacity:0.1; fill:none" points="1054.66,1423.18 1054.66,47.2441 "/>
<polyline clip-path="url(#clip121)" style="stroke:#000000; stroke-linecap:round; stroke-linejoin:round; stroke-width:2; stroke-opacity:0.1; fill:none" points="1497.4,1423.18 1497.4,47.2441 "/>
<polyline clip-path="url(#clip121)" style="stroke:#000000; stroke-linecap:round; stroke-linejoin:round; stroke-width:2; stroke-opacity:0.1; fill:none" points="1940.13,1423.18 1940.13,47.2441 "/>
<polyline clip-path="url(#clip121)" style="stroke:#000000; stroke-linecap:round; stroke-linejoin:round; stroke-width:2; stroke-opacity:0.1; fill:none" points="287.852,1384.24 2352.76,1384.24 "/>
<polyline clip-path="url(#clip121)" style="stroke:#000000; stroke-linecap:round; stroke-linejoin:round; stroke-width:2; stroke-opacity:0.1; fill:none" points="287.852,1040.78 2352.76,1040.78 "/>
<polyline clip-path="url(#clip121)" style="stroke:#000000; stroke-linecap:round; stroke-linejoin:round; stroke-width:2; stroke-opacity:0.1; fill:none" points="287.852,697.318 2352.76,697.318 "/>
<polyline clip-path="url(#clip121)" style="stroke:#000000; stroke-linecap:round; stroke-linejoin:round; stroke-width:2; stroke-opacity:0.1; fill:none" points="287.852,353.858 2352.76,353.858 "/>
<polyline clip-path="url(#clip120)" style="stroke:#000000; stroke-linecap:round; stroke-linejoin:round; stroke-width:4; stroke-opacity:1; fill:none" points="287.852,1423.18 2352.76,1423.18 "/>
<polyline clip-path="url(#clip120)" style="stroke:#000000; stroke-linecap:round; stroke-linejoin:round; stroke-width:4; stroke-opacity:1; fill:none" points="611.932,1423.18 611.932,1404.28 "/>
<polyline clip-path="url(#clip120)" style="stroke:#000000; stroke-linecap:round; stroke-linejoin:round; stroke-width:4; stroke-opacity:1; fill:none" points="1054.66,1423.18 1054.66,1404.28 "/>
<polyline clip-path="url(#clip120)" style="stroke:#000000; stroke-linecap:round; stroke-linejoin:round; stroke-width:4; stroke-opacity:1; fill:none" points="1497.4,1423.18 1497.4,1404.28 "/>
<polyline clip-path="url(#clip120)" style="stroke:#000000; stroke-linecap:round; stroke-linejoin:round; stroke-width:4; stroke-opacity:1; fill:none" points="1940.13,1423.18 1940.13,1404.28 "/>
<path clip-path="url(#clip120)" d="M583.668 1481.64 L599.988 1481.64 L599.988 1485.58 L578.043 1485.58 L578.043 1481.64 Q580.705 1478.89 585.289 1474.26 Q589.895 1469.61 591.076 1468.27 Q593.321 1465.74 594.201 1464.01 Q595.104 1462.25 595.104 1460.56 Q595.104 1457.8 593.159 1456.07 Q591.238 1454.33 588.136 1454.33 Q585.937 1454.33 583.483 1455.09 Q581.053 1455.86 578.275 1457.41 L578.275 1452.69 Q581.099 1451.55 583.553 1450.97 Q586.006 1450.39 588.043 1450.39 Q593.414 1450.39 596.608 1453.08 Q599.803 1455.77 599.803 1460.26 Q599.803 1462.39 598.992 1464.31 Q598.205 1466.2 596.099 1468.8 Q595.52 1469.47 592.418 1472.69 Q589.317 1475.88 583.668 1481.64 Z" fill="#000000" fill-rule="nonzero" fill-opacity="1" /><path clip-path="url(#clip120)" d="M609.803 1479.7 L614.687 1479.7 L614.687 1485.58 L609.803 1485.58 L609.803 1479.7 Z" fill="#000000" fill-rule="nonzero" fill-opacity="1" /><path clip-path="url(#clip120)" d="M624.918 1451.02 L643.275 1451.02 L643.275 1454.96 L629.201 1454.96 L629.201 1463.43 Q630.219 1463.08 631.238 1462.92 Q632.256 1462.73 633.275 1462.73 Q639.062 1462.73 642.441 1465.9 Q645.821 1469.08 645.821 1474.49 Q645.821 1480.07 642.349 1483.17 Q638.876 1486.25 632.557 1486.25 Q630.381 1486.25 628.113 1485.88 Q625.867 1485.51 623.46 1484.77 L623.46 1480.07 Q625.543 1481.2 627.765 1481.76 Q629.988 1482.32 632.464 1482.32 Q636.469 1482.32 638.807 1480.21 Q641.145 1478.1 641.145 1474.49 Q641.145 1470.88 638.807 1468.77 Q636.469 1466.67 632.464 1466.67 Q630.589 1466.67 628.714 1467.08 Q626.863 1467.5 624.918 1468.38 L624.918 1451.02 Z" fill="#000000" fill-rule="nonzero" fill-opacity="1" /><path clip-path="url(#clip120)" d="M1021.83 1451.02 L1040.19 1451.02 L1040.19 1454.96 L1026.11 1454.96 L1026.11 1463.43 Q1027.13 1463.08 1028.15 1462.92 Q1029.17 1462.73 1030.19 1462.73 Q1035.97 1462.73 1039.35 1465.9 Q1042.73 1469.08 1042.73 1474.49 Q1042.73 1480.07 1039.26 1483.17 Q1035.79 1486.25 1029.47 1486.25 Q1027.29 1486.25 1025.02 1485.88 Q1022.78 1485.51 1020.37 1484.77 L1020.37 1480.07 Q1022.45 1481.2 1024.68 1481.76 Q1026.9 1482.32 1029.38 1482.32 Q1033.38 1482.32 1035.72 1480.21 Q1038.06 1478.1 1038.06 1474.49 Q1038.06 1470.88 1035.72 1468.77 Q1033.38 1466.67 1029.38 1466.67 Q1027.5 1466.67 1025.63 1467.08 Q1023.77 1467.5 1021.83 1468.38 L1021.83 1451.02 Z" fill="#000000" fill-rule="nonzero" fill-opacity="1" /><path clip-path="url(#clip120)" d="M1051.94 1479.7 L1056.83 1479.7 L1056.83 1485.58 L1051.94 1485.58 L1051.94 1479.7 Z" fill="#000000" fill-rule="nonzero" fill-opacity="1" /><path clip-path="url(#clip120)" d="M1077.01 1454.1 Q1073.4 1454.1 1071.57 1457.66 Q1069.77 1461.2 1069.77 1468.33 Q1069.77 1475.44 1071.57 1479.01 Q1073.4 1482.55 1077.01 1482.55 Q1080.65 1482.55 1082.45 1479.01 Q1084.28 1475.44 1084.28 1468.33 Q1084.28 1461.2 1082.45 1457.66 Q1080.65 1454.1 1077.01 1454.1 M1077.01 1450.39 Q1082.82 1450.39 1085.88 1455 Q1088.96 1459.58 1088.96 1468.33 Q1088.96 1477.06 1085.88 1481.67 Q1082.82 1486.25 1077.01 1486.25 Q1071.2 1486.25 1068.13 1481.67 Q1065.07 1477.06 1065.07 1468.33 Q1065.07 1459.58 1068.13 1455 Q1071.2 1450.39 1077.01 1450.39 Z" fill="#000000" fill-rule="nonzero" fill-opacity="1" /><path clip-path="url(#clip120)" d="M1463.72 1451.02 L1485.94 1451.02 L1485.94 1453.01 L1473.39 1485.58 L1468.51 1485.58 L1480.31 1454.96 L1463.72 1454.96 L1463.72 1451.02 Z" fill="#000000" fill-rule="nonzero" fill-opacity="1" /><path clip-path="url(#clip120)" d="M1495.06 1479.7 L1499.94 1479.7 L1499.94 1485.58 L1495.06 1485.58 L1495.06 1479.7 Z" fill="#000000" fill-rule="nonzero" fill-opacity="1" /><path clip-path="url(#clip120)" d="M1510.17 1451.02 L1528.53 1451.02 L1528.53 1454.96 L1514.46 1454.96 L1514.46 1463.43 Q1515.48 1463.08 1516.49 1462.92 Q1517.51 1462.73 1518.53 1462.73 Q1524.32 1462.73 1527.7 1465.9 Q1531.08 1469.08 1531.08 1474.49 Q1531.08 1480.07 1527.61 1483.17 Q1524.13 1486.25 1517.81 1486.25 Q1515.64 1486.25 1513.37 1485.88 Q1511.12 1485.51 1508.72 1484.77 L1508.72 1480.07 Q1510.8 1481.2 1513.02 1481.76 Q1515.24 1482.32 1517.72 1482.32 Q1521.73 1482.32 1524.06 1480.21 Q1526.4 1478.1 1526.4 1474.49 Q1526.4 1470.88 1524.06 1468.77 Q1521.73 1466.67 1517.72 1466.67 Q1515.85 1466.67 1513.97 1467.08 Q1512.12 1467.5 1510.17 1468.38 L1510.17 1451.02 Z" fill="#000000" fill-rule="nonzero" fill-opacity="1" /><path clip-path="url(#clip120)" d="M1892.2 1481.64 L1899.84 1481.64 L1899.84 1455.28 L1891.53 1456.95 L1891.53 1452.69 L1899.79 1451.02 L1904.47 1451.02 L1904.47 1481.64 L1912.11 1481.64 L1912.11 1485.58 L1892.2 1485.58 L1892.2 1481.64 Z" fill="#000000" fill-rule="nonzero" fill-opacity="1" /><path clip-path="url(#clip120)" d="M1931.55 1454.1 Q1927.94 1454.1 1926.11 1457.66 Q1924.31 1461.2 1924.31 1468.33 Q1924.31 1475.44 1926.11 1479.01 Q1927.94 1482.55 1931.55 1482.55 Q1935.19 1482.55 1936.99 1479.01 Q1938.82 1475.44 1938.82 1468.33 Q1938.82 1461.2 1936.99 1457.66 Q1935.19 1454.1 1931.55 1454.1 M1931.55 1450.39 Q1937.36 1450.39 1940.42 1455 Q1943.5 1459.58 1943.5 1468.33 Q1943.5 1477.06 1940.42 1481.67 Q1937.36 1486.25 1931.55 1486.25 Q1925.74 1486.25 1922.66 1481.67 Q1919.61 1477.06 1919.61 1468.33 Q1919.61 1459.58 1922.66 1455 Q1925.74 1450.39 1931.55 1450.39 Z" fill="#000000" fill-rule="nonzero" fill-opacity="1" /><path clip-path="url(#clip120)" d="M1951.71 1479.7 L1956.6 1479.7 L1956.6 1485.58 L1951.71 1485.58 L1951.71 1479.7 Z" fill="#000000" fill-rule="nonzero" fill-opacity="1" /><path clip-path="url(#clip120)" d="M1976.78 1454.1 Q1973.17 1454.1 1971.34 1457.66 Q1969.54 1461.2 1969.54 1468.33 Q1969.54 1475.44 1971.34 1479.01 Q1973.17 1482.55 1976.78 1482.55 Q1980.42 1482.55 1982.22 1479.01 Q1984.05 1475.44 1984.05 1468.33 Q1984.05 1461.2 1982.22 1457.66 Q1980.42 1454.1 1976.78 1454.1 M1976.78 1450.39 Q1982.59 1450.39 1985.65 1455 Q1988.73 1459.58 1988.73 1468.33 Q1988.73 1477.06 1985.65 1481.67 Q1982.59 1486.25 1976.78 1486.25 Q1970.97 1486.25 1967.9 1481.67 Q1964.84 1477.06 1964.84 1468.33 Q1964.84 1459.58 1967.9 1455 Q1970.97 1450.39 1976.78 1450.39 Z" fill="#000000" fill-rule="nonzero" fill-opacity="1" /><path clip-path="url(#clip120)" d="M1172.76 1545.35 L1172.76 1562.76 L1183.08 1562.76 Q1188.26 1562.76 1190.75 1560.63 Q1193.26 1558.46 1193.26 1554.04 Q1193.26 1549.58 1190.75 1547.48 Q1188.26 1545.35 1183.08 1545.35 L1172.76 1545.35 M1172.76 1525.81 L1172.76 1540.13 L1182.28 1540.13 Q1186.99 1540.13 1189.28 1538.38 Q1191.61 1536.6 1191.61 1532.97 Q1191.61 1529.37 1189.28 1527.59 Q1186.99 1525.81 1182.28 1525.81 L1172.76 1525.81 M1166.33 1520.52 L1182.76 1520.52 Q1190.11 1520.52 1194.09 1523.58 Q1198.07 1526.63 1198.07 1532.27 Q1198.07 1536.63 1196.03 1539.21 Q1193.99 1541.79 1190.05 1542.42 Q1194.79 1543.44 1197.4 1546.69 Q1200.04 1549.9 1200.04 1554.74 Q1200.04 1561.11 1195.71 1564.57 Q1191.38 1568.04 1183.39 1568.04 L1166.33 1568.04 L1166.33 1520.52 Z" fill="#000000" fill-rule="nonzero" fill-opacity="1" /><path clip-path="url(#clip120)" d="M1227 1550.12 Q1219.9 1550.12 1217.16 1551.75 Q1214.43 1553.37 1214.43 1557.29 Q1214.43 1560.4 1216.46 1562.25 Q1218.53 1564.07 1222.07 1564.07 Q1226.93 1564.07 1229.86 1560.63 Q1232.82 1557.16 1232.82 1551.43 L1232.82 1550.12 L1227 1550.12 M1238.68 1547.71 L1238.68 1568.04 L1232.82 1568.04 L1232.82 1562.63 Q1230.82 1565.88 1227.83 1567.44 Q1224.83 1568.97 1220.51 1568.97 Q1215.03 1568.97 1211.78 1565.91 Q1208.57 1562.82 1208.57 1557.67 Q1208.57 1551.65 1212.58 1548.6 Q1216.62 1545.54 1224.61 1545.54 L1232.82 1545.54 L1232.82 1544.97 Q1232.82 1540.93 1230.15 1538.73 Q1227.51 1536.5 1222.7 1536.5 Q1219.65 1536.5 1216.75 1537.23 Q1213.85 1537.97 1211.18 1539.43 L1211.18 1534.02 Q1214.39 1532.78 1217.42 1532.17 Q1220.44 1531.54 1223.31 1531.54 Q1231.04 1531.54 1234.86 1535.55 Q1238.68 1539.56 1238.68 1547.71 Z" fill="#000000" fill-rule="nonzero" fill-opacity="1" /><path clip-path="url(#clip120)" d="M1273.47 1533.45 L1273.47 1538.98 Q1270.99 1537.71 1268.31 1537.07 Q1265.64 1536.44 1262.77 1536.44 Q1258.41 1536.44 1256.22 1537.77 Q1254.05 1539.11 1254.05 1541.79 Q1254.05 1543.82 1255.61 1545 Q1257.17 1546.15 1261.88 1547.2 L1263.89 1547.64 Q1270.13 1548.98 1272.74 1551.43 Q1275.38 1553.85 1275.38 1558.21 Q1275.38 1563.17 1271.43 1566.07 Q1267.52 1568.97 1260.64 1568.97 Q1257.78 1568.97 1254.66 1568.39 Q1251.57 1567.85 1248.13 1566.74 L1248.13 1560.69 Q1251.38 1562.38 1254.53 1563.24 Q1257.68 1564.07 1260.77 1564.07 Q1264.91 1564.07 1267.13 1562.66 Q1269.36 1561.23 1269.36 1558.65 Q1269.36 1556.27 1267.74 1554.99 Q1266.15 1553.72 1260.71 1552.54 L1258.67 1552.07 Q1253.23 1550.92 1250.81 1548.56 Q1248.39 1546.18 1248.39 1542.04 Q1248.39 1537.01 1251.95 1534.27 Q1255.52 1531.54 1262.07 1531.54 Q1265.32 1531.54 1268.18 1532.01 Q1271.05 1532.49 1273.47 1533.45 Z" fill="#000000" fill-rule="nonzero" fill-opacity="1" /><path clip-path="url(#clip120)" d="M1284.7 1532.4 L1290.56 1532.4 L1290.56 1568.04 L1284.7 1568.04 L1284.7 1532.4 M1284.7 1518.52 L1290.56 1518.52 L1290.56 1525.93 L1284.7 1525.93 L1284.7 1518.52 Z" fill="#000000" fill-rule="nonzero" fill-opacity="1" /><path clip-path="url(#clip120)" d="M1325.54 1533.45 L1325.54 1538.98 Q1323.06 1537.71 1320.38 1537.07 Q1317.71 1536.44 1314.85 1536.44 Q1310.48 1536.44 1308.29 1537.77 Q1306.12 1539.11 1306.12 1541.79 Q1306.12 1543.82 1307.68 1545 Q1309.24 1546.15 1313.95 1547.2 L1315.96 1547.64 Q1322.2 1548.98 1324.81 1551.43 Q1327.45 1553.85 1327.45 1558.21 Q1327.45 1563.17 1323.5 1566.07 Q1319.59 1568.97 1312.71 1568.97 Q1309.85 1568.97 1306.73 1568.39 Q1303.64 1567.85 1300.2 1566.74 L1300.2 1560.69 Q1303.45 1562.38 1306.6 1563.24 Q1309.75 1564.07 1312.84 1564.07 Q1316.98 1564.07 1319.21 1562.66 Q1321.43 1561.23 1321.43 1558.65 Q1321.43 1556.27 1319.81 1554.99 Q1318.22 1553.72 1312.78 1552.54 L1310.74 1552.07 Q1305.3 1550.92 1302.88 1548.56 Q1300.46 1546.18 1300.46 1542.04 Q1300.46 1537.01 1304.02 1534.27 Q1307.59 1531.54 1314.15 1531.54 Q1317.39 1531.54 1320.26 1532.01 Q1323.12 1532.49 1325.54 1533.45 Z" fill="#000000" fill-rule="nonzero" fill-opacity="1" /><path clip-path="url(#clip120)" d="M1380.22 1533.45 L1380.22 1538.98 Q1377.74 1537.71 1375.06 1537.07 Q1372.39 1536.44 1369.53 1536.44 Q1365.17 1536.44 1362.97 1537.77 Q1360.81 1539.11 1360.81 1541.79 Q1360.81 1543.82 1362.37 1545 Q1363.92 1546.15 1368.64 1547.2 L1370.64 1547.64 Q1376.88 1548.98 1379.49 1551.43 Q1382.13 1553.85 1382.13 1558.21 Q1382.13 1563.17 1378.18 1566.07 Q1374.27 1568.97 1367.39 1568.97 Q1364.53 1568.97 1361.41 1568.39 Q1358.32 1567.85 1354.89 1566.74 L1354.89 1560.69 Q1358.13 1562.38 1361.28 1563.24 Q1364.43 1564.07 1367.52 1564.07 Q1371.66 1564.07 1373.89 1562.66 Q1376.12 1561.23 1376.12 1558.65 Q1376.12 1556.27 1374.49 1554.99 Q1372.9 1553.72 1367.46 1552.54 L1365.42 1552.07 Q1359.98 1550.92 1357.56 1548.56 Q1355.14 1546.18 1355.14 1542.04 Q1355.14 1537.01 1358.71 1534.27 Q1362.27 1531.54 1368.83 1531.54 Q1372.07 1531.54 1374.94 1532.01 Q1377.8 1532.49 1380.22 1533.45 Z" fill="#000000" fill-rule="nonzero" fill-opacity="1" /><path clip-path="url(#clip120)" d="M1391.46 1532.4 L1397.31 1532.4 L1397.31 1568.04 L1391.46 1568.04 L1391.46 1532.4 M1391.46 1518.52 L1397.31 1518.52 L1397.31 1525.93 L1391.46 1525.93 L1391.46 1518.52 Z" fill="#000000" fill-rule="nonzero" fill-opacity="1" /><path clip-path="url(#clip120)" d="M1407.02 1532.4 L1434.84 1532.4 L1434.84 1537.74 L1412.81 1563.37 L1434.84 1563.37 L1434.84 1568.04 L1406.23 1568.04 L1406.23 1562.7 L1428.25 1537.07 L1407.02 1537.07 L1407.02 1532.4 Z" fill="#000000" fill-rule="nonzero" fill-opacity="1" /><path clip-path="url(#clip120)" d="M1474.27 1548.76 L1474.27 1551.62 L1447.35 1551.62 Q1447.73 1557.67 1450.98 1560.85 Q1454.25 1564 1460.08 1564 Q1463.45 1564 1466.6 1563.17 Q1469.79 1562.35 1472.91 1560.69 L1472.91 1566.23 Q1469.75 1567.57 1466.44 1568.27 Q1463.13 1568.97 1459.73 1568.97 Q1451.2 1568.97 1446.2 1564 Q1441.24 1559.04 1441.24 1550.57 Q1441.24 1541.82 1445.95 1536.69 Q1450.69 1531.54 1458.71 1531.54 Q1465.9 1531.54 1470.07 1536.18 Q1474.27 1540.8 1474.27 1548.76 M1468.42 1547.04 Q1468.35 1542.23 1465.71 1539.37 Q1463.1 1536.5 1458.77 1536.5 Q1453.87 1536.5 1450.91 1539.27 Q1447.98 1542.04 1447.54 1547.07 L1468.42 1547.04 Z" fill="#000000" fill-rule="nonzero" fill-opacity="1" /><polyline clip-path="url(#clip120)" style="stroke:#000000; stroke-linecap:round; stroke-linejoin:round; stroke-width:4; stroke-opacity:1; fill:none" points="287.852,1423.18 287.852,47.2441 "/>
<polyline clip-path="url(#clip120)" style="stroke:#000000; stroke-linecap:round; stroke-linejoin:round; stroke-width:4; stroke-opacity:1; fill:none" points="287.852,1384.24 306.75,1384.24 "/>
<polyline clip-path="url(#clip120)" style="stroke:#000000; stroke-linecap:round; stroke-linejoin:round; stroke-width:4; stroke-opacity:1; fill:none" points="287.852,1040.78 306.75,1040.78 "/>
<polyline clip-path="url(#clip120)" style="stroke:#000000; stroke-linecap:round; stroke-linejoin:round; stroke-width:4; stroke-opacity:1; fill:none" points="287.852,697.318 306.75,697.318 "/>
<polyline clip-path="url(#clip120)" style="stroke:#000000; stroke-linecap:round; stroke-linejoin:round; stroke-width:4; stroke-opacity:1; fill:none" points="287.852,353.858 306.75,353.858 "/>
<path clip-path="url(#clip120)" d="M114.746 1384.69 L144.422 1384.69 L144.422 1388.62 L114.746 1388.62 L114.746 1384.69 Z" fill="#000000" fill-rule="nonzero" fill-opacity="1" /><path clip-path="url(#clip120)" d="M164.515 1370.04 Q160.903 1370.04 159.075 1373.6 Q157.269 1377.14 157.269 1384.27 Q157.269 1391.38 159.075 1394.94 Q160.903 1398.49 164.515 1398.49 Q168.149 1398.49 169.954 1394.94 Q171.783 1391.38 171.783 1384.27 Q171.783 1377.14 169.954 1373.6 Q168.149 1370.04 164.515 1370.04 M164.515 1366.33 Q170.325 1366.33 173.38 1370.94 Q176.459 1375.52 176.459 1384.27 Q176.459 1393 173.38 1397.61 Q170.325 1402.19 164.515 1402.19 Q158.704 1402.19 155.626 1397.61 Q152.57 1393 152.57 1384.27 Q152.57 1375.52 155.626 1370.94 Q158.704 1366.33 164.515 1366.33 Z" fill="#000000" fill-rule="nonzero" fill-opacity="1" /><path clip-path="url(#clip120)" d="M184.676 1395.64 L189.561 1395.64 L189.561 1401.52 L184.676 1401.52 L184.676 1395.64 Z" fill="#000000" fill-rule="nonzero" fill-opacity="1" /><path clip-path="url(#clip120)" d="M199.792 1366.96 L218.148 1366.96 L218.148 1370.89 L204.074 1370.89 L204.074 1379.37 Q205.093 1379.02 206.112 1378.86 Q207.13 1378.67 208.149 1378.67 Q213.936 1378.67 217.315 1381.84 Q220.695 1385.01 220.695 1390.43 Q220.695 1396.01 217.223 1399.11 Q213.75 1402.19 207.431 1402.19 Q205.255 1402.19 202.987 1401.82 Q200.741 1401.45 198.334 1400.71 L198.334 1396.01 Q200.417 1397.14 202.639 1397.7 Q204.862 1398.25 207.338 1398.25 Q211.343 1398.25 213.681 1396.15 Q216.019 1394.04 216.019 1390.43 Q216.019 1386.82 213.681 1384.71 Q211.343 1382.61 207.338 1382.61 Q205.463 1382.61 203.588 1383.02 Q201.737 1383.44 199.792 1384.32 L199.792 1366.96 Z" fill="#000000" fill-rule="nonzero" fill-opacity="1" /><path clip-path="url(#clip120)" d="M239.908 1370.04 Q236.297 1370.04 234.468 1373.6 Q232.662 1377.14 232.662 1384.27 Q232.662 1391.38 234.468 1394.94 Q236.297 1398.49 239.908 1398.49 Q243.542 1398.49 245.347 1394.94 Q247.176 1391.38 247.176 1384.27 Q247.176 1377.14 245.347 1373.6 Q243.542 1370.04 239.908 1370.04 M239.908 1366.33 Q245.718 1366.33 248.773 1370.94 Q251.852 1375.52 251.852 1384.27 Q251.852 1393 248.773 1397.61 Q245.718 1402.19 239.908 1402.19 Q234.097 1402.19 231.019 1397.61 Q227.963 1393 227.963 1384.27 Q227.963 1375.52 231.019 1370.94 Q234.097 1366.33 239.908 1366.33 Z" fill="#000000" fill-rule="nonzero" fill-opacity="1" /><path clip-path="url(#clip120)" d="M114.839 1041.23 L144.515 1041.23 L144.515 1045.16 L114.839 1045.16 L114.839 1041.23 Z" fill="#000000" fill-rule="nonzero" fill-opacity="1" /><path clip-path="url(#clip120)" d="M164.607 1026.58 Q160.996 1026.58 159.167 1030.14 Q157.362 1033.68 157.362 1040.81 Q157.362 1047.92 159.167 1051.48 Q160.996 1055.03 164.607 1055.03 Q168.241 1055.03 170.047 1051.48 Q171.876 1047.92 171.876 1040.81 Q171.876 1033.68 170.047 1030.14 Q168.241 1026.58 164.607 1026.58 M164.607 1022.87 Q170.417 1022.87 173.473 1027.48 Q176.551 1032.06 176.551 1040.81 Q176.551 1049.54 173.473 1054.15 Q170.417 1058.73 164.607 1058.73 Q158.797 1058.73 155.718 1054.15 Q152.663 1049.54 152.663 1040.81 Q152.663 1032.06 155.718 1027.48 Q158.797 1022.87 164.607 1022.87 Z" fill="#000000" fill-rule="nonzero" fill-opacity="1" /><path clip-path="url(#clip120)" d="M184.769 1052.18 L189.653 1052.18 L189.653 1058.06 L184.769 1058.06 L184.769 1052.18 Z" fill="#000000" fill-rule="nonzero" fill-opacity="1" /><path clip-path="url(#clip120)" d="M212.686 1027.57 L200.88 1046.02 L212.686 1046.02 L212.686 1027.57 M211.459 1023.5 L217.338 1023.5 L217.338 1046.02 L222.269 1046.02 L222.269 1049.91 L217.338 1049.91 L217.338 1058.06 L212.686 1058.06 L212.686 1049.91 L197.084 1049.91 L197.084 1045.4 L211.459 1023.5 Z" fill="#000000" fill-rule="nonzero" fill-opacity="1" /><path clip-path="url(#clip120)" d="M240 1041.65 Q236.667 1041.65 234.746 1043.43 Q232.847 1045.21 232.847 1048.34 Q232.847 1051.46 234.746 1053.24 Q236.667 1055.03 240 1055.03 Q243.334 1055.03 245.255 1053.24 Q247.176 1051.44 247.176 1048.34 Q247.176 1045.21 245.255 1043.43 Q243.357 1041.65 240 1041.65 M235.324 1039.66 Q232.315 1038.91 230.625 1036.85 Q228.959 1034.79 228.959 1031.83 Q228.959 1027.69 231.898 1025.28 Q234.861 1022.87 240 1022.87 Q245.162 1022.87 248.102 1025.28 Q251.042 1027.69 251.042 1031.83 Q251.042 1034.79 249.352 1036.85 Q247.685 1038.91 244.699 1039.66 Q248.079 1040.44 249.954 1042.73 Q251.852 1045.03 251.852 1048.34 Q251.852 1053.36 248.773 1056.04 Q245.718 1058.73 240 1058.73 Q234.283 1058.73 231.204 1056.04 Q228.148 1053.36 228.148 1048.34 Q228.148 1045.03 230.047 1042.73 Q231.945 1040.44 235.324 1039.66 M233.611 1032.27 Q233.611 1034.96 235.278 1036.46 Q236.968 1037.97 240 1037.97 Q243.009 1037.97 244.699 1036.46 Q246.412 1034.96 246.412 1032.27 Q246.412 1029.59 244.699 1028.08 Q243.009 1026.58 240 1026.58 Q236.968 1026.58 235.278 1028.08 Q233.611 1029.59 233.611 1032.27 Z" fill="#000000" fill-rule="nonzero" fill-opacity="1" /><path clip-path="url(#clip120)" d="M114.584 697.77 L144.26 697.77 L144.26 701.705 L114.584 701.705 L114.584 697.77 Z" fill="#000000" fill-rule="nonzero" fill-opacity="1" /><path clip-path="url(#clip120)" d="M164.352 683.117 Q160.741 683.117 158.913 686.682 Q157.107 690.223 157.107 697.353 Q157.107 704.459 158.913 708.024 Q160.741 711.566 164.352 711.566 Q167.987 711.566 169.792 708.024 Q171.621 704.459 171.621 697.353 Q171.621 690.223 169.792 686.682 Q167.987 683.117 164.352 683.117 M164.352 679.413 Q170.163 679.413 173.218 684.02 Q176.297 688.603 176.297 697.353 Q176.297 706.08 173.218 710.686 Q170.163 715.269 164.352 715.269 Q158.542 715.269 155.464 710.686 Q152.408 706.08 152.408 697.353 Q152.408 688.603 155.464 684.02 Q158.542 679.413 164.352 679.413 Z" fill="#000000" fill-rule="nonzero" fill-opacity="1" /><path clip-path="url(#clip120)" d="M184.514 708.719 L189.399 708.719 L189.399 714.598 L184.514 714.598 L184.514 708.719 Z" fill="#000000" fill-rule="nonzero" fill-opacity="1" /><path clip-path="url(#clip120)" d="M212.431 684.112 L200.625 702.561 L212.431 702.561 L212.431 684.112 M211.204 680.038 L217.084 680.038 L217.084 702.561 L222.014 702.561 L222.014 706.45 L217.084 706.45 L217.084 714.598 L212.431 714.598 L212.431 706.45 L196.829 706.45 L196.829 701.936 L211.204 680.038 Z" fill="#000000" fill-rule="nonzero" fill-opacity="1" /><path clip-path="url(#clip120)" d="M240.324 695.455 Q237.176 695.455 235.324 697.608 Q233.496 699.76 233.496 703.51 Q233.496 707.237 235.324 709.413 Q237.176 711.566 240.324 711.566 Q243.472 711.566 245.301 709.413 Q247.153 707.237 247.153 703.51 Q247.153 699.76 245.301 697.608 Q243.472 695.455 240.324 695.455 M249.607 680.802 L249.607 685.061 Q247.847 684.228 246.042 683.788 Q244.259 683.348 242.5 683.348 Q237.871 683.348 235.417 686.473 Q232.986 689.598 232.639 695.918 Q234.005 693.904 236.065 692.839 Q238.125 691.751 240.602 691.751 Q245.81 691.751 248.82 694.922 Q251.852 698.07 251.852 703.51 Q251.852 708.834 248.704 712.052 Q245.556 715.269 240.324 715.269 Q234.329 715.269 231.158 710.686 Q227.986 706.08 227.986 697.353 Q227.986 689.159 231.875 684.297 Q235.764 679.413 242.315 679.413 Q244.074 679.413 245.857 679.76 Q247.662 680.108 249.607 680.802 Z" fill="#000000" fill-rule="nonzero" fill-opacity="1" /><path clip-path="url(#clip120)" d="M114.26 354.31 L143.936 354.31 L143.936 358.245 L114.26 358.245 L114.26 354.31 Z" fill="#000000" fill-rule="nonzero" fill-opacity="1" /><path clip-path="url(#clip120)" d="M164.028 339.657 Q160.417 339.657 158.589 343.222 Q156.783 346.763 156.783 353.893 Q156.783 360.999 158.589 364.564 Q160.417 368.106 164.028 368.106 Q167.663 368.106 169.468 364.564 Q171.297 360.999 171.297 353.893 Q171.297 346.763 169.468 343.222 Q167.663 339.657 164.028 339.657 M164.028 335.953 Q169.839 335.953 172.894 340.56 Q175.973 345.143 175.973 353.893 Q175.973 362.62 172.894 367.226 Q169.839 371.809 164.028 371.809 Q158.218 371.809 155.14 367.226 Q152.084 362.62 152.084 353.893 Q152.084 345.143 155.14 340.56 Q158.218 335.953 164.028 335.953 Z" fill="#000000" fill-rule="nonzero" fill-opacity="1" /><path clip-path="url(#clip120)" d="M184.19 365.259 L189.075 365.259 L189.075 371.138 L184.19 371.138 L184.19 365.259 Z" fill="#000000" fill-rule="nonzero" fill-opacity="1" /><path clip-path="url(#clip120)" d="M212.107 340.652 L200.301 359.101 L212.107 359.101 L212.107 340.652 M210.88 336.578 L216.76 336.578 L216.76 359.101 L221.69 359.101 L221.69 362.99 L216.76 362.99 L216.76 371.138 L212.107 371.138 L212.107 362.99 L196.505 362.99 L196.505 358.476 L210.88 336.578 Z" fill="#000000" fill-rule="nonzero" fill-opacity="1" /><path clip-path="url(#clip120)" d="M242.269 340.652 L230.463 359.101 L242.269 359.101 L242.269 340.652 M241.042 336.578 L246.921 336.578 L246.921 359.101 L251.852 359.101 L251.852 362.99 L246.921 362.99 L246.921 371.138 L242.269 371.138 L242.269 362.99 L226.667 362.99 L226.667 358.476 L241.042 336.578 Z" fill="#000000" fill-rule="nonzero" fill-opacity="1" /><path clip-path="url(#clip120)" d="M16.4842 923.589 L16.4842 893.543 L21.895 893.543 L21.895 917.16 L35.9632 917.16 L35.9632 894.53 L41.3741 894.53 L41.3741 917.16 L58.5933 917.16 L58.5933 892.97 L64.0042 892.97 L64.0042 923.589 L16.4842 923.589 Z" fill="#000000" fill-rule="nonzero" fill-opacity="1" /><path clip-path="url(#clip120)" d="M42.4881 853.025 L64.0042 853.025 L64.0042 858.882 L42.679 858.882 Q37.6183 858.882 35.1038 860.855 Q32.5894 862.828 32.5894 866.775 Q32.5894 871.518 35.6131 874.255 Q38.6368 876.992 43.8567 876.992 L64.0042 876.992 L64.0042 882.88 L28.3562 882.88 L28.3562 876.992 L33.8944 876.992 Q30.6797 874.891 29.0883 872.059 Q27.4968 869.194 27.4968 865.47 Q27.4968 859.327 31.3163 856.176 Q35.1038 853.025 42.4881 853.025 Z" fill="#000000" fill-rule="nonzero" fill-opacity="1" /><path clip-path="url(#clip120)" d="M44.7161 810.852 L47.5806 810.852 L47.5806 837.779 Q53.6281 837.397 56.8109 834.151 Q59.9619 830.873 59.9619 825.048 Q59.9619 821.674 59.1344 818.523 Q58.3069 815.34 56.6518 812.221 L62.1899 812.221 Q63.5267 815.372 64.227 818.682 Q64.9272 821.992 64.9272 825.398 Q64.9272 833.928 59.9619 838.925 Q54.9967 843.89 46.5303 843.89 Q37.7774 843.89 32.6531 839.18 Q27.4968 834.437 27.4968 826.417 Q27.4968 819.223 32.1438 815.054 Q36.7589 810.852 44.7161 810.852 M42.9973 816.709 Q38.1912 816.773 35.3266 819.414 Q32.4621 822.024 32.4621 826.353 Q32.4621 831.255 35.2312 834.215 Q38.0002 837.143 43.0292 837.588 L42.9973 816.709 Z" fill="#000000" fill-rule="nonzero" fill-opacity="1" /><path clip-path="url(#clip120)" d="M33.8307 780.584 Q33.2578 781.57 33.0032 782.748 Q32.7167 783.894 32.7167 785.294 Q32.7167 790.259 35.9632 792.933 Q39.1779 795.575 45.2253 795.575 L64.0042 795.575 L64.0042 801.463 L28.3562 801.463 L28.3562 795.575 L33.8944 795.575 Q30.6479 793.729 29.0883 790.769 Q27.4968 787.809 27.4968 783.575 Q27.4968 782.971 27.5923 782.239 Q27.656 781.507 27.8151 780.615 L33.8307 780.584 Z" fill="#000000" fill-rule="nonzero" fill-opacity="1" /><path clip-path="url(#clip120)" d="M45.7664 752.129 Q39.4007 752.129 35.8996 754.771 Q32.3984 757.381 32.3984 762.123 Q32.3984 766.834 35.8996 769.475 Q39.4007 772.085 45.7664 772.085 Q52.1003 772.085 55.6014 769.475 Q59.1026 766.834 59.1026 762.123 Q59.1026 757.381 55.6014 754.771 Q52.1003 752.129 45.7664 752.129 M59.58 746.272 Q68.683 746.272 73.1071 750.315 Q77.5631 754.357 77.5631 762.696 Q77.5631 765.783 77.0857 768.521 Q76.6401 771.258 75.6852 773.836 L69.9879 773.836 Q71.3884 771.258 72.0568 768.743 Q72.7252 766.229 72.7252 763.619 Q72.7252 757.858 69.7015 754.993 Q66.7096 752.129 60.6303 752.129 L57.7339 752.129 Q60.885 753.943 62.4446 756.776 Q64.0042 759.609 64.0042 763.555 Q64.0042 770.112 59.0071 774.122 Q54.01 778.133 45.7664 778.133 Q37.491 778.133 32.4939 774.122 Q27.4968 770.112 27.4968 763.555 Q27.4968 759.609 29.0564 756.776 Q30.616 753.943 33.7671 752.129 L28.3562 752.129 L28.3562 746.272 L59.58 746.272 Z" fill="#000000" fill-rule="nonzero" fill-opacity="1" /><path clip-path="url(#clip120)" d="M67.3143 719.377 Q73.68 721.86 75.6216 724.215 Q77.5631 726.571 77.5631 730.517 L77.5631 735.196 L72.6615 735.196 L72.6615 731.759 Q72.6615 729.34 71.5157 728.003 Q70.3699 726.666 66.1048 725.043 L63.4312 723.992 L28.3562 738.411 L28.3562 732.204 L56.238 721.064 L28.3562 709.924 L28.3562 703.718 L67.3143 719.377 Z" fill="#000000" fill-rule="nonzero" fill-opacity="1" /><path clip-path="url(#clip120)" d="M14.5426 660.845 Q21.8632 665.11 29.0246 667.178 Q36.186 669.247 43.5384 669.247 Q50.8908 669.247 58.1159 667.178 Q65.3091 665.078 72.5979 660.845 L72.5979 665.937 Q65.1182 670.711 57.8931 673.099 Q50.668 675.454 43.5384 675.454 Q36.4406 675.454 29.2474 673.099 Q22.0542 670.743 14.5426 665.937 L14.5426 660.845 Z" fill="#000000" fill-rule="nonzero" fill-opacity="1" /><path clip-path="url(#clip120)" d="M16.4842 649.227 L16.4842 642.798 L35.9632 642.798 L35.9632 619.436 L16.4842 619.436 L16.4842 613.006 L64.0042 613.006 L64.0042 619.436 L41.3741 619.436 L41.3741 642.798 L64.0042 642.798 L64.0042 649.227 L16.4842 649.227 Z" fill="#000000" fill-rule="nonzero" fill-opacity="1" /><path clip-path="url(#clip120)" d="M46.0847 584.265 Q46.0847 591.363 47.7079 594.1 Q49.3312 596.837 53.2461 596.837 Q56.3653 596.837 58.2114 594.8 Q60.0256 592.732 60.0256 589.199 Q60.0256 584.329 56.5881 581.401 Q53.1188 578.441 47.3897 578.441 L46.0847 578.441 L46.0847 584.265 M43.6657 572.584 L64.0042 572.584 L64.0042 578.441 L58.5933 578.441 Q61.8398 580.446 63.3994 583.438 Q64.9272 586.429 64.9272 590.758 Q64.9272 596.233 61.8716 599.479 Q58.7843 602.694 53.6281 602.694 Q47.6125 602.694 44.5569 598.683 Q41.5014 594.641 41.5014 586.652 L41.5014 578.441 L40.9285 578.441 Q36.8862 578.441 34.6901 581.114 Q32.4621 583.756 32.4621 588.562 Q32.4621 591.618 33.1941 594.514 Q33.9262 597.41 35.3903 600.084 L29.9795 600.084 Q28.7381 596.869 28.1334 593.846 Q27.4968 590.822 27.4968 587.957 Q27.4968 580.223 31.5072 576.404 Q35.5176 572.584 43.6657 572.584 Z" fill="#000000" fill-rule="nonzero" fill-opacity="1" /><path clip-path="url(#clip120)" d="M14.5426 561.444 L14.5426 556.352 Q22.0542 551.577 29.2474 549.222 Q36.4406 546.835 43.5384 546.835 Q50.668 546.835 57.8931 549.222 Q65.1182 551.577 72.5979 556.352 L72.5979 561.444 Q65.3091 557.211 58.1159 555.142 Q50.8908 553.041 43.5384 553.041 Q36.186 553.041 29.0246 555.142 Q21.8632 557.211 14.5426 561.444 Z" fill="#000000" fill-rule="nonzero" fill-opacity="1" /><polyline clip-path="url(#clip121)" style="stroke:#009af9; stroke-linecap:round; stroke-linejoin:round; stroke-width:8; stroke-opacity:1; fill:none" points="346.293,86.1857 523.386,1140.6 700.479,1332.36 877.572,1371.85 1054.66,1380.97 1231.76,1383.3 1408.85,1383.32 1585.94,1383.83 1763.04,1383.95 1940.13,1384.03 2117.22,1384.14 2294.32,1384.15 "/>
<circle clip-path="url(#clip121)" cx="346.293" cy="86.1857" r="14.4" fill="#009af9" fill-rule="evenodd" fill-opacity="1" stroke="#000000" stroke-opacity="1" stroke-width="3.2"/>
<circle clip-path="url(#clip121)" cx="523.386" cy="1140.6" r="14.4" fill="#009af9" fill-rule="evenodd" fill-opacity="1" stroke="#000000" stroke-opacity="1" stroke-width="3.2"/>
<circle clip-path="url(#clip121)" cx="700.479" cy="1332.36" r="14.4" fill="#009af9" fill-rule="evenodd" fill-opacity="1" stroke="#000000" stroke-opacity="1" stroke-width="3.2"/>
<circle clip-path="url(#clip121)" cx="877.572" cy="1371.85" r="14.4" fill="#009af9" fill-rule="evenodd" fill-opacity="1" stroke="#000000" stroke-opacity="1" stroke-width="3.2"/>
<circle clip-path="url(#clip121)" cx="1054.66" cy="1380.97" r="14.4" fill="#009af9" fill-rule="evenodd" fill-opacity="1" stroke="#000000" stroke-opacity="1" stroke-width="3.2"/>
<circle clip-path="url(#clip121)" cx="1231.76" cy="1383.3" r="14.4" fill="#009af9" fill-rule="evenodd" fill-opacity="1" stroke="#000000" stroke-opacity="1" stroke-width="3.2"/>
<circle clip-path="url(#clip121)" cx="1408.85" cy="1383.32" r="14.4" fill="#009af9" fill-rule="evenodd" fill-opacity="1" stroke="#000000" stroke-opacity="1" stroke-width="3.2"/>
<circle clip-path="url(#clip121)" cx="1585.94" cy="1383.83" r="14.4" fill="#009af9" fill-rule="evenodd" fill-opacity="1" stroke="#000000" stroke-opacity="1" stroke-width="3.2"/>
<circle clip-path="url(#clip121)" cx="1763.04" cy="1383.95" r="14.4" fill="#009af9" fill-rule="evenodd" fill-opacity="1" stroke="#000000" stroke-opacity="1" stroke-width="3.2"/>
<circle clip-path="url(#clip121)" cx="1940.13" cy="1384.03" r="14.4" fill="#009af9" fill-rule="evenodd" fill-opacity="1" stroke="#000000" stroke-opacity="1" stroke-width="3.2"/>
<circle clip-path="url(#clip121)" cx="2117.22" cy="1384.14" r="14.4" fill="#009af9" fill-rule="evenodd" fill-opacity="1" stroke="#000000" stroke-opacity="1" stroke-width="3.2"/>
<circle clip-path="url(#clip121)" cx="2294.32" cy="1384.15" r="14.4" fill="#009af9" fill-rule="evenodd" fill-opacity="1" stroke="#000000" stroke-opacity="1" stroke-width="3.2"/>
<polyline clip-path="url(#clip121)" style="stroke:#000000; stroke-linecap:round; stroke-linejoin:round; stroke-width:4; stroke-opacity:1; fill:none" stroke-dasharray="16, 10" points="-1777.05,1384.24 4417.66,1384.24 "/>
<path clip-path="url(#clip120)" d="M1717 248.629 L2283.93 248.629 L2283.93 93.1086 L1717 93.1086  Z" fill="#ffffff" fill-rule="evenodd" fill-opacity="1"/>
<polyline clip-path="url(#clip120)" style="stroke:#000000; stroke-linecap:round; stroke-linejoin:round; stroke-width:4; stroke-opacity:1; fill:none" points="1717,248.629 2283.93,248.629 2283.93,93.1086 1717,93.1086 1717,248.629 "/>
<polyline clip-path="url(#clip120)" style="stroke:#009af9; stroke-linecap:round; stroke-linejoin:round; stroke-width:8; stroke-opacity:1; fill:none" points="1739.94,144.949 1877.6,144.949 "/>
<circle clip-path="url(#clip120)" cx="1808.77" cy="144.949" r="19.1195" fill="#009af9" fill-rule="evenodd" fill-opacity="1" stroke="#000000" stroke-opacity="1" stroke-width="4.55111"/>
<path clip-path="url(#clip120)" d="M1922.79 128.803 L1922.79 133.363 Q1920.13 132.09 1917.77 131.465 Q1915.41 130.84 1913.21 130.84 Q1909.39 130.84 1907.3 132.321 Q1905.24 133.803 1905.24 136.534 Q1905.24 138.826 1906.61 140.007 Q1908 141.164 1911.84 141.882 L1914.66 142.46 Q1919.9 143.456 1922.37 145.979 Q1924.87 148.479 1924.87 152.692 Q1924.87 157.715 1921.49 160.307 Q1918.14 162.9 1911.63 162.9 Q1909.18 162.9 1906.4 162.344 Q1903.65 161.789 1900.68 160.701 L1900.68 155.886 Q1903.53 157.483 1906.26 158.293 Q1908.99 159.104 1911.63 159.104 Q1915.64 159.104 1917.81 157.53 Q1919.99 155.956 1919.99 153.039 Q1919.99 150.493 1918.41 149.057 Q1916.86 147.622 1913.3 146.905 L1910.45 146.349 Q1905.22 145.307 1902.88 143.085 Q1900.54 140.863 1900.54 136.905 Q1900.54 132.321 1903.76 129.682 Q1907 127.044 1912.67 127.044 Q1915.1 127.044 1917.63 127.483 Q1920.15 127.923 1922.79 128.803 Z" fill="#000000" fill-rule="nonzero" fill-opacity="1" /><path clip-path="url(#clip120)" d="M1954.16 148.201 L1954.16 150.284 L1934.57 150.284 Q1934.85 154.682 1937.21 156.997 Q1939.6 159.289 1943.83 159.289 Q1946.29 159.289 1948.58 158.687 Q1950.89 158.085 1953.16 156.881 L1953.16 160.909 Q1950.87 161.881 1948.46 162.391 Q1946.05 162.9 1943.58 162.9 Q1937.37 162.9 1933.74 159.289 Q1930.13 155.678 1930.13 149.52 Q1930.13 143.155 1933.55 139.428 Q1937 135.678 1942.84 135.678 Q1948.07 135.678 1951.1 139.057 Q1954.16 142.414 1954.16 148.201 M1949.9 146.951 Q1949.85 143.456 1947.93 141.372 Q1946.03 139.289 1942.88 139.289 Q1939.32 139.289 1937.16 141.303 Q1935.04 143.317 1934.71 146.974 L1949.9 146.951 Z" fill="#000000" fill-rule="nonzero" fill-opacity="1" /><path clip-path="url(#clip120)" d="M1963.69 149.289 Q1963.69 153.988 1965.61 156.673 Q1967.56 159.335 1970.94 159.335 Q1974.32 159.335 1976.26 156.673 Q1978.21 153.988 1978.21 149.289 Q1978.21 144.59 1976.26 141.928 Q1974.32 139.243 1970.94 139.243 Q1967.56 139.243 1965.61 141.928 Q1963.69 144.59 1963.69 149.289 M1978.21 158.34 Q1976.86 160.655 1974.8 161.789 Q1972.77 162.9 1969.9 162.9 Q1965.2 162.9 1962.23 159.15 Q1959.29 155.4 1959.29 149.289 Q1959.29 143.178 1962.23 139.428 Q1965.2 135.678 1969.9 135.678 Q1972.77 135.678 1974.8 136.812 Q1976.86 137.923 1978.21 140.238 L1978.21 136.303 L1982.47 136.303 L1982.47 172.09 L1978.21 172.09 L1978.21 158.34 Z" fill="#000000" fill-rule="nonzero" fill-opacity="1" /><path clip-path="url(#clip120)" d="M1990.8 151.997 L1990.8 136.303 L1995.06 136.303 L1995.06 151.835 Q1995.06 155.516 1996.49 157.368 Q1997.93 159.196 2000.8 159.196 Q2004.25 159.196 2006.24 156.997 Q2008.25 154.798 2008.25 151.002 L2008.25 136.303 L2012.51 136.303 L2012.51 162.229 L2008.25 162.229 L2008.25 158.247 Q2006.7 160.608 2004.64 161.766 Q2002.6 162.9 1999.9 162.9 Q1995.43 162.9 1993.11 160.122 Q1990.8 157.344 1990.8 151.997 M2001.52 135.678 L2001.52 135.678 Z" fill="#000000" fill-rule="nonzero" fill-opacity="1" /><path clip-path="url(#clip120)" d="M2043.46 148.201 L2043.46 150.284 L2023.88 150.284 Q2024.15 154.682 2026.52 156.997 Q2028.9 159.289 2033.14 159.289 Q2035.59 159.289 2037.88 158.687 Q2040.2 158.085 2042.47 156.881 L2042.47 160.909 Q2040.17 161.881 2037.77 162.391 Q2035.36 162.9 2032.88 162.9 Q2026.68 162.9 2023.04 159.289 Q2019.43 155.678 2019.43 149.52 Q2019.43 143.155 2022.86 139.428 Q2026.31 135.678 2032.14 135.678 Q2037.37 135.678 2040.4 139.057 Q2043.46 142.414 2043.46 148.201 M2039.2 146.951 Q2039.15 143.456 2037.23 141.372 Q2035.34 139.289 2032.19 139.289 Q2028.62 139.289 2026.47 141.303 Q2024.34 143.317 2024.02 146.974 L2039.2 146.951 Z" fill="#000000" fill-rule="nonzero" fill-opacity="1" /><path clip-path="url(#clip120)" d="M2072 146.581 L2072 162.229 L2067.74 162.229 L2067.74 146.719 Q2067.74 143.039 2066.31 141.21 Q2064.87 139.382 2062 139.382 Q2058.55 139.382 2056.56 141.581 Q2054.57 143.78 2054.57 147.576 L2054.57 162.229 L2050.29 162.229 L2050.29 136.303 L2054.57 136.303 L2054.57 140.331 Q2056.1 137.993 2058.16 136.835 Q2060.24 135.678 2062.95 135.678 Q2067.42 135.678 2069.71 138.456 Q2072 141.21 2072 146.581 Z" fill="#000000" fill-rule="nonzero" fill-opacity="1" /><path clip-path="url(#clip120)" d="M2084.71 128.942 L2084.71 136.303 L2093.48 136.303 L2093.48 139.613 L2084.71 139.613 L2084.71 153.687 Q2084.71 156.858 2085.57 157.761 Q2086.45 158.664 2089.11 158.664 L2093.48 158.664 L2093.48 162.229 L2089.11 162.229 Q2084.18 162.229 2082.3 160.4 Q2080.43 158.548 2080.43 153.687 L2080.43 139.613 L2077.3 139.613 L2077.3 136.303 L2080.43 136.303 L2080.43 128.942 L2084.71 128.942 Z" fill="#000000" fill-rule="nonzero" fill-opacity="1" /><path clip-path="url(#clip120)" d="M2099.09 136.303 L2103.34 136.303 L2103.34 162.229 L2099.09 162.229 L2099.09 136.303 M2099.09 126.21 L2103.34 126.21 L2103.34 131.604 L2099.09 131.604 L2099.09 126.21 Z" fill="#000000" fill-rule="nonzero" fill-opacity="1" /><path clip-path="url(#clip120)" d="M2124.04 149.196 Q2118.88 149.196 2116.89 150.377 Q2114.9 151.557 2114.9 154.405 Q2114.9 156.673 2116.38 158.016 Q2117.88 159.335 2120.45 159.335 Q2123.99 159.335 2126.12 156.835 Q2128.27 154.312 2128.27 150.145 L2128.27 149.196 L2124.04 149.196 M2132.53 147.437 L2132.53 162.229 L2128.27 162.229 L2128.27 158.293 Q2126.82 160.655 2124.64 161.789 Q2122.46 162.9 2119.32 162.9 Q2115.34 162.9 2112.97 160.678 Q2110.64 158.432 2110.64 154.682 Q2110.64 150.307 2113.55 148.085 Q2116.49 145.863 2122.3 145.863 L2128.27 145.863 L2128.27 145.446 Q2128.27 142.507 2126.33 140.909 Q2124.41 139.289 2120.91 139.289 Q2118.69 139.289 2116.59 139.821 Q2114.48 140.354 2112.53 141.419 L2112.53 137.483 Q2114.87 136.581 2117.07 136.141 Q2119.27 135.678 2121.35 135.678 Q2126.98 135.678 2129.76 138.594 Q2132.53 141.511 2132.53 147.437 Z" fill="#000000" fill-rule="nonzero" fill-opacity="1" /><path clip-path="url(#clip120)" d="M2141.31 126.21 L2145.57 126.21 L2145.57 162.229 L2141.31 162.229 L2141.31 126.21 Z" fill="#000000" fill-rule="nonzero" fill-opacity="1" /><path clip-path="url(#clip120)" d="M2169.73 127.669 L2191.58 127.669 L2191.58 131.604 L2174.41 131.604 L2174.41 141.835 L2190.87 141.835 L2190.87 145.77 L2174.41 145.77 L2174.41 158.293 L2192 158.293 L2192 162.229 L2169.73 162.229 L2169.73 127.669 Z" fill="#000000" fill-rule="nonzero" fill-opacity="1" /><path clip-path="url(#clip120)" d="M2225.57 130.331 L2225.57 135.261 Q2223.2 133.062 2220.52 131.974 Q2217.86 130.886 2214.85 130.886 Q2208.92 130.886 2205.77 134.52 Q2202.63 138.132 2202.63 144.983 Q2202.63 151.812 2205.77 155.446 Q2208.92 159.057 2214.85 159.057 Q2217.86 159.057 2220.52 157.969 Q2223.2 156.881 2225.57 154.682 L2225.57 159.567 Q2223.11 161.233 2220.36 162.067 Q2217.63 162.9 2214.57 162.9 Q2206.72 162.9 2202.21 158.108 Q2197.7 153.293 2197.7 144.983 Q2197.7 136.65 2202.21 131.858 Q2206.72 127.044 2214.57 127.044 Q2217.67 127.044 2220.4 127.877 Q2223.16 128.687 2225.57 130.331 Z" fill="#000000" fill-rule="nonzero" fill-opacity="1" /><path clip-path="url(#clip120)" d="M2256.35 157.298 L2256.35 148.016 L2248.71 148.016 L2248.71 144.173 L2260.98 144.173 L2260.98 159.011 Q2258.27 160.932 2255.01 161.928 Q2251.75 162.9 2248.04 162.9 Q2239.94 162.9 2235.36 158.178 Q2230.8 153.432 2230.8 144.983 Q2230.8 136.511 2235.36 131.789 Q2239.94 127.044 2248.04 127.044 Q2251.42 127.044 2254.45 127.877 Q2257.51 128.71 2260.08 130.331 L2260.08 135.307 Q2257.49 133.108 2254.57 131.997 Q2251.65 130.886 2248.44 130.886 Q2242.09 130.886 2238.9 134.428 Q2235.73 137.969 2235.73 144.983 Q2235.73 151.974 2238.9 155.516 Q2242.09 159.057 2248.44 159.057 Q2250.91 159.057 2252.86 158.641 Q2254.8 158.201 2256.35 157.298 Z" fill="#000000" fill-rule="nonzero" fill-opacity="1" /><polyline clip-path="url(#clip120)" style="stroke:#000000; stroke-linecap:round; stroke-linejoin:round; stroke-width:4; stroke-opacity:1; fill:none" stroke-dasharray="16, 10" points="1739.94,196.789 1877.6,196.789 "/>
<path clip-path="url(#clip120)" d="M1900.54 179.509 L1922.4 179.509 L1922.4 183.444 L1905.22 183.444 L1905.22 193.675 L1921.68 193.675 L1921.68 197.61 L1905.22 197.61 L1905.22 210.133 L1922.81 210.133 L1922.81 214.069 L1900.54 214.069 L1900.54 179.509 Z" fill="#000000" fill-rule="nonzero" fill-opacity="1" /><path clip-path="url(#clip120)" d="M1951.86 188.143 L1942.49 200.759 L1952.35 214.069 L1947.33 214.069 L1939.78 203.883 L1932.23 214.069 L1927.21 214.069 L1937.28 200.504 L1928.07 188.143 L1933.09 188.143 L1939.97 197.379 L1946.84 188.143 L1951.86 188.143 Z" fill="#000000" fill-rule="nonzero" fill-opacity="1" /><path clip-path="url(#clip120)" d="M1970.15 201.036 Q1964.99 201.036 1963 202.217 Q1961.01 203.397 1961.01 206.245 Q1961.01 208.513 1962.49 209.856 Q1963.99 211.175 1966.56 211.175 Q1970.1 211.175 1972.23 208.675 Q1974.39 206.152 1974.39 201.985 L1974.39 201.036 L1970.15 201.036 M1978.65 199.277 L1978.65 214.069 L1974.39 214.069 L1974.39 210.133 Q1972.93 212.495 1970.75 213.629 Q1968.58 214.74 1965.43 214.74 Q1961.45 214.74 1959.09 212.518 Q1956.75 210.272 1956.75 206.522 Q1956.75 202.147 1959.66 199.925 Q1962.6 197.703 1968.41 197.703 L1974.39 197.703 L1974.39 197.286 Q1974.39 194.347 1972.44 192.749 Q1970.52 191.129 1967.03 191.129 Q1964.8 191.129 1962.7 191.661 Q1960.59 192.194 1958.65 193.259 L1958.65 189.323 Q1960.98 188.421 1963.18 187.981 Q1965.38 187.518 1967.47 187.518 Q1973.09 187.518 1975.87 190.434 Q1978.65 193.351 1978.65 199.277 Z" fill="#000000" fill-rule="nonzero" fill-opacity="1" /><path clip-path="url(#clip120)" d="M2006.08 189.138 L2006.08 193.12 Q2004.27 192.124 2002.44 191.638 Q2000.64 191.129 1998.78 191.129 Q1994.64 191.129 1992.35 193.768 Q1990.06 196.384 1990.06 201.129 Q1990.06 205.874 1992.35 208.513 Q1994.64 211.129 1998.78 211.129 Q2000.64 211.129 2002.44 210.643 Q2004.27 210.133 2006.08 209.138 L2006.08 213.073 Q2004.29 213.907 2002.37 214.323 Q2000.47 214.74 1998.32 214.74 Q1992.47 214.74 1989.02 211.059 Q1985.57 207.379 1985.57 201.129 Q1985.57 194.786 1989.04 191.152 Q1992.53 187.518 1998.6 187.518 Q2000.57 187.518 2002.44 187.935 Q2004.32 188.328 2006.08 189.138 Z" fill="#000000" fill-rule="nonzero" fill-opacity="1" /><path clip-path="url(#clip120)" d="M2017.7 180.782 L2017.7 188.143 L2026.47 188.143 L2026.47 191.453 L2017.7 191.453 L2017.7 205.527 Q2017.7 208.698 2018.55 209.601 Q2019.43 210.504 2022.09 210.504 L2026.47 210.504 L2026.47 214.069 L2022.09 214.069 Q2017.16 214.069 2015.29 212.24 Q2013.41 210.388 2013.41 205.527 L2013.41 191.453 L2010.29 191.453 L2010.29 188.143 L2013.41 188.143 L2013.41 180.782 L2017.7 180.782 Z" fill="#000000" fill-rule="nonzero" fill-opacity="1" /></svg>
