<?xml version="1.0" encoding="utf-8"?>
<svg xmlns="http://www.w3.org/2000/svg" xmlns:xlink="http://www.w3.org/1999/xlink" width="640" height="420" viewBox="0 0 2560 1680">
<defs>
  <clipPath id="clip160">
    <rect x="0" y="0" width="2560" height="1680"/>
  </clipPath>
</defs>
<path clip-path="url(#clip160)" d="M0 1680 L2560 1680 L2560 0 L0 0  Z" fill="#ffffff" fill-rule="evenodd" fill-opacity="1"/>
<defs>
  <clipPath id="clip161">
    <rect x="305" y="114" width="2208" height="1359"/>
  </clipPath>
</defs>
<path clip-path="url(#clip160)" d="M305.958 1472.17 L2512.76 1472.17 L2512.76 114.022 L305.958 114.022  Z" fill="#ffffff" fill-rule="evenodd" fill-opacity="1"/>
<polyline clip-path="url(#clip161)" style="stroke:#000000; stroke-linecap:round; stroke-linejoin:round; stroke-width:2; stroke-opacity:0.12; fill:none" points="342.061,1472.17 342.061,114.022 "/>
<polyline clip-path="url(#clip161)" style="stroke:#000000; stroke-linecap:round; stroke-linejoin:round; stroke-width:2; stroke-opacity:0.12; fill:none" points="869.121,1472.17 869.121,114.022 "/>
<polyline clip-path="url(#clip161)" style="stroke:#000000; stroke-linecap:round; stroke-linejoin:round; stroke-width:2; stroke-opacity:0.12; fill:none" points="1396.18,1472.17 1396.18,114.022 "/>
<polyline clip-path="url(#clip161)" style="stroke:#000000; stroke-linecap:round; stroke-linejoin:round; stroke-width:2; stroke-opacity:0.12; fill:none" points="1923.24,1472.17 1923.24,114.022 "/>
<polyline clip-path="url(#clip161)" style="stroke:#000000; stroke-linecap:round; stroke-linejoin:round; stroke-width:2; stroke-opacity:0.12; fill:none" points="2450.3,1472.17 2450.3,114.022 "/>
<polyline clip-path="url(#clip161)" style="stroke:#000000; stroke-linecap:round; stroke-linejoin:round; stroke-width:2; stroke-opacity:0.12; fill:none" points="342.061,1472.17 342.061,114.022 "/>
<polyline clip-path="url(#clip161)" style="stroke:#000000; stroke-linecap:round; stroke-linejoin:round; stroke-width:2; stroke-opacity:0.12; fill:none" points="869.121,1472.17 869.121,114.022 "/>
<polyline clip-path="url(#clip161)" style="stroke:#000000; stroke-linecap:round; stroke-linejoin:round; stroke-width:2; stroke-opacity:0.12; fill:none" points="1396.18,1472.17 1396.18,114.022 "/>
<polyline clip-path="url(#clip161)" style="stroke:#000000; stroke-linecap:round; stroke-linejoin:round; stroke-width:2; stroke-opacity:0.12; fill:none" points="1923.24,1472.17 1923.24,114.022 "/>
<polyline clip-path="url(#clip161)" style="stroke:#000000; stroke-linecap:round; stroke-linejoin:round; stroke-width:2; stroke-opacity:0.12; fill:none" points="2450.3,1472.17 2450.3,114.022 "/>
<polyline clip-path="url(#clip161)" style="stroke:#000000; stroke-linecap:round; stroke-linejoin:round; stroke-width:2; stroke-opacity:0.12; fill:none" points="305.958,1350.92 2512.76,1350.92 "/>
<polyline clip-path="url(#clip161)" style="stroke:#000000; stroke-linecap:round; stroke-linejoin:round; stroke-width:2; stroke-opacity:0.12; fill:none" points="305.958,1102.49 2512.76,1102.49 "/>
<polyline clip-path="url(#clip161)" style="stroke:#000000; stroke-linecap:round; stroke-linejoin:round; stroke-width:2; stroke-opacity:0.12; fill:none" points="305.958,854.062 2512.76,854.062 "/>
<polyline clip-path="url(#clip161)" style="stroke:#000000; stroke-linecap:round; stroke-linejoin:round; stroke-width:2; stroke-opacity:0.12; fill:none" points="305.958,605.633 2512.76,605.633 "/>
<polyline clip-path="url(#clip161)" style="stroke:#000000; stroke-linecap:round; stroke-linejoin:round; stroke-width:2; stroke-opacity:0.12; fill:none" points="305.958,357.205 2512.76,357.205 "/>
<polyline clip-path="url(#clip161)" style="stroke:#000000; stroke-linecap:round; stroke-linejoin:round; stroke-width:2; stroke-opacity:0.12; fill:none" points="305.958,1350.92 2512.76,1350.92 "/>
<polyline clip-path="url(#clip161)" style="stroke:#000000; stroke-linecap:round; stroke-linejoin:round; stroke-width:2; stroke-opacity:0.12; fill:none" points="305.958,1102.49 2512.76,1102.49 "/>
<polyline clip-path="url(#clip161)" style="stroke:#000000; stroke-linecap:round; stroke-linejoin:round; stroke-width:2; stroke-opacity:0.12; fill:none" points="305.958,854.062 2512.76,854.062 "/>
<polyline clip-path="url(#clip161)" style="stroke:#000000; stroke-linecap:round; stroke-linejoin:round; stroke-width:2; stroke-opacity:0.12; fill:none" points="305.958,605.633 2512.76,605.633 "/>
<polyline clip-path="url(#clip161)" style="stroke:#000000; stroke-linecap:round; stroke-linejoin:round; stroke-width:2; stroke-opacity:0.12; fill:none" points="305.958,357.205 2512.76,357.205 "/>
<polyline clip-path="url(#clip160)" style="stroke:#000000; stroke-linecap:round; stroke-linejoin:round; stroke-width:4; stroke-opacity:1; fill:none" points="305.958,1472.17 2512.76,1472.17 "/>
<polyline clip-path="url(#clip160)" style="stroke:#000000; stroke-linecap:round; stroke-linejoin:round; stroke-width:4; stroke-opacity:1; fill:none" points="305.958,114.022 2512.76,114.022 "/>
<polyline clip-path="url(#clip160)" style="stroke:#000000; stroke-linecap:round; stroke-linejoin:round; stroke-width:4; stroke-opacity:1; fill:none" points="342.061,1472.17 342.061,1453.27 "/>
<polyline clip-path="url(#clip160)" style="stroke:#000000; stroke-linecap:round; stroke-linejoin:round; stroke-width:4; stroke-opacity:1; fill:none" points="869.121,1472.17 869.121,1453.27 "/>
<polyline clip-path="url(#clip160)" style="stroke:#000000; stroke-linecap:round; stroke-linejoin:round; stroke-width:4; stroke-opacity:1; fill:none" points="1396.18,1472.17 1396.18,1453.27 "/>
<polyline clip-path="url(#clip160)" style="stroke:#000000; stroke-linecap:round; stroke-linejoin:round; stroke-width:4; stroke-opacity:1; fill:none" points="1923.24,1472.17 1923.24,1453.27 "/>
<polyline clip-path="url(#clip160)" style="stroke:#000000; stroke-linecap:round; stroke-linejoin:round; stroke-width:4; stroke-opacity:1; fill:none" points="2450.3,1472.17 2450.3,1453.27 "/>
<polyline clip-path="url(#clip160)" style="stroke:#000000; stroke-linecap:round; stroke-linejoin:round; stroke-width:4; stroke-opacity:1; fill:none" points="342.061,114.022 342.061,132.92 "/>
<polyline clip-path="url(#clip160)" style="stroke:#000000; stroke-linecap:round; stroke-linejoin:round; stroke-width:4; stroke-opacity:1; fill:none" points="869.121,114.022 869.121,132.92 "/>
<polyline clip-path="url(#clip160)" style="stroke:#000000; stroke-linecap:round; stroke-linejoin:round; stroke-width:4; stroke-opacity:1; fill:none" points="1396.18,114.022 1396.18,132.92 "/>
<polyline clip-path="url(#clip160)" style="stroke:#000000; stroke-linecap:round; stroke-linejoin:round; stroke-width:4; stroke-opacity:1; fill:none" points="1923.24,114.022 1923.24,132.92 "/>
<polyline clip-path="url(#clip160)" style="stroke:#000000; stroke-linecap:round; stroke-linejoin:round; stroke-width:4; stroke-opacity:1; fill:none" points="2450.3,114.022 2450.3,132.92 "/>
<path clip-path="url(#clip160)" d="M342.061 1505.83 Q337.999 1505.83 335.941 1509.84 Q333.91 1513.82 333.91 1521.85 Q333.91 1529.84 335.941 1533.85 Q337.999 1537.83 342.061 1537.83 Q346.15 1537.83 348.181 1533.85 Q350.238 1529.84 350.238 1521.85 Q350.238 1513.82 348.181 1509.84 Q346.15 1505.83 342.061 1505.83 M342.061 1501.66 Q348.598 1501.66 352.035 1506.85 Q355.499 1512 355.499 1521.85 Q355.499 1531.66 352.035 1536.85 Q348.598 1542 342.061 1542 Q335.525 1542 332.061 1536.85 Q328.624 1531.66 328.624 1521.85 Q328.624 1512 332.061 1506.85 Q335.525 1501.66 342.061 1501.66 Z" fill="#000000" fill-rule="nonzero" fill-opacity="1" /><path clip-path="url(#clip160)" d="M845.241 1536.82 L863.6 1536.82 L863.6 1541.25 L838.913 1541.25 L838.913 1536.82 Q841.907 1533.72 847.064 1528.51 Q852.246 1523.28 853.574 1521.77 Q856.1 1518.93 857.09 1516.98 Q858.105 1515 858.105 1513.1 Q858.105 1510 855.918 1508.04 Q853.756 1506.09 850.267 1506.09 Q847.793 1506.09 845.032 1506.95 Q842.298 1507.81 839.173 1509.55 L839.173 1504.24 Q842.35 1502.97 845.11 1502.31 Q847.871 1501.66 850.162 1501.66 Q856.204 1501.66 859.798 1504.68 Q863.392 1507.7 863.392 1512.76 Q863.392 1515.15 862.48 1517.31 Q861.595 1519.45 859.225 1522.37 Q858.574 1523.12 855.084 1526.74 Q851.595 1530.33 845.241 1536.82 Z" fill="#000000" fill-rule="nonzero" fill-opacity="1" /><path clip-path="url(#clip160)" d="M885.891 1505.83 Q881.829 1505.83 879.772 1509.84 Q877.74 1513.82 877.74 1521.85 Q877.74 1529.84 879.772 1533.85 Q881.829 1537.83 885.891 1537.83 Q889.98 1537.83 892.011 1533.85 Q894.069 1529.84 894.069 1521.85 Q894.069 1513.82 892.011 1509.84 Q889.98 1505.83 885.891 1505.83 M885.891 1501.66 Q892.428 1501.66 895.865 1506.85 Q899.329 1512 899.329 1521.85 Q899.329 1531.66 895.865 1536.85 Q892.428 1542 885.891 1542 Q879.355 1542 875.892 1536.85 Q872.454 1531.66 872.454 1521.85 Q872.454 1512 875.892 1506.85 Q879.355 1501.66 885.891 1501.66 Z" fill="#000000" fill-rule="nonzero" fill-opacity="1" /><path clip-path="url(#clip160)" d="M1382.87 1506.95 L1369.59 1527.7 L1382.87 1527.7 L1382.87 1506.95 M1381.49 1502.37 L1388.11 1502.37 L1388.11 1527.7 L1393.65 1527.7 L1393.65 1532.08 L1388.11 1532.08 L1388.11 1541.25 L1382.87 1541.25 L1382.87 1532.08 L1365.32 1532.08 L1365.32 1527 L1381.49 1502.37 Z" fill="#000000" fill-rule="nonzero" fill-opacity="1" /><path clip-path="url(#clip160)" d="M1413.6 1505.83 Q1409.54 1505.83 1407.48 1509.84 Q1405.45 1513.82 1405.45 1521.85 Q1405.45 1529.84 1407.48 1533.85 Q1409.54 1537.83 1413.6 1537.83 Q1417.69 1537.83 1419.72 1533.85 Q1421.78 1529.84 1421.78 1521.85 Q1421.78 1513.82 1419.72 1509.84 Q1417.69 1505.83 1413.6 1505.83 M1413.6 1501.66 Q1420.14 1501.66 1423.58 1506.85 Q1427.04 1512 1427.04 1521.85 Q1427.04 1531.66 1423.58 1536.85 Q1420.14 1542 1413.6 1542 Q1407.07 1542 1403.6 1536.85 Q1400.16 1531.66 1400.16 1521.85 Q1400.16 1512 1403.6 1506.85 Q1407.07 1501.66 1413.6 1501.66 Z" fill="#000000" fill-rule="nonzero" fill-opacity="1" /><path clip-path="url(#clip160)" d="M1906.82 1519.71 Q1903.28 1519.71 1901.2 1522.13 Q1899.14 1524.55 1899.14 1528.77 Q1899.14 1532.97 1901.2 1535.41 Q1903.28 1537.83 1906.82 1537.83 Q1910.36 1537.83 1912.42 1535.41 Q1914.5 1532.97 1914.5 1528.77 Q1914.5 1524.55 1912.42 1522.13 Q1910.36 1519.71 1906.82 1519.71 M1917.26 1503.23 L1917.26 1508.02 Q1915.28 1507.08 1913.25 1506.59 Q1911.25 1506.09 1909.27 1506.09 Q1904.06 1506.09 1901.3 1509.61 Q1898.57 1513.12 1898.17 1520.23 Q1899.71 1517.97 1902.03 1516.77 Q1904.35 1515.54 1907.13 1515.54 Q1912.99 1515.54 1916.38 1519.11 Q1919.79 1522.65 1919.79 1528.77 Q1919.79 1534.76 1916.25 1538.38 Q1912.71 1542 1906.82 1542 Q1900.08 1542 1896.51 1536.85 Q1892.94 1531.66 1892.94 1521.85 Q1892.94 1512.63 1897.32 1507.16 Q1901.69 1501.66 1909.06 1501.66 Q1911.04 1501.66 1913.04 1502.05 Q1915.08 1502.44 1917.26 1503.23 Z" fill="#000000" fill-rule="nonzero" fill-opacity="1" /><path clip-path="url(#clip160)" d="M1940.1 1505.83 Q1936.04 1505.83 1933.98 1509.84 Q1931.95 1513.82 1931.95 1521.85 Q1931.95 1529.84 1933.98 1533.85 Q1936.04 1537.83 1940.1 1537.83 Q1944.19 1537.83 1946.22 1533.85 Q1948.28 1529.84 1948.28 1521.85 Q1948.28 1513.82 1946.22 1509.84 Q1944.19 1505.83 1940.1 1505.83 M1940.1 1501.66 Q1946.64 1501.66 1950.08 1506.85 Q1953.54 1512 1953.54 1521.85 Q1953.54 1531.66 1950.08 1536.85 Q1946.64 1542 1940.1 1542 Q1933.57 1542 1930.1 1536.85 Q1926.66 1531.66 1926.66 1521.85 Q1926.66 1512 1930.1 1506.85 Q1933.57 1501.66 1940.1 1501.66 Z" fill="#000000" fill-rule="nonzero" fill-opacity="1" /><path clip-path="url(#clip160)" d="M2433.28 1522.78 Q2429.53 1522.78 2427.37 1524.79 Q2425.23 1526.79 2425.23 1530.31 Q2425.23 1533.82 2427.37 1535.83 Q2429.53 1537.83 2433.28 1537.83 Q2437.03 1537.83 2439.19 1535.83 Q2441.35 1533.8 2441.35 1530.31 Q2441.35 1526.79 2439.19 1524.79 Q2437.06 1522.78 2433.28 1522.78 M2428.02 1520.54 Q2424.64 1519.71 2422.73 1517.39 Q2420.86 1515.07 2420.86 1511.74 Q2420.86 1507.08 2424.17 1504.37 Q2427.5 1501.66 2433.28 1501.66 Q2439.09 1501.66 2442.4 1504.37 Q2445.7 1507.08 2445.7 1511.74 Q2445.7 1515.07 2443.8 1517.39 Q2441.93 1519.71 2438.57 1520.54 Q2442.37 1521.43 2444.48 1524.01 Q2446.61 1526.58 2446.61 1530.31 Q2446.61 1535.96 2443.15 1538.98 Q2439.71 1542 2433.28 1542 Q2426.85 1542 2423.39 1538.98 Q2419.95 1535.96 2419.95 1530.31 Q2419.95 1526.58 2422.08 1524.01 Q2424.22 1521.43 2428.02 1520.54 M2426.09 1512.24 Q2426.09 1515.26 2427.97 1516.95 Q2429.87 1518.64 2433.28 1518.64 Q2436.67 1518.64 2438.57 1516.95 Q2440.49 1515.26 2440.49 1512.24 Q2440.49 1509.22 2438.57 1507.52 Q2436.67 1505.83 2433.28 1505.83 Q2429.87 1505.83 2427.97 1507.52 Q2426.09 1509.22 2426.09 1512.24 Z" fill="#000000" fill-rule="nonzero" fill-opacity="1" /><path clip-path="url(#clip160)" d="M2467.21 1505.83 Q2463.15 1505.83 2461.09 1509.84 Q2459.06 1513.82 2459.06 1521.85 Q2459.06 1529.84 2461.09 1533.85 Q2463.15 1537.83 2467.21 1537.83 Q2471.3 1537.83 2473.33 1533.85 Q2475.39 1529.84 2475.39 1521.85 Q2475.39 1513.82 2473.33 1509.84 Q2471.3 1505.83 2467.21 1505.83 M2467.21 1501.66 Q2473.75 1501.66 2477.19 1506.85 Q2480.65 1512 2480.65 1521.85 Q2480.65 1531.66 2477.19 1536.85 Q2473.75 1542 2467.21 1542 Q2460.68 1542 2457.21 1536.85 Q2453.78 1531.66 2453.78 1521.85 Q2453.78 1512 2457.21 1506.85 Q2460.68 1501.66 2467.21 1501.66 Z" fill="#000000" fill-rule="nonzero" fill-opacity="1" /><path clip-path="url(#clip160)" d="M1371.52 1589.27 L1371.52 1594.31 Q1369.27 1593.15 1366.84 1592.57 Q1364.41 1591.99 1361.8 1591.99 Q1357.84 1591.99 1355.84 1593.21 Q1353.87 1594.42 1353.87 1596.85 Q1353.87 1598.71 1355.29 1599.78 Q1356.71 1600.82 1360.99 1601.77 L1362.81 1602.18 Q1368.49 1603.39 1370.86 1605.62 Q1373.26 1607.82 1373.26 1611.79 Q1373.26 1616.3 1369.67 1618.93 Q1366.11 1621.57 1359.86 1621.57 Q1357.26 1621.57 1354.42 1621.04 Q1351.62 1620.55 1348.49 1619.54 L1348.49 1614.04 Q1351.44 1615.58 1354.31 1616.36 Q1357.17 1617.11 1359.98 1617.11 Q1363.74 1617.11 1365.77 1615.84 Q1367.79 1614.53 1367.79 1612.19 Q1367.79 1610.02 1366.32 1608.86 Q1364.87 1607.71 1359.92 1606.63 L1358.07 1606.2 Q1353.12 1605.16 1350.92 1603.02 Q1348.72 1600.85 1348.72 1597.09 Q1348.72 1592.51 1351.96 1590.03 Q1355.2 1587.54 1361.17 1587.54 Q1364.12 1587.54 1366.72 1587.97 Q1369.33 1588.41 1371.52 1589.27 Z" fill="#000000" fill-rule="nonzero" fill-opacity="1" /><path clip-path="url(#clip160)" d="M1387 1579.12 L1387 1588.32 L1397.97 1588.32 L1397.97 1592.46 L1387 1592.46 L1387 1610.05 Q1387 1614.01 1388.08 1615.14 Q1389.17 1616.27 1392.5 1616.27 L1397.97 1616.27 L1397.97 1620.73 L1392.5 1620.73 Q1386.34 1620.73 1384 1618.44 Q1381.65 1616.13 1381.65 1610.05 L1381.65 1592.46 L1377.75 1592.46 L1377.75 1588.32 L1381.65 1588.32 L1381.65 1579.12 L1387 1579.12 Z" fill="#000000" fill-rule="nonzero" fill-opacity="1" /><path clip-path="url(#clip160)" d="M1432.69 1603.19 L1432.69 1605.8 L1408.21 1605.8 Q1408.56 1611.29 1411.51 1614.19 Q1414.49 1617.05 1419.79 1617.05 Q1422.85 1617.05 1425.72 1616.3 Q1428.61 1615.55 1431.45 1614.04 L1431.45 1619.08 Q1428.58 1620.29 1425.57 1620.93 Q1422.57 1621.57 1419.47 1621.57 Q1411.71 1621.57 1407.17 1617.05 Q1402.66 1612.54 1402.66 1604.84 Q1402.66 1596.88 1406.94 1592.23 Q1411.25 1587.54 1418.54 1587.54 Q1425.08 1587.54 1428.87 1591.76 Q1432.69 1595.96 1432.69 1603.19 M1427.37 1601.63 Q1427.31 1597.26 1424.91 1594.66 Q1422.54 1592.05 1418.6 1592.05 Q1414.15 1592.05 1411.45 1594.57 Q1408.79 1597.09 1408.39 1601.66 L1427.37 1601.63 Z" fill="#000000" fill-rule="nonzero" fill-opacity="1" /><path clip-path="url(#clip160)" d="M1446.58 1615.87 L1446.58 1633.05 L1441.23 1633.05 L1441.23 1588.32 L1446.58 1588.32 L1446.58 1593.24 Q1448.26 1590.34 1450.81 1588.96 Q1453.38 1587.54 1456.94 1587.54 Q1462.84 1587.54 1466.52 1592.23 Q1470.22 1596.91 1470.22 1604.55 Q1470.22 1612.19 1466.52 1616.88 Q1462.84 1621.57 1456.94 1621.57 Q1453.38 1621.57 1450.81 1620.18 Q1448.26 1618.76 1446.58 1615.87 M1464.7 1604.55 Q1464.7 1598.68 1462.26 1595.35 Q1459.86 1591.99 1455.64 1591.99 Q1451.41 1591.99 1448.98 1595.35 Q1446.58 1598.68 1446.58 1604.55 Q1446.58 1610.43 1448.98 1613.78 Q1451.41 1617.11 1455.64 1617.11 Q1459.86 1617.11 1462.26 1613.78 Q1464.7 1610.43 1464.7 1604.55 Z" fill="#000000" fill-rule="nonzero" fill-opacity="1" /><polyline clip-path="url(#clip160)" style="stroke:#000000; stroke-linecap:round; stroke-linejoin:round; stroke-width:4; stroke-opacity:1; fill:none" points="305.958,1472.17 305.958,114.022 "/>
<polyline clip-path="url(#clip160)" style="stroke:#000000; stroke-linecap:round; stroke-linejoin:round; stroke-width:4; stroke-opacity:1; fill:none" points="2512.76,1472.17 2512.76,114.022 "/>
<polyline clip-path="url(#clip160)" style="stroke:#000000; stroke-linecap:round; stroke-linejoin:round; stroke-width:4; stroke-opacity:1; fill:none" points="305.958,1350.92 324.855,1350.92 "/>
<polyline clip-path="url(#clip160)" style="stroke:#000000; stroke-linecap:round; stroke-linejoin:round; stroke-width:4; stroke-opacity:1; fill:none" points="305.958,1102.49 324.855,1102.49 "/>
<polyline clip-path="url(#clip160)" style="stroke:#000000; stroke-linecap:round; stroke-linejoin:round; stroke-width:4; stroke-opacity:1; fill:none" points="305.958,854.062 324.855,854.062 "/>
<polyline clip-path="url(#clip160)" style="stroke:#000000; stroke-linecap:round; stroke-linejoin:round; stroke-width:4; stroke-opacity:1; fill:none" points="305.958,605.633 324.855,605.633 "/>
<polyline clip-path="url(#clip160)" style="stroke:#000000; stroke-linecap:round; stroke-linejoin:round; stroke-width:4; stroke-opacity:1; fill:none" points="305.958,357.205 324.855,357.205 "/>
<polyline clip-path="url(#clip160)" style="stroke:#000000; stroke-linecap:round; stroke-linejoin:round; stroke-width:4; stroke-opacity:1; fill:none" points="2512.76,1350.92 2493.86,1350.92 "/>
<polyline clip-path="url(#clip160)" style="stroke:#000000; stroke-linecap:round; stroke-linejoin:round; stroke-width:4; stroke-opacity:1; fill:none" points="2512.76,1102.49 2493.86,1102.49 "/>
<polyline clip-path="url(#clip160)" style="stroke:#000000; stroke-linecap:round; stroke-linejoin:round; stroke-width:4; stroke-opacity:1; fill:none" points="2512.76,854.062 2493.86,854.062 "/>
<polyline clip-path="url(#clip160)" style="stroke:#000000; stroke-linecap:round; stroke-linejoin:round; stroke-width:4; stroke-opacity:1; fill:none" points="2512.76,605.633 2493.86,605.633 "/>
<polyline clip-path="url(#clip160)" style="stroke:#000000; stroke-linecap:round; stroke-linejoin:round; stroke-width:4; stroke-opacity:1; fill:none" points="2512.76,357.205 2493.86,357.205 "/>
<path clip-path="url(#clip160)" d="M163.964 1365.93 L182.324 1365.93 L182.324 1370.36 L157.636 1370.36 L157.636 1365.93 Q160.631 1362.83 165.787 1357.62 Q170.97 1352.39 172.298 1350.88 Q174.824 1348.04 175.813 1346.09 Q176.829 1344.11 176.829 1342.21 Q176.829 1339.11 174.641 1337.16 Q172.48 1335.2 168.99 1335.2 Q166.516 1335.2 163.756 1336.06 Q161.022 1336.92 157.897 1338.67 L157.897 1333.35 Q161.074 1332.08 163.834 1331.43 Q166.595 1330.78 168.886 1330.78 Q174.928 1330.78 178.522 1333.8 Q182.115 1336.82 182.115 1341.87 Q182.115 1344.27 181.204 1346.43 Q180.318 1348.56 177.949 1351.48 Q177.298 1352.23 173.808 1355.85 Q170.319 1359.45 163.964 1365.93 Z" fill="#000000" fill-rule="nonzero" fill-opacity="1" /><path clip-path="url(#clip160)" d="M193.365 1363.74 L198.86 1363.74 L198.86 1370.36 L193.365 1370.36 L193.365 1363.74 Z" fill="#000000" fill-rule="nonzero" fill-opacity="1" /><path clip-path="url(#clip160)" d="M221.568 1334.94 Q217.506 1334.94 215.449 1338.95 Q213.417 1342.94 213.417 1350.96 Q213.417 1358.95 215.449 1362.96 Q217.506 1366.95 221.568 1366.95 Q225.657 1366.95 227.688 1362.96 Q229.745 1358.95 229.745 1350.96 Q229.745 1342.94 227.688 1338.95 Q225.657 1334.94 221.568 1334.94 M221.568 1330.78 Q228.105 1330.78 231.542 1335.96 Q235.006 1341.11 235.006 1350.96 Q235.006 1360.78 231.542 1365.96 Q228.105 1371.11 221.568 1371.11 Q215.032 1371.11 211.568 1365.96 Q208.131 1360.78 208.131 1350.96 Q208.131 1341.11 211.568 1335.96 Q215.032 1330.78 221.568 1330.78 Z" fill="#000000" fill-rule="nonzero" fill-opacity="1" /><path clip-path="url(#clip160)" d="M245.162 1365.93 L253.756 1365.93 L253.756 1336.27 L244.407 1338.15 L244.407 1333.35 L253.704 1331.48 L258.964 1331.48 L258.964 1365.93 L267.558 1365.93 L267.558 1370.36 L245.162 1370.36 L245.162 1365.93 Z" fill="#000000" fill-rule="nonzero" fill-opacity="1" /><path clip-path="url(#clip160)" d="M162.037 1117.5 L180.397 1117.5 L180.397 1121.93 L155.709 1121.93 L155.709 1117.5 Q158.704 1114.4 163.86 1109.2 Q169.043 1103.96 170.371 1102.45 Q172.897 1099.61 173.886 1097.66 Q174.902 1095.68 174.902 1093.78 Q174.902 1090.68 172.714 1088.73 Q170.553 1086.77 167.063 1086.77 Q164.589 1086.77 161.829 1087.63 Q159.095 1088.49 155.97 1090.24 L155.97 1084.93 Q159.147 1083.65 161.907 1083 Q164.668 1082.35 166.959 1082.35 Q173.001 1082.35 176.595 1085.37 Q180.188 1088.39 180.188 1093.44 Q180.188 1095.84 179.277 1098 Q178.391 1100.13 176.022 1103.05 Q175.371 1103.81 171.881 1107.43 Q168.391 1111.02 162.037 1117.5 Z" fill="#000000" fill-rule="nonzero" fill-opacity="1" /><path clip-path="url(#clip160)" d="M191.438 1115.32 L196.933 1115.32 L196.933 1121.93 L191.438 1121.93 L191.438 1115.32 Z" fill="#000000" fill-rule="nonzero" fill-opacity="1" /><path clip-path="url(#clip160)" d="M219.641 1086.51 Q215.579 1086.51 213.521 1090.52 Q211.49 1094.51 211.49 1102.53 Q211.49 1110.52 213.521 1114.53 Q215.579 1118.52 219.641 1118.52 Q223.73 1118.52 225.761 1114.53 Q227.818 1110.52 227.818 1102.53 Q227.818 1094.51 225.761 1090.52 Q223.73 1086.51 219.641 1086.51 M219.641 1082.35 Q226.178 1082.35 229.615 1087.53 Q233.079 1092.69 233.079 1102.53 Q233.079 1112.35 229.615 1117.53 Q226.178 1122.69 219.641 1122.69 Q213.105 1122.69 209.641 1117.53 Q206.204 1112.35 206.204 1102.53 Q206.204 1092.69 209.641 1087.53 Q213.105 1082.35 219.641 1082.35 Z" fill="#000000" fill-rule="nonzero" fill-opacity="1" /><path clip-path="url(#clip160)" d="M256.776 1087.63 L243.495 1108.39 L256.776 1108.39 L256.776 1087.63 M255.396 1083.05 L262.011 1083.05 L262.011 1108.39 L267.558 1108.39 L267.558 1112.76 L262.011 1112.76 L262.011 1121.93 L256.776 1121.93 L256.776 1112.76 L239.224 1112.76 L239.224 1107.69 L255.396 1083.05 Z" fill="#000000" fill-rule="nonzero" fill-opacity="1" /><path clip-path="url(#clip160)" d="M163.6 869.075 L181.959 869.075 L181.959 873.502 L157.272 873.502 L157.272 869.075 Q160.267 865.976 165.423 860.768 Q170.605 855.533 171.933 854.023 Q174.459 851.184 175.449 849.231 Q176.464 847.252 176.464 845.351 Q176.464 842.252 174.277 840.299 Q172.115 838.346 168.626 838.346 Q166.152 838.346 163.392 839.205 Q160.657 840.065 157.532 841.809 L157.532 836.497 Q160.709 835.221 163.47 834.57 Q166.23 833.919 168.522 833.919 Q174.563 833.919 178.157 836.94 Q181.751 839.96 181.751 845.012 Q181.751 847.408 180.839 849.57 Q179.954 851.705 177.584 854.622 Q176.933 855.377 173.444 858.997 Q169.954 862.59 163.6 869.075 Z" fill="#000000" fill-rule="nonzero" fill-opacity="1" /><path clip-path="url(#clip160)" d="M193.001 866.887 L198.495 866.887 L198.495 873.502 L193.001 873.502 L193.001 866.887 Z" fill="#000000" fill-rule="nonzero" fill-opacity="1" /><path clip-path="url(#clip160)" d="M221.204 838.085 Q217.141 838.085 215.084 842.096 Q213.053 846.08 213.053 854.101 Q213.053 862.096 215.084 866.106 Q217.141 870.09 221.204 870.09 Q225.292 870.09 227.323 866.106 Q229.381 862.096 229.381 854.101 Q229.381 846.08 227.323 842.096 Q225.292 838.085 221.204 838.085 M221.204 833.919 Q227.74 833.919 231.178 839.101 Q234.641 844.257 234.641 854.101 Q234.641 863.919 231.178 869.101 Q227.74 874.257 221.204 874.257 Q214.667 874.257 211.204 869.101 Q207.766 863.919 207.766 854.101 Q207.766 844.257 211.204 839.101 Q214.667 833.919 221.204 833.919 Z" fill="#000000" fill-rule="nonzero" fill-opacity="1" /><path clip-path="url(#clip160)" d="M242.558 834.622 L267.558 834.622 L267.558 836.861 L253.443 873.502 L247.948 873.502 L261.23 839.049 L242.558 839.049 L242.558 834.622 Z" fill="#000000" fill-rule="nonzero" fill-opacity="1" /><path clip-path="url(#clip160)" d="M162.584 620.646 L180.943 620.646 L180.943 625.073 L156.256 625.073 L156.256 620.646 Q159.251 617.547 164.407 612.339 Q169.589 607.105 170.918 605.594 Q173.444 602.756 174.433 600.803 Q175.449 598.824 175.449 596.923 Q175.449 593.824 173.261 591.87 Q171.1 589.917 167.61 589.917 Q165.136 589.917 162.376 590.777 Q159.642 591.636 156.517 593.381 L156.517 588.068 Q159.694 586.792 162.454 586.141 Q165.214 585.49 167.506 585.49 Q173.548 585.49 177.141 588.511 Q180.735 591.532 180.735 596.584 Q180.735 598.98 179.824 601.141 Q178.938 603.277 176.569 606.193 Q175.917 606.948 172.428 610.568 Q168.938 614.162 162.584 620.646 Z" fill="#000000" fill-rule="nonzero" fill-opacity="1" /><path clip-path="url(#clip160)" d="M191.985 618.459 L197.48 618.459 L197.48 625.073 L191.985 625.073 L191.985 618.459 Z" fill="#000000" fill-rule="nonzero" fill-opacity="1" /><path clip-path="url(#clip160)" d="M209.85 620.646 L218.443 620.646 L218.443 590.985 L209.094 592.86 L209.094 588.068 L218.391 586.193 L223.652 586.193 L223.652 620.646 L232.245 620.646 L232.245 625.073 L209.85 625.073 L209.85 620.646 Z" fill="#000000" fill-rule="nonzero" fill-opacity="1" /><path clip-path="url(#clip160)" d="M254.12 589.657 Q250.058 589.657 248 593.667 Q245.969 597.652 245.969 605.672 Q245.969 613.667 248 617.678 Q250.058 621.662 254.12 621.662 Q258.209 621.662 260.24 617.678 Q262.297 613.667 262.297 605.672 Q262.297 597.652 260.24 593.667 Q258.209 589.657 254.12 589.657 M254.12 585.49 Q260.657 585.49 264.094 590.673 Q267.558 595.829 267.558 605.672 Q267.558 615.49 264.094 620.672 Q260.657 625.829 254.12 625.829 Q247.584 625.829 244.12 620.672 Q240.683 615.49 240.683 605.672 Q240.683 595.829 244.12 590.673 Q247.584 585.49 254.12 585.49 Z" fill="#000000" fill-rule="nonzero" fill-opacity="1" /><path clip-path="url(#clip160)" d="M163.313 372.218 L181.673 372.218 L181.673 376.645 L156.985 376.645 L156.985 372.218 Q159.98 369.119 165.136 363.911 Q170.319 358.676 171.647 357.166 Q174.173 354.327 175.162 352.374 Q176.178 350.395 176.178 348.494 Q176.178 345.395 173.99 343.442 Q171.829 341.489 168.339 341.489 Q165.865 341.489 163.105 342.348 Q160.371 343.208 157.246 344.952 L157.246 339.64 Q160.423 338.364 163.183 337.713 Q165.944 337.062 168.235 337.062 Q174.277 337.062 177.871 340.083 Q181.464 343.103 181.464 348.156 Q181.464 350.551 180.553 352.713 Q179.667 354.848 177.298 357.765 Q176.647 358.52 173.157 362.14 Q169.668 365.734 163.313 372.218 Z" fill="#000000" fill-rule="nonzero" fill-opacity="1" /><path clip-path="url(#clip160)" d="M192.714 370.03 L198.209 370.03 L198.209 376.645 L192.714 376.645 L192.714 370.03 Z" fill="#000000" fill-rule="nonzero" fill-opacity="1" /><path clip-path="url(#clip160)" d="M210.579 372.218 L219.172 372.218 L219.172 342.557 L209.824 344.432 L209.824 339.64 L219.12 337.765 L224.381 337.765 L224.381 372.218 L232.974 372.218 L232.974 376.645 L210.579 376.645 L210.579 372.218 Z" fill="#000000" fill-rule="nonzero" fill-opacity="1" /><path clip-path="url(#clip160)" d="M259.537 355.682 Q263.313 356.489 265.422 359.041 Q267.558 361.593 267.558 365.343 Q267.558 371.098 263.599 374.249 Q259.641 377.4 252.349 377.4 Q249.901 377.4 247.297 376.905 Q244.719 376.437 241.959 375.473 L241.959 370.395 Q244.146 371.671 246.75 372.322 Q249.355 372.973 252.193 372.973 Q257.141 372.973 259.719 371.02 Q262.323 369.067 262.323 365.343 Q262.323 361.905 259.901 359.978 Q257.506 358.025 253.209 358.025 L248.678 358.025 L248.678 353.702 L253.417 353.702 Q257.297 353.702 259.355 352.166 Q261.412 350.603 261.412 347.687 Q261.412 344.692 259.276 343.103 Q257.167 341.489 253.209 341.489 Q251.047 341.489 248.573 341.958 Q246.099 342.426 243.131 343.416 L243.131 338.728 Q246.125 337.895 248.73 337.478 Q251.36 337.062 253.677 337.062 Q259.667 337.062 263.157 339.796 Q266.646 342.505 266.646 347.14 Q266.646 350.369 264.797 352.609 Q262.948 354.822 259.537 355.682 Z" fill="#000000" fill-rule="nonzero" fill-opacity="1" /><path clip-path="url(#clip160)" d="M61.1493 879.335 L61.1493 852.02 L66.0682 852.02 L66.0682 873.49 L78.8575 873.49 L78.8575 852.917 L83.7764 852.917 L83.7764 873.49 L99.4303 873.49 L99.4303 851.5 L104.349 851.5 L104.349 879.335 L61.1493 879.335 Z" fill="#000000" fill-rule="nonzero" fill-opacity="1" /><path clip-path="url(#clip160)" d="M59.3842 810.499 Q66.0393 814.376 72.5497 816.257 Q79.06 818.137 85.744 818.137 Q92.428 818.137 98.9963 816.257 Q105.536 814.347 112.162 810.499 L112.162 815.128 Q105.362 819.468 98.7937 821.639 Q92.2255 823.78 85.744 823.78 Q79.2915 823.78 72.7522 821.639 Q66.2129 819.497 59.3842 815.128 L59.3842 810.499 Z" fill="#000000" fill-rule="nonzero" fill-opacity="1" /><path clip-path="url(#clip160)" d="M61.1493 799.937 L61.1493 794.092 L78.8575 794.092 L78.8575 772.854 L61.1493 772.854 L61.1493 767.009 L104.349 767.009 L104.349 772.854 L83.7764 772.854 L83.7764 794.092 L104.349 794.092 L104.349 799.937 L61.1493 799.937 Z" fill="#000000" fill-rule="nonzero" fill-opacity="1" /><path clip-path="url(#clip160)" d="M88.0588 740.881 Q88.0588 747.333 89.5345 749.822 Q91.0102 752.31 94.5692 752.31 Q97.4048 752.31 99.0831 750.458 Q100.732 748.578 100.732 745.366 Q100.732 740.939 97.6074 738.277 Q94.4535 735.586 89.2452 735.586 L88.0588 735.586 L88.0588 740.881 M85.8598 730.262 L104.349 730.262 L104.349 735.586 L99.4303 735.586 Q102.382 737.409 103.799 740.129 Q105.188 742.849 105.188 746.784 Q105.188 751.761 102.411 754.712 Q99.6039 757.634 94.9164 757.634 Q89.4477 757.634 86.6699 753.989 Q83.8922 750.314 83.8922 743.051 L83.8922 735.586 L83.3714 735.586 Q79.6966 735.586 77.7001 738.016 Q75.6746 740.418 75.6746 744.787 Q75.6746 747.565 76.3401 750.198 Q77.0056 752.831 78.3367 755.262 L73.4177 755.262 Q72.2892 752.339 71.7395 749.59 Q71.1608 746.842 71.1608 744.237 Q71.1608 737.206 74.8066 733.734 Q78.4524 730.262 85.8598 730.262 Z" fill="#000000" fill-rule="nonzero" fill-opacity="1" /><path clip-path="url(#clip160)" d="M59.3842 720.135 L59.3842 715.505 Q66.2129 711.165 72.7522 709.023 Q79.2915 706.853 85.744 706.853 Q92.2255 706.853 98.7937 709.023 Q105.362 711.165 112.162 715.505 L112.162 720.135 Q105.536 716.286 98.9963 714.405 Q92.428 712.496 85.744 712.496 Q79.06 712.496 72.5497 714.405 Q66.0393 716.286 59.3842 720.135 Z" fill="#000000" fill-rule="nonzero" fill-opacity="1" /><path clip-path="url(#clip160)" d="M859.082 14.361 L859.082 21.7568 Q855.54 18.4582 851.513 16.8263 Q847.519 15.1944 843.006 15.1944 Q834.117 15.1944 829.395 20.6457 Q824.672 26.0624 824.672 36.3401 Q824.672 46.5831 829.395 52.0344 Q834.117 57.4511 843.006 57.4511 Q847.519 57.4511 851.513 55.8191 Q855.54 54.1872 859.082 50.8886 L859.082 58.215 Q855.401 60.715 851.269 61.9649 Q847.172 63.2149 842.589 63.2149 Q830.818 63.2149 824.047 56.0275 Q817.277 48.8053 817.277 36.3401 Q817.277 23.8402 824.047 16.6527 Q830.818 9.43051 842.589 9.43051 Q847.242 9.43051 851.339 10.6805 Q855.471 11.8958 859.082 14.361 Z" fill="#000000" fill-rule="nonzero" fill-opacity="1" /><path clip-path="url(#clip160)" d="M884.707 27.7985 Q879.568 27.7985 876.582 31.8262 Q873.596 35.8193 873.596 42.7984 Q873.596 49.7775 876.547 53.8053 Q879.533 57.7983 884.707 57.7983 Q889.811 57.7983 892.797 53.7705 Q895.783 49.7428 895.783 42.7984 Q895.783 35.8887 892.797 31.8609 Q889.811 27.7985 884.707 27.7985 M884.707 22.3818 Q893.04 22.3818 897.797 27.7985 Q902.554 33.2151 902.554 42.7984 Q902.554 52.3469 897.797 57.7983 Q893.04 63.2149 884.707 63.2149 Q876.339 63.2149 871.582 57.7983 Q866.86 52.3469 866.86 42.7984 Q866.86 33.2151 871.582 27.7985 Q876.339 22.3818 884.707 22.3818 Z" fill="#000000" fill-rule="nonzero" fill-opacity="1" /><path clip-path="url(#clip160)" d="M945.47 38.7359 L945.47 62.208 L939.082 62.208 L939.082 38.9442 Q939.082 33.4234 936.929 30.6804 Q934.776 27.9374 930.47 27.9374 Q925.297 27.9374 922.311 31.2359 Q919.325 34.5345 919.325 40.229 L919.325 62.208 L912.901 62.208 L912.901 23.3193 L919.325 23.3193 L919.325 29.361 Q921.616 25.854 924.707 24.1179 Q927.832 22.3818 931.894 22.3818 Q938.595 22.3818 942.033 26.5485 Q945.47 30.6804 945.47 38.7359 Z" fill="#000000" fill-rule="nonzero" fill-opacity="1" /><path clip-path="url(#clip160)" d="M953.63 23.3193 L960.401 23.3193 L972.554 55.958 L984.706 23.3193 L991.477 23.3193 L976.894 62.208 L968.213 62.208 L953.63 23.3193 Z" fill="#000000" fill-rule="nonzero" fill-opacity="1" /><path clip-path="url(#clip160)" d="M1033.56 41.1664 L1033.56 44.2914 L1004.19 44.2914 Q1004.6 50.8886 1008.14 54.3608 Q1011.72 57.7983 1018.07 57.7983 Q1021.75 57.7983 1025.19 56.8955 Q1028.66 55.9928 1032.07 54.1872 L1032.07 60.2288 Q1028.63 61.6872 1025.02 62.4511 Q1021.41 63.2149 1017.69 63.2149 Q1008.39 63.2149 1002.94 57.7983 Q997.519 52.3817 997.519 43.1456 Q997.519 33.597 1002.66 28.0068 Q1007.83 22.3818 1016.58 22.3818 Q1024.43 22.3818 1028.98 27.4512 Q1033.56 32.4859 1033.56 41.1664 M1027.17 39.2915 Q1027.1 34.0484 1024.22 30.9234 Q1021.37 27.7985 1016.65 27.7985 Q1011.3 27.7985 1008.07 30.8193 Q1004.88 33.8401 1004.39 39.3262 L1027.17 39.2915 Z" fill="#000000" fill-rule="nonzero" fill-opacity="1" /><path clip-path="url(#clip160)" d="M1066.58 29.2915 Q1065.5 28.6665 1064.22 28.3887 Q1062.97 28.0762 1061.44 28.0762 Q1056.03 28.0762 1053.11 31.6179 Q1050.23 35.1248 1050.23 41.722 L1050.23 62.208 L1043.8 62.208 L1043.8 23.3193 L1050.23 23.3193 L1050.23 29.361 Q1052.24 25.8193 1055.47 24.1179 Q1058.7 22.3818 1063.32 22.3818 Q1063.98 22.3818 1064.78 22.486 Q1065.57 22.5554 1066.55 22.729 L1066.58 29.2915 Z" fill="#000000" fill-rule="nonzero" fill-opacity="1" /><path clip-path="url(#clip160)" d="M1097.62 42.3123 Q1097.62 35.3679 1094.74 31.5484 Q1091.89 27.729 1086.72 27.729 Q1081.58 27.729 1078.7 31.5484 Q1075.85 35.3679 1075.85 42.3123 Q1075.85 49.222 1078.7 53.0414 Q1081.58 56.8608 1086.72 56.8608 Q1091.89 56.8608 1094.74 53.0414 Q1097.62 49.222 1097.62 42.3123 M1104.01 57.3816 Q1104.01 67.3121 1099.6 72.1385 Q1095.19 76.9996 1086.09 76.9996 Q1082.73 76.9996 1079.74 76.4788 Q1076.75 75.9926 1073.94 74.951 L1073.94 68.7357 Q1076.75 70.2635 1079.5 70.9927 Q1082.24 71.7218 1085.09 71.7218 Q1091.37 71.7218 1094.5 68.4232 Q1097.62 65.1594 1097.62 58.5275 L1097.62 55.3678 Q1095.64 58.8052 1092.55 60.5066 Q1089.46 62.208 1085.16 62.208 Q1078 62.208 1073.63 56.7566 Q1069.25 51.3053 1069.25 42.3123 Q1069.25 33.2845 1073.63 27.8332 Q1078 22.3818 1085.16 22.3818 Q1089.46 22.3818 1092.55 24.0832 Q1095.64 25.7846 1097.62 29.2221 L1097.62 23.3193 L1104.01 23.3193 L1104.01 57.3816 Z" fill="#000000" fill-rule="nonzero" fill-opacity="1" /><path clip-path="url(#clip160)" d="M1150.43 41.1664 L1150.43 44.2914 L1121.06 44.2914 Q1121.48 50.8886 1125.02 54.3608 Q1128.59 57.7983 1134.95 57.7983 Q1138.63 57.7983 1142.07 56.8955 Q1145.54 55.9928 1148.94 54.1872 L1148.94 60.2288 Q1145.5 61.6872 1141.89 62.4511 Q1138.28 63.2149 1134.57 63.2149 Q1125.26 63.2149 1119.81 57.7983 Q1114.39 52.3817 1114.39 43.1456 Q1114.39 33.597 1119.53 28.0068 Q1124.71 22.3818 1133.46 22.3818 Q1141.3 22.3818 1145.85 27.4512 Q1150.43 32.4859 1150.43 41.1664 M1144.05 39.2915 Q1143.98 34.0484 1141.09 30.9234 Q1138.25 27.7985 1133.52 27.7985 Q1128.18 27.7985 1124.95 30.8193 Q1121.75 33.8401 1121.27 39.3262 L1144.05 39.2915 Z" fill="#000000" fill-rule="nonzero" fill-opacity="1" /><path clip-path="url(#clip160)" d="M1193.25 38.7359 L1193.25 62.208 L1186.86 62.208 L1186.86 38.9442 Q1186.86 33.4234 1184.71 30.6804 Q1182.55 27.9374 1178.25 27.9374 Q1173.07 27.9374 1170.09 31.2359 Q1167.1 34.5345 1167.1 40.229 L1167.1 62.208 L1160.68 62.208 L1160.68 23.3193 L1167.1 23.3193 L1167.1 29.361 Q1169.39 25.854 1172.48 24.1179 Q1175.61 22.3818 1179.67 22.3818 Q1186.37 22.3818 1189.81 26.5485 Q1193.25 30.6804 1193.25 38.7359 Z" fill="#000000" fill-rule="nonzero" fill-opacity="1" /><path clip-path="url(#clip160)" d="M1233.98 24.8124 L1233.98 30.7846 Q1231.27 29.2915 1228.52 28.5623 Q1225.82 27.7985 1223.04 27.7985 Q1216.82 27.7985 1213.39 31.7568 Q1209.95 35.6804 1209.95 42.7984 Q1209.95 49.9164 1213.39 53.8747 Q1216.82 57.7983 1223.04 57.7983 Q1225.82 57.7983 1228.52 57.0691 Q1231.27 56.3053 1233.98 54.8122 L1233.98 60.715 Q1231.3 61.9649 1228.42 62.5899 Q1225.57 63.2149 1222.34 63.2149 Q1213.56 63.2149 1208.39 57.6941 Q1203.21 52.1733 1203.21 42.7984 Q1203.21 33.2845 1208.42 27.8332 Q1213.66 22.3818 1222.76 22.3818 Q1225.71 22.3818 1228.52 23.0068 Q1231.34 23.5971 1233.98 24.8124 Z" fill="#000000" fill-rule="nonzero" fill-opacity="1" /><path clip-path="url(#clip160)" d="M1278.35 41.1664 L1278.35 44.2914 L1248.98 44.2914 Q1249.39 50.8886 1252.93 54.3608 Q1256.51 57.7983 1262.86 57.7983 Q1266.55 57.7983 1269.98 56.8955 Q1273.45 55.9928 1276.86 54.1872 L1276.86 60.2288 Q1273.42 61.6872 1269.81 62.4511 Q1266.2 63.2149 1262.48 63.2149 Q1253.18 63.2149 1247.73 57.7983 Q1242.31 52.3817 1242.31 43.1456 Q1242.31 33.597 1247.45 28.0068 Q1252.62 22.3818 1261.37 22.3818 Q1269.22 22.3818 1273.77 27.4512 Q1278.35 32.4859 1278.35 41.1664 M1271.96 39.2915 Q1271.89 34.0484 1269.01 30.9234 Q1266.16 27.7985 1261.44 27.7985 Q1256.09 27.7985 1252.86 30.8193 Q1249.67 33.8401 1249.18 39.3262 L1271.96 39.2915 Z" fill="#000000" fill-rule="nonzero" fill-opacity="1" /><path clip-path="url(#clip160)" d="M1317.76 12.2777 L1317.76 23.3193 L1330.92 23.3193 L1330.92 28.2846 L1317.76 28.2846 L1317.76 49.3956 Q1317.76 54.1525 1319.04 55.5066 Q1320.36 56.8608 1324.36 56.8608 L1330.92 56.8608 L1330.92 62.208 L1324.36 62.208 Q1316.96 62.208 1314.15 59.465 Q1311.34 56.6872 1311.34 49.3956 L1311.34 28.2846 L1306.65 28.2846 L1306.65 23.3193 L1311.34 23.3193 L1311.34 12.2777 L1317.76 12.2777 Z" fill="#000000" fill-rule="nonzero" fill-opacity="1" /><path clip-path="url(#clip160)" d="M1354.39 27.7985 Q1349.25 27.7985 1346.27 31.8262 Q1343.28 35.8193 1343.28 42.7984 Q1343.28 49.7775 1346.23 53.8053 Q1349.22 57.7983 1354.39 57.7983 Q1359.5 57.7983 1362.48 53.7705 Q1365.47 49.7428 1365.47 42.7984 Q1365.47 35.8887 1362.48 31.8609 Q1359.5 27.7985 1354.39 27.7985 M1354.39 22.3818 Q1362.73 22.3818 1367.48 27.7985 Q1372.24 33.2151 1372.24 42.7984 Q1372.24 52.3469 1367.48 57.7983 Q1362.73 63.2149 1354.39 63.2149 Q1346.02 63.2149 1341.27 57.7983 Q1336.54 52.3469 1336.54 42.7984 Q1336.54 33.2151 1341.27 27.7985 Q1346.02 22.3818 1354.39 22.3818 Z" fill="#000000" fill-rule="nonzero" fill-opacity="1" /><path clip-path="url(#clip160)" d="M1411.75 12.2777 L1411.75 23.3193 L1424.91 23.3193 L1424.91 28.2846 L1411.75 28.2846 L1411.75 49.3956 Q1411.75 54.1525 1413.04 55.5066 Q1414.36 56.8608 1418.35 56.8608 L1424.91 56.8608 L1424.91 62.208 L1418.35 62.208 Q1410.95 62.208 1408.14 59.465 Q1405.33 56.6872 1405.33 49.3956 L1405.33 28.2846 L1400.64 28.2846 L1400.64 23.3193 L1405.33 23.3193 L1405.33 12.2777 L1411.75 12.2777 Z" fill="#000000" fill-rule="nonzero" fill-opacity="1" /><path clip-path="url(#clip160)" d="M1465.64 38.7359 L1465.64 62.208 L1459.25 62.208 L1459.25 38.9442 Q1459.25 33.4234 1457.1 30.6804 Q1454.95 27.9374 1450.64 27.9374 Q1445.47 27.9374 1442.48 31.2359 Q1439.5 34.5345 1439.5 40.229 L1439.5 62.208 L1433.07 62.208 L1433.07 8.18051 L1439.5 8.18051 L1439.5 29.361 Q1441.79 25.854 1444.88 24.1179 Q1448 22.3818 1452.06 22.3818 Q1458.77 22.3818 1462.2 26.5485 Q1465.64 30.6804 1465.64 38.7359 Z" fill="#000000" fill-rule="nonzero" fill-opacity="1" /><path clip-path="url(#clip160)" d="M1511.65 41.1664 L1511.65 44.2914 L1482.27 44.2914 Q1482.69 50.8886 1486.23 54.3608 Q1489.81 57.7983 1496.16 57.7983 Q1499.84 57.7983 1503.28 56.8955 Q1506.75 55.9928 1510.15 54.1872 L1510.15 60.2288 Q1506.72 61.6872 1503.11 62.4511 Q1499.5 63.2149 1495.78 63.2149 Q1486.47 63.2149 1481.02 57.7983 Q1475.61 52.3817 1475.61 43.1456 Q1475.61 33.597 1480.75 28.0068 Q1485.92 22.3818 1494.67 22.3818 Q1502.52 22.3818 1507.06 27.4512 Q1511.65 32.4859 1511.65 41.1664 M1505.26 39.2915 Q1505.19 34.0484 1502.31 30.9234 Q1499.46 27.7985 1494.74 27.7985 Q1489.39 27.7985 1486.16 30.8193 Q1482.97 33.8401 1482.48 39.3262 L1505.26 39.2915 Z" fill="#000000" fill-rule="nonzero" fill-opacity="1" /><path clip-path="url(#clip160)" d="M1578 41.1664 L1578 44.2914 L1548.63 44.2914 Q1549.04 50.8886 1552.59 54.3608 Q1556.16 57.7983 1562.52 57.7983 Q1566.2 57.7983 1569.63 56.8955 Q1573.11 55.9928 1576.51 54.1872 L1576.51 60.2288 Q1573.07 61.6872 1569.46 62.4511 Q1565.85 63.2149 1562.13 63.2149 Q1552.83 63.2149 1547.38 57.7983 Q1541.96 52.3817 1541.96 43.1456 Q1541.96 33.597 1547.1 28.0068 Q1552.27 22.3818 1561.02 22.3818 Q1568.87 22.3818 1573.42 27.4512 Q1578 32.4859 1578 41.1664 M1571.61 39.2915 Q1571.54 34.0484 1568.66 30.9234 Q1565.81 27.7985 1561.09 27.7985 Q1555.74 27.7985 1552.52 30.8193 Q1549.32 33.8401 1548.84 39.3262 L1571.61 39.2915 Z" fill="#000000" fill-rule="nonzero" fill-opacity="1" /><path clip-path="url(#clip160)" d="M1619.56 23.3193 L1605.5 42.2428 L1620.29 62.208 L1612.76 62.208 L1601.44 46.9303 L1590.12 62.208 L1582.58 62.208 L1597.69 41.8609 L1583.87 23.3193 L1591.4 23.3193 L1601.72 37.1734 L1612.03 23.3193 L1619.56 23.3193 Z" fill="#000000" fill-rule="nonzero" fill-opacity="1" /><path clip-path="url(#clip160)" d="M1646.99 42.6595 Q1639.25 42.6595 1636.27 44.4303 Q1633.28 46.2011 1633.28 50.472 Q1633.28 53.8747 1635.5 55.8886 Q1637.76 57.8677 1641.61 57.8677 Q1646.92 57.8677 1650.12 54.1178 Q1653.35 50.3331 1653.35 44.0831 L1653.35 42.6595 L1646.99 42.6595 M1659.74 40.0206 L1659.74 62.208 L1653.35 62.208 L1653.35 56.3053 Q1651.16 59.8469 1647.9 61.5483 Q1644.63 63.2149 1639.91 63.2149 Q1633.94 63.2149 1630.4 59.8816 Q1626.89 56.5136 1626.89 50.8886 Q1626.89 44.3262 1631.27 40.9928 Q1635.67 37.6595 1644.39 37.6595 L1653.35 37.6595 L1653.35 37.0345 Q1653.35 32.6248 1650.43 30.229 Q1647.55 27.7985 1642.31 27.7985 Q1638.97 27.7985 1635.81 28.5971 Q1632.65 29.3957 1629.74 30.9929 L1629.74 25.0901 Q1633.24 23.736 1636.54 23.0763 Q1639.84 22.3818 1642.97 22.3818 Q1651.4 22.3818 1655.57 26.7568 Q1659.74 31.1318 1659.74 40.0206 Z" fill="#000000" fill-rule="nonzero" fill-opacity="1" /><path clip-path="url(#clip160)" d="M1700.88 24.8124 L1700.88 30.7846 Q1698.17 29.2915 1695.43 28.5623 Q1692.72 27.7985 1689.95 27.7985 Q1683.73 27.7985 1680.29 31.7568 Q1676.86 35.6804 1676.86 42.7984 Q1676.86 49.9164 1680.29 53.8747 Q1683.73 57.7983 1689.95 57.7983 Q1692.72 57.7983 1695.43 57.0691 Q1698.17 56.3053 1700.88 54.8122 L1700.88 60.715 Q1698.21 61.9649 1695.33 62.5899 Q1692.48 63.2149 1689.25 63.2149 Q1680.47 63.2149 1675.29 57.6941 Q1670.12 52.1733 1670.12 42.7984 Q1670.12 33.2845 1675.33 27.8332 Q1680.57 22.3818 1689.67 22.3818 Q1692.62 22.3818 1695.43 23.0068 Q1698.24 23.5971 1700.88 24.8124 Z" fill="#000000" fill-rule="nonzero" fill-opacity="1" /><path clip-path="url(#clip160)" d="M1718.31 12.2777 L1718.31 23.3193 L1731.47 23.3193 L1731.47 28.2846 L1718.31 28.2846 L1718.31 49.3956 Q1718.31 54.1525 1719.6 55.5066 Q1720.92 56.8608 1724.91 56.8608 L1731.47 56.8608 L1731.47 62.208 L1724.91 62.208 Q1717.51 62.208 1714.7 59.465 Q1711.89 56.6872 1711.89 49.3956 L1711.89 28.2846 L1707.2 28.2846 L1707.2 23.3193 L1711.89 23.3193 L1711.89 12.2777 L1718.31 12.2777 Z" fill="#000000" fill-rule="nonzero" fill-opacity="1" /><path clip-path="url(#clip160)" d="M1795.74 41.1664 L1795.74 44.2914 L1766.37 44.2914 Q1766.79 50.8886 1770.33 54.3608 Q1773.9 57.7983 1780.26 57.7983 Q1783.94 57.7983 1787.38 56.8955 Q1790.85 55.9928 1794.25 54.1872 L1794.25 60.2288 Q1790.81 61.6872 1787.2 62.4511 Q1783.59 63.2149 1779.88 63.2149 Q1770.57 63.2149 1765.12 57.7983 Q1759.7 52.3817 1759.7 43.1456 Q1759.7 33.597 1764.84 28.0068 Q1770.01 22.3818 1778.76 22.3818 Q1786.61 22.3818 1791.16 27.4512 Q1795.74 32.4859 1795.74 41.1664 M1789.35 39.2915 Q1789.29 34.0484 1786.4 30.9234 Q1783.56 27.7985 1778.83 27.7985 Q1773.49 27.7985 1770.26 30.8193 Q1767.06 33.8401 1766.58 39.3262 L1789.35 39.2915 Z" fill="#000000" fill-rule="nonzero" fill-opacity="1" /><path clip-path="url(#clip160)" d="M1838.56 38.7359 L1838.56 62.208 L1832.17 62.208 L1832.17 38.9442 Q1832.17 33.4234 1830.01 30.6804 Q1827.86 27.9374 1823.56 27.9374 Q1818.38 27.9374 1815.4 31.2359 Q1812.41 34.5345 1812.41 40.229 L1812.41 62.208 L1805.99 62.208 L1805.99 23.3193 L1812.41 23.3193 L1812.41 29.361 Q1814.7 25.854 1817.79 24.1179 Q1820.92 22.3818 1824.98 22.3818 Q1831.68 22.3818 1835.12 26.5485 Q1838.56 30.6804 1838.56 38.7359 Z" fill="#000000" fill-rule="nonzero" fill-opacity="1" /><path clip-path="url(#clip160)" d="M1884.56 41.1664 L1884.56 44.2914 L1855.19 44.2914 Q1855.6 50.8886 1859.15 54.3608 Q1862.72 57.7983 1869.08 57.7983 Q1872.76 57.7983 1876.19 56.8955 Q1879.67 55.9928 1883.07 54.1872 L1883.07 60.2288 Q1879.63 61.6872 1876.02 62.4511 Q1872.41 63.2149 1868.69 63.2149 Q1859.39 63.2149 1853.94 57.7983 Q1848.52 52.3817 1848.52 43.1456 Q1848.52 33.597 1853.66 28.0068 Q1858.83 22.3818 1867.58 22.3818 Q1875.43 22.3818 1879.98 27.4512 Q1884.56 32.4859 1884.56 41.1664 M1878.17 39.2915 Q1878.1 34.0484 1875.22 30.9234 Q1872.38 27.7985 1867.65 27.7985 Q1862.31 27.7985 1859.08 30.8193 Q1855.88 33.8401 1855.4 39.3262 L1878.17 39.2915 Z" fill="#000000" fill-rule="nonzero" fill-opacity="1" /><path clip-path="url(#clip160)" d="M1917.58 29.2915 Q1916.51 28.6665 1915.22 28.3887 Q1913.97 28.0762 1912.44 28.0762 Q1907.03 28.0762 1904.11 31.6179 Q1901.23 35.1248 1901.23 41.722 L1901.23 62.208 L1894.81 62.208 L1894.81 23.3193 L1901.23 23.3193 L1901.23 29.361 Q1903.24 25.8193 1906.47 24.1179 Q1909.7 22.3818 1914.32 22.3818 Q1914.98 22.3818 1915.78 22.486 Q1916.58 22.5554 1917.55 22.729 L1917.58 29.2915 Z" fill="#000000" fill-rule="nonzero" fill-opacity="1" /><path clip-path="url(#clip160)" d="M1948.62 42.3123 Q1948.62 35.3679 1945.74 31.5484 Q1942.9 27.729 1937.72 27.729 Q1932.58 27.729 1929.7 31.5484 Q1926.85 35.3679 1926.85 42.3123 Q1926.85 49.222 1929.7 53.0414 Q1932.58 56.8608 1937.72 56.8608 Q1942.9 56.8608 1945.74 53.0414 Q1948.62 49.222 1948.62 42.3123 M1955.01 57.3816 Q1955.01 67.3121 1950.6 72.1385 Q1946.19 76.9996 1937.1 76.9996 Q1933.73 76.9996 1930.74 76.4788 Q1927.76 75.9926 1924.94 74.951 L1924.94 68.7357 Q1927.76 70.2635 1930.5 70.9927 Q1933.24 71.7218 1936.09 71.7218 Q1942.37 71.7218 1945.5 68.4232 Q1948.62 65.1594 1948.62 58.5275 L1948.62 55.3678 Q1946.65 58.8052 1943.56 60.5066 Q1940.47 62.208 1936.16 62.208 Q1929.01 62.208 1924.63 56.7566 Q1920.26 51.3053 1920.26 42.3123 Q1920.26 33.2845 1924.63 27.8332 Q1929.01 22.3818 1936.16 22.3818 Q1940.47 22.3818 1943.56 24.0832 Q1946.65 25.7846 1948.62 29.2221 L1948.62 23.3193 L1955.01 23.3193 L1955.01 57.3816 Z" fill="#000000" fill-rule="nonzero" fill-opacity="1" /><path clip-path="url(#clip160)" d="M1984.35 65.8191 Q1981.65 72.7635 1979.08 74.8815 Q1976.51 76.9996 1972.2 76.9996 L1967.1 76.9996 L1967.1 71.6524 L1970.85 71.6524 Q1973.49 71.6524 1974.94 70.4024 Q1976.4 69.1524 1978.17 64.4997 L1979.32 61.583 L1963.59 23.3193 L1970.36 23.3193 L1982.51 53.7358 L1994.67 23.3193 L2001.44 23.3193 L1984.35 65.8191 Z" fill="#000000" fill-rule="nonzero" fill-opacity="1" /><polyline clip-path="url(#clip161)" style="stroke:#b7286b; stroke-linecap:round; stroke-linejoin:round; stroke-width:8; stroke-opacity:1; fill:none" points="368.414,152.46 394.767,1093.14 421.12,1221.8 447.473,1261.21 473.826,1306.87 500.179,1369.82 526.532,1376.79 552.885,1378.85 579.238,1395.57 605.591,1398.69 631.944,1409.4 658.297,1412.51 684.65,1413.43 711.003,1414.07 737.356,1417.68 763.709,1420.7 790.062,1422.08 816.415,1423.01 842.768,1423.86 869.121,1424.11 895.474,1424.86 921.827,1425.46 948.18,1425.81 974.533,1427.5 1000.89,1427.72 1027.24,1427.84 1053.59,1427.99 1079.94,1428.14 1106.3,1428.58 1132.65,1428.7 1159,1428.94 1185.36,1429.13 1211.71,1429.25 1238.06,1429.38 1264.42,1429.51 1290.77,1429.59 1317.12,1429.71 1343.47,1429.84 1369.83,1430.21 1396.18,1430.33 1422.53,1430.42 1448.89,1430.54 1475.24,1430.75 1501.59,1430.95 1527.95,1431 1554.3,1431.05 1580.65,1431.11 1607,1431.14 1633.36,1431.25 1659.71,1431.33 1686.06,1431.5 1712.42,1431.52 1738.77,1431.57 1765.12,1431.6 1791.47,1431.64 1817.83,1431.68 1844.18,1431.71 1870.53,1431.75 1896.89,1431.79 1923.24,1431.82 1949.59,1431.88 1975.95,1431.91 2002.3,1431.96 2028.65,1432 2055,1432.03 2081.36,1432.04 2107.71,1432.06 2134.06,1432.08 2160.42,1432.13 2186.77,1432.18 2213.12,1432.22 2239.48,1432.28 2265.83,1432.29 2292.18,1432.32 2318.53,1432.33 2344.89,1432.34 2371.24,1432.36 2397.59,1432.37 2423.95,1432.39 2450.3,1432.4 "/>
<polyline clip-path="url(#clip161)" style="stroke:#727784; stroke-linecap:round; stroke-linejoin:round; stroke-width:8; stroke-opacity:1; fill:none" stroke-dasharray="32, 20" points="-1900.84,1433.73 4719.55,1433.73 "/>
<path clip-path="url(#clip160)" d="M1971.54 334.254 L2439.2 334.254 L2439.2 159.294 L1971.54 159.294  Z" fill="#ffffff" fill-rule="evenodd" fill-opacity="1"/>
<polyline clip-path="url(#clip160)" style="stroke:#000000; stroke-linecap:round; stroke-linejoin:round; stroke-width:4; stroke-opacity:1; fill:none" points="1971.54,334.254 2439.2,334.254 2439.2,159.294 1971.54,159.294 1971.54,334.254 "/>
<polyline clip-path="url(#clip160)" style="stroke:#b7286b; stroke-linecap:round; stroke-linejoin:round; stroke-width:9; stroke-opacity:1; fill:none" points="1996.06,217.614 2143.18,217.614 "/>
<path clip-path="url(#clip160)" d="M2192.72 199.45 L2192.72 204.58 Q2189.73 203.148 2187.07 202.444 Q2184.42 201.741 2181.94 201.741 Q2177.65 201.741 2175.3 203.408 Q2172.98 205.075 2172.98 208.148 Q2172.98 210.726 2174.52 212.054 Q2176.08 213.356 2180.41 214.163 L2183.58 214.814 Q2189.47 215.934 2192.26 218.772 Q2195.07 221.585 2195.07 226.324 Q2195.07 231.975 2191.27 234.892 Q2187.49 237.809 2180.17 237.809 Q2177.41 237.809 2174.29 237.184 Q2171.19 236.559 2167.85 235.335 L2167.85 229.918 Q2171.06 231.715 2174.13 232.627 Q2177.2 233.538 2180.17 233.538 Q2184.68 233.538 2187.13 231.767 Q2189.57 229.996 2189.57 226.715 Q2189.57 223.851 2187.8 222.236 Q2186.06 220.621 2182.05 219.814 L2178.84 219.189 Q2172.96 218.017 2170.33 215.517 Q2167.7 213.017 2167.7 208.564 Q2167.7 203.408 2171.32 200.439 Q2174.96 197.47 2181.34 197.47 Q2184.08 197.47 2186.92 197.965 Q2189.76 198.46 2192.72 199.45 Z" fill="#000000" fill-rule="nonzero" fill-opacity="1" /><path clip-path="url(#clip160)" d="M2213.3 237.054 L2198.45 198.174 L2203.95 198.174 L2216.27 230.908 L2228.61 198.174 L2234.08 198.174 L2219.26 237.054 L2213.3 237.054 Z" fill="#000000" fill-rule="nonzero" fill-opacity="1" /><path clip-path="url(#clip160)" d="M2239.76 198.174 L2247.59 198.174 L2257.52 224.632 L2267.49 198.174 L2275.33 198.174 L2275.33 237.054 L2270.2 237.054 L2270.2 202.913 L2260.17 229.58 L2254.89 229.58 L2244.86 202.913 L2244.86 237.054 L2239.76 237.054 L2239.76 198.174 Z" fill="#000000" fill-rule="nonzero" fill-opacity="1" /><path clip-path="url(#clip160)" d="M2297.07 196.585 Q2293.58 202.575 2291.89 208.434 Q2290.2 214.293 2290.2 220.309 Q2290.2 226.324 2291.89 232.236 Q2293.61 238.121 2297.07 244.085 L2292.91 244.085 Q2289 237.965 2287.05 232.054 Q2285.12 226.142 2285.12 220.309 Q2285.12 214.502 2287.05 208.616 Q2288.97 202.731 2292.91 196.585 L2297.07 196.585 Z" fill="#000000" fill-rule="nonzero" fill-opacity="1" /><path clip-path="url(#clip160)" d="M2318.3 218.59 Q2314.55 218.59 2312.38 220.595 Q2310.25 222.601 2310.25 226.116 Q2310.25 229.632 2312.38 231.637 Q2314.55 233.642 2318.3 233.642 Q2322.05 233.642 2324.21 231.637 Q2326.37 229.606 2326.37 226.116 Q2326.37 222.601 2324.21 220.595 Q2322.07 218.59 2318.3 218.59 M2313.04 216.351 Q2309.65 215.517 2307.75 213.2 Q2305.87 210.882 2305.87 207.549 Q2305.87 202.887 2309.18 200.179 Q2312.52 197.47 2318.3 197.47 Q2324.1 197.47 2327.41 200.179 Q2330.72 202.887 2330.72 207.549 Q2330.72 210.882 2328.82 213.2 Q2326.94 215.517 2323.58 216.351 Q2327.38 217.236 2329.49 219.814 Q2331.63 222.392 2331.63 226.116 Q2331.63 231.767 2328.17 234.788 Q2324.73 237.809 2318.3 237.809 Q2311.86 237.809 2308.4 234.788 Q2304.96 231.767 2304.96 226.116 Q2304.96 222.392 2307.1 219.814 Q2309.23 217.236 2313.04 216.351 M2311.11 208.043 Q2311.11 211.064 2312.98 212.757 Q2314.88 214.45 2318.3 214.45 Q2321.68 214.45 2323.58 212.757 Q2325.51 211.064 2325.51 208.043 Q2325.51 205.023 2323.58 203.33 Q2321.68 201.637 2318.3 201.637 Q2314.88 201.637 2312.98 203.33 Q2311.11 205.023 2311.11 208.043 Z" fill="#000000" fill-rule="nonzero" fill-opacity="1" /><path clip-path="url(#clip160)" d="M2352.23 201.637 Q2348.17 201.637 2346.11 205.648 Q2344.08 209.632 2344.08 217.653 Q2344.08 225.647 2346.11 229.658 Q2348.17 233.642 2352.23 233.642 Q2356.32 233.642 2358.35 229.658 Q2360.41 225.647 2360.41 217.653 Q2360.41 209.632 2358.35 205.648 Q2356.32 201.637 2352.23 201.637 M2352.23 197.47 Q2358.76 197.47 2362.2 202.653 Q2365.67 207.809 2365.67 217.653 Q2365.67 227.47 2362.2 232.653 Q2358.76 237.809 2352.23 237.809 Q2345.69 237.809 2342.23 232.653 Q2338.79 227.47 2338.79 217.653 Q2338.79 207.809 2342.23 202.653 Q2345.69 197.47 2352.23 197.47 Z" fill="#000000" fill-rule="nonzero" fill-opacity="1" /><path clip-path="url(#clip160)" d="M2373.48 196.585 L2377.64 196.585 Q2381.55 202.731 2383.48 208.616 Q2385.43 214.502 2385.43 220.309 Q2385.43 226.142 2383.48 232.054 Q2381.55 237.965 2377.64 244.085 L2373.48 244.085 Q2376.94 238.121 2378.63 232.236 Q2380.35 226.324 2380.35 220.309 Q2380.35 214.293 2378.63 208.434 Q2376.94 202.575 2373.48 196.585 Z" fill="#000000" fill-rule="nonzero" fill-opacity="1" /><polyline clip-path="url(#clip160)" style="stroke:#727784; stroke-linecap:round; stroke-linejoin:round; stroke-width:9; stroke-opacity:1; fill:none" stroke-dasharray="36, 23" points="1996.06,275.934 2143.18,275.934 "/>
<path clip-path="url(#clip160)" d="M2184.78 270.686 Q2183.97 270.217 2183.01 270.009 Q2182.07 269.775 2180.93 269.775 Q2176.86 269.775 2174.68 272.431 Q2172.52 275.061 2172.52 280.009 L2172.52 295.374 L2167.7 295.374 L2167.7 266.207 L2172.52 266.207 L2172.52 270.738 Q2174.03 268.082 2176.45 266.806 Q2178.87 265.504 2182.33 265.504 Q2182.83 265.504 2183.43 265.582 Q2184.03 265.634 2184.76 265.764 L2184.78 270.686 Z" fill="#000000" fill-rule="nonzero" fill-opacity="1" /><path clip-path="url(#clip160)" d="M2213.58 279.592 L2213.58 281.936 L2191.55 281.936 Q2191.86 286.884 2194.52 289.488 Q2197.2 292.066 2201.97 292.066 Q2204.73 292.066 2207.31 291.389 Q2209.91 290.712 2212.46 289.358 L2212.46 293.889 Q2209.89 294.983 2207.18 295.556 Q2204.47 296.129 2201.68 296.129 Q2194.7 296.129 2190.61 292.066 Q2186.55 288.004 2186.55 281.077 Q2186.55 273.915 2190.41 269.723 Q2194.29 265.504 2200.85 265.504 Q2206.73 265.504 2210.15 269.306 Q2213.58 273.082 2213.58 279.592 M2208.79 278.186 Q2208.74 274.254 2206.58 271.91 Q2204.44 269.566 2200.9 269.566 Q2196.89 269.566 2194.47 271.832 Q2192.07 274.098 2191.71 278.212 L2208.79 278.186 Z" fill="#000000" fill-rule="nonzero" fill-opacity="1" /><path clip-path="url(#clip160)" d="M2236.21 254.853 L2236.21 258.837 L2231.63 258.837 Q2229.05 258.837 2228.04 259.879 Q2227.05 260.921 2227.05 263.629 L2227.05 266.207 L2234.94 266.207 L2234.94 269.931 L2227.05 269.931 L2227.05 295.374 L2222.23 295.374 L2222.23 269.931 L2217.65 269.931 L2217.65 266.207 L2222.23 266.207 L2222.23 264.176 Q2222.23 259.306 2224.49 257.093 Q2226.76 254.853 2231.68 254.853 L2236.21 254.853 Z" fill="#000000" fill-rule="nonzero" fill-opacity="1" /><path clip-path="url(#clip160)" d="M2265.17 279.592 L2265.17 281.936 L2243.14 281.936 Q2243.45 286.884 2246.11 289.488 Q2248.79 292.066 2253.56 292.066 Q2256.32 292.066 2258.9 291.389 Q2261.5 290.712 2264.05 289.358 L2264.05 293.889 Q2261.47 294.983 2258.77 295.556 Q2256.06 296.129 2253.27 296.129 Q2246.29 296.129 2242.2 292.066 Q2238.14 288.004 2238.14 281.077 Q2238.14 273.915 2241.99 269.723 Q2245.87 265.504 2252.44 265.504 Q2258.32 265.504 2261.73 269.306 Q2265.17 273.082 2265.17 279.592 M2260.38 278.186 Q2260.33 274.254 2258.17 271.91 Q2256.03 269.566 2252.49 269.566 Q2248.48 269.566 2246.06 271.832 Q2243.66 274.098 2243.3 278.212 L2260.38 278.186 Z" fill="#000000" fill-rule="nonzero" fill-opacity="1" /><path clip-path="url(#clip160)" d="M2289.94 270.686 Q2289.13 270.217 2288.17 270.009 Q2287.23 269.775 2286.08 269.775 Q2282.02 269.775 2279.83 272.431 Q2277.67 275.061 2277.67 280.009 L2277.67 295.374 L2272.85 295.374 L2272.85 266.207 L2277.67 266.207 L2277.67 270.738 Q2279.18 268.082 2281.6 266.806 Q2284.03 265.504 2287.49 265.504 Q2287.98 265.504 2288.58 265.582 Q2289.18 265.634 2289.91 265.764 L2289.94 270.686 Z" fill="#000000" fill-rule="nonzero" fill-opacity="1" /><path clip-path="url(#clip160)" d="M2318.74 279.592 L2318.74 281.936 L2296.71 281.936 Q2297.02 286.884 2299.68 289.488 Q2302.36 292.066 2307.12 292.066 Q2309.88 292.066 2312.46 291.389 Q2315.07 290.712 2317.62 289.358 L2317.62 293.889 Q2315.04 294.983 2312.33 295.556 Q2309.62 296.129 2306.84 296.129 Q2299.86 296.129 2295.77 292.066 Q2291.71 288.004 2291.71 281.077 Q2291.71 273.915 2295.56 269.723 Q2299.44 265.504 2306 265.504 Q2311.89 265.504 2315.3 269.306 Q2318.74 273.082 2318.74 279.592 M2313.95 278.186 Q2313.9 274.254 2311.73 271.91 Q2309.6 269.566 2306.06 269.566 Q2302.05 269.566 2299.62 271.832 Q2297.23 274.098 2296.86 278.212 L2313.95 278.186 Z" fill="#000000" fill-rule="nonzero" fill-opacity="1" /><path clip-path="url(#clip160)" d="M2350.85 277.77 L2350.85 295.374 L2346.06 295.374 L2346.06 277.926 Q2346.06 273.785 2344.44 271.728 Q2342.83 269.671 2339.6 269.671 Q2335.72 269.671 2333.48 272.145 Q2331.24 274.619 2331.24 278.889 L2331.24 295.374 L2326.42 295.374 L2326.42 266.207 L2331.24 266.207 L2331.24 270.738 Q2332.96 268.108 2335.28 266.806 Q2337.62 265.504 2340.67 265.504 Q2345.69 265.504 2348.27 268.629 Q2350.85 271.728 2350.85 277.77 Z" fill="#000000" fill-rule="nonzero" fill-opacity="1" /><path clip-path="url(#clip160)" d="M2381.39 267.327 L2381.39 271.806 Q2379.36 270.686 2377.31 270.139 Q2375.28 269.566 2373.19 269.566 Q2368.53 269.566 2365.95 272.535 Q2363.37 275.478 2363.37 280.816 Q2363.37 286.155 2365.95 289.124 Q2368.53 292.066 2373.19 292.066 Q2375.28 292.066 2377.31 291.519 Q2379.36 290.947 2381.39 289.827 L2381.39 294.254 Q2379.39 295.191 2377.23 295.66 Q2375.09 296.129 2372.67 296.129 Q2366.08 296.129 2362.2 291.988 Q2358.32 287.848 2358.32 280.816 Q2358.32 273.681 2362.23 269.592 Q2366.16 265.504 2372.98 265.504 Q2375.2 265.504 2377.31 265.973 Q2379.42 266.415 2381.39 267.327 Z" fill="#000000" fill-rule="nonzero" fill-opacity="1" /><path clip-path="url(#clip160)" d="M2414.68 279.592 L2414.68 281.936 L2392.64 281.936 Q2392.96 286.884 2395.61 289.488 Q2398.3 292.066 2403.06 292.066 Q2405.82 292.066 2408.4 291.389 Q2411 290.712 2413.56 289.358 L2413.56 293.889 Q2410.98 294.983 2408.27 295.556 Q2405.56 296.129 2402.78 296.129 Q2395.8 296.129 2391.71 292.066 Q2387.64 288.004 2387.64 281.077 Q2387.64 273.915 2391.5 269.723 Q2395.38 265.504 2401.94 265.504 Q2407.83 265.504 2411.24 269.306 Q2414.68 273.082 2414.68 279.592 M2409.88 278.186 Q2409.83 274.254 2407.67 271.91 Q2405.54 269.566 2401.99 269.566 Q2397.98 269.566 2395.56 271.832 Q2393.17 274.098 2392.8 278.212 L2409.88 278.186 Z" fill="#000000" fill-rule="nonzero" fill-opacity="1" /></svg>
